# Blender v2.76 (sub 0) OBJ File: 'StoneModels.blend'
# www.blender.org
mtllib Sand4a.mtl
o Grid_Grid.025_Grid_Grid.014
v 0.125000 -1.000000 0.500000
v 0.125000 -1.000000 0.374997
v 0.000000 -1.000000 0.374997
v 0.250000 -0.150000 0.500000
v 0.250000 -0.150000 0.375000
v 0.375000 -0.050000 0.500000
v 0.375000 -0.050000 0.375000
v 0.500000 -0.000000 0.500000
v 0.500000 -0.050000 0.375000
v 0.125000 -1.000000 0.250000
v 0.000000 -1.000000 0.250000
v 0.250000 -0.150000 0.250000
v 0.375000 -0.150000 0.250000
v 0.500000 -0.150000 0.250000
v 0.125000 -1.000000 0.125000
v 0.000000 -1.000000 0.125000
v 0.250000 -1.000000 0.125000
v 0.375000 -1.000000 0.125000
v 0.500000 -1.000000 0.125000
v 0.000000 -1.000000 0.500000
v -0.375000 -1.000000 -0.000003
v -0.375000 -1.000000 -0.125003
v -0.500000 -1.000000 -0.125000
v -0.250000 -1.000000 -0.000000
v -0.250000 -1.000000 -0.125000
v -0.125000 -1.000000 -0.000000
v -0.125000 -1.000000 -0.125000
v -0.375000 -0.150000 -0.250003
v -0.500000 -0.150000 -0.250000
v -0.250000 -0.150000 -0.250000
v -0.125000 -1.000000 -0.250000
v -0.375000 -0.050000 -0.375003
v -0.500000 -0.050000 -0.375000
v -0.250000 -0.150000 -0.375003
v -0.125000 -1.000000 -0.375003
v -0.375000 -0.050000 -0.500000
v -0.500000 0.000000 -0.500000
v -0.250000 -0.150000 -0.500000
v -0.125000 -1.000000 -0.500000
v -0.500000 -1.000000 -0.000000
v 0.500000 -1.000000 -0.125000
v 0.375000 -1.000000 -0.125000
v 0.375000 -1.000000 -0.000000
v 0.500000 -0.150000 -0.250000
v 0.375000 -0.150000 -0.250000
v 0.500000 -0.050000 -0.375000
v 0.375000 -0.050000 -0.375000
v 0.500000 0.000000 -0.500000
v 0.375000 -0.050000 -0.500000
v 0.250000 -1.000000 -0.125000
v 0.250000 -1.000000 -0.000000
v 0.250000 -0.150000 -0.250000
v 0.250000 -0.150000 -0.375003
v 0.250000 -0.150000 -0.500000
v 0.125000 -1.000000 -0.125000
v 0.125000 -1.000000 -0.000000
v 0.125000 -1.000000 -0.250000
v 0.125000 -1.000000 -0.375003
v 0.125000 -1.000000 -0.500000
v 0.000000 -1.000000 -0.125000
v 0.000000 -1.000000 -0.000000
v 0.000000 -1.000000 -0.250000
v 0.000000 -1.000000 -0.375003
v 0.000000 -1.000000 -0.500000
v 0.500000 -1.000000 -0.000000
v -0.125000 -1.000000 0.374997
v -0.250000 -0.150000 0.374997
v -0.250000 -0.150000 0.500000
v -0.125000 -1.000000 0.250000
v -0.250000 -0.150000 0.250000
v -0.125000 -1.000000 0.125000
v -0.250000 -1.000000 0.125000
v -0.375000 -0.050000 0.374997
v -0.375000 -0.050000 0.500000
v -0.375000 -0.150000 0.249997
v -0.375000 -1.000000 0.124997
v -0.500000 -0.050000 0.375000
v -0.500000 -0.000000 0.500000
v -0.500000 -0.150000 0.250000
v -0.500000 -1.000000 0.125000
v -0.125000 -1.000000 0.500000
vt 0.771943 0.105527
vt 0.778123 0.131723
vt 0.749614 0.134583
vt 0.921292 0.013719
vt 0.929880 0.039448
vt 0.960749 0.004373
vt 0.964310 0.034248
vt 0.995979 0.002497
vt 0.994195 0.037732
vt 0.785453 0.162748
vt 0.749605 0.166842
vt 0.937203 0.061424
vt 0.959200 0.068692
vt 0.984952 0.077213
vt 0.796149 0.202741
vt 0.749584 0.207602
vt 0.836185 0.213394
vt 0.867269 0.220673
vt 0.893519 0.226787
vt 0.749616 0.107912
vt 0.634766 0.249066
vt 0.631814 0.277596
vt 0.605601 0.271336
vt 0.667050 0.249152
vt 0.662848 0.285013
vt 0.707838 0.249241
vt 0.702870 0.295822
vt 0.539070 0.429380
vt 0.513319 0.420721
vt 0.561065 0.436764
vt 0.713466 0.335925
vt 0.533786 0.463854
vt 0.503869 0.460220
vt 0.568297 0.458812
vt 0.720709 0.367067
vt 0.537208 0.493796
vt 0.501912 0.495504
vt 0.576776 0.484625
vt 0.726793 0.393375
vt 0.608070 0.248979
vt 0.893723 0.271611
vt 0.867408 0.277863
vt 0.864476 0.249252
vt 0.986180 0.421828
vt 0.960259 0.430499
vt 0.995685 0.461616
vt 0.965515 0.465228
vt 0.997627 0.497246
vt 0.961975 0.495414
vt 0.836262 0.285243
vt 0.832124 0.249301
vt 0.938113 0.437876
vt 0.930766 0.460038
vt 0.922129 0.485985
vt 0.796131 0.295955
vt 0.791281 0.249320
vt 0.785392 0.336087
vt 0.777996 0.367253
vt 0.771740 0.393601
vt 0.749493 0.291042
vt 0.749549 0.249301
vt 0.749423 0.331913
vt 0.749343 0.364304
vt 0.749249 0.391118
vt 0.891240 0.249176
vt 0.721113 0.131716
vt 0.569535 0.039443
vt 0.578126 0.013740
vt 0.713770 0.162723
vt 0.562209 0.061396
vt 0.703045 0.202686
vt 0.663039 0.213290
vt 0.535139 0.034234
vt 0.538709 0.004386
vt 0.540230 0.068648
vt 0.631994 0.220537
vt 0.505279 0.037701
vt 0.503512 0.002497
vt 0.514497 0.077150
vt 0.605781 0.226633
vt 0.727297 0.105535
vn -0.653600 0.756800 0.000000
vn 0.000000 1.000000 0.000000
vn -0.867300 0.497800 0.000000
vn -0.503500 0.864000 -0.000000
vn -0.542900 0.839800 -0.000000
vn 0.000000 0.928500 -0.371400
vn 0.000000 0.864000 -0.503500
vn 0.000000 0.839800 -0.542900
vn -0.914700 0.404200 0.000000
vn 0.000000 0.780900 -0.624700
vn 0.000000 0.497800 -0.867300
vn 0.000000 0.404200 -0.914700
vn -0.621600 0.783300 0.000000
vn 0.000000 0.145500 -0.989400
vn 0.000000 0.756800 -0.653600
vn 0.000000 0.783300 -0.621600
vn -0.371400 0.928500 -0.000000
vn -0.624700 0.780900 0.000000
vn -0.989400 0.145500 0.000000
vn 0.000000 0.756800 0.653700
vn 0.000000 0.756800 0.653600
vn -0.000000 0.783300 0.621600
vn 0.000000 0.497800 0.867300
vn -0.000000 0.404200 0.914700
vn 0.621600 0.783300 -0.000000
vn 0.653600 0.756800 -0.000000
vn 0.989400 0.145500 -0.000000
vn 0.000000 0.839800 0.542900
vn 0.000000 0.864000 0.503500
vn 0.914700 0.404200 0.000000
vn 0.867300 0.497800 0.000000
vn 0.624700 0.780900 0.000000
vn 0.542900 0.839800 0.000000
vn 0.503500 0.864000 0.000000
vn 0.371400 0.928500 0.000000
vn -0.000000 0.145500 0.989400
vn -0.000000 0.780900 0.624700
vn 0.000000 0.928500 0.371400
vn 0.000000 0.756800 -0.653700
usemtl None.001
s 1
f 1/1/1 2/2/1 3/3/2
f 4/4/3 5/5/3 2/2/1
f 6/6/4 7/7/5 5/5/3
f 8/8/6 9/9/7 7/7/8
f 2/2/1 10/10/1 11/11/2
f 5/5/3 12/12/9 10/10/1
f 7/7/10 13/13/11 12/12/12
f 9/9/7 14/14/11 13/13/11
f 10/10/1 15/15/13 16/16/2
f 12/12/14 17/17/15 15/15/16
f 13/13/11 18/18/15 17/17/15
f 14/14/11 19/19/15 18/18/15
f 20/20/2 1/1/1 3/3/2
f 1/1/1 4/4/3 2/2/1
f 4/4/3 6/6/4 5/5/3
f 6/6/4 8/8/17 7/7/5
f 3/3/2 2/2/1 11/11/2
f 2/2/1 5/5/3 10/10/1
f 5/5/3 7/7/18 12/12/9
f 7/7/8 9/9/7 13/13/11
f 11/11/2 10/10/1 16/16/2
f 10/10/1 12/12/19 15/15/13
f 12/12/12 13/13/11 17/17/15
f 13/13/11 14/14/11 18/18/15
f 21/21/2 22/22/20 23/23/21
f 24/24/2 25/25/21 22/22/20
f 26/26/2 27/27/22 25/25/21
f 22/22/20 28/28/23 29/29/23
f 25/25/21 30/30/24 28/28/23
f 27/27/25 31/31/26 30/30/27
f 28/28/23 32/32/28 33/33/29
f 30/30/30 34/34/31 32/32/32
f 31/31/26 35/35/26 34/34/31
f 32/32/33 36/36/34 37/37/35
f 34/34/31 38/38/31 36/36/34
f 35/35/26 39/39/26 38/38/31
f 40/40/2 21/21/2 23/23/21
f 21/21/2 24/24/2 22/22/20
f 24/24/2 26/26/2 25/25/21
f 23/23/21 22/22/20 29/29/23
f 22/22/20 25/25/21 28/28/23
f 25/25/21 27/27/22 30/30/36
f 29/29/23 28/28/23 33/33/29
f 28/28/23 30/30/24 32/32/37
f 30/30/30 31/31/26 34/34/31
f 33/33/29 32/32/28 37/37/38
f 32/32/33 34/34/31 36/36/34
f 34/34/31 35/35/26 38/38/31
f 41/41/21 42/42/21 43/43/2
f 44/44/23 45/45/23 42/42/21
f 46/46/29 47/47/28 45/45/23
f 48/48/17 49/49/4 47/47/5
f 42/42/21 50/50/21 51/51/2
f 45/45/23 52/52/24 50/50/21
f 47/47/18 53/53/3 52/52/9
f 49/49/4 54/54/3 53/53/3
f 50/50/21 55/55/22 56/56/2
f 52/52/19 57/57/1 55/55/13
f 53/53/3 58/58/1 57/57/1
f 54/54/3 59/59/1 58/58/1
f 55/55/2 60/60/2 61/61/2
f 57/57/1 62/62/2 60/60/2
f 58/58/1 63/63/2 62/62/2
f 59/59/1 64/64/2 63/63/2
f 65/65/2 41/41/21 43/43/2
f 41/41/21 44/44/23 42/42/21
f 44/44/23 46/46/29 45/45/23
f 46/46/29 48/48/38 47/47/28
f 43/43/2 42/42/21 51/51/2
f 42/42/21 45/45/23 50/50/21
f 45/45/23 47/47/37 52/52/24
f 47/47/5 49/49/4 53/53/3
f 51/51/2 50/50/21 56/56/2
f 50/50/21 52/52/36 55/55/22
f 52/52/9 53/53/3 57/57/1
f 53/53/3 54/54/3 58/58/1
f 56/56/2 55/55/2 61/61/2
f 55/55/13 57/57/1 60/60/2
f 57/57/1 58/58/1 62/62/2
f 58/58/1 59/59/1 63/63/2
f 66/66/26 67/67/31 68/68/31
f 69/69/26 70/70/30 67/67/31
f 71/71/16 72/72/15 70/70/14
f 67/67/31 73/73/33 74/74/34
f 70/70/12 75/75/11 73/73/10
f 72/72/39 76/76/15 75/75/11
f 73/73/8 77/77/7 78/78/6
f 75/75/11 79/79/11 77/77/7
f 76/76/15 80/80/39 79/79/11
f 81/81/26 66/66/26 68/68/31
f 66/66/26 69/69/26 67/67/31
f 69/69/26 71/71/25 70/70/27
f 68/68/31 67/67/31 74/74/34
f 67/67/31 70/70/30 73/73/32
f 70/70/12 72/72/39 75/75/11
f 74/74/34 73/73/33 78/78/35
f 73/73/8 75/75/11 77/77/7
f 75/75/11 76/76/15 79/79/11
f 15/15/2 56/56/2 61/61/2
f 17/17/15 51/51/2 56/56/2
f 18/18/15 43/43/2 51/51/2
f 19/19/15 65/65/2 43/43/2
f 16/16/2 15/15/2 61/61/2
f 15/15/16 17/17/15 56/56/2
f 17/17/15 18/18/15 51/51/2
f 18/18/15 19/19/15 43/43/2
f 61/61/2 60/60/2 27/27/2
f 60/60/2 62/62/2 31/31/26
f 62/62/2 63/63/2 35/35/26
f 63/63/2 64/64/2 39/39/26
f 26/26/2 61/61/2 27/27/2
f 27/27/25 60/60/2 31/31/26
f 31/31/26 62/62/2 35/35/26
f 35/35/26 63/63/2 39/39/26
f 3/3/2 66/66/26 81/81/26
f 11/11/2 69/69/26 66/66/26
f 16/16/2 71/71/25 69/69/26
f 61/61/2 26/26/2 71/71/2
f 26/26/2 24/24/2 72/72/15
f 24/24/2 21/21/2 76/76/15
f 21/21/2 40/40/2 80/80/39
f 20/20/2 3/3/2 81/81/26
f 3/3/2 11/11/2 66/66/26
f 11/11/2 16/16/2 69/69/26
f 16/16/2 61/61/2 71/71/2
f 71/71/16 26/26/2 72/72/15
f 72/72/39 24/24/2 76/76/15
f 76/76/15 21/21/2 80/80/39
