# Blender v2.82 (sub 7) OBJ File: 'StoneModels.blend'
# www.blender.org
mtllib Sand4e.mtl
o Grid_Grid.023_Grid_Grid.011
v 0.125000 -1.000000 0.500000
v 0.125000 -1.000000 0.374997
v 0.000000 -1.000000 0.374997
v 0.250000 -1.000000 0.500000
v 0.250000 -1.000000 0.375000
v 0.375000 -1.000000 0.500000
v 0.375000 -1.000000 0.375000
v 0.500000 -1.000000 0.500000
v 0.500000 -1.000000 0.375000
v 0.125000 -1.000000 0.250000
v 0.000000 -1.000000 0.250000
v 0.250000 -1.000000 0.250000
v 0.375000 -1.000000 0.250000
v 0.500000 -1.000000 0.250000
v 0.125000 -1.000000 0.125000
v 0.000000 -1.000000 0.125000
v 0.250000 -1.000000 0.125000
v 0.375000 -1.000000 0.125000
v 0.500000 -1.000000 0.125000
v 0.000000 -1.000000 0.500000
v -0.375000 -1.000000 -0.000003
v -0.375000 -1.000000 -0.125003
v -0.500000 -1.000000 -0.125000
v -0.250000 -1.000000 -0.000000
v -0.250000 -1.000000 -0.125000
v -0.125000 -1.000000 -0.000000
v -0.125000 -1.000000 -0.125000
v -0.375000 -1.000000 -0.250003
v -0.500000 -1.000000 -0.250000
v -0.250000 -1.000000 -0.250000
v -0.125000 -1.000000 -0.250000
v -0.375000 -1.000000 -0.375003
v -0.500000 -1.000000 -0.375000
v -0.250000 -1.000000 -0.375003
v -0.125000 -1.000000 -0.375003
v -0.375000 -1.000000 -0.500000
v -0.500000 -1.000000 -0.500000
v -0.250000 -1.000000 -0.500000
v -0.125000 -1.000000 -0.500000
v -0.500000 -1.000000 -0.000000
v 0.500000 -1.000000 -0.125000
v 0.375000 -1.000000 -0.125000
v 0.375000 -1.000000 -0.000000
v 0.500000 -1.000000 -0.250000
v 0.375000 -1.000000 -0.250000
v 0.500000 -1.000000 -0.375000
v 0.375000 -1.000000 -0.375000
v 0.500000 -1.000000 -0.500000
v 0.375000 -1.000000 -0.500000
v 0.250000 -1.000000 -0.125000
v 0.250000 -1.000000 -0.000000
v 0.250000 -1.000000 -0.250000
v 0.250000 -1.000000 -0.375003
v 0.250000 -1.000000 -0.500000
v 0.125000 -1.000000 -0.125000
v 0.125000 -1.000000 -0.000000
v 0.125000 -1.000000 -0.250000
v 0.125000 -1.000000 -0.375003
v 0.125000 -1.000000 -0.500000
v 0.000000 -1.000000 -0.125000
v 0.000000 -1.000000 -0.000000
v 0.000000 -1.000000 -0.250000
v 0.000000 -1.000000 -0.375003
v 0.000000 -1.000000 -0.500000
v 0.500000 -1.000000 -0.000000
v -0.125000 -1.000000 0.374997
v -0.250000 -0.150000 0.374997
v -0.250000 -0.150000 0.500000
v -0.125000 -1.000000 0.250000
v -0.250000 -0.150000 0.250000
v -0.125000 -1.000000 0.125000
v -0.250000 -1.000000 0.125000
v -0.375000 -0.050000 0.374997
v -0.375000 -0.050000 0.500000
v -0.375000 -0.150000 0.249997
v -0.375000 -1.000000 0.124997
v -0.500000 -0.050000 0.375000
v -0.500000 -0.000000 0.500000
v -0.500000 -0.150000 0.250000
v -0.500000 -1.000000 0.125000
v -0.125000 -1.000000 0.500000
vt 0.748047 0.358398
vt 0.748047 0.321289
vt 0.710938 0.321289
vt 0.785156 0.358398
vt 0.785156 0.321289
vt 0.822266 0.358398
vt 0.822266 0.321289
vt 0.858398 0.358398
vt 0.858398 0.321289
vt 0.748047 0.284180
vt 0.710938 0.284180
vt 0.785156 0.284180
vt 0.822266 0.284180
vt 0.858398 0.284180
vt 0.748047 0.247070
vt 0.710938 0.247070
vt 0.785156 0.247070
vt 0.822266 0.247070
vt 0.858398 0.247070
vt 0.710938 0.358398
vt 0.599609 0.209961
vt 0.599609 0.172852
vt 0.562500 0.172852
vt 0.636719 0.209961
vt 0.636719 0.172852
vt 0.673828 0.209961
vt 0.673828 0.172852
vt 0.599609 0.135742
vt 0.562500 0.135742
vt 0.636719 0.135742
vt 0.673828 0.135742
vt 0.599609 0.098633
vt 0.562500 0.098633
vt 0.636719 0.098633
vt 0.673828 0.098633
vt 0.599609 0.061523
vt 0.562500 0.061523
vt 0.636719 0.061523
vt 0.673828 0.061523
vt 0.562500 0.209961
vt 0.858398 0.172852
vt 0.822266 0.172852
vt 0.822266 0.209961
vt 0.858398 0.135742
vt 0.822266 0.135742
vt 0.858398 0.098633
vt 0.822266 0.098633
vt 0.858398 0.061523
vt 0.822266 0.061523
vt 0.785156 0.172852
vt 0.785156 0.209961
vt 0.785156 0.135742
vt 0.785156 0.098633
vt 0.785156 0.061523
vt 0.748047 0.172852
vt 0.748047 0.209961
vt 0.748047 0.135742
vt 0.748047 0.098633
vt 0.748047 0.061523
vt 0.710938 0.172852
vt 0.710938 0.209961
vt 0.710938 0.135742
vt 0.710938 0.098633
vt 0.710938 0.061523
vt 0.858398 0.209961
vt 0.684570 0.321289
vt 0.936523 0.321289
vt 0.936523 0.358398
vt 0.684570 0.284180
vt 0.936523 0.284180
vt 0.673828 0.183594
vt 0.636719 0.183594
vt 0.636719 0.435547
vt 0.636719 0.321289
vt 0.599609 0.321289
vt 0.599609 0.358398
vt 0.636719 0.284180
vt 0.599609 0.284180
vt 0.599609 0.183594
vt 0.599609 0.435547
vt 0.562500 0.321289
vt 0.562500 0.358398
vt 0.562500 0.284180
vt 0.562500 0.183594
vt 0.562500 0.435547
vt 0.684570 0.358398
vt 0.684570 0.247070
vt 0.636719 0.358398
vt 0.673828 0.321289
vt 0.673828 0.358398
vt 0.673828 0.284180
vt 0.673828 0.247070
vt 0.636719 0.247070
vt 0.599609 0.247070
vt 0.562500 0.247070
vn 0.0000 1.0000 0.0000
vn 0.6536 0.7568 0.0000
vn 0.8673 0.4978 0.0000
vn 0.9147 0.4042 0.0000
vn -0.0000 0.7833 -0.6216
vn -0.0000 0.7568 -0.6536
vn -0.0000 0.1455 -0.9894
vn 0.5429 0.8398 -0.0000
vn 0.5035 0.8640 -0.0000
vn 0.0000 0.4042 -0.9147
vn 0.0000 0.4978 -0.8673
vn 0.0000 0.7809 -0.6247
vn 0.0000 0.7568 -0.6537
vn -0.0000 0.8398 -0.5429
vn -0.0000 0.8640 -0.5035
vn -0.0000 0.9285 -0.3714
vn 0.6216 0.7833 0.0000
vn 0.9894 0.1455 0.0000
vn 0.6247 0.7809 0.0000
vn 0.3714 0.9285 -0.0000
g Grid_Grid.023_Grid_Grid.011_None.001
usemtl None.001
s 1
f 1/1/1 2/2/1 3/3/1
f 4/4/1 5/5/1 2/2/1
f 6/6/1 7/7/1 5/5/1
f 8/8/1 9/9/1 7/7/1
f 2/2/1 10/10/1 11/11/1
f 5/5/1 12/12/1 10/10/1
f 7/7/1 13/13/1 12/12/1
f 9/9/1 14/14/1 13/13/1
f 10/10/1 15/15/1 16/16/1
f 12/12/1 17/17/1 15/15/1
f 13/13/1 18/18/1 17/17/1
f 14/14/1 19/19/1 18/18/1
f 20/20/1 1/1/1 3/3/1
f 1/1/1 4/4/1 2/2/1
f 4/4/1 6/6/1 5/5/1
f 6/6/1 8/8/1 7/7/1
f 3/3/1 2/2/1 11/11/1
f 2/2/1 5/5/1 10/10/1
f 5/5/1 7/7/1 12/12/1
f 7/7/1 9/9/1 13/13/1
f 11/11/1 10/10/1 16/16/1
f 10/10/1 12/12/1 15/15/1
f 12/12/1 13/13/1 17/17/1
f 13/13/1 14/14/1 18/18/1
f 21/21/1 22/22/1 23/23/1
f 24/24/1 25/25/1 22/22/1
f 26/26/1 27/27/1 25/25/1
f 22/22/1 28/28/1 29/29/1
f 25/25/1 30/30/1 28/28/1
f 27/27/1 31/31/1 30/30/1
f 28/28/1 32/32/1 33/33/1
f 30/30/1 34/34/1 32/32/1
f 31/31/1 35/35/1 34/34/1
f 32/32/1 36/36/1 37/37/1
f 34/34/1 38/38/1 36/36/1
f 35/35/1 39/39/1 38/38/1
f 40/40/1 21/21/1 23/23/1
f 21/21/1 24/24/1 22/22/1
f 24/24/1 26/26/1 25/25/1
f 23/23/1 22/22/1 29/29/1
f 22/22/1 25/25/1 28/28/1
f 25/25/1 27/27/1 30/30/1
f 29/29/1 28/28/1 33/33/1
f 28/28/1 30/30/1 32/32/1
f 30/30/1 31/31/1 34/34/1
f 33/33/1 32/32/1 37/37/1
f 32/32/1 34/34/1 36/36/1
f 34/34/1 35/35/1 38/38/1
f 41/41/1 42/42/1 43/43/1
f 44/44/1 45/45/1 42/42/1
f 46/46/1 47/47/1 45/45/1
f 48/48/1 49/49/1 47/47/1
f 42/42/1 50/50/1 51/51/1
f 45/45/1 52/52/1 50/50/1
f 47/47/1 53/53/1 52/52/1
f 49/49/1 54/54/1 53/53/1
f 50/50/1 55/55/1 56/56/1
f 52/52/1 57/57/1 55/55/1
f 53/53/1 58/58/1 57/57/1
f 54/54/1 59/59/1 58/58/1
f 55/55/1 60/60/1 61/61/1
f 57/57/1 62/62/1 60/60/1
f 58/58/1 63/63/1 62/62/1
f 59/59/1 64/64/1 63/63/1
f 65/65/1 41/41/1 43/43/1
f 41/41/1 44/44/1 42/42/1
f 44/44/1 46/46/1 45/45/1
f 46/46/1 48/48/1 47/47/1
f 43/43/1 42/42/1 51/51/1
f 42/42/1 45/45/1 50/50/1
f 45/45/1 47/47/1 52/52/1
f 47/47/1 49/49/1 53/53/1
f 51/51/1 50/50/1 56/56/1
f 50/50/1 52/52/1 55/55/1
f 52/52/1 53/53/1 57/57/1
f 53/53/1 54/54/1 58/58/1
f 56/56/1 55/55/1 61/61/1
f 55/55/1 57/57/1 60/60/1
f 57/57/1 58/58/1 62/62/1
f 58/58/1 59/59/1 63/63/1
f 66/66/2 67/67/3 68/68/3
f 69/69/2 70/70/4 67/67/3
f 71/71/5 72/72/6 70/73/7
f 67/74/3 73/75/8 74/76/9
f 70/77/10 75/78/11 73/75/12
f 72/72/13 76/79/6 75/80/11
f 73/75/14 77/81/15 78/82/16
f 75/78/11 79/83/11 77/81/15
f 76/79/6 80/84/13 79/85/11
f 81/86/2 66/66/2 68/68/3
f 66/66/2 69/69/2 67/67/3
f 69/69/2 71/87/17 70/70/18
f 68/88/3 67/74/3 74/76/9
f 67/74/3 70/77/4 73/75/19
f 70/73/10 72/72/13 75/80/11
f 74/76/9 73/75/8 78/82/20
f 73/75/14 75/78/11 77/81/15
f 75/80/11 76/79/6 79/85/11
f 15/15/1 56/56/1 61/61/1
f 17/17/1 51/51/1 56/56/1
f 18/18/1 43/43/1 51/51/1
f 19/19/1 65/65/1 43/43/1
f 16/16/1 15/15/1 61/61/1
f 15/15/1 17/17/1 56/56/1
f 17/17/1 18/18/1 51/51/1
f 18/18/1 19/19/1 43/43/1
f 61/61/1 60/60/1 27/27/1
f 60/60/1 62/62/1 31/31/1
f 62/62/1 63/63/1 35/35/1
f 63/63/1 64/64/1 39/39/1
f 26/26/1 61/61/1 27/27/1
f 27/27/1 60/60/1 31/31/1
f 31/31/1 62/62/1 35/35/1
f 35/35/1 63/63/1 39/39/1
f 3/3/1 66/89/2 81/90/2
f 11/11/1 69/91/2 66/89/2
f 16/16/1 71/92/17 69/91/2
f 61/61/1 26/26/1 71/92/1
f 26/26/1 24/24/1 72/93/6
f 24/24/1 21/21/1 76/94/6
f 21/21/1 40/40/1 80/95/13
f 20/20/1 3/3/1 81/90/2
f 3/3/1 11/11/1 66/89/2
f 11/11/1 16/16/1 69/91/2
f 16/16/1 61/61/1 71/92/1
f 71/92/5 26/26/1 72/93/6
f 72/93/13 24/24/1 76/94/6
f 76/94/6 21/21/1 80/95/13
