# Blender v2.76 (sub 0) OBJ File: 'StoneModels.blend'
# www.blender.org
mtllib Sand4d.mtl
o Grid_Grid.024_Grid_Grid.012
v 0.125000 -1.000000 0.500000
v 0.125000 -1.000000 0.374997
v 0.000000 -1.000000 0.374997
v 0.250000 -1.000000 0.500000
v 0.250000 -1.000000 0.375000
v 0.375000 -1.000000 0.500000
v 0.375000 -1.000000 0.375000
v 0.500000 -1.000000 0.500000
v 0.500000 -1.000000 0.375000
v 0.125000 -1.000000 0.250000
v 0.000000 -1.000000 0.250000
v 0.250000 -1.000000 0.250000
v 0.375000 -1.000000 0.250000
v 0.500000 -1.000000 0.250000
v 0.125000 -1.000000 0.125000
v 0.000000 -1.000000 0.125000
v 0.250000 -1.000000 0.125000
v 0.375000 -1.000000 0.125000
v 0.500000 -1.000000 0.125000
v 0.000000 -1.000000 0.500000
v -0.375000 -1.000000 -0.000003
v -0.375000 -1.000000 -0.125003
v -0.500000 -1.000000 -0.125000
v -0.250000 -1.000000 -0.000000
v -0.250000 -1.000000 -0.125000
v -0.125000 -1.000000 -0.000000
v -0.125000 -1.000000 -0.125000
v -0.375000 -1.000000 -0.250003
v -0.500000 -1.000000 -0.250000
v -0.250000 -1.000000 -0.250000
v -0.125000 -1.000000 -0.250000
v -0.375000 -1.000000 -0.375003
v -0.500000 -1.000000 -0.375000
v -0.250000 -1.000000 -0.375003
v -0.125000 -1.000000 -0.375003
v -0.375000 -1.000000 -0.500000
v -0.500000 -1.000000 -0.500000
v -0.250000 -1.000000 -0.500000
v -0.125000 -1.000000 -0.500000
v -0.500000 -1.000000 -0.000000
v 0.500000 -1.000000 -0.125000
v 0.375000 -1.000000 -0.125000
v 0.375000 -1.000000 -0.000000
v 0.500000 -0.150000 -0.250000
v 0.375000 -0.150000 -0.250000
v 0.500000 -0.050000 -0.375000
v 0.375000 -0.050000 -0.375000
v 0.500000 0.000000 -0.500000
v 0.375000 -0.050000 -0.500000
v 0.250000 -1.000000 -0.125000
v 0.250000 -1.000000 -0.000000
v 0.250000 -0.150000 -0.250000
v 0.250000 -0.150000 -0.375003
v 0.250000 -0.150000 -0.500000
v 0.125000 -1.000000 -0.125000
v 0.125000 -1.000000 -0.000000
v 0.125000 -1.000000 -0.250000
v 0.125000 -1.000000 -0.375003
v 0.125000 -1.000000 -0.500000
v 0.000000 -1.000000 -0.125000
v 0.000000 -1.000000 -0.000000
v 0.000000 -1.000000 -0.250000
v 0.000000 -1.000000 -0.375003
v 0.000000 -1.000000 -0.500000
v 0.500000 -1.000000 -0.000000
v -0.125000 -1.000000 0.374997
v -0.250000 -0.150000 0.374997
v -0.250000 -0.150000 0.500000
v -0.125000 -1.000000 0.250000
v -0.250000 -0.150000 0.250000
v -0.125000 -1.000000 0.125000
v -0.250000 -1.000000 0.125000
v -0.375000 -0.050000 0.374997
v -0.375000 -0.050000 0.500000
v -0.375000 -0.150000 0.249997
v -0.375000 -1.000000 0.124997
v -0.500000 -0.050000 0.375000
v -0.500000 -0.000000 0.500000
v -0.500000 -0.150000 0.250000
v -0.500000 -1.000000 0.125000
v -0.125000 -1.000000 0.500000
vt 0.743790 0.159639
vt 0.748533 0.178773
vt 0.728036 0.183384
vt 0.761506 0.154564
vt 0.767642 0.172552
vt 0.778514 0.148215
vt 0.785485 0.165314
vt 0.795095 0.141141
vt 0.802295 0.157668
vt 0.754680 0.199502
vt 0.732220 0.205961
vt 0.775045 0.191554
vt 0.793484 0.182831
vt 0.810306 0.173965
vt 0.763018 0.221743
vt 0.738845 0.231287
vt 0.784373 0.211328
vt 0.803101 0.200489
vt 0.819710 0.189832
vt 0.725154 0.162926
vt 0.684035 0.293553
vt 0.695719 0.311023
vt 0.679092 0.321628
vt 0.702625 0.280067
vt 0.714460 0.300225
vt 0.724877 0.266268
vt 0.735832 0.289839
vt 0.705292 0.328705
vt 0.688442 0.337523
vt 0.723757 0.320022
vt 0.744149 0.312105
vt 0.713249 0.346254
vt 0.696405 0.353854
vt 0.731126 0.339057
vt 0.750272 0.332871
vt 0.720176 0.363389
vt 0.703559 0.370417
vt 0.737223 0.357085
vt 0.754984 0.352049
vt 0.667847 0.306398
vt 0.844093 0.219586
vt 0.829030 0.234872
vt 0.814835 0.217945
vt 0.963946 0.301280
vt 0.947287 0.316320
vt 0.984112 0.328246
vt 0.962506 0.340764
vt 0.997102 0.354546
vt 0.969583 0.364712
vt 0.811953 0.251595
vt 0.796247 0.231476
vt 0.933106 0.329046
vt 0.934644 0.348039
vt 0.936389 0.370418
vt 0.790006 0.271985
vt 0.773993 0.245306
vt 0.791891 0.301883
vt 0.792771 0.325775
vt 0.793182 0.347238
vt 0.760023 0.280309
vt 0.749434 0.255792
vt 0.766642 0.305666
vt 0.770813 0.328285
vt 0.773673 0.348795
vt 0.831017 0.205043
vt 0.706129 0.185910
vt 0.564647 0.163666
vt 0.562915 0.141359
vt 0.707012 0.209752
vt 0.566169 0.182599
vt 0.708888 0.239604
vt 0.686962 0.259951
vt 0.536878 0.170900
vt 0.529844 0.147038
vt 0.552021 0.195274
vt 0.669894 0.276626
vt 0.515340 0.183348
vt 0.502437 0.157142
vt 0.535397 0.210249
vt 0.654839 0.291854
vt 0.705709 0.164502
vn 0.000000 1.000000 0.000000
vn 0.000000 0.756800 0.653600
vn 0.000000 0.497800 0.867300
vn -0.000000 0.864000 0.503500
vn 0.000000 0.839800 0.542900
vn -0.371400 0.928500 0.000000
vn -0.503500 0.864000 0.000000
vn -0.542900 0.839800 0.000000
vn 0.000000 0.404200 0.914700
vn -0.624700 0.780900 0.000000
vn -0.867300 0.497800 0.000000
vn -0.914700 0.404200 0.000000
vn 0.000000 0.783300 0.621600
vn -0.989400 0.145500 0.000000
vn -0.653600 0.756800 0.000000
vn -0.621600 0.783300 0.000000
vn -0.000000 0.928500 0.371400
vn 0.000000 0.780900 0.624700
vn 0.000000 0.145500 0.989400
vn 0.653600 0.756800 0.000000
vn 0.867300 0.497800 0.000000
vn 0.914700 0.404200 0.000000
vn -0.000000 0.783300 -0.621600
vn -0.000000 0.756800 -0.653600
vn -0.000000 0.145500 -0.989400
vn 0.542900 0.839800 -0.000000
vn 0.503500 0.864000 -0.000000
vn 0.000000 0.404200 -0.914700
vn 0.000000 0.497800 -0.867300
vn 0.000000 0.780900 -0.624700
vn 0.000000 0.756800 -0.653700
vn -0.000000 0.839800 -0.542900
vn -0.000000 0.864000 -0.503500
vn -0.000000 0.928500 -0.371400
vn 0.621600 0.783300 0.000000
vn 0.989400 0.145500 0.000000
vn 0.624700 0.780900 0.000000
vn 0.371400 0.928500 -0.000000
usemtl None.001
s 1
f 1/1/1 2/2/1 3/3/1
f 4/4/1 5/5/1 2/2/1
f 6/6/1 7/7/1 5/5/1
f 8/8/1 9/9/1 7/7/1
f 2/2/1 10/10/1 11/11/1
f 5/5/1 12/12/1 10/10/1
f 7/7/1 13/13/1 12/12/1
f 9/9/1 14/14/1 13/13/1
f 10/10/1 15/15/1 16/16/1
f 12/12/1 17/17/1 15/15/1
f 13/13/1 18/18/1 17/17/1
f 14/14/1 19/19/1 18/18/1
f 20/20/1 1/1/1 3/3/1
f 1/1/1 4/4/1 2/2/1
f 4/4/1 6/6/1 5/5/1
f 6/6/1 8/8/1 7/7/1
f 3/3/1 2/2/1 11/11/1
f 2/2/1 5/5/1 10/10/1
f 5/5/1 7/7/1 12/12/1
f 7/7/1 9/9/1 13/13/1
f 11/11/1 10/10/1 16/16/1
f 10/10/1 12/12/1 15/15/1
f 12/12/1 13/13/1 17/17/1
f 13/13/1 14/14/1 18/18/1
f 21/21/1 22/22/1 23/23/1
f 24/24/1 25/25/1 22/22/1
f 26/26/1 27/27/1 25/25/1
f 22/22/1 28/28/1 29/29/1
f 25/25/1 30/30/1 28/28/1
f 27/27/1 31/31/1 30/30/1
f 28/28/1 32/32/1 33/33/1
f 30/30/1 34/34/1 32/32/1
f 31/31/1 35/35/1 34/34/1
f 32/32/1 36/36/1 37/37/1
f 34/34/1 38/38/1 36/36/1
f 35/35/1 39/39/1 38/38/1
f 40/40/1 21/21/1 23/23/1
f 21/21/1 24/24/1 22/22/1
f 24/24/1 26/26/1 25/25/1
f 23/23/1 22/22/1 29/29/1
f 22/22/1 25/25/1 28/28/1
f 25/25/1 27/27/1 30/30/1
f 29/29/1 28/28/1 33/33/1
f 28/28/1 30/30/1 32/32/1
f 30/30/1 31/31/1 34/34/1
f 33/33/1 32/32/1 37/37/1
f 32/32/1 34/34/1 36/36/1
f 34/34/1 35/35/1 38/38/1
f 41/41/2 42/42/2 43/43/1
f 44/44/3 45/45/3 42/42/2
f 46/46/4 47/47/5 45/45/3
f 48/48/6 49/49/7 47/47/8
f 42/42/2 50/50/2 51/51/1
f 45/45/3 52/52/9 50/50/2
f 47/47/10 53/53/11 52/52/12
f 49/49/7 54/54/11 53/53/11
f 50/50/2 55/55/13 56/56/1
f 52/52/14 57/57/15 55/55/16
f 53/53/11 58/58/15 57/57/15
f 54/54/11 59/59/15 58/58/15
f 55/55/1 60/60/1 61/61/1
f 57/57/15 62/62/1 60/60/1
f 58/58/15 63/63/1 62/62/1
f 59/59/15 64/64/1 63/63/1
f 65/65/1 41/41/2 43/43/1
f 41/41/2 44/44/3 42/42/2
f 44/44/3 46/46/4 45/45/3
f 46/46/4 48/48/17 47/47/5
f 43/43/1 42/42/2 51/51/1
f 42/42/2 45/45/3 50/50/2
f 45/45/3 47/47/18 52/52/9
f 47/47/8 49/49/7 53/53/11
f 51/51/1 50/50/2 56/56/1
f 50/50/2 52/52/19 55/55/13
f 52/52/12 53/53/11 57/57/15
f 53/53/11 54/54/11 58/58/15
f 56/56/1 55/55/1 61/61/1
f 55/55/16 57/57/15 60/60/1
f 57/57/15 58/58/15 62/62/1
f 58/58/15 59/59/15 63/63/1
f 66/66/20 67/67/21 68/68/21
f 69/69/20 70/70/22 67/67/21
f 71/71/23 72/72/24 70/70/25
f 67/67/21 73/73/26 74/74/27
f 70/70/28 75/75/29 73/73/30
f 72/72/31 76/76/24 75/75/29
f 73/73/32 77/77/33 78/78/34
f 75/75/29 79/79/29 77/77/33
f 76/76/24 80/80/31 79/79/29
f 81/81/20 66/66/20 68/68/21
f 66/66/20 69/69/20 67/67/21
f 69/69/20 71/71/35 70/70/36
f 68/68/21 67/67/21 74/74/27
f 67/67/21 70/70/22 73/73/37
f 70/70/28 72/72/31 75/75/29
f 74/74/27 73/73/26 78/78/38
f 73/73/32 75/75/29 77/77/33
f 75/75/29 76/76/24 79/79/29
f 15/15/1 56/56/1 61/61/1
f 17/17/1 51/51/1 56/56/1
f 18/18/1 43/43/1 51/51/1
f 19/19/1 65/65/1 43/43/1
f 16/16/1 15/15/1 61/61/1
f 15/15/1 17/17/1 56/56/1
f 17/17/1 18/18/1 51/51/1
f 18/18/1 19/19/1 43/43/1
f 61/61/1 60/60/1 27/27/1
f 60/60/1 62/62/1 31/31/1
f 62/62/1 63/63/1 35/35/1
f 63/63/1 64/64/1 39/39/1
f 26/26/1 61/61/1 27/27/1
f 27/27/1 60/60/1 31/31/1
f 31/31/1 62/62/1 35/35/1
f 35/35/1 63/63/1 39/39/1
f 3/3/1 66/66/20 81/81/20
f 11/11/1 69/69/20 66/66/20
f 16/16/1 71/71/35 69/69/20
f 61/61/1 26/26/1 71/71/1
f 26/26/1 24/24/1 72/72/24
f 24/24/1 21/21/1 76/76/24
f 21/21/1 40/40/1 80/80/31
f 20/20/1 3/3/1 81/81/20
f 3/3/1 11/11/1 66/66/20
f 11/11/1 16/16/1 69/69/20
f 16/16/1 61/61/1 71/71/1
f 71/71/23 26/26/1 72/72/24
f 72/72/31 24/24/1 76/76/24
f 76/76/24 21/21/1 80/80/31
