# Blender v2.76 (sub 0) OBJ File: 'StoneModels.blend'
# www.blender.org
mtllib Sand1a.mtl
o Grid_Grid.008_Grid_Grid.007
v -0.500000 -0.000000 0.125000
v -0.375000 -0.050000 0.125000
v -0.375000 -0.050000 0.000000
v -0.500000 -0.000000 0.250000
v -0.375000 -0.050000 0.250000
v -0.500000 -0.000000 0.375000
v -0.375000 -0.050000 0.375000
v -0.500000 -0.000000 0.500000
v -0.375000 -0.000000 0.500000
v -0.250000 -0.150000 0.125000
v -0.250000 -0.150000 0.000000
v -0.250000 -0.150000 0.250000
v -0.250000 -0.050000 0.375000
v -0.250000 -0.000000 0.500000
v -0.125000 -1.000000 0.125000
v -0.125000 -1.000000 0.000000
v -0.125000 -0.150000 0.250000
v -0.125000 -0.050000 0.375000
v -0.125000 -0.000000 0.500000
v -0.500000 -0.000000 0.000000
v -0.000000 -0.050000 -0.375000
v 0.125000 -0.050000 -0.375000
v 0.125000 0.000000 -0.500000
v 0.000000 -0.150000 -0.250000
v 0.125000 -0.150000 -0.250000
v 0.000000 -1.000000 -0.125000
v 0.125000 -1.000000 -0.125000
v 0.250000 -0.050000 -0.375000
v 0.250000 0.000000 -0.500000
v 0.250000 -0.150000 -0.250000
v 0.250000 -1.000000 -0.125000
v 0.375000 -0.050000 -0.375000
v 0.375000 0.000000 -0.500000
v 0.375000 -0.150000 -0.250000
v 0.375000 -1.000000 -0.125000
v 0.500000 -0.050000 -0.375000
v 0.500000 0.000000 -0.500000
v 0.500000 -0.150000 -0.250000
v 0.500000 -1.000000 -0.125000
v -0.000000 0.000000 -0.500000
v 0.125000 0.000000 0.500000
v 0.125000 -0.050000 0.375000
v 0.000000 -0.050000 0.375000
v 0.250000 0.000000 0.500000
v 0.250000 -0.050000 0.375000
v 0.375000 0.000000 0.500000
v 0.375000 -0.050000 0.375000
v 0.500000 0.000000 0.500000
v 0.500000 -0.050000 0.375000
v 0.125000 -0.150000 0.250000
v 0.000000 -0.150000 0.250000
v 0.250000 -0.150000 0.250000
v 0.375000 -0.150000 0.250000
v 0.500000 -0.150000 0.250000
v 0.125000 -1.000000 0.125000
v 0.000000 -1.000000 0.125000
v 0.250000 -1.000000 0.125000
v 0.375000 -1.000000 0.125000
v 0.500000 -1.000000 0.125000
v 0.125000 -1.000000 -0.000000
v 0.000000 -1.000000 -0.000000
v 0.250000 -1.000000 -0.000000
v 0.375000 -1.000000 -0.000000
v 0.500000 -1.000000 -0.000000
v 0.000000 0.000000 0.500000
v -0.375000 -0.050000 -0.125000
v -0.375000 -0.050000 -0.250000
v -0.500000 -0.000000 -0.250000
v -0.250000 -0.150000 -0.125000
v -0.250000 -0.150000 -0.250000
v -0.125000 -1.000000 -0.125000
v -0.125000 -0.150000 -0.250000
v -0.375000 -0.050000 -0.375000
v -0.500000 -0.000000 -0.375000
v -0.250000 -0.050000 -0.375000
v -0.125000 -0.050000 -0.375000
v -0.375000 -0.000000 -0.500000
v -0.500000 -0.000000 -0.500000
v -0.250000 -0.000000 -0.500000
v -0.125000 -0.000000 -0.500000
v -0.500000 -0.000000 -0.125000
vt 0.775869 0.107208
vt 0.778170 0.137506
vt 0.749023 0.138472
vt 0.802440 0.104103
vt 0.808270 0.133863
vt 0.827329 0.098029
vt 0.836301 0.125946
vt 0.850595 0.089125
vt 0.861833 0.111321
vt 0.779598 0.177583
vt 0.749023 0.177419
vt 0.815911 0.177819
vt 0.851570 0.150687
vt 0.876255 0.132658
vt 0.759922 0.328969
vt 0.749023 0.329062
vt 0.843007 0.201728
vt 0.871151 0.173877
vt 0.893987 0.153365
vt 0.749023 0.108026
vt 0.606689 0.194763
vt 0.586349 0.214744
vt 0.564954 0.192958
vt 0.632912 0.221369
vt 0.611846 0.240781
vt 0.732286 0.341328
vt 0.726619 0.360635
vt 0.565868 0.234661
vt 0.544467 0.212586
vt 0.591483 0.260614
vt 0.720762 0.384889
vt 0.545234 0.254768
vt 0.523657 0.232473
vt 0.571172 0.280996
vt 0.713892 0.414216
vt 0.524398 0.275046
vt 0.502756 0.252590
vt 0.550422 0.301842
vt 0.704484 0.448949
vt 0.584846 0.173324
vt 0.933092 0.192959
vt 0.911698 0.214745
vt 0.891357 0.194763
vt 0.953580 0.212587
vt 0.932179 0.234663
vt 0.974389 0.232475
vt 0.952813 0.254769
vt 0.995291 0.252592
vt 0.973649 0.275048
vt 0.886200 0.240782
vt 0.865134 0.221370
vt 0.906563 0.260615
vt 0.926874 0.280998
vt 0.947624 0.301844
vt 0.771426 0.360636
vt 0.765759 0.341328
vt 0.777283 0.384890
vt 0.784152 0.414216
vt 0.793560 0.448950
vt 0.749022 0.363499
vt 0.749023 0.344469
vt 0.749022 0.388000
vt 0.749022 0.418193
vt 0.749022 0.455445
vt 0.913201 0.173325
vt 0.719876 0.137506
vt 0.689776 0.133862
vt 0.695606 0.104103
vt 0.718448 0.177582
vt 0.682135 0.177818
vt 0.738123 0.328969
vt 0.655039 0.201727
vt 0.661746 0.125946
vt 0.670717 0.098029
vt 0.646477 0.150686
vt 0.626895 0.173876
vt 0.636214 0.111320
vt 0.647452 0.089125
vt 0.621792 0.132657
vt 0.604059 0.153365
vt 0.722177 0.107208
vn 0.371400 0.928500 0.000000
vn 0.000000 0.928500 -0.371400
vn 0.624700 0.780900 -0.000000
vn -0.000000 0.780900 -0.624700
vn 0.989400 0.145500 -0.000000
vn 0.000000 0.145500 -0.989400
vn -0.000000 0.928500 0.371400
vn -0.000000 0.780900 0.624700
vn 0.000000 0.145500 0.989400
vn 0.000000 0.783300 0.621600
vn 0.000000 0.756800 0.653600
vn 0.000000 0.404200 0.914700
vn 0.000000 0.497800 0.867300
vn -0.000000 0.839800 0.542900
vn -0.000000 0.864000 0.503500
vn -0.000000 0.864000 -0.503500
vn -0.000000 0.839800 -0.542900
vn 0.000000 0.497800 -0.867300
vn 0.000000 0.404200 -0.914700
vn 0.000000 0.756800 -0.653600
vn 0.000000 0.783300 -0.621600
vn 0.000000 1.000000 0.000000
usemtl None.001
s 1
f 1/1/1 2/2/1 3/3/1
f 4/4/1 5/5/1 2/2/1
f 6/6/1 7/7/1 5/5/1
f 8/8/2 9/9/2 7/7/2
f 2/2/3 10/10/3 11/11/3
f 5/5/3 12/12/3 10/10/3
f 7/7/4 13/13/4 12/12/4
f 9/9/2 14/14/2 13/13/2
f 10/10/5 15/15/5 16/16/5
f 12/12/6 17/17/6 15/15/6
f 13/13/4 18/18/4 17/17/4
f 14/14/2 19/19/2 18/18/2
f 20/20/1 1/1/1 3/3/1
f 1/1/1 4/4/1 2/2/1
f 4/4/1 6/6/1 5/5/1
f 6/6/1 8/8/1 7/7/1
f 3/3/3 2/2/3 11/11/3
f 2/2/3 5/5/3 10/10/3
f 5/5/3 7/7/3 12/12/3
f 7/7/2 9/9/2 13/13/2
f 11/11/5 10/10/5 16/16/5
f 10/10/5 12/12/5 15/15/5
f 12/12/4 13/13/4 17/17/4
f 13/13/2 14/14/2 18/18/2
f 21/21/7 22/22/7 23/23/7
f 24/24/8 25/25/8 22/22/8
f 26/26/9 27/27/9 25/25/9
f 22/22/7 28/28/7 29/29/7
f 25/25/8 30/30/8 28/28/8
f 27/27/10 31/31/11 30/30/9
f 28/28/7 32/32/7 33/33/7
f 30/30/12 34/34/13 32/32/8
f 31/31/11 35/35/11 34/34/13
f 32/32/14 36/36/15 37/37/7
f 34/34/13 38/38/13 36/36/15
f 35/35/11 39/39/11 38/38/13
f 40/40/7 21/21/7 23/23/7
f 21/21/8 24/24/8 22/22/8
f 24/24/9 26/26/9 25/25/9
f 23/23/7 22/22/7 29/29/7
f 22/22/8 25/25/8 28/28/8
f 25/25/9 27/27/9 30/30/9
f 29/29/7 28/28/7 33/33/7
f 28/28/8 30/30/8 32/32/8
f 30/30/12 31/31/11 34/34/13
f 33/33/7 32/32/7 37/37/7
f 32/32/14 34/34/13 36/36/15
f 34/34/13 35/35/11 38/38/13
f 41/41/2 42/42/2 43/43/2
f 44/44/2 45/45/2 42/42/2
f 46/46/2 47/47/2 45/45/2
f 48/48/2 49/49/16 47/47/17
f 42/42/4 50/50/4 51/51/4
f 45/45/4 52/52/4 50/50/4
f 47/47/4 53/53/18 52/52/19
f 49/49/16 54/54/18 53/53/18
f 50/50/6 55/55/6 56/56/6
f 52/52/6 57/57/20 55/55/21
f 53/53/18 58/58/20 57/57/20
f 54/54/18 59/59/20 58/58/20
f 55/55/22 60/60/22 61/61/22
f 57/57/20 62/62/22 60/60/22
f 58/58/20 63/63/22 62/62/22
f 59/59/20 64/64/22 63/63/22
f 65/65/2 41/41/2 43/43/2
f 41/41/2 44/44/2 42/42/2
f 44/44/2 46/46/2 45/45/2
f 46/46/2 48/48/2 47/47/2
f 43/43/4 42/42/4 51/51/4
f 42/42/4 45/45/4 50/50/4
f 45/45/4 47/47/4 52/52/4
f 47/47/17 49/49/16 53/53/18
f 51/51/6 50/50/6 56/56/6
f 50/50/6 52/52/6 55/55/6
f 52/52/19 53/53/18 57/57/20
f 53/53/18 54/54/18 58/58/20
f 56/56/22 55/55/22 61/61/22
f 55/55/21 57/57/20 60/60/22
f 57/57/20 58/58/20 62/62/22
f 58/58/20 59/59/20 63/63/22
f 66/66/1 67/67/1 68/68/1
f 69/69/3 70/70/3 67/67/3
f 71/71/9 72/72/9 70/70/9
f 67/67/1 73/73/1 74/74/1
f 70/70/8 75/75/8 73/73/8
f 72/72/8 76/76/8 75/75/8
f 73/73/7 77/77/7 78/78/7
f 75/75/7 79/79/7 77/77/7
f 76/76/7 80/80/7 79/79/7
f 81/81/1 66/66/1 68/68/1
f 66/66/3 69/69/3 67/67/3
f 69/69/5 71/71/5 70/70/5
f 68/68/1 67/67/1 74/74/1
f 67/67/3 70/70/3 73/73/3
f 70/70/8 72/72/8 75/75/8
f 74/74/1 73/73/1 78/78/1
f 73/73/7 75/75/7 77/77/7
f 75/75/7 76/76/7 79/79/7
f 15/15/22 56/56/22 61/61/22
f 17/17/6 51/51/6 56/56/6
f 18/18/4 43/43/4 51/51/4
f 19/19/2 65/65/2 43/43/2
f 16/16/22 15/15/22 61/61/22
f 15/15/6 17/17/6 56/56/6
f 17/17/4 18/18/4 51/51/4
f 18/18/2 19/19/2 43/43/2
f 61/61/22 60/60/22 27/27/22
f 60/60/22 62/62/22 31/31/11
f 62/62/22 63/63/22 35/35/11
f 63/63/22 64/64/22 39/39/11
f 26/26/22 61/61/22 27/27/22
f 27/27/10 60/60/22 31/31/11
f 31/31/11 62/62/22 35/35/11
f 35/35/11 63/63/22 39/39/11
f 3/3/1 66/66/1 81/81/1
f 11/11/3 69/69/3 66/66/3
f 16/16/5 71/71/5 69/69/5
f 61/61/22 26/26/22 71/71/22
f 26/26/9 24/24/9 72/72/9
f 24/24/8 21/21/8 76/76/8
f 21/21/7 40/40/7 80/80/7
f 20/20/1 3/3/1 81/81/1
f 3/3/3 11/11/3 66/66/3
f 11/11/5 16/16/5 69/69/5
f 16/16/22 61/61/22 71/71/22
f 71/71/9 26/26/9 72/72/9
f 72/72/8 24/24/8 76/76/8
f 76/76/7 21/21/7 80/80/7
