# Blender v2.76 (sub 0) OBJ File: 'StoneModels.blend'
# www.blender.org
mtllib Sand3c.mtl
o Grid_Grid.001
v -0.125000 -1.000000 -0.500000
v -0.125000 -1.000000 -0.374997
v -0.000000 -1.000000 -0.374997
v -0.250000 -0.150000 -0.500000
v -0.250000 -0.150000 -0.375000
v -0.375000 -0.050000 -0.500000
v -0.375000 -0.050000 -0.375000
v -0.500000 -0.000000 -0.500000
v -0.500000 -0.000000 -0.375000
v -0.125000 -1.000000 -0.250000
v -0.000000 -1.000000 -0.250000
v -0.250000 -0.150000 -0.250000
v -0.375000 -0.050000 -0.250000
v -0.500000 -0.000000 -0.250000
v -0.125000 -1.000000 -0.125000
v -0.000000 -1.000000 -0.125000
v -0.250000 -0.150000 -0.125000
v -0.375000 -0.050000 -0.125000
v -0.500000 -0.000000 -0.125000
v -0.000000 -1.000000 -0.500000
v 0.375000 -1.000000 0.000003
v 0.375000 -1.000000 0.125003
v 0.500000 -1.000000 0.125000
v 0.250000 -1.000000 0.000000
v 0.250000 -1.000000 0.125000
v 0.125000 -1.000000 0.000000
v 0.125000 -1.000000 0.125000
v 0.375000 -1.000000 0.250003
v 0.500000 -1.000000 0.250000
v 0.250000 -1.000000 0.250000
v 0.125000 -1.000000 0.250000
v 0.375000 -1.000000 0.375003
v 0.500000 -1.000000 0.375000
v 0.250000 -1.000000 0.375003
v 0.125000 -1.000000 0.375003
v 0.375000 -1.000000 0.500000
v 0.500000 -1.000000 0.500000
v 0.250000 -1.000000 0.500000
v 0.125000 -1.000000 0.500000
v 0.500000 -1.000000 0.000000
v -0.500000 0.000000 0.125000
v -0.375000 -0.050000 0.125000
v -0.375000 -0.050000 0.000000
v -0.500000 0.000000 0.250000
v -0.375000 -0.050000 0.250000
v -0.500000 0.000000 0.375000
v -0.375000 -0.050000 0.375000
v -0.500000 0.000000 0.500000
v -0.375000 -0.050000 0.500000
v -0.250000 -0.150000 0.125000
v -0.250000 -0.150000 0.000000
v -0.250000 -0.150000 0.250000
v -0.250000 -0.150000 0.375003
v -0.250000 -0.150000 0.500000
v -0.125000 -1.000000 0.125000
v -0.125000 -1.000000 0.000000
v -0.125000 -1.000000 0.250000
v -0.125000 -1.000000 0.375003
v -0.125000 -1.000000 0.500000
v 0.000000 -1.000000 0.125000
v 0.000000 -1.000000 0.000000
v 0.000000 -1.000000 0.250000
v 0.000000 -1.000000 0.375003
v 0.000000 -1.000000 0.500000
v -0.500000 0.000000 0.000000
v 0.125000 -1.000000 -0.374997
v 0.250000 -1.000000 -0.374997
v 0.250000 -1.000000 -0.500000
v 0.125000 -1.000000 -0.250000
v 0.250000 -1.000000 -0.250000
v 0.125000 -1.000000 -0.125000
v 0.250000 -1.000000 -0.125000
v 0.375000 -1.000000 -0.374997
v 0.375000 -1.000000 -0.500000
v 0.375000 -1.000000 -0.249997
v 0.375000 -1.000000 -0.124997
v 0.500000 -1.000000 -0.375000
v 0.500000 -1.000000 -0.500000
v 0.500000 -1.000000 -0.250000
v 0.500000 -1.000000 -0.125000
v 0.125000 -1.000000 -0.500000
vt 0.889993 0.175863
vt 0.855133 0.175863
vt 0.855133 0.141003
vt 0.889994 0.415459
vt 0.855134 0.415459
vt 0.889994 0.460101
vt 0.855134 0.460101
vt 0.889994 0.497646
vt 0.855134 0.497646
vt 0.820274 0.175863
vt 0.820274 0.141003
vt 0.820274 0.415459
vt 0.820275 0.460101
vt 0.820275 0.497646
vt 0.785415 0.175863
vt 0.785415 0.141003
vt 0.785415 0.415459
vt 0.785415 0.460101
vt 0.785415 0.497646
vt 0.889993 0.141003
vt 0.750554 0.036424
vt 0.715695 0.036424
vt 0.715695 0.001565
vt 0.750555 0.071284
vt 0.715695 0.071284
vt 0.750555 0.106143
vt 0.715695 0.106143
vt 0.680835 0.036424
vt 0.680836 0.001565
vt 0.680836 0.071284
vt 0.680836 0.106143
vt 0.645975 0.036424
vt 0.645976 0.001564
vt 0.645975 0.071284
vt 0.645975 0.106143
vt 0.611117 0.036424
vt 0.611117 0.001564
vt 0.611116 0.071284
vt 0.611116 0.106143
vt 0.750555 0.001565
vt 0.715695 0.497646
vt 0.715695 0.460101
vt 0.750555 0.460101
vt 0.680835 0.497646
vt 0.680835 0.460101
vt 0.645975 0.497646
vt 0.645975 0.460101
vt 0.611116 0.497646
vt 0.611116 0.460101
vt 0.715695 0.415459
vt 0.750555 0.415459
vt 0.680835 0.415459
vt 0.645975 0.415459
vt 0.611116 0.415459
vt 0.715695 0.175863
vt 0.750555 0.175863
vt 0.680836 0.175863
vt 0.645975 0.175863
vt 0.611116 0.175863
vt 0.715695 0.141003
vt 0.750555 0.141003
vt 0.680836 0.141003
vt 0.645975 0.141003
vt 0.611116 0.141003
vt 0.750555 0.497646
vt 0.855133 0.106143
vt 0.855133 0.071284
vt 0.889993 0.071284
vt 0.820274 0.106143
vt 0.820274 0.071284
vt 0.785415 0.106143
vt 0.785415 0.071284
vt 0.855133 0.036424
vt 0.889993 0.036424
vt 0.820273 0.036424
vt 0.785414 0.036424
vt 0.855134 0.001565
vt 0.889993 0.001564
vt 0.820274 0.001565
vt 0.785414 0.001565
vt 0.889993 0.106143
vn 0.653600 0.756800 -0.000000
vn 0.000000 1.000000 -0.000000
vn 0.867300 0.497800 -0.000000
vn 0.503500 0.864000 -0.000000
vn 0.542900 0.839800 -0.000000
vn 0.371400 0.928500 -0.000000
vn 0.914700 0.404200 -0.000000
vn 0.624700 0.780900 0.000000
vn 0.621600 0.783300 0.000000
vn 0.989400 0.145500 -0.000000
usemtl None.001
s 1
f 1/1/1 2/2/1 3/3/2
f 4/4/3 5/5/3 2/2/1
f 6/6/4 7/7/5 5/5/3
f 8/8/6 9/9/6 7/7/6
f 2/2/1 10/10/1 11/11/2
f 5/5/3 12/12/7 10/10/1
f 7/7/8 13/13/8 12/12/8
f 9/9/6 14/14/6 13/13/6
f 10/10/1 15/15/9 16/16/2
f 12/12/10 17/17/10 15/15/10
f 13/13/8 18/18/8 17/17/8
f 14/14/6 19/19/6 18/18/6
f 20/20/2 1/1/1 3/3/2
f 1/1/1 4/4/3 2/2/1
f 4/4/3 6/6/4 5/5/3
f 6/6/4 8/8/6 7/7/5
f 3/3/2 2/2/1 11/11/2
f 2/2/1 5/5/3 10/10/1
f 5/5/3 7/7/8 12/12/7
f 7/7/6 9/9/6 13/13/6
f 11/11/2 10/10/1 16/16/2
f 10/10/1 12/12/10 15/15/9
f 12/12/8 13/13/8 17/17/8
f 13/13/6 14/14/6 18/18/6
f 21/21/2 22/22/2 23/23/2
f 24/24/2 25/25/2 22/22/2
f 26/26/2 27/27/2 25/25/2
f 22/22/2 28/28/2 29/29/2
f 25/25/2 30/30/2 28/28/2
f 27/27/2 31/31/2 30/30/2
f 28/28/2 32/32/2 33/33/2
f 30/30/2 34/34/2 32/32/2
f 31/31/2 35/35/2 34/34/2
f 32/32/2 36/36/2 37/37/2
f 34/34/2 38/38/2 36/36/2
f 35/35/2 39/39/2 38/38/2
f 40/40/2 21/21/2 23/23/2
f 21/21/2 24/24/2 22/22/2
f 24/24/2 26/26/2 25/25/2
f 23/23/2 22/22/2 29/29/2
f 22/22/2 25/25/2 28/28/2
f 25/25/2 27/27/2 30/30/2
f 29/29/2 28/28/2 33/33/2
f 28/28/2 30/30/2 32/32/2
f 30/30/2 31/31/2 34/34/2
f 33/33/2 32/32/2 37/37/2
f 32/32/2 34/34/2 36/36/2
f 34/34/2 35/35/2 38/38/2
f 41/41/6 42/42/6 43/43/6
f 44/44/6 45/45/6 42/42/6
f 46/46/6 47/47/6 45/45/6
f 48/48/6 49/49/4 47/47/5
f 42/42/8 50/50/8 51/51/8
f 45/45/8 52/52/8 50/50/8
f 47/47/8 53/53/3 52/52/7
f 49/49/4 54/54/3 53/53/3
f 50/50/10 55/55/10 56/56/10
f 52/52/10 57/57/1 55/55/9
f 53/53/3 58/58/1 57/57/1
f 54/54/3 59/59/1 58/58/1
f 55/55/2 60/60/2 61/61/2
f 57/57/1 62/62/2 60/60/2
f 58/58/1 63/63/2 62/62/2
f 59/59/1 64/64/2 63/63/2
f 65/65/6 41/41/6 43/43/6
f 41/41/6 44/44/6 42/42/6
f 44/44/6 46/46/6 45/45/6
f 46/46/6 48/48/6 47/47/6
f 43/43/8 42/42/8 51/51/8
f 42/42/8 45/45/8 50/50/8
f 45/45/8 47/47/8 52/52/8
f 47/47/5 49/49/4 53/53/3
f 51/51/10 50/50/10 56/56/10
f 50/50/10 52/52/10 55/55/10
f 52/52/7 53/53/3 57/57/1
f 53/53/3 54/54/3 58/58/1
f 56/56/2 55/55/2 61/61/2
f 55/55/9 57/57/1 60/60/2
f 57/57/1 58/58/1 62/62/2
f 58/58/1 59/59/1 63/63/2
f 66/66/2 67/67/2 68/68/2
f 69/69/2 70/70/2 67/67/2
f 71/71/2 72/72/2 70/70/2
f 67/67/2 73/73/2 74/74/2
f 70/70/2 75/75/2 73/73/2
f 72/72/2 76/76/2 75/75/2
f 73/73/2 77/77/2 78/78/2
f 75/75/2 79/79/2 77/77/2
f 76/76/2 80/80/2 79/79/2
f 81/81/2 66/66/2 68/68/2
f 66/66/2 69/69/2 67/67/2
f 69/69/2 71/71/2 70/70/2
f 68/68/2 67/67/2 74/74/2
f 67/67/2 70/70/2 73/73/2
f 70/70/2 72/72/2 75/75/2
f 74/74/2 73/73/2 78/78/2
f 73/73/2 75/75/2 77/77/2
f 75/75/2 76/76/2 79/79/2
f 15/15/2 56/56/2 61/61/2
f 17/17/10 51/51/10 56/56/10
f 18/18/8 43/43/8 51/51/8
f 19/19/6 65/65/6 43/43/6
f 16/16/2 15/15/2 61/61/2
f 15/15/10 17/17/10 56/56/10
f 17/17/8 18/18/8 51/51/8
f 18/18/6 19/19/6 43/43/6
f 61/61/2 60/60/2 27/27/2
f 60/60/2 62/62/2 31/31/2
f 62/62/2 63/63/2 35/35/2
f 63/63/2 64/64/2 39/39/2
f 26/26/2 61/61/2 27/27/2
f 27/27/2 60/60/2 31/31/2
f 31/31/2 62/62/2 35/35/2
f 35/35/2 63/63/2 39/39/2
f 3/3/2 66/66/2 81/81/2
f 11/11/2 69/69/2 66/66/2
f 16/16/2 71/71/2 69/69/2
f 61/61/2 26/26/2 71/71/2
f 26/26/2 24/24/2 72/72/2
f 24/24/2 21/21/2 76/76/2
f 21/21/2 40/40/2 80/80/2
f 20/20/2 3/3/2 81/81/2
f 3/3/2 11/11/2 66/66/2
f 11/11/2 16/16/2 69/69/2
f 16/16/2 61/61/2 71/71/2
f 71/71/2 26/26/2 72/72/2
f 72/72/2 24/24/2 76/76/2
f 76/76/2 21/21/2 80/80/2
