# Blender v2.76 (sub 0) OBJ File: 'StoneModels.blend'
# www.blender.org
mtllib Sand3b.mtl
o Grid_Grid.015_Grid_Grid.009
v -0.125000 -1.000000 -0.500000
v -0.125000 -1.000000 -0.374997
v -0.000000 -1.000000 -0.374997
v -0.250000 -0.150000 -0.500000
v -0.250000 -0.150000 -0.375000
v -0.375000 -0.050000 -0.500000
v -0.375000 -0.050000 -0.375000
v -0.500000 -0.000000 -0.500000
v -0.500000 -0.000000 -0.375000
v -0.125000 -1.000000 -0.250000
v -0.000000 -1.000000 -0.250000
v -0.250000 -0.150000 -0.250000
v -0.375000 -0.050000 -0.250000
v -0.500000 -0.000000 -0.250000
v -0.125000 -1.000000 -0.125000
v -0.000000 -1.000000 -0.125000
v -0.250000 -0.150000 -0.125000
v -0.375000 -0.050000 -0.125000
v -0.500000 -0.000000 -0.125000
v -0.000000 -1.000000 -0.500000
v 0.375000 -1.000000 0.000003
v 0.375000 -1.000000 0.125003
v 0.500000 -1.000000 0.125000
v 0.250000 -1.000000 0.000000
v 0.250000 -1.000000 0.125000
v 0.125000 -1.000000 0.000000
v 0.125000 -1.000000 0.125000
v 0.375000 -0.150000 0.250002
v 0.500000 -0.150000 0.250000
v 0.250000 -0.150000 0.250000
v 0.125000 -1.000000 0.250000
v 0.375000 -0.050000 0.375002
v 0.500000 -0.050000 0.375000
v 0.250000 -0.150000 0.375002
v 0.125000 -1.000000 0.375003
v 0.375000 -0.050000 0.500000
v 0.500000 0.000000 0.500000
v 0.250000 -0.150000 0.500000
v 0.125000 -1.000000 0.500000
v 0.500000 -1.000000 0.000000
v -0.500000 0.000000 0.125000
v -0.375000 -0.050000 0.125000
v -0.375000 -0.050000 0.000000
v -0.500000 0.000000 0.250000
v -0.375000 -0.050000 0.250000
v -0.500000 0.000000 0.375000
v -0.375000 -0.050000 0.375000
v -0.500000 0.000000 0.500000
v -0.375000 -0.050000 0.500000
v -0.250000 -0.150000 0.125000
v -0.250000 -0.150000 0.000000
v -0.250000 -0.150000 0.250000
v -0.250000 -0.150000 0.375003
v -0.250000 -0.150000 0.500000
v -0.125000 -1.000000 0.125000
v -0.125000 -1.000000 0.000000
v -0.125000 -1.000000 0.250000
v -0.125000 -1.000000 0.375003
v -0.125000 -1.000000 0.500000
v 0.000000 -1.000000 0.125000
v 0.000000 -1.000000 0.000000
v 0.000000 -1.000000 0.250000
v 0.000000 -1.000000 0.375003
v 0.000000 -1.000000 0.500000
v -0.500000 0.000000 0.000000
v 0.125000 -1.000000 -0.374997
v 0.250000 -1.000000 -0.374997
v 0.250000 -1.000000 -0.500000
v 0.125000 -1.000000 -0.250000
v 0.250000 -1.000000 -0.250000
v 0.125000 -1.000000 -0.125000
v 0.250000 -1.000000 -0.125000
v 0.375000 -1.000000 -0.374997
v 0.375000 -1.000000 -0.500000
v 0.375000 -1.000000 -0.249997
v 0.375000 -1.000000 -0.124997
v 0.500000 -1.000000 -0.375000
v 0.500000 -1.000000 -0.500000
v 0.500000 -1.000000 -0.250000
v 0.500000 -1.000000 -0.125000
v 0.125000 -1.000000 -0.500000
vt 0.888672 0.175781
vt 0.867188 0.186523
vt 0.858398 0.164062
vt 0.969727 0.319336
vt 0.949219 0.331055
vt 0.985352 0.345703
vt 0.964844 0.357422
vt 0.998047 0.368164
vt 0.976562 0.379883
vt 0.845703 0.196289
vt 0.834961 0.173828
vt 0.927734 0.342773
vt 0.943359 0.370117
vt 0.957031 0.390625
vt 0.822266 0.207031
vt 0.812500 0.184570
vt 0.907227 0.354492
vt 0.922852 0.381836
vt 0.936523 0.403320
vt 0.878906 0.155273
vt 0.765625 0.116211
vt 0.739258 0.120117
vt 0.739258 0.094727
vt 0.769531 0.142578
vt 0.740234 0.146484
vt 0.776367 0.168945
vt 0.743164 0.179688
vt 0.574219 0.098633
vt 0.572266 0.071289
vt 0.577148 0.120117
vt 0.719727 0.204102
vt 0.542969 0.108398
vt 0.533203 0.080078
vt 0.561523 0.135742
vt 0.702148 0.224609
vt 0.518555 0.123047
vt 0.501953 0.092773
vt 0.542969 0.152344
vt 0.685547 0.244141
vt 0.762695 0.091797
vt 0.894531 0.427734
vt 0.880859 0.405273
vt 0.901367 0.393555
vt 0.874023 0.440430
vt 0.861328 0.417969
vt 0.854492 0.454102
vt 0.841797 0.430664
vt 0.833984 0.465820
vt 0.819336 0.442383
vt 0.866211 0.379883
vt 0.885742 0.368164
vt 0.844727 0.390625
vt 0.824219 0.404297
vt 0.803711 0.416992
vt 0.777344 0.232422
vt 0.800781 0.219727
vt 0.755859 0.247070
vt 0.735352 0.262695
vt 0.715820 0.276367
vt 0.763672 0.208008
vt 0.787109 0.196289
vt 0.739258 0.224609
vt 0.719727 0.244141
vt 0.701172 0.260742
vt 0.915039 0.416992
vt 0.848633 0.143555
vt 0.841797 0.122070
vt 0.861328 0.113281
vt 0.827148 0.151367
vt 0.818359 0.129883
vt 0.802734 0.159180
vt 0.793945 0.136719
vt 0.833984 0.099609
vt 0.855469 0.092773
vt 0.812500 0.106445
vt 0.790039 0.112305
vt 0.828125 0.079102
vt 0.848633 0.071289
vt 0.806641 0.084961
vt 0.784180 0.089844
vt 0.870117 0.135742
vn 0.653600 0.756800 -0.000000
vn 0.000000 1.000000 -0.000000
vn 0.867300 0.497800 -0.000000
vn 0.503500 0.864000 -0.000000
vn 0.542900 0.839800 -0.000000
vn 0.371400 0.928500 -0.000000
vn 0.914700 0.404200 -0.000000
vn 0.624700 0.780900 0.000000
vn 0.621600 0.783300 0.000000
vn 0.989400 0.145500 -0.000000
vn -0.000000 0.756800 -0.653700
vn -0.000000 0.756800 -0.653600
vn 0.000000 0.783300 -0.621600
vn -0.000000 0.497800 -0.867300
vn 0.000000 0.404200 -0.914700
vn -0.621600 0.783300 0.000000
vn -0.653600 0.756800 0.000000
vn -0.989400 0.145500 0.000000
vn -0.000000 0.839800 -0.542900
vn -0.000000 0.864000 -0.503500
vn -0.914700 0.404200 0.000000
vn -0.867300 0.497800 0.000000
vn -0.624700 0.780900 0.000000
vn -0.542900 0.839800 -0.000000
vn -0.503500 0.864000 -0.000000
vn -0.371400 0.928500 -0.000000
vn 0.000000 0.145500 -0.989400
vn 0.000000 0.780900 -0.624700
vn -0.000000 0.928500 -0.371400
usemtl None.001
s 1
f 1/1/1 2/2/1 3/3/2
f 4/4/3 5/5/3 2/2/1
f 6/6/4 7/7/5 5/5/3
f 8/8/6 9/9/6 7/7/6
f 2/2/1 10/10/1 11/11/2
f 5/5/3 12/12/7 10/10/1
f 7/7/8 13/13/8 12/12/8
f 9/9/6 14/14/6 13/13/6
f 10/10/1 15/15/9 16/16/2
f 12/12/10 17/17/10 15/15/10
f 13/13/8 18/18/8 17/17/8
f 14/14/6 19/19/6 18/18/6
f 20/20/2 1/1/1 3/3/2
f 1/1/1 4/4/3 2/2/1
f 4/4/3 6/6/4 5/5/3
f 6/6/4 8/8/6 7/7/5
f 3/3/2 2/2/1 11/11/2
f 2/2/1 5/5/3 10/10/1
f 5/5/3 7/7/8 12/12/7
f 7/7/6 9/9/6 13/13/6
f 11/11/2 10/10/1 16/16/2
f 10/10/1 12/12/10 15/15/9
f 12/12/8 13/13/8 17/17/8
f 13/13/6 14/14/6 18/18/6
f 21/21/2 22/22/11 23/23/12
f 24/24/2 25/25/12 22/22/11
f 26/26/2 27/27/13 25/25/12
f 22/22/11 28/28/14 29/29/14
f 25/25/12 30/30/15 28/28/14
f 27/27/16 31/31/17 30/30/18
f 28/28/14 32/32/19 33/33/20
f 30/30/21 34/34/22 32/32/23
f 31/31/17 35/35/17 34/34/22
f 32/32/24 36/36/25 37/37/26
f 34/34/22 38/38/22 36/36/25
f 35/35/17 39/39/17 38/38/22
f 40/40/2 21/21/2 23/23/12
f 21/21/2 24/24/2 22/22/11
f 24/24/2 26/26/2 25/25/12
f 23/23/12 22/22/11 29/29/14
f 22/22/11 25/25/12 28/28/14
f 25/25/12 27/27/13 30/30/27
f 29/29/14 28/28/14 33/33/20
f 28/28/14 30/30/15 32/32/28
f 30/30/21 31/31/17 34/34/22
f 33/33/20 32/32/19 37/37/29
f 32/32/24 34/34/22 36/36/25
f 34/34/22 35/35/17 38/38/22
f 41/41/6 42/42/6 43/43/6
f 44/44/6 45/45/6 42/42/6
f 46/46/6 47/47/6 45/45/6
f 48/48/6 49/49/4 47/47/5
f 42/42/8 50/50/8 51/51/8
f 45/45/8 52/52/8 50/50/8
f 47/47/8 53/53/3 52/52/7
f 49/49/4 54/54/3 53/53/3
f 50/50/10 55/55/10 56/56/10
f 52/52/10 57/57/1 55/55/9
f 53/53/3 58/58/1 57/57/1
f 54/54/3 59/59/1 58/58/1
f 55/55/2 60/60/2 61/61/2
f 57/57/1 62/62/2 60/60/2
f 58/58/1 63/63/2 62/62/2
f 59/59/1 64/64/2 63/63/2
f 65/65/6 41/41/6 43/43/6
f 41/41/6 44/44/6 42/42/6
f 44/44/6 46/46/6 45/45/6
f 46/46/6 48/48/6 47/47/6
f 43/43/8 42/42/8 51/51/8
f 42/42/8 45/45/8 50/50/8
f 45/45/8 47/47/8 52/52/8
f 47/47/5 49/49/4 53/53/3
f 51/51/10 50/50/10 56/56/10
f 50/50/10 52/52/10 55/55/10
f 52/52/7 53/53/3 57/57/1
f 53/53/3 54/54/3 58/58/1
f 56/56/2 55/55/2 61/61/2
f 55/55/9 57/57/1 60/60/2
f 57/57/1 58/58/1 62/62/2
f 58/58/1 59/59/1 63/63/2
f 66/66/2 67/67/2 68/68/2
f 69/69/2 70/70/2 67/67/2
f 71/71/2 72/72/2 70/70/2
f 67/67/2 73/73/2 74/74/2
f 70/70/2 75/75/2 73/73/2
f 72/72/2 76/76/2 75/75/2
f 73/73/2 77/77/2 78/78/2
f 75/75/2 79/79/2 77/77/2
f 76/76/2 80/80/2 79/79/2
f 81/81/2 66/66/2 68/68/2
f 66/66/2 69/69/2 67/67/2
f 69/69/2 71/71/2 70/70/2
f 68/68/2 67/67/2 74/74/2
f 67/67/2 70/70/2 73/73/2
f 70/70/2 72/72/2 75/75/2
f 74/74/2 73/73/2 78/78/2
f 73/73/2 75/75/2 77/77/2
f 75/75/2 76/76/2 79/79/2
f 15/15/2 56/56/2 61/61/2
f 17/17/10 51/51/10 56/56/10
f 18/18/8 43/43/8 51/51/8
f 19/19/6 65/65/6 43/43/6
f 16/16/2 15/15/2 61/61/2
f 15/15/10 17/17/10 56/56/10
f 17/17/8 18/18/8 51/51/8
f 18/18/6 19/19/6 43/43/6
f 61/61/2 60/60/2 27/27/2
f 60/60/2 62/62/2 31/31/17
f 62/62/2 63/63/2 35/35/17
f 63/63/2 64/64/2 39/39/17
f 26/26/2 61/61/2 27/27/2
f 27/27/16 60/60/2 31/31/17
f 31/31/17 62/62/2 35/35/17
f 35/35/17 63/63/2 39/39/17
f 3/3/2 66/66/2 81/81/2
f 11/11/2 69/69/2 66/66/2
f 16/16/2 71/71/2 69/69/2
f 61/61/2 26/26/2 71/71/2
f 26/26/2 24/24/2 72/72/2
f 24/24/2 21/21/2 76/76/2
f 21/21/2 40/40/2 80/80/2
f 20/20/2 3/3/2 81/81/2
f 3/3/2 11/11/2 66/66/2
f 11/11/2 16/16/2 69/69/2
f 16/16/2 61/61/2 71/71/2
f 71/71/2 26/26/2 72/72/2
f 72/72/2 24/24/2 76/76/2
f 76/76/2 21/21/2 80/80/2
