# Blender v2.82 (sub 7) OBJ File: 'StoneModels.blend'
# www.blender.org
mtllib Sand1a.mtl
o Grid_Grid.008_Grid_Grid.007
v -0.500000 -0.000000 0.125000
v -0.375000 -0.050000 0.125000
v -0.375000 -0.050000 0.000000
v -0.500000 -0.000000 0.250000
v -0.375000 -0.050000 0.250000
v -0.500000 -0.000000 0.375000
v -0.375000 -0.050000 0.375000
v -0.500000 -0.000000 0.500000
v -0.375000 -0.000000 0.500000
v -0.250000 -0.150000 0.125000
v -0.250000 -0.150000 0.000000
v -0.250000 -0.150000 0.250000
v -0.250000 -0.050000 0.375000
v -0.250000 -0.000000 0.500000
v -0.125000 -1.000000 0.125000
v -0.125000 -1.000000 0.000000
v -0.125000 -0.150000 0.250000
v -0.125000 -0.050000 0.375000
v -0.125000 -0.000000 0.500000
v -0.500000 -0.000000 0.000000
v -0.000000 -0.050000 -0.375000
v 0.125000 -0.050000 -0.375000
v 0.125000 0.000000 -0.500000
v 0.000000 -0.150000 -0.250000
v 0.125000 -0.150000 -0.250000
v 0.000000 -1.000000 -0.125000
v 0.125000 -1.000000 -0.125000
v 0.250000 -0.050000 -0.375000
v 0.250000 0.000000 -0.500000
v 0.250000 -0.150000 -0.250000
v 0.250000 -1.000000 -0.125000
v 0.375000 -0.050000 -0.375000
v 0.375000 0.000000 -0.500000
v 0.375000 -0.150000 -0.250000
v 0.375000 -1.000000 -0.125000
v 0.500000 -0.050000 -0.375000
v 0.500000 0.000000 -0.500000
v 0.500000 -0.150000 -0.250000
v 0.500000 -1.000000 -0.125000
v -0.000000 0.000000 -0.500000
v 0.125000 0.000000 0.500000
v 0.125000 -0.050000 0.375000
v 0.000000 -0.050000 0.375000
v 0.250000 0.000000 0.500000
v 0.250000 -0.050000 0.375000
v 0.375000 0.000000 0.500000
v 0.375000 -0.050000 0.375000
v 0.500000 0.000000 0.500000
v 0.500000 -0.050000 0.375000
v 0.125000 -0.150000 0.250000
v 0.000000 -0.150000 0.250000
v 0.250000 -0.150000 0.250000
v 0.375000 -0.150000 0.250000
v 0.500000 -0.150000 0.250000
v 0.125000 -1.000000 0.125000
v 0.000000 -1.000000 0.125000
v 0.250000 -1.000000 0.125000
v 0.375000 -1.000000 0.125000
v 0.500000 -1.000000 0.125000
v 0.125000 -1.000000 -0.000000
v 0.000000 -1.000000 -0.000000
v 0.250000 -1.000000 -0.000000
v 0.375000 -1.000000 -0.000000
v 0.500000 -1.000000 -0.000000
v 0.000000 0.000000 0.500000
v -0.375000 -0.050000 -0.125000
v -0.375000 -0.050000 -0.250000
v -0.500000 -0.000000 -0.250000
v -0.250000 -0.150000 -0.125000
v -0.250000 -0.150000 -0.250000
v -0.125000 -1.000000 -0.125000
v -0.125000 -0.150000 -0.250000
v -0.375000 -0.050000 -0.375000
v -0.500000 -0.000000 -0.375000
v -0.250000 -0.050000 -0.375000
v -0.125000 -0.050000 -0.375000
v -0.375000 -0.000000 -0.500000
v -0.500000 -0.000000 -0.500000
v -0.250000 -0.000000 -0.500000
v -0.125000 -0.000000 -0.500000
v -0.500000 -0.000000 -0.125000
vt 0.818359 0.436523
vt 0.818359 0.396484
vt 0.779297 0.396484
vt 0.858398 0.436523
vt 0.858398 0.396484
vt 0.897461 0.436523
vt 0.897461 0.396484
vt 0.936523 0.436523
vt 0.936523 0.396484
vt 0.818359 0.357422
vt 0.779297 0.357422
vt 0.858398 0.357422
vt 0.897461 0.357422
vt 0.936523 0.357422
vt 0.818359 0.330078
vt 0.818359 0.062500
vt 0.779297 0.062500
vt 0.831055 0.357422
vt 0.831055 0.318359
vt 0.563477 0.318359
vt 0.897461 0.318359
vt 0.858398 0.318359
vt 0.936523 0.318359
vt 0.779297 0.436523
vt 0.779297 0.330078
vt 0.858398 0.330078
vt 0.661133 0.278320
vt 0.661133 0.239258
vt 0.622070 0.239258
vt 0.701172 0.278320
vt 0.701172 0.239258
vt 0.563477 0.278320
vt 0.563477 0.239258
vt 0.831055 0.239258
vt 0.661133 0.200195
vt 0.622070 0.200195
vt 0.701172 0.200195
vt 0.563477 0.200195
vt 0.831055 0.200195
vt 0.661133 0.161133
vt 0.622070 0.161133
vt 0.701172 0.161133
vt 0.563477 0.161133
vt 0.831055 0.161133
vt 0.661133 0.121094
vt 0.622070 0.121094
vt 0.701172 0.121094
vt 0.563477 0.121094
vt 0.831055 0.121094
vt 0.622070 0.278320
vt 0.831055 0.278320
vt 0.936523 0.239258
vt 0.897461 0.239258
vt 0.897461 0.278320
vt 0.936523 0.200195
vt 0.897461 0.200195
vt 0.936523 0.161133
vt 0.897461 0.161133
vt 0.936523 0.121094
vt 0.897461 0.121094
vt 0.858398 0.239258
vt 0.858398 0.278320
vt 0.858398 0.200195
vt 0.858398 0.161133
vt 0.858398 0.121094
vt 0.831055 0.239258
vt 0.563477 0.239258
vt 0.563477 0.278320
vt 0.831055 0.200195
vt 0.563477 0.200195
vt 0.831055 0.161133
vt 0.563477 0.161133
vt 0.831055 0.121094
vt 0.563477 0.121094
vt 0.818359 0.239258
vt 0.779297 0.239258
vt 0.779297 0.278320
vt 0.818359 0.200195
vt 0.779297 0.200195
vt 0.818359 0.161133
vt 0.779297 0.161133
vt 0.818359 0.121094
vt 0.779297 0.121094
vt 0.936523 0.278320
vt 0.831055 0.278320
vt 0.818359 0.278320
vt 0.740234 0.396484
vt 0.701172 0.396484
vt 0.701172 0.436523
vt 0.740234 0.357422
vt 0.701172 0.357422
vt 0.563477 0.318359
vt 0.831055 0.318359
vt 0.831055 0.357422
vt 0.661133 0.396484
vt 0.661133 0.436523
vt 0.661133 0.357422
vt 0.701172 0.318359
vt 0.661133 0.318359
vt 0.622070 0.396484
vt 0.622070 0.436523
vt 0.622070 0.357422
vt 0.622070 0.318359
vt 0.740234 0.436523
vt 0.740234 0.330078
vt 0.740234 0.062500
vt 0.701172 0.330078
vt 0.818359 0.318359
vt 0.779297 0.318359
vt 0.740234 0.239258
vt 0.740234 0.200195
vt 0.740234 0.161133
vt 0.740234 0.121094
vt 0.740234 0.278320
vt 0.740234 0.318359
vn 0.3714 0.9285 0.0000
vn 0.0000 0.9285 -0.3714
vn 0.6247 0.7809 -0.0000
vn -0.0000 0.7809 -0.6247
vn 0.9894 0.1455 -0.0000
vn 0.0000 0.1455 -0.9894
vn -0.0000 0.9285 0.3714
vn -0.0000 0.7809 0.6247
vn 0.0000 0.1455 0.9894
vn 0.0000 0.7833 0.6216
vn 0.0000 0.7568 0.6536
vn 0.0000 0.4042 0.9147
vn 0.0000 0.4978 0.8673
vn -0.0000 0.8398 0.5429
vn -0.0000 0.8640 0.5035
vn -0.0000 0.8640 -0.5035
vn -0.0000 0.8398 -0.5429
vn 0.0000 0.4978 -0.8673
vn 0.0000 0.4042 -0.9147
vn 0.0000 0.7568 -0.6536
vn 0.0000 0.7833 -0.6216
vn 0.0000 1.0000 0.0000
usemtl None.001
s 1
f 1/1/1 2/2/1 3/3/1
f 4/4/1 5/5/1 2/2/1
f 6/6/1 7/7/1 5/5/1
f 8/8/2 9/9/2 7/7/2
f 2/2/3 10/10/3 11/11/3
f 5/5/3 12/12/3 10/10/3
f 7/7/4 13/13/4 12/12/4
f 9/9/2 14/14/2 13/13/2
f 10/15/5 15/16/5 16/17/5
f 12/18/6 17/19/6 15/20/6
f 13/13/4 18/21/4 17/22/4
f 14/14/2 19/23/2 18/21/2
f 20/24/1 1/1/1 3/3/1
f 1/1/1 4/4/1 2/2/1
f 4/4/1 6/6/1 5/5/1
f 6/6/1 8/8/1 7/7/1
f 3/3/3 2/2/3 11/11/3
f 2/2/3 5/5/3 10/10/3
f 5/5/3 7/7/3 12/12/3
f 7/7/2 9/9/2 13/13/2
f 11/25/5 10/15/5 16/17/5
f 10/15/5 12/26/5 15/16/5
f 12/12/4 13/13/4 17/22/4
f 13/13/2 14/14/2 18/21/2
f 21/27/7 22/28/7 23/29/7
f 24/30/8 25/31/8 22/28/8
f 26/32/9 27/33/9 25/34/9
f 22/28/7 28/35/7 29/36/7
f 25/31/8 30/37/8 28/35/8
f 27/33/10 31/38/11 30/39/9
f 28/35/7 32/40/7 33/41/7
f 30/37/12 34/42/13 32/40/8
f 31/38/11 35/43/11 34/44/13
f 32/40/14 36/45/15 37/46/7
f 34/42/13 38/47/13 36/45/15
f 35/43/11 39/48/11 38/49/13
f 40/50/7 21/27/7 23/29/7
f 21/27/8 24/30/8 22/28/8
f 24/51/9 26/32/9 25/34/9
f 23/29/7 22/28/7 29/36/7
f 22/28/8 25/31/8 28/35/8
f 25/34/9 27/33/9 30/39/9
f 29/36/7 28/35/7 33/41/7
f 28/35/8 30/37/8 32/40/8
f 30/39/12 31/38/11 34/44/13
f 33/41/7 32/40/7 37/46/7
f 32/40/14 34/42/13 36/45/15
f 34/44/13 35/43/11 38/49/13
f 41/52/2 42/53/2 43/54/2
f 44/55/2 45/56/2 42/53/2
f 46/57/2 47/58/2 45/56/2
f 48/59/2 49/60/16 47/58/17
f 42/53/4 50/61/4 51/62/4
f 45/56/4 52/63/4 50/61/4
f 47/58/4 53/64/18 52/63/19
f 49/60/16 54/65/18 53/64/18
f 50/66/6 55/67/6 56/68/6
f 52/69/6 57/70/20 55/67/21
f 53/71/18 58/72/20 57/70/20
f 54/73/18 59/74/20 58/72/20
f 55/75/22 60/76/22 61/77/22
f 57/78/20 62/79/22 60/76/22
f 58/80/20 63/81/22 62/79/22
f 59/82/20 64/83/22 63/81/22
f 65/84/2 41/52/2 43/54/2
f 41/52/2 44/55/2 42/53/2
f 44/55/2 46/57/2 45/56/2
f 46/57/2 48/59/2 47/58/2
f 43/54/4 42/53/4 51/62/4
f 42/53/4 45/56/4 50/61/4
f 45/56/4 47/58/4 52/63/4
f 47/58/17 49/60/16 53/64/18
f 51/85/6 50/66/6 56/68/6
f 50/66/6 52/69/6 55/67/6
f 52/69/19 53/71/18 57/70/20
f 53/71/18 54/73/18 58/72/20
f 56/86/22 55/75/22 61/77/22
f 55/75/21 57/78/20 60/76/22
f 57/78/20 58/80/20 62/79/22
f 58/80/20 59/82/20 63/81/22
f 66/87/1 67/88/1 68/89/1
f 69/90/3 70/91/3 67/88/3
f 71/92/9 72/93/9 70/94/9
f 67/88/1 73/95/1 74/96/1
f 70/91/8 75/97/8 73/95/8
f 72/98/8 76/99/8 75/97/8
f 73/95/7 77/100/7 78/101/7
f 75/97/7 79/102/7 77/100/7
f 76/99/7 80/103/7 79/102/7
f 81/104/1 66/87/1 68/89/1
f 66/87/3 69/90/3 67/88/3
f 69/105/5 71/106/5 70/107/5
f 68/89/1 67/88/1 74/96/1
f 67/88/3 70/91/3 73/95/3
f 70/91/8 72/98/8 75/97/8
f 74/96/1 73/95/1 78/101/1
f 73/95/7 75/97/7 77/100/7
f 75/97/7 76/99/7 79/102/7
f 15/108/22 56/86/22 61/77/22
f 17/19/6 51/85/6 56/68/6
f 18/21/4 43/54/4 51/62/4
f 19/23/2 65/84/2 43/54/2
f 16/109/22 15/108/22 61/77/22
f 15/20/6 17/19/6 56/68/6
f 17/22/4 18/21/4 51/62/4
f 18/21/2 19/23/2 43/54/2
f 61/77/22 60/76/22 27/110/22
f 60/76/22 62/79/22 31/111/11
f 62/79/22 63/81/22 35/112/11
f 63/81/22 64/83/22 39/113/11
f 26/114/22 61/77/22 27/110/22
f 27/110/10 60/76/22 31/111/11
f 31/111/11 62/79/22 35/112/11
f 35/112/11 63/81/22 39/113/11
f 3/3/1 66/87/1 81/104/1
f 11/11/3 69/90/3 66/87/3
f 16/17/5 71/106/5 69/105/5
f 61/77/22 26/114/22 71/115/22
f 26/32/9 24/51/9 72/93/9
f 24/30/8 21/27/8 76/99/8
f 21/27/7 40/50/7 80/103/7
f 20/24/1 3/3/1 81/104/1
f 3/3/3 11/11/3 66/87/3
f 11/25/5 16/17/5 69/105/5
f 16/109/22 61/77/22 71/115/22
f 71/92/9 26/32/9 72/93/9
f 72/98/8 24/30/8 76/99/8
f 76/99/7 21/27/7 80/103/7
