# Blender v2.82 (sub 7) OBJ File: 'StoneModels.blend'
# www.blender.org
mtllib Sand3b.mtl
o Grid_Grid.015_Grid_Grid.009
v -0.125000 -1.000000 -0.500000
v -0.250000 -0.150000 -0.500000
v -0.375000 -0.050000 -0.500000
v -0.500000 -0.000000 -0.500000
v 0.500000 -1.000000 0.125000
v 0.125000 -1.000000 0.125000
v 0.500000 -0.150000 0.250000
v 0.250000 -0.150000 0.250000
v 0.375000 -0.050000 0.375002
v 0.500000 -0.050000 0.375000
v 0.375000 -0.050000 0.500000
v 0.500000 0.000000 0.500000
v 0.250000 -0.150000 0.500000
v 0.125000 -1.000000 0.500000
v -0.500000 0.000000 0.500000
v -0.375000 -0.050000 0.500000
v -0.250000 -0.150000 0.500000
v -0.125000 -1.000000 0.500000
v 0.500000 -1.000000 -0.500000
vt 0.895458 0.229917
vt 0.895458 0.312125
vt 0.729917 0.312125
vt 0.563251 0.228791
vt 0.728791 0.228791
vt 0.728791 0.063251
vt 0.895458 0.354917
vt 0.895458 0.395458
vt 0.729917 0.395458
vt 0.812125 0.063251
vt 0.812125 0.228791
vt 0.729917 0.228791
vt 0.895458 0.313251
vt 0.895458 0.353791
vt 0.729917 0.353791
vt 0.896584 0.103791
vt 0.937125 0.103791
vt 0.937125 0.063251
vt 0.563251 0.437125
vt 0.603791 0.437125
vt 0.603791 0.396584
vt 0.645458 0.437125
vt 0.604917 0.437125
vt 0.645458 0.396584
vt 0.813251 0.228791
vt 0.895458 0.063251
vt 0.895458 0.228791
vt 0.645083 0.396209
vt 0.604542 0.396209
vt 0.604542 0.436749
vt 0.563251 0.395458
vt 0.728791 0.395458
vt 0.728791 0.229917
vt 0.895083 0.229542
vt 0.729542 0.311749
vt 0.729542 0.229542
vt 0.896209 0.062875
vt 0.936749 0.062875
vt 0.896209 0.103416
vt 0.562875 0.436749
vt 0.562875 0.396209
vt 0.603416 0.396209
vt 0.895083 0.062875
vt 0.812875 0.062875
vt 0.812875 0.228416
vt 0.895083 0.354542
vt 0.729542 0.395083
vt 0.729542 0.354542
vt 0.562875 0.395083
vt 0.728416 0.229542
vt 0.562875 0.229542
vt 0.729542 0.228416
vt 0.811749 0.062875
vt 0.729542 0.062875
vt 0.895083 0.312875
vt 0.729542 0.353416
vt 0.729542 0.312875
vt 0.728416 0.062875
vt 0.562875 0.062875
vt 0.562875 0.228416
vn 0.4187 0.9081 0.0001
vn -0.8375 0.5464 -0.0001
vn -0.2192 0.9507 -0.2192
vn 0.0000 1.0000 0.0000
vn 0.6536 0.7568 -0.0000
vn 0.5455 0.8381 -0.0000
vn 0.9247 0.3807 -0.0000
vn 0.7952 0.6064 -0.0000
vn -0.7952 0.6064 -0.0000
vn -0.6111 0.5032 -0.6111
vn 0.3714 0.9285 -0.0000
vn 0.4602 0.8878 0.0000
vn -0.2956 0.9084 -0.2956
vn -0.5035 0.8640 -0.0000
vn -0.1925 0.9622 -0.1925
vn -0.0000 0.8640 -0.5035
vn -0.0000 0.6064 -0.7952
vn -0.0000 0.5464 -0.8375
vn 0.4603 0.8878 0.0000
usemtl None.001
s 1
f 18/1/1 14/2/2 6/3/3
f 19/4/4 1/5/5 6/6/3
f 16/7/6 17/8/7 2/9/8
f 14/10/2 13/11/9 8/12/10
f 15/13/11 16/14/6 3/15/12
f 9/16/13 11/17/14 12/18/15
f 9/19/13 10/20/16 7/21/17
f 9/22/13 7/23/17 8/24/10
f 14/25/2 8/26/10 6/27/3
f 13/28/9 9/29/13 8/30/10
f 17/31/7 18/32/1 1/33/5
f 1/34/5 18/35/1 6/36/3
f 10/37/16 9/38/13 12/39/15
f 13/40/9 11/41/14 9/42/13
f 5/43/18 6/44/3 8/45/10
f 16/46/6 2/47/8 3/48/19
f 17/49/7 1/50/5 2/51/8
f 5/52/18 8/53/10 7/54/17
f 15/55/11 3/56/12 4/57/11
f 6/58/3 5/59/18 19/60/4
