# Blender v2.76 (sub 0) OBJ File: 'StoneModels.blend'
# www.blender.org
mtllib Sand3a.mtl
o Grid_Grid.017_Grid_Grid.010
v -0.125000 -1.000000 -0.500000
v -0.125000 -1.000000 -0.374997
v -0.000000 -1.000000 -0.374997
v -0.250000 -0.150000 -0.500000
v -0.250000 -0.150000 -0.375000
v -0.375000 -0.050000 -0.500000
v -0.375000 -0.050000 -0.375000
v -0.500000 -0.000000 -0.500000
v -0.500000 -0.000000 -0.375000
v -0.125000 -1.000000 -0.250000
v -0.000000 -1.000000 -0.250000
v -0.250000 -0.150000 -0.250000
v -0.375000 -0.050000 -0.250000
v -0.500000 -0.000000 -0.250000
v -0.125000 -1.000000 -0.125000
v -0.000000 -1.000000 -0.125000
v -0.250000 -0.150000 -0.125000
v -0.375000 -0.050000 -0.125000
v -0.500000 -0.000000 -0.125000
v -0.000000 -1.000000 -0.500000
v 0.375000 -1.000000 0.000003
v 0.375000 -1.000000 0.125003
v 0.500000 -1.000000 0.125000
v 0.250000 -1.000000 0.000000
v 0.250000 -1.000000 0.125000
v 0.125000 -1.000000 0.000000
v 0.125000 -1.000000 0.125000
v 0.375000 -0.150000 0.250002
v 0.500000 -0.150000 0.250000
v 0.250000 -0.150000 0.250000
v 0.125000 -1.000000 0.250000
v 0.375000 -0.050000 0.375002
v 0.500000 -0.050000 0.375000
v 0.250000 -0.150000 0.375002
v 0.125000 -1.000000 0.375003
v 0.375000 -0.050000 0.500000
v 0.500000 0.000000 0.500000
v 0.250000 -0.150000 0.500000
v 0.125000 -1.000000 0.500000
v 0.500000 -1.000000 0.000000
v -0.500000 0.000000 0.125000
v -0.375000 -0.050000 0.125000
v -0.375000 -0.050000 0.000000
v -0.500000 0.000000 0.250000
v -0.375000 -0.050000 0.250000
v -0.500000 0.000000 0.375000
v -0.375000 -0.050000 0.375000
v -0.500000 0.000000 0.500000
v -0.375000 -0.050000 0.500000
v -0.250000 -0.150000 0.125000
v -0.250000 -0.150000 0.000000
v -0.250000 -0.150000 0.250000
v -0.250000 -0.150000 0.375003
v -0.250000 -0.150000 0.500000
v -0.125000 -1.000000 0.125000
v -0.125000 -1.000000 0.000000
v -0.125000 -1.000000 0.250000
v -0.125000 -1.000000 0.375003
v -0.125000 -1.000000 0.500000
v 0.000000 -1.000000 0.125000
v 0.000000 -1.000000 0.000000
v 0.000000 -1.000000 0.250000
v 0.000000 -1.000000 0.375003
v 0.000000 -1.000000 0.500000
v -0.500000 0.000000 0.000000
v 0.125000 -1.000000 -0.374997
v 0.250000 -0.150000 -0.374998
v 0.250000 -0.150000 -0.500000
v 0.125000 -1.000000 -0.250000
v 0.250000 -0.150000 -0.250000
v 0.125000 -1.000000 -0.125000
v 0.250000 -1.000000 -0.125000
v 0.375000 -0.050000 -0.374998
v 0.375000 -0.050000 -0.500000
v 0.375000 -0.150000 -0.249998
v 0.375000 -1.000000 -0.124997
v 0.500000 -0.050000 -0.375000
v 0.500000 -0.000000 -0.500000
v 0.500000 -0.150000 -0.250000
v 0.500000 -1.000000 -0.125000
v 0.125000 -1.000000 -0.500000
vt 0.855665 0.269100
vt 0.831721 0.264206
vt 0.838122 0.239683
vt 0.848653 0.436659
vt 0.824192 0.435947
vt 0.847903 0.467836
vt 0.823515 0.467333
vt 0.847411 0.494051
vt 0.823072 0.493612
vt 0.805830 0.259070
vt 0.811793 0.231549
vt 0.799539 0.435354
vt 0.799027 0.466919
vt 0.798706 0.493271
vt 0.778172 0.255106
vt 0.781405 0.224382
vt 0.774722 0.434966
vt 0.774452 0.466654
vt 0.774288 0.493075
vt 0.861542 0.247562
vt 0.749789 0.125597
vt 0.723053 0.123527
vt 0.727606 0.098513
vt 0.749789 0.154852
vt 0.717760 0.151981
vt 0.749791 0.189857
vt 0.710373 0.187513
vt 0.569553 0.054257
vt 0.574562 0.028714
vt 0.565332 0.075988
vt 0.677504 0.202681
vt 0.536165 0.053640
vt 0.535791 0.024725
vt 0.545440 0.085740
vt 0.651938 0.215298
vt 0.508134 0.060778
vt 0.501956 0.027399
vt 0.522067 0.097230
vt 0.629461 0.226805
vt 0.749790 0.100302
vt 0.725362 0.493055
vt 0.725200 0.466650
vt 0.749824 0.466566
vt 0.700959 0.493259
vt 0.700631 0.466918
vt 0.676602 0.493609
vt 0.676150 0.467339
vt 0.652271 0.494058
vt 0.651768 0.467852
vt 0.724926 0.434969
vt 0.749824 0.434841
vt 0.700112 0.435361
vt 0.675462 0.435960
vt 0.651005 0.436682
vt 0.721420 0.255111
vt 0.749796 0.253830
vt 0.693763 0.259082
vt 0.667871 0.264226
vt 0.643928 0.269127
vt 0.718182 0.224387
vt 0.749793 0.222352
vt 0.687793 0.231560
vt 0.661462 0.239702
vt 0.638042 0.247587
vt 0.749820 0.493010
vt 0.847639 0.215282
vt 0.954110 0.085732
vt 0.977482 0.097218
vt 0.822075 0.202672
vt 0.934221 0.075982
vt 0.789207 0.187511
vt 0.781817 0.151985
vt 0.963381 0.053636
vt 0.991409 0.060770
vt 0.929998 0.054256
vt 0.776524 0.123531
vt 0.963753 0.024725
vt 0.997583 0.027396
vt 0.924989 0.028717
vt 0.771972 0.098517
vt 0.870116 0.226783
vn 0.653600 0.756800 -0.000000
vn 0.000000 1.000000 -0.000000
vn 0.867300 0.497800 -0.000000
vn 0.503500 0.864000 -0.000000
vn 0.542900 0.839800 -0.000000
vn 0.371400 0.928500 -0.000000
vn 0.914700 0.404200 -0.000000
vn 0.624700 0.780900 0.000000
vn 0.621600 0.783300 0.000000
vn 0.989400 0.145500 -0.000000
vn -0.000000 0.756800 -0.653700
vn -0.000000 0.756800 -0.653600
vn 0.000000 0.783300 -0.621600
vn -0.000000 0.497800 -0.867300
vn 0.000000 0.404200 -0.914700
vn -0.621600 0.783300 0.000000
vn -0.653600 0.756800 0.000000
vn -0.989400 0.145500 0.000000
vn -0.000000 0.839800 -0.542900
vn -0.000000 0.864000 -0.503500
vn -0.914700 0.404200 0.000000
vn -0.867300 0.497800 0.000000
vn -0.624700 0.780900 0.000000
vn -0.542900 0.839800 -0.000000
vn -0.503500 0.864000 -0.000000
vn -0.371400 0.928500 -0.000000
vn 0.000000 0.145500 -0.989400
vn 0.000000 0.780900 -0.624700
vn -0.000000 0.928500 -0.371400
vn 0.000000 0.783300 0.621600
vn 0.000000 0.756800 0.653600
vn 0.000000 0.145500 0.989400
vn -0.000000 0.404200 0.914700
vn -0.000000 0.497800 0.867300
vn -0.000000 0.780900 0.624700
vn -0.000000 0.756800 0.653700
vn 0.000000 0.839800 0.542900
vn 0.000000 0.864000 0.503500
vn 0.000000 0.928500 0.371400
usemtl None.001
s 1
f 1/1/1 2/2/1 3/3/2
f 4/4/3 5/5/3 2/2/1
f 6/6/4 7/7/5 5/5/3
f 8/8/6 9/9/6 7/7/6
f 2/2/1 10/10/1 11/11/2
f 5/5/3 12/12/7 10/10/1
f 7/7/8 13/13/8 12/12/8
f 9/9/6 14/14/6 13/13/6
f 10/10/1 15/15/9 16/16/2
f 12/12/10 17/17/10 15/15/10
f 13/13/8 18/18/8 17/17/8
f 14/14/6 19/19/6 18/18/6
f 20/20/2 1/1/1 3/3/2
f 1/1/1 4/4/3 2/2/1
f 4/4/3 6/6/4 5/5/3
f 6/6/4 8/8/6 7/7/5
f 3/3/2 2/2/1 11/11/2
f 2/2/1 5/5/3 10/10/1
f 5/5/3 7/7/8 12/12/7
f 7/7/6 9/9/6 13/13/6
f 11/11/2 10/10/1 16/16/2
f 10/10/1 12/12/10 15/15/9
f 12/12/8 13/13/8 17/17/8
f 13/13/6 14/14/6 18/18/6
f 21/21/2 22/22/11 23/23/12
f 24/24/2 25/25/12 22/22/11
f 26/26/2 27/27/13 25/25/12
f 22/22/11 28/28/14 29/29/14
f 25/25/12 30/30/15 28/28/14
f 27/27/16 31/31/17 30/30/18
f 28/28/14 32/32/19 33/33/20
f 30/30/21 34/34/22 32/32/23
f 31/31/17 35/35/17 34/34/22
f 32/32/24 36/36/25 37/37/26
f 34/34/22 38/38/22 36/36/25
f 35/35/17 39/39/17 38/38/22
f 40/40/2 21/21/2 23/23/12
f 21/21/2 24/24/2 22/22/11
f 24/24/2 26/26/2 25/25/12
f 23/23/12 22/22/11 29/29/14
f 22/22/11 25/25/12 28/28/14
f 25/25/12 27/27/13 30/30/27
f 29/29/14 28/28/14 33/33/20
f 28/28/14 30/30/15 32/32/28
f 30/30/21 31/31/17 34/34/22
f 33/33/20 32/32/19 37/37/29
f 32/32/24 34/34/22 36/36/25
f 34/34/22 35/35/17 38/38/22
f 41/41/6 42/42/6 43/43/6
f 44/44/6 45/45/6 42/42/6
f 46/46/6 47/47/6 45/45/6
f 48/48/6 49/49/4 47/47/5
f 42/42/8 50/50/8 51/51/8
f 45/45/8 52/52/8 50/50/8
f 47/47/8 53/53/3 52/52/7
f 49/49/4 54/54/3 53/53/3
f 50/50/10 55/55/10 56/56/10
f 52/52/10 57/57/1 55/55/9
f 53/53/3 58/58/1 57/57/1
f 54/54/3 59/59/1 58/58/1
f 55/55/2 60/60/2 61/61/2
f 57/57/1 62/62/2 60/60/2
f 58/58/1 63/63/2 62/62/2
f 59/59/1 64/64/2 63/63/2
f 65/65/6 41/41/6 43/43/6
f 41/41/6 44/44/6 42/42/6
f 44/44/6 46/46/6 45/45/6
f 46/46/6 48/48/6 47/47/6
f 43/43/8 42/42/8 51/51/8
f 42/42/8 45/45/8 50/50/8
f 45/45/8 47/47/8 52/52/8
f 47/47/5 49/49/4 53/53/3
f 51/51/10 50/50/10 56/56/10
f 50/50/10 52/52/10 55/55/10
f 52/52/7 53/53/3 57/57/1
f 53/53/3 54/54/3 58/58/1
f 56/56/2 55/55/2 61/61/2
f 55/55/9 57/57/1 60/60/2
f 57/57/1 58/58/1 62/62/2
f 58/58/1 59/59/1 63/63/2
f 66/66/17 67/67/22 68/68/22
f 69/69/17 70/70/21 67/67/22
f 71/71/30 72/72/31 70/70/32
f 67/67/22 73/73/24 74/74/25
f 70/70/33 75/75/34 73/73/35
f 72/72/36 76/76/31 75/75/34
f 73/73/37 77/77/38 78/78/39
f 75/75/34 79/79/34 77/77/38
f 76/76/31 80/80/36 79/79/34
f 81/81/17 66/66/17 68/68/22
f 66/66/17 69/69/17 67/67/22
f 69/69/17 71/71/16 70/70/18
f 68/68/22 67/67/22 74/74/25
f 67/67/22 70/70/21 73/73/23
f 70/70/33 72/72/36 75/75/34
f 74/74/25 73/73/24 78/78/26
f 73/73/37 75/75/34 77/77/38
f 75/75/34 76/76/31 79/79/34
f 15/15/2 56/56/2 61/61/2
f 17/17/10 51/51/10 56/56/10
f 18/18/8 43/43/8 51/51/8
f 19/19/6 65/65/6 43/43/6
f 16/16/2 15/15/2 61/61/2
f 15/15/10 17/17/10 56/56/10
f 17/17/8 18/18/8 51/51/8
f 18/18/6 19/19/6 43/43/6
f 61/61/2 60/60/2 27/27/2
f 60/60/2 62/62/2 31/31/17
f 62/62/2 63/63/2 35/35/17
f 63/63/2 64/64/2 39/39/17
f 26/26/2 61/61/2 27/27/2
f 27/27/16 60/60/2 31/31/17
f 31/31/17 62/62/2 35/35/17
f 35/35/17 63/63/2 39/39/17
f 3/3/2 66/66/17 81/81/17
f 11/11/2 69/69/17 66/66/17
f 16/16/2 71/71/16 69/69/17
f 61/61/2 26/26/2 71/71/2
f 26/26/2 24/24/2 72/72/31
f 24/24/2 21/21/2 76/76/31
f 21/21/2 40/40/2 80/80/36
f 20/20/2 3/3/2 81/81/17
f 3/3/2 11/11/2 66/66/17
f 11/11/2 16/16/2 69/69/17
f 16/16/2 61/61/2 71/71/2
f 71/71/30 26/26/2 72/72/31
f 72/72/36 24/24/2 76/76/31
f 76/76/31 21/21/2 80/80/36
