# Blender v2.82 (sub 7) OBJ File: 'StoneModels.blend'
# www.blender.org
mtllib Stone4e.mtl
o Grid_Grid.014_Grid_Grid.035
v 0.125000 1.000000 0.500000
v 0.125000 1.000000 0.375000
v 0.000000 1.000000 0.375000
v 0.250000 1.000000 0.500000
v 0.250000 1.000000 0.375000
v 0.375000 1.000000 0.500000
v 0.375000 1.000000 0.375000
v 0.500000 1.000000 0.500000
v 0.500000 1.000000 0.375000
v 0.125000 1.000000 0.250000
v 0.000000 1.000000 0.250000
v 0.250000 1.000000 0.250000
v 0.375000 1.000000 0.250000
v 0.500000 1.000000 0.250000
v 0.125000 1.000000 0.125000
v 0.000000 1.000000 0.125000
v 0.250000 1.000000 0.125000
v 0.375000 1.000000 0.125000
v 0.500000 1.000000 0.125000
v 0.000000 1.000000 0.500000
v -0.375000 1.000000 0.000000
v -0.375000 1.000000 -0.125000
v -0.500000 1.000000 -0.125000
v -0.250000 1.000000 0.000000
v -0.250000 1.000000 -0.125000
v -0.125000 1.000000 0.000000
v -0.125000 1.000000 -0.125000
v -0.375000 1.000000 -0.250000
v -0.500000 1.000000 -0.250000
v -0.250000 1.000000 -0.250000
v -0.125000 1.000000 -0.250000
v -0.375000 1.000000 -0.375000
v -0.500000 1.000000 -0.375000
v -0.250000 1.000000 -0.375000
v -0.125000 1.000000 -0.375000
v -0.375000 1.000000 -0.500000
v -0.500000 1.000000 -0.500000
v -0.250000 1.000000 -0.500000
v -0.125000 1.000000 -0.500000
v -0.500000 1.000000 0.000000
v 0.500000 1.000000 -0.125000
v 0.375000 1.000000 -0.125000
v 0.375000 1.000000 0.000000
v 0.500000 1.000000 -0.250000
v 0.375000 1.000000 -0.250000
v 0.500000 1.000000 -0.375000
v 0.375000 1.000000 -0.375000
v 0.500000 1.000000 -0.500000
v 0.375000 1.000000 -0.500000
v 0.250000 1.000000 -0.125000
v 0.250000 1.000000 0.000000
v 0.250000 1.000000 -0.250000
v 0.250000 1.000000 -0.375000
v 0.250000 1.000000 -0.500000
v 0.125000 1.000000 -0.125000
v 0.125000 1.000000 0.000000
v 0.125000 1.000000 -0.250000
v 0.125000 1.000000 -0.375000
v 0.125000 1.000000 -0.500000
v 0.000000 1.000000 -0.125000
v 0.000000 0.999999 0.000000
v 0.000000 1.000000 -0.250000
v 0.000000 1.000000 -0.375000
v 0.000000 1.000000 -0.500000
v 0.500000 1.000000 0.000000
v -0.125000 0.980000 0.375000
v -0.250000 0.900000 0.375000
v -0.250000 0.900000 0.500000
v -0.125000 0.980000 0.250000
v -0.250000 0.900000 0.250000
v -0.125000 0.980000 0.125000
v -0.250000 0.980000 0.125000
v -0.375000 0.700000 0.375000
v -0.375000 0.700000 0.500000
v -0.375000 0.900000 0.250000
v -0.375000 0.980000 0.125000
v -0.500000 0.700000 0.375000
v -0.500000 -0.000000 0.500000
v -0.500000 0.900000 0.250000
v -0.500000 0.980000 0.125000
v -0.125000 0.980000 0.500000
vt 0.319336 0.422852
vt 0.319336 0.390625
vt 0.287109 0.390625
vt 0.350586 0.422852
vt 0.350586 0.390625
vt 0.382812 0.422852
vt 0.382812 0.390625
vt 0.415039 0.422852
vt 0.415039 0.390625
vt 0.319336 0.358398
vt 0.287109 0.358398
vt 0.350586 0.358398
vt 0.382812 0.358398
vt 0.415039 0.358398
vt 0.319336 0.327148
vt 0.287109 0.327148
vt 0.350586 0.327148
vt 0.382812 0.327148
vt 0.415039 0.327148
vt 0.287109 0.422852
vt 0.191406 0.294922
vt 0.191406 0.263672
vt 0.160156 0.263672
vt 0.223633 0.294922
vt 0.223633 0.263672
vt 0.255859 0.294922
vt 0.255859 0.263672
vt 0.191406 0.231445
vt 0.160156 0.231445
vt 0.223633 0.231445
vt 0.255859 0.231445
vt 0.191406 0.199219
vt 0.160156 0.199219
vt 0.223633 0.199219
vt 0.255859 0.199219
vt 0.191406 0.167969
vt 0.160156 0.167969
vt 0.223633 0.167969
vt 0.255859 0.167969
vt 0.160156 0.294922
vt 0.415039 0.263672
vt 0.382812 0.263672
vt 0.382812 0.294922
vt 0.415039 0.231445
vt 0.382812 0.231445
vt 0.415039 0.199219
vt 0.382812 0.199219
vt 0.415039 0.167969
vt 0.382812 0.167969
vt 0.350586 0.263672
vt 0.350586 0.294922
vt 0.350586 0.231445
vt 0.350586 0.199219
vt 0.350586 0.167969
vt 0.319336 0.263672
vt 0.319336 0.294922
vt 0.319336 0.231445
vt 0.319336 0.199219
vt 0.319336 0.167969
vt 0.287109 0.263672
vt 0.287109 0.294922
vt 0.287109 0.231445
vt 0.287109 0.199219
vt 0.287109 0.167969
vt 0.415039 0.294922
vt 0.255859 0.390625
vt 0.223633 0.390625
vt 0.223633 0.422852
vt 0.255859 0.358398
vt 0.223633 0.358398
vt 0.255859 0.327148
vt 0.223633 0.327148
vt 0.267578 0.390625
vt 0.216797 0.390625
vt 0.216797 0.422852
vt 0.223633 0.275391
vt 0.191406 0.275391
vt 0.191406 0.224609
vt 0.191406 0.327148
vt 0.191406 0.358398
vt 0.160156 0.224609
vt 0.160156 0.045898
vt 0.160156 0.275391
vt 0.160156 0.327148
vt 0.160156 0.358398
vt 0.255859 0.422852
vt 0.267578 0.422852
vt 0.267578 0.358398
vt 0.038086 0.422852
vn 0.0000 1.0000 0.0000
vn 0.0000 0.9969 0.0792
vn -0.5391 0.8423 0.0000
vn -0.4355 0.8901 0.1342
vn -0.1496 0.9619 0.2287
vn 0.0000 0.9345 0.3560
vn -0.8480 0.5300 0.0000
vn -0.7777 0.6011 0.1841
vn -0.2895 0.7789 0.5564
vn 0.0000 0.7033 0.7109
vn -0.4151 0.3996 0.8173
vn 0.0000 0.3594 0.9332
vn -0.6856 0.2449 0.6856
vn -0.9844 0.1758 0.0000
vn -0.0398 0.9984 0.0398
vn -0.1580 0.9874 0.0000
vn -0.1192 0.9921 0.0395
usemtl None.003
s 1
f 1/1/1 2/2/1 3/3/1
f 4/4/1 5/5/1 2/2/1
f 6/6/1 7/7/1 5/5/1
f 8/8/1 9/9/1 7/7/1
f 2/2/1 10/10/1 11/11/1
f 5/5/1 12/12/1 10/10/1
f 7/7/1 13/13/1 12/12/1
f 9/9/1 14/14/1 13/13/1
f 10/10/1 15/15/1 16/16/1
f 12/12/1 17/17/1 15/15/1
f 13/13/1 18/18/1 17/17/1
f 14/14/1 19/19/1 18/18/1
f 20/20/1 1/1/1 3/3/1
f 1/1/1 4/4/1 2/2/1
f 4/4/1 6/6/1 5/5/1
f 6/6/1 8/8/1 7/7/1
f 3/3/1 2/2/1 11/11/1
f 2/2/1 5/5/1 10/10/1
f 5/5/1 7/7/1 12/12/1
f 7/7/1 9/9/1 13/13/1
f 11/11/1 10/10/1 16/16/1
f 10/10/1 12/12/1 15/15/1
f 12/12/1 13/13/1 17/17/1
f 13/13/1 14/14/1 18/18/1
f 21/21/2 22/22/1 23/23/1
f 24/24/2 25/25/1 22/22/1
f 26/26/2 27/27/1 25/25/1
f 22/22/1 28/28/1 29/29/1
f 25/25/1 30/30/1 28/28/1
f 27/27/1 31/31/1 30/30/1
f 28/28/1 32/32/1 33/33/1
f 30/30/1 34/34/1 32/32/1
f 31/31/1 35/35/1 34/34/1
f 32/32/1 36/36/1 37/37/1
f 34/34/1 38/38/1 36/36/1
f 35/35/1 39/39/1 38/38/1
f 40/40/2 21/21/2 23/23/1
f 21/21/2 24/24/2 22/22/1
f 24/24/2 26/26/2 25/25/1
f 23/23/1 22/22/1 29/29/1
f 22/22/1 25/25/1 28/28/1
f 25/25/1 27/27/1 30/30/1
f 29/29/1 28/28/1 33/33/1
f 28/28/1 30/30/1 32/32/1
f 30/30/1 31/31/1 34/34/1
f 33/33/1 32/32/1 37/37/1
f 32/32/1 34/34/1 36/36/1
f 34/34/1 35/35/1 38/38/1
f 41/41/1 42/42/1 43/43/1
f 44/44/1 45/45/1 42/42/1
f 46/46/1 47/47/1 45/45/1
f 48/48/1 49/49/1 47/47/1
f 42/42/1 50/50/1 51/51/1
f 45/45/1 52/52/1 50/50/1
f 47/47/1 53/53/1 52/52/1
f 49/49/1 54/54/1 53/53/1
f 50/50/1 55/55/1 56/56/1
f 52/52/1 57/57/1 55/55/1
f 53/53/1 58/58/1 57/57/1
f 54/54/1 59/59/1 58/58/1
f 55/55/1 60/60/1 61/61/1
f 57/57/1 62/62/1 60/60/1
f 58/58/1 63/63/1 62/62/1
f 59/59/1 64/64/1 63/63/1
f 65/65/1 41/41/1 43/43/1
f 41/41/1 44/44/1 42/42/1
f 44/44/1 46/46/1 45/45/1
f 46/46/1 48/48/1 47/47/1
f 43/43/1 42/42/1 51/51/1
f 42/42/1 45/45/1 50/50/1
f 45/45/1 47/47/1 52/52/1
f 47/47/1 49/49/1 53/53/1
f 51/51/1 50/50/1 56/56/1
f 50/50/1 52/52/1 55/55/1
f 52/52/1 53/53/1 57/57/1
f 53/53/1 54/54/1 58/58/1
f 56/56/1 55/55/1 61/61/1
f 55/55/1 57/57/1 60/60/1
f 57/57/1 58/58/1 62/62/1
f 58/58/1 59/59/1 63/63/1
f 66/66/3 67/67/3 68/68/3
f 69/69/3 70/70/4 67/67/3
f 71/71/5 72/72/6 70/70/4
f 67/73/7 73/74/8 74/75/7
f 70/76/9 75/77/10 73/78/8
f 72/72/6 76/79/6 75/80/10
f 73/78/11 77/81/12 78/82/13
f 75/77/10 79/83/10 77/81/12
f 76/79/6 80/84/6 79/85/10
f 81/86/3 66/66/3 68/68/3
f 66/66/3 69/69/3 67/67/3
f 69/69/3 71/71/5 70/70/4
f 68/87/7 67/73/7 74/75/7
f 67/73/7 70/88/9 73/74/8
f 70/70/9 72/72/6 75/80/10
f 74/75/14 73/74/11 78/89/13
f 73/78/11 75/77/10 77/81/12
f 75/80/10 76/79/6 79/85/10
f 15/15/1 56/56/1 61/61/1
f 17/17/1 51/51/1 56/56/1
f 18/18/1 43/43/1 51/51/1
f 19/19/1 65/65/1 43/43/1
f 16/16/1 15/15/1 61/61/1
f 15/15/1 17/17/1 56/56/1
f 17/17/1 18/18/1 51/51/1
f 18/18/1 19/19/1 43/43/1
f 61/61/15 60/60/1 27/27/1
f 60/60/1 62/62/1 31/31/1
f 62/62/1 63/63/1 35/35/1
f 63/63/1 64/64/1 39/39/1
f 26/26/2 61/61/15 27/27/1
f 27/27/1 60/60/1 31/31/1
f 31/31/1 62/62/1 35/35/1
f 35/35/1 63/63/1 39/39/1
f 3/3/16 66/66/16 81/86/16
f 11/11/16 69/69/16 66/66/16
f 16/16/16 71/71/17 69/69/16
f 61/61/15 26/26/2 71/71/17
f 26/26/2 24/24/2 72/72/6
f 24/24/2 21/21/2 76/79/6
f 21/21/2 40/40/2 80/84/6
f 20/20/16 3/3/16 81/86/16
f 3/3/16 11/11/16 66/66/16
f 11/11/16 16/16/16 69/69/16
f 16/16/16 61/61/15 71/71/17
f 71/71/5 26/26/2 72/72/6
f 72/72/6 24/24/2 76/79/6
f 76/79/6 21/21/2 80/84/6
