# Blender v2.82 (sub 7) OBJ File: 'StoneModels.blend'
# www.blender.org
mtllib Stone2b.mtl
v 0.125000 0.980000 0.500000
v 0.125000 0.980000 0.375000
v 0.000000 1.000000 0.375000
v 0.250000 0.900000 0.500000
v 0.250000 0.900000 0.375000
v 0.375000 0.700000 0.500000
v 0.375000 0.700000 0.375000
v 0.500000 -0.000000 0.500000
v 0.500000 -0.000000 0.375000
v 0.125000 0.980000 0.250000
v 0.000000 1.000000 0.250000
v 0.250000 0.900000 0.250000
v 0.375000 0.700000 0.250000
v 0.500000 -0.000000 0.250000
v 0.125000 0.980000 0.125000
v 0.000000 1.000000 0.125000
v 0.250000 0.900000 0.125000
v 0.375000 0.700000 0.125000
v 0.500000 -0.000000 0.125000
v 0.000000 1.000000 0.500000
v -0.375000 0.700000 0.000000
v -0.375000 0.700000 -0.125000
v -0.500000 0.000000 -0.125000
v -0.250000 0.900000 0.000000
v -0.250000 0.900000 -0.125000
v -0.125000 0.980000 0.000000
v -0.125000 0.980000 -0.125000
v -0.375000 0.700000 -0.250000
v -0.500000 0.000000 -0.250000
v -0.250000 0.900000 -0.250000
v -0.125000 0.980000 -0.250000
v -0.375000 0.700000 -0.375000
v -0.500000 0.000000 -0.375000
v -0.250000 0.900000 -0.375000
v -0.125000 0.980000 -0.375000
v -0.375000 0.700000 -0.500000
v -0.500000 0.000000 -0.500000
v -0.250000 0.900000 -0.500000
v -0.125000 0.980000 -0.500000
v -0.500000 0.000000 0.000000
v 0.500000 0.000000 -0.125000
v 0.375000 0.700000 -0.125000
v 0.375000 0.700000 0.000000
v 0.500000 0.000000 -0.250000
v 0.375000 0.700000 -0.250000
v 0.500000 0.000000 -0.375000
v 0.375000 0.700000 -0.375000
v 0.500000 0.000000 -0.500000
v 0.375000 0.700000 -0.500000
v 0.250000 0.900000 -0.125000
v 0.250000 0.900000 0.000000
v 0.250000 0.900000 -0.250000
v 0.250000 0.900000 -0.375000
v 0.250000 0.900000 -0.500000
v 0.125000 0.980000 -0.125000
v 0.125000 0.980000 0.000000
v 0.125000 0.980000 -0.250000
v 0.125000 0.980000 -0.375000
v 0.125000 0.980000 -0.500000
v 0.000000 1.000000 -0.125000
v 0.000000 0.999999 0.000000
v 0.000000 1.000000 -0.250000
v 0.000000 1.000000 -0.375000
v 0.000000 1.000000 -0.500000
v 0.500000 0.000000 0.000000
v -0.125000 0.980000 0.375000
v -0.250000 0.900000 0.375000
v -0.250000 0.900000 0.500000
v -0.125000 0.980000 0.250000
v -0.250000 0.900000 0.250000
v -0.125000 0.980000 0.125000
v -0.250000 0.900000 0.125000
v -0.375000 0.700000 0.375000
v -0.375000 0.700000 0.500000
v -0.375000 0.700000 0.250000
v -0.375000 0.700000 0.125000
v -0.500000 -0.000000 0.375000
v -0.500000 -0.000000 0.500000
v -0.500000 -0.000000 0.250000
v -0.500000 -0.000000 0.125000
v -0.125000 0.980000 0.500000
vt 0.250000 0.416072
vt 0.273438 0.416072
vt 0.273438 0.437500
vt 0.250000 0.375777
vt 0.273438 0.375777
vt 0.250000 0.297750
vt 0.273438 0.297750
vt 0.250000 0.062500
vt 0.273438 0.062500
vt 0.296875 0.416072
vt 0.296875 0.437500
vt 0.296875 0.375777
vt 0.296875 0.297749
vt 0.296875 0.062500
vt 0.320312 0.416072
vt 0.320312 0.437500
vt 0.320312 0.375777
vt 0.320312 0.297749
vt 0.320312 0.062500
vt 0.250000 0.437500
vt 0.156250 0.202250
vt 0.179688 0.202250
vt 0.179688 0.437500
vt 0.156250 0.124223
vt 0.179688 0.124223
vt 0.156250 0.083928
vt 0.179688 0.083928
vt 0.203125 0.202250
vt 0.203125 0.437500
vt 0.203125 0.124223
vt 0.203125 0.083928
vt 0.226562 0.202250
vt 0.226562 0.437500
vt 0.226562 0.124223
vt 0.226562 0.083928
vt 0.250000 0.202250
vt 0.250000 0.437500
vt 0.250000 0.124223
vt 0.250000 0.083928
vt 0.156250 0.437500
vt 0.367188 0.062500
vt 0.367188 0.297750
vt 0.343750 0.297750
vt 0.390625 0.062500
vt 0.390625 0.297750
vt 0.414062 0.062500
vt 0.414062 0.297749
vt 0.437500 0.062500
vt 0.437500 0.297749
vt 0.367188 0.375777
vt 0.343750 0.375777
vt 0.390625 0.375777
vt 0.414062 0.375777
vt 0.437500 0.375777
vt 0.367188 0.416072
vt 0.343750 0.416072
vt 0.390625 0.416072
vt 0.414062 0.416072
vt 0.437500 0.416072
vt 0.367188 0.437500
vt 0.343750 0.437500
vt 0.390625 0.437500
vt 0.414062 0.437500
vt 0.437500 0.437500
vt 0.343750 0.062500
vt 0.085938 0.083928
vt 0.085938 0.124223
vt 0.062500 0.124223
vt 0.109375 0.083928
vt 0.109375 0.124223
vt 0.132812 0.083928
vt 0.132812 0.124223
vt 0.085938 0.202250
vt 0.062500 0.202250
vt 0.109375 0.202250
vt 0.132812 0.202250
vt 0.085938 0.437500
vt 0.062500 0.437500
vt 0.109375 0.437500
vt 0.132812 0.437500
vt 0.062500 0.083928
vt 0.156250 0.062500
vt 0.179688 0.062500
vt 0.203125 0.062500
vt 0.226562 0.062500
vt 0.250000 0.062500
vt 0.085938 0.062500
vt 0.109375 0.062500
vt 0.132812 0.062500
vt 0.062500 0.062500
vn 0.3560 0.9345 0.0000
vn -0.0000 1.0000 0.0000
vn 0.7109 0.7033 0.0000
vn 0.9332 0.3594 0.0000
vn 0.9844 0.1758 0.0000
vn -0.9332 0.3594 0.0000
vn -0.9844 0.1758 0.0000
vn -0.7109 0.7033 0.0000
vn -0.3560 0.9345 0.0000
g Grid_Grid.012_Grid_Grid.033_None.003
usemtl None.003
s 1
f 1/1/1 2/2/1 3/3/2
f 4/4/3 5/5/3 2/2/1
f 6/6/4 7/7/4 5/5/3
f 8/8/5 9/9/5 7/7/4
f 2/2/1 10/10/1 11/11/2
f 5/5/3 12/12/3 10/10/1
f 7/7/4 13/13/4 12/12/3
f 9/9/5 14/14/5 13/13/4
f 10/10/1 15/15/1 16/16/2
f 12/12/3 17/17/3 15/15/1
f 13/13/4 18/18/4 17/17/3
f 14/14/5 19/19/5 18/18/4
f 20/20/2 1/1/1 3/3/2
f 1/1/1 4/4/3 2/2/1
f 4/4/3 6/6/4 5/5/3
f 6/6/4 8/8/5 7/7/4
f 3/3/2 2/2/1 11/11/2
f 2/2/1 5/5/3 10/10/1
f 5/5/3 7/7/4 12/12/3
f 7/7/4 9/9/5 13/13/4
f 11/11/2 10/10/1 16/16/2
f 10/10/1 12/12/3 15/15/1
f 12/12/3 13/13/4 17/17/3
f 13/13/4 14/14/5 18/18/4
f 21/21/6 22/22/6 23/23/7
f 24/24/8 25/25/8 22/22/6
f 26/26/9 27/27/9 25/25/8
f 22/22/6 28/28/6 29/29/7
f 25/25/8 30/30/8 28/28/6
f 27/27/9 31/31/9 30/30/8
f 28/28/6 32/32/6 33/33/7
f 30/30/8 34/34/8 32/32/6
f 31/31/9 35/35/9 34/34/8
f 32/32/6 36/36/6 37/37/7
f 34/34/8 38/38/8 36/36/6
f 35/35/9 39/39/9 38/38/8
f 40/40/7 21/21/6 23/23/7
f 21/21/6 24/24/8 22/22/6
f 24/24/8 26/26/9 25/25/8
f 23/23/7 22/22/6 29/29/7
f 22/22/6 25/25/8 28/28/6
f 25/25/8 27/27/9 30/30/8
f 29/29/7 28/28/6 33/33/7
f 28/28/6 30/30/8 32/32/6
f 30/30/8 31/31/9 34/34/8
f 33/33/7 32/32/6 37/37/7
f 32/32/6 34/34/8 36/36/6
f 34/34/8 35/35/9 38/38/8
f 41/41/5 42/42/4 43/43/4
f 44/44/5 45/45/4 42/42/4
f 46/46/5 47/47/4 45/45/4
f 48/48/5 49/49/4 47/47/4
f 42/42/4 50/50/3 51/51/3
f 45/45/4 52/52/3 50/50/3
f 47/47/4 53/53/3 52/52/3
f 49/49/4 54/54/3 53/53/3
f 50/50/3 55/55/1 56/56/1
f 52/52/3 57/57/1 55/55/1
f 53/53/3 58/58/1 57/57/1
f 54/54/3 59/59/1 58/58/1
f 55/55/1 60/60/2 61/61/2
f 57/57/1 62/62/2 60/60/2
f 58/58/1 63/63/2 62/62/2
f 59/59/1 64/64/2 63/63/2
f 65/65/5 41/41/5 43/43/4
f 41/41/5 44/44/5 42/42/4
f 44/44/5 46/46/5 45/45/4
f 46/46/5 48/48/5 47/47/4
f 43/43/4 42/42/4 51/51/3
f 42/42/4 45/45/4 50/50/3
f 45/45/4 47/47/4 52/52/3
f 47/47/4 49/49/4 53/53/3
f 51/51/3 50/50/3 56/56/1
f 50/50/3 52/52/3 55/55/1
f 52/52/3 53/53/3 57/57/1
f 53/53/3 54/54/3 58/58/1
f 56/56/1 55/55/1 61/61/2
f 55/55/1 57/57/1 60/60/2
f 57/57/1 58/58/1 62/62/2
f 58/58/1 59/59/1 63/63/2
f 66/66/9 67/67/8 68/68/8
f 69/69/9 70/70/8 67/67/8
f 71/71/9 72/72/8 70/70/8
f 67/67/8 73/73/6 74/74/6
f 70/70/8 75/75/6 73/73/6
f 72/72/8 76/76/6 75/75/6
f 73/73/6 77/77/7 78/78/7
f 75/75/6 79/79/7 77/77/7
f 76/76/6 80/80/7 79/79/7
f 81/81/9 66/66/9 68/68/8
f 66/66/9 69/69/9 67/67/8
f 69/69/9 71/71/9 70/70/8
f 68/68/8 67/67/8 74/74/6
f 67/67/8 70/70/8 73/73/6
f 70/70/8 72/72/8 75/75/6
f 74/74/6 73/73/6 78/78/7
f 73/73/6 75/75/6 77/77/7
f 75/75/6 76/76/6 79/79/7
f 15/15/1 56/56/1 61/61/2
f 17/17/3 51/51/3 56/56/1
f 18/18/4 43/43/4 51/51/3
f 19/19/5 65/65/5 43/43/4
f 16/16/2 15/15/1 61/61/2
f 15/15/1 17/17/3 56/56/1
f 17/17/3 18/18/4 51/51/3
f 18/18/4 19/19/5 43/43/4
f 61/82/2 60/83/2 27/27/9
f 60/83/2 62/84/2 31/31/9
f 62/84/2 63/85/2 35/35/9
f 63/85/2 64/86/2 39/39/9
f 26/26/9 61/82/2 27/27/9
f 27/27/9 60/83/2 31/31/9
f 31/31/9 62/84/2 35/35/9
f 35/35/9 63/85/2 39/39/9
f 3/87/2 66/66/9 81/81/9
f 11/88/2 69/69/9 66/66/9
f 16/89/2 71/71/9 69/69/9
f 61/82/2 26/26/9 71/71/9
f 26/26/9 24/24/8 72/72/8
f 24/24/8 21/21/6 76/76/6
f 21/21/6 40/40/7 80/80/7
f 20/90/2 3/87/2 81/81/9
f 3/87/2 11/88/2 66/66/9
f 11/88/2 16/89/2 69/69/9
f 16/89/2 61/82/2 71/71/9
f 71/71/9 26/26/9 72/72/8
f 72/72/8 24/24/8 76/76/6
f 76/76/6 21/21/6 80/80/7
