# Blender v2.82 (sub 7) OBJ File: 'StoneModels.blend'
# www.blender.org
mtllib Stone2a.mtl
o Grid_Grid.009_Grid_Grid.031
v 0.125000 -0.000000 0.500000
v 0.125000 0.700000 0.375000
v 0.000000 0.700000 0.375000
v 0.250000 -0.000000 0.500000
v 0.250000 0.700000 0.375000
v 0.375000 -0.000000 0.500000
v 0.375000 0.700000 0.375000
v 0.500000 -0.000000 0.500000
v 0.500000 0.700000 0.375000
v 0.125000 0.900000 0.250000
v 0.000000 0.900000 0.250000
v 0.250000 0.900000 0.250000
v 0.375000 0.900000 0.250000
v 0.500000 0.900000 0.250000
v 0.125000 0.980000 0.125000
v 0.000000 0.980000 0.125000
v 0.250000 0.980000 0.125000
v 0.375000 0.980000 0.125000
v 0.500000 0.980000 0.125000
v 0.000000 -0.000000 0.500000
v -0.375000 0.700000 0.000000
v -0.375000 0.700000 -0.125000
v -0.500000 0.000000 -0.125000
v -0.250000 0.900000 0.000000
v -0.250000 0.900000 -0.125000
v -0.125000 0.980000 0.000000
v -0.125000 0.980000 -0.125000
v -0.375000 0.700000 -0.250000
v -0.500000 0.000000 -0.250000
v -0.250000 0.900000 -0.250000
v -0.125000 0.980000 -0.250000
v -0.375000 0.700000 -0.375000
v -0.500000 0.000000 -0.375000
v -0.250000 0.900000 -0.375000
v -0.125000 0.980000 -0.375000
v -0.375000 0.700000 -0.500000
v -0.500000 0.000000 -0.500000
v -0.250000 0.900000 -0.500000
v -0.125000 0.980000 -0.500000
v -0.500000 0.000000 0.000000
v 0.500000 0.980000 -0.125000
v 0.375000 0.980000 -0.125000
v 0.375000 1.000000 0.000000
v 0.500000 0.900000 -0.250000
v 0.375000 0.900000 -0.250000
v 0.500000 0.700000 -0.375000
v 0.375000 0.700000 -0.375000
v 0.500000 0.000000 -0.500000
v 0.375000 0.700000 -0.500000
v 0.250000 0.980000 -0.125000
v 0.250000 1.000000 0.000000
v 0.250000 0.900000 -0.250000
v 0.250000 0.900000 -0.375000
v 0.250000 0.900000 -0.500000
v 0.125000 0.980000 -0.125000
v 0.125000 1.000000 0.000000
v 0.125000 0.980000 -0.250000
v 0.125000 0.980000 -0.375000
v 0.125000 0.980000 -0.500000
v 0.000000 1.000000 -0.125000
v 0.000000 0.999999 0.000000
v 0.000000 1.000000 -0.250000
v 0.000000 1.000000 -0.375000
v 0.000000 1.000000 -0.500000
v 0.500000 1.000000 0.000000
v -0.125000 0.700000 0.375000
v -0.250000 0.700000 0.375000
v -0.250000 -0.000000 0.500000
v -0.125000 0.900000 0.250000
v -0.250000 0.900000 0.250000
v -0.125000 0.980000 0.125000
v -0.250000 0.900000 0.125000
v -0.375000 0.700000 0.375000
v -0.375000 -0.000000 0.500000
v -0.375000 0.700000 0.250000
v -0.375000 0.700000 0.125000
v -0.500000 -0.000000 0.375000
v -0.500000 -0.000000 0.500000
v -0.500000 -0.000000 0.250000
v -0.500000 -0.000000 0.125000
v -0.125000 -0.000000 0.500000
vt 0.327148 0.066406
vt 0.327148 0.273438
vt 0.290039 0.273438
vt 0.364258 0.066406
vt 0.364258 0.273438
vt 0.401367 0.066406
vt 0.401367 0.273438
vt 0.437500 0.066406
vt 0.437500 0.273438
vt 0.327148 0.332031
vt 0.290039 0.332031
vt 0.364258 0.332031
vt 0.401367 0.332031
vt 0.437500 0.332031
vt 0.327148 0.368164
vt 0.327148 0.331055
vt 0.290039 0.331055
vt 0.364258 0.368164
vt 0.364258 0.331055
vt 0.401367 0.368164
vt 0.401367 0.331055
vt 0.437500 0.368164
vt 0.437500 0.331055
vt 0.290039 0.066406
vt 0.290039 0.368164
vt 0.269531 0.293945
vt 0.269531 0.256836
vt 0.062500 0.256836
vt 0.328125 0.293945
vt 0.328125 0.256836
vt 0.252930 0.293945
vt 0.252930 0.256836
vt 0.216797 0.256836
vt 0.269531 0.219727
vt 0.062500 0.219727
vt 0.328125 0.219727
vt 0.252930 0.219727
vt 0.216797 0.219727
vt 0.269531 0.183594
vt 0.062500 0.183594
vt 0.328125 0.183594
vt 0.252930 0.183594
vt 0.216797 0.183594
vt 0.269531 0.146484
vt 0.062500 0.146484
vt 0.328125 0.146484
vt 0.252930 0.146484
vt 0.216797 0.146484
vt 0.062500 0.293945
vt 0.216797 0.293945
vt 0.437500 0.256836
vt 0.401367 0.256836
vt 0.401367 0.293945
vt 0.437500 0.219727
vt 0.401367 0.219727
vt 0.437500 0.273438
vt 0.401367 0.273438
vt 0.401367 0.332031
vt 0.062500 0.146484
vt 0.269531 0.146484
vt 0.269531 0.183594
vt 0.364258 0.256836
vt 0.364258 0.293945
vt 0.364258 0.219727
vt 0.328125 0.183594
vt 0.328125 0.219727
vt 0.328125 0.146484
vt 0.327148 0.256836
vt 0.327148 0.293945
vt 0.327148 0.219727
vt 0.364258 0.183594
vt 0.327148 0.183594
vt 0.364258 0.146484
vt 0.327148 0.146484
vt 0.290039 0.256836
vt 0.290039 0.293945
vt 0.290039 0.219727
vt 0.290039 0.183594
vt 0.290039 0.146484
vt 0.437500 0.293945
vt 0.437500 0.332031
vt 0.437500 0.066406
vt 0.364258 0.332031
vt 0.252930 0.273438
vt 0.216797 0.273438
vt 0.216797 0.066406
vt 0.252930 0.332031
vt 0.216797 0.332031
vt 0.252930 0.331055
vt 0.216797 0.331055
vt 0.216797 0.368164
vt 0.179688 0.273438
vt 0.179688 0.066406
vt 0.328125 0.368164
vt 0.269531 0.368164
vt 0.269531 0.405273
vt 0.328125 0.331055
vt 0.269531 0.331055
vt 0.062500 0.405273
vt 0.062500 0.441406
vt 0.062500 0.368164
vt 0.062500 0.331055
vt 0.252930 0.066406
vt 0.252930 0.368164
vt 0.142578 0.066406
vn 0.0000 0.1758 0.9844
vn 0.0000 0.3594 0.9332
vn 0.0000 0.7033 0.7109
vn -0.0000 0.9345 0.3560
vn -0.9844 0.1758 0.0000
vn -0.8480 0.5300 0.0000
vn -0.5391 0.8423 0.0000
vn 0.0000 0.9345 -0.3560
vn 0.0000 1.0000 -0.0000
vn 0.0000 0.7033 -0.7109
vn 0.0000 0.3594 -0.9332
vn 0.6048 0.5181 -0.6048
vn 0.6856 0.2449 -0.6856
vn 0.9332 0.3594 0.0000
vn 0.3679 0.8540 -0.3679
vn 0.7109 0.7033 0.0000
vn 0.1351 0.9816 -0.1351
vn 0.3560 0.9345 0.0000
vn 0.1580 0.9874 0.0000
vn 0.0401 0.9984 0.0395
vn -0.1587 0.7772 0.6089
vn -0.4355 0.8901 0.1342
vn -0.3071 0.4762 0.8240
vn -0.7777 0.6011 0.1841
vn -0.9766 0.1918 0.0974
vn -0.6856 0.2449 0.6856
vn -0.1192 0.9921 0.0395
vn -0.1580 0.9874 0.0000
vn -0.0410 0.9469 0.3188
usemtl None.003
s 1
f 1/1/1 2/2/2 3/3/2
f 4/4/1 5/5/2 2/2/2
f 6/6/1 7/7/2 5/5/2
f 8/8/1 9/9/2 7/7/2
f 2/2/2 10/10/3 11/11/3
f 5/5/2 12/12/3 10/10/3
f 7/7/2 13/13/3 12/12/3
f 9/9/2 14/14/3 13/13/3
f 10/15/3 15/16/4 16/17/4
f 12/18/3 17/19/4 15/16/4
f 13/20/3 18/21/4 17/19/4
f 14/22/3 19/23/4 18/21/4
f 20/24/1 1/1/1 3/3/2
f 1/1/1 4/4/1 2/2/2
f 4/4/1 6/6/1 5/5/2
f 6/6/1 8/8/1 7/7/2
f 3/3/2 2/2/2 11/11/3
f 2/2/2 5/5/2 10/10/3
f 5/5/2 7/7/2 12/12/3
f 7/7/2 9/9/2 13/13/3
f 11/25/3 10/15/3 16/17/4
f 10/15/3 12/18/3 15/16/4
f 12/18/3 13/20/3 17/19/4
f 13/20/3 14/22/3 18/21/4
f 21/26/5 22/27/5 23/28/5
f 24/29/6 25/30/6 22/27/6
f 26/31/7 27/32/7 25/33/7
f 22/27/5 28/34/5 29/35/5
f 25/30/6 30/36/6 28/34/6
f 27/32/7 31/37/7 30/38/7
f 28/34/5 32/39/5 33/40/5
f 30/36/6 34/41/6 32/39/6
f 31/37/7 35/42/7 34/43/7
f 32/39/5 36/44/5 37/45/5
f 34/41/6 38/46/6 36/44/6
f 35/42/7 39/47/7 38/48/7
f 40/49/5 21/26/5 23/28/5
f 21/26/6 24/29/6 22/27/6
f 24/50/7 26/31/7 25/33/7
f 23/28/5 22/27/5 29/35/5
f 22/27/6 25/30/6 28/34/6
f 25/33/7 27/32/7 30/38/7
f 29/35/5 28/34/5 33/40/5
f 28/34/6 30/36/6 32/39/6
f 30/38/7 31/37/7 34/43/7
f 33/40/5 32/39/5 37/45/5
f 32/39/6 34/41/6 36/44/6
f 34/43/7 35/42/7 38/48/7
f 41/51/8 42/52/8 43/53/9
f 44/54/10 45/55/10 42/52/8
f 46/56/11 47/57/12 45/58/10
f 48/59/13 49/60/14 47/61/12
f 42/52/8 50/62/8 51/63/9
f 45/55/10 52/64/15 50/62/8
f 47/61/12 53/65/16 52/66/15
f 49/60/14 54/67/16 53/65/16
f 50/62/8 55/68/17 56/69/9
f 52/64/15 57/70/18 55/68/17
f 53/71/16 58/72/18 57/70/18
f 54/73/16 59/74/18 58/72/18
f 55/68/17 60/75/19 61/76/20
f 57/70/18 62/77/19 60/75/19
f 58/72/18 63/78/19 62/77/19
f 59/74/18 64/79/19 63/78/19
f 65/80/9 41/51/8 43/53/9
f 41/51/8 44/54/10 42/52/8
f 44/81/10 46/56/11 45/58/10
f 46/56/11 48/82/13 47/57/12
f 43/53/9 42/52/8 51/63/9
f 42/52/8 45/55/10 50/62/8
f 45/58/10 47/57/12 52/83/15
f 47/61/12 49/60/14 53/65/16
f 51/63/9 50/62/8 56/69/9
f 50/62/8 52/64/15 55/68/17
f 52/64/15 53/71/16 57/70/18
f 53/71/16 54/73/16 58/72/18
f 56/69/9 55/68/17 61/76/20
f 55/68/17 57/70/18 60/75/19
f 57/70/18 58/72/18 62/77/19
f 58/72/18 59/74/18 63/78/19
f 66/84/2 67/85/2 68/86/1
f 69/87/3 70/88/21 67/85/2
f 71/89/22 72/90/7 70/91/21
f 67/85/2 73/92/23 74/93/1
f 70/94/24 75/95/6 73/96/23
f 72/97/6 76/98/6 75/95/6
f 73/96/25 77/99/5 78/100/26
f 75/95/5 79/101/5 77/99/5
f 76/98/5 80/102/5 79/101/5
f 81/103/1 66/84/2 68/86/1
f 66/84/2 69/87/3 67/85/2
f 69/104/3 71/89/22 70/91/21
f 68/86/1 67/85/2 74/93/1
f 67/85/2 70/88/24 73/92/23
f 70/94/24 72/97/6 75/95/6
f 74/93/1 73/92/25 78/105/26
f 73/96/25 75/95/5 77/99/5
f 75/95/5 76/98/5 79/101/5
f 15/16/4 56/69/9 61/76/20
f 17/19/4 51/63/9 56/69/9
f 18/21/4 43/53/9 51/63/9
f 19/23/4 65/80/9 43/53/9
f 16/17/4 15/16/4 61/76/20
f 15/16/4 17/19/4 56/69/9
f 17/19/4 18/21/4 51/63/9
f 18/21/4 19/23/4 43/53/9
f 61/76/27 60/75/28 27/32/28
f 60/75/28 62/77/28 31/37/28
f 62/77/28 63/78/28 35/42/28
f 63/78/28 64/79/28 39/47/28
f 26/31/28 61/76/27 27/32/28
f 27/32/28 60/75/28 31/37/28
f 31/37/28 62/77/28 35/42/28
f 35/42/28 63/78/28 39/47/28
f 3/3/2 66/84/2 81/103/1
f 11/11/3 69/87/3 66/84/2
f 16/17/4 71/89/29 69/104/3
f 61/76/27 26/31/28 71/89/29
f 26/31/7 24/50/7 72/90/7
f 24/29/6 21/26/6 76/98/6
f 21/26/5 40/49/5 80/102/5
f 20/24/1 3/3/2 81/103/1
f 3/3/2 11/11/3 66/84/2
f 11/25/3 16/17/4 69/104/3
f 16/17/4 61/76/27 71/89/29
f 71/89/22 26/31/7 72/90/7
f 72/97/6 24/29/6 76/98/6
f 76/98/5 21/26/5 80/102/5
