# Blender v2.82 (sub 7) OBJ File: 'StoneModels.blend'
# www.blender.org
mtllib Stone4d.mtl
o Grid_Grid.019_Grid_Grid.038
v 0.125000 1.000000 0.500000
v 0.125000 1.000000 0.375000
v 0.000000 1.000000 0.375000
v 0.250000 1.000000 0.500000
v 0.250000 1.000000 0.375000
v 0.375000 1.000000 0.500000
v 0.375000 1.000000 0.375000
v 0.500000 1.000000 0.500000
v 0.500000 1.000000 0.375000
v 0.125000 1.000000 0.250000
v 0.000000 1.000000 0.250000
v 0.250000 1.000000 0.250000
v 0.375000 1.000000 0.250000
v 0.500000 1.000000 0.250000
v 0.125000 1.000000 0.125000
v 0.000000 1.000000 0.125000
v 0.250000 1.000000 0.125000
v 0.375000 1.000000 0.125000
v 0.500000 1.000000 0.125000
v 0.000000 1.000000 0.500000
v -0.375000 1.000000 0.000000
v -0.375000 1.000000 -0.125000
v -0.500000 1.000000 -0.125000
v -0.250000 1.000000 0.000000
v -0.250000 1.000000 -0.125000
v -0.125000 1.000000 0.000000
v -0.125000 1.000000 -0.125000
v -0.375000 1.000000 -0.250000
v -0.500000 1.000000 -0.250000
v -0.250000 1.000000 -0.250000
v -0.125000 1.000000 -0.250000
v -0.375000 1.000000 -0.375000
v -0.500000 1.000000 -0.375000
v -0.250000 1.000000 -0.375000
v -0.125000 1.000000 -0.375000
v -0.375000 1.000000 -0.500000
v -0.500000 1.000000 -0.500000
v -0.250000 1.000000 -0.500000
v -0.125000 1.000000 -0.500000
v -0.500000 1.000000 0.000000
v 0.500000 0.980000 -0.125000
v 0.375000 0.980000 -0.125000
v 0.375000 1.000000 0.000000
v 0.500000 0.900000 -0.250000
v 0.375000 0.900000 -0.250000
v 0.500000 0.700000 -0.375000
v 0.375000 0.700000 -0.375000
v 0.500000 0.000000 -0.500000
v 0.375000 0.700000 -0.500000
v 0.250000 0.980000 -0.125000
v 0.250000 1.000000 0.000000
v 0.250000 0.900000 -0.250000
v 0.250000 0.900000 -0.375000
v 0.250000 0.900000 -0.500000
v 0.125000 0.980000 -0.125000
v 0.125000 1.000000 0.000000
v 0.125000 0.980000 -0.250000
v 0.125000 0.980000 -0.375000
v 0.125000 0.980000 -0.500000
v 0.000000 1.000000 -0.125000
v 0.000000 0.999999 0.000000
v 0.000000 1.000000 -0.250000
v 0.000000 1.000000 -0.375000
v 0.000000 1.000000 -0.500000
v 0.500000 1.000000 0.000000
v -0.125000 0.980000 0.375000
v -0.250000 0.900000 0.375000
v -0.250000 0.900000 0.500000
v -0.125000 0.980000 0.250000
v -0.250000 0.900000 0.250000
v -0.125000 0.980000 0.125000
v -0.250000 0.980000 0.125000
v -0.375000 0.700000 0.375000
v -0.375000 0.700000 0.500000
v -0.375000 0.900000 0.250000
v -0.375000 0.980000 0.125000
v -0.500000 0.700000 0.375000
v -0.500000 -0.000000 0.500000
v -0.500000 0.900000 0.250000
v -0.500000 0.980000 0.125000
v -0.125000 0.980000 0.500000
vt 0.319336 0.422852
vt 0.319336 0.390625
vt 0.287109 0.390625
vt 0.350586 0.422852
vt 0.350586 0.390625
vt 0.382812 0.422852
vt 0.382812 0.390625
vt 0.415039 0.422852
vt 0.415039 0.390625
vt 0.319336 0.358398
vt 0.287109 0.358398
vt 0.350586 0.358398
vt 0.382812 0.358398
vt 0.415039 0.358398
vt 0.319336 0.327148
vt 0.287109 0.327148
vt 0.350586 0.327148
vt 0.382812 0.327148
vt 0.415039 0.327148
vt 0.287109 0.422852
vt 0.191406 0.294922
vt 0.191406 0.262695
vt 0.159180 0.262695
vt 0.222656 0.294922
vt 0.222656 0.262695
vt 0.254883 0.294922
vt 0.254883 0.262695
vt 0.191406 0.230469
vt 0.159180 0.230469
vt 0.222656 0.230469
vt 0.254883 0.230469
vt 0.191406 0.199219
vt 0.159180 0.199219
vt 0.222656 0.199219
vt 0.254883 0.199219
vt 0.191406 0.166992
vt 0.159180 0.166992
vt 0.222656 0.166992
vt 0.254883 0.166992
vt 0.159180 0.294922
vt 0.415039 0.262695
vt 0.382812 0.262695
vt 0.382812 0.294922
vt 0.415039 0.230469
vt 0.382812 0.230469
vt 0.415039 0.229492
vt 0.382812 0.229492
vt 0.382812 0.281250
vt 0.042969 0.166992
vt 0.221680 0.166992
vt 0.221680 0.199219
vt 0.350586 0.262695
vt 0.350586 0.294922
vt 0.350586 0.230469
vt 0.273438 0.199219
vt 0.273438 0.230469
vt 0.273438 0.166992
vt 0.319336 0.262695
vt 0.319336 0.294922
vt 0.319336 0.230469
vt 0.350586 0.199219
vt 0.319336 0.199219
vt 0.350586 0.166992
vt 0.319336 0.166992
vt 0.287109 0.262695
vt 0.287109 0.294922
vt 0.287109 0.230469
vt 0.287109 0.199219
vt 0.287109 0.166992
vt 0.415039 0.294922
vt 0.415039 0.281250
vt 0.415039 0.050781
vt 0.350586 0.281250
vt 0.254883 0.390625
vt 0.222656 0.390625
vt 0.222656 0.422852
vt 0.254883 0.358398
vt 0.222656 0.358398
vt 0.254883 0.327148
vt 0.222656 0.327148
vt 0.273438 0.390625
vt 0.221680 0.390625
vt 0.221680 0.422852
vt 0.222656 0.281250
vt 0.191406 0.281250
vt 0.191406 0.229492
vt 0.191406 0.327148
vt 0.191406 0.358398
vt 0.159180 0.229492
vt 0.159180 0.050781
vt 0.159180 0.281250
vt 0.159180 0.327148
vt 0.159180 0.358398
vt 0.254883 0.422852
vt 0.273438 0.422852
vt 0.273438 0.358398
vt 0.042969 0.422852
vn 0.0000 1.0000 0.0000
vn -0.0792 0.9969 0.0000
vn 0.0000 0.9969 0.0792
vn 0.0000 0.9345 -0.3560
vn -0.0000 0.9969 -0.0792
vn 0.0000 0.7033 -0.7109
vn 0.0000 0.3594 -0.9332
vn 0.6048 0.5181 -0.6048
vn 0.6856 0.2449 -0.6856
vn 0.9332 0.3594 0.0000
vn 0.3679 0.8540 -0.3679
vn 0.7109 0.7033 0.0000
vn 0.1351 0.9816 -0.1351
vn 0.3560 0.9345 0.0000
vn 0.0792 0.9969 0.0000
vn -0.3560 0.9345 0.0000
vn -0.7109 0.7033 0.0000
vn -0.3679 0.8540 0.3679
vn -0.1351 0.9816 0.1351
vn 0.0000 0.9345 0.3560
vn -0.6048 0.5181 0.6048
vn -0.9332 0.3594 0.0000
vn 0.0000 0.7033 0.7109
vn 0.0000 0.3594 0.9332
vn -0.6856 0.2449 0.6856
g Grid_Grid.019_Grid_Grid.038_None.003
usemtl None.003
s 1
f 1/1/1 2/2/1 3/3/2
f 4/4/1 5/5/1 2/2/1
f 6/6/1 7/7/1 5/5/1
f 8/8/1 9/9/1 7/7/1
f 2/2/1 10/10/1 11/11/2
f 5/5/1 12/12/1 10/10/1
f 7/7/1 13/13/1 12/12/1
f 9/9/1 14/14/1 13/13/1
f 10/10/1 15/15/1 16/16/2
f 12/12/1 17/17/1 15/15/1
f 13/13/1 18/18/1 17/17/1
f 14/14/1 19/19/1 18/18/1
f 20/20/2 1/1/1 3/3/2
f 1/1/1 4/4/1 2/2/1
f 4/4/1 6/6/1 5/5/1
f 6/6/1 8/8/1 7/7/1
f 3/3/2 2/2/1 11/11/2
f 2/2/1 5/5/1 10/10/1
f 5/5/1 7/7/1 12/12/1
f 7/7/1 9/9/1 13/13/1
f 11/11/2 10/10/1 16/16/2
f 10/10/1 12/12/1 15/15/1
f 12/12/1 13/13/1 17/17/1
f 13/13/1 14/14/1 18/18/1
f 21/21/3 22/22/1 23/23/1
f 24/24/3 25/25/1 22/22/1
f 26/26/3 27/27/1 25/25/1
f 22/22/1 28/28/1 29/29/1
f 25/25/1 30/30/1 28/28/1
f 27/27/1 31/31/1 30/30/1
f 28/28/1 32/32/1 33/33/1
f 30/30/1 34/34/1 32/32/1
f 31/31/1 35/35/1 34/34/1
f 32/32/1 36/36/1 37/37/1
f 34/34/1 38/38/1 36/36/1
f 35/35/1 39/39/1 38/38/1
f 40/40/3 21/21/3 23/23/1
f 21/21/3 24/24/3 22/22/1
f 24/24/3 26/26/3 25/25/1
f 23/23/1 22/22/1 29/29/1
f 22/22/1 25/25/1 28/28/1
f 25/25/1 27/27/1 30/30/1
f 29/29/1 28/28/1 33/33/1
f 28/28/1 30/30/1 32/32/1
f 30/30/1 31/31/1 34/34/1
f 33/33/1 32/32/1 37/37/1
f 32/32/1 34/34/1 36/36/1
f 34/34/1 35/35/1 38/38/1
f 41/41/4 42/42/4 43/43/5
f 44/44/6 45/45/6 42/42/4
f 46/46/7 47/47/8 45/48/6
f 48/49/9 49/50/10 47/51/8
f 42/42/4 50/52/4 51/53/5
f 45/45/6 52/54/11 50/52/4
f 47/51/8 53/55/12 52/56/11
f 49/50/10 54/57/12 53/55/12
f 50/52/4 55/58/13 56/59/5
f 52/54/11 57/60/14 55/58/13
f 53/61/12 58/62/14 57/60/14
f 54/63/12 59/64/14 58/62/14
f 55/58/13 60/65/15 61/66/1
f 57/60/14 62/67/15 60/65/15
f 58/62/14 63/68/15 62/67/15
f 59/64/14 64/69/15 63/68/15
f 65/70/5 41/41/4 43/43/5
f 41/41/4 44/44/6 42/42/4
f 44/71/6 46/46/7 45/48/6
f 46/46/7 48/72/9 47/47/8
f 43/43/5 42/42/4 51/53/5
f 42/42/4 45/45/6 50/52/4
f 45/48/6 47/47/8 52/73/11
f 47/51/8 49/50/10 53/55/12
f 51/53/5 50/52/4 56/59/5
f 50/52/4 52/54/11 55/58/13
f 52/54/11 53/61/12 57/60/14
f 53/61/12 54/63/12 58/62/14
f 56/59/5 55/58/13 61/66/1
f 55/58/13 57/60/14 60/65/15
f 57/60/14 58/62/14 62/67/15
f 58/62/14 59/64/14 63/68/15
f 66/74/16 67/75/17 68/76/17
f 69/77/16 70/78/18 67/75/17
f 71/79/19 72/80/20 70/78/18
f 67/81/17 73/82/21 74/83/22
f 70/84/18 75/85/23 73/86/21
f 72/80/20 76/87/20 75/88/23
f 73/86/21 77/89/24 78/90/25
f 75/85/23 79/91/23 77/89/24
f 76/87/20 80/92/20 79/93/23
f 81/94/16 66/74/16 68/76/17
f 66/74/16 69/77/16 67/75/17
f 69/77/16 71/79/19 70/78/18
f 68/95/17 67/81/17 74/83/22
f 67/81/17 70/96/18 73/82/21
f 70/78/18 72/80/20 75/88/23
f 74/83/22 73/82/21 78/97/25
f 73/86/21 75/85/23 77/89/24
f 75/88/23 76/87/20 79/93/23
f 15/15/1 56/59/5 61/66/1
f 17/17/1 51/53/5 56/59/5
f 18/18/1 43/43/5 51/53/5
f 19/19/1 65/70/5 43/43/5
f 16/16/2 15/15/1 61/66/1
f 15/15/1 17/17/1 56/59/5
f 17/17/1 18/18/1 51/53/5
f 18/18/1 19/19/1 43/43/5
f 61/66/1 60/65/15 27/27/1
f 60/65/15 62/67/15 31/31/1
f 62/67/15 63/68/15 35/35/1
f 63/68/15 64/69/15 39/39/1
f 26/26/3 61/66/1 27/27/1
f 27/27/1 60/65/15 31/31/1
f 31/31/1 62/67/15 35/35/1
f 35/35/1 63/68/15 39/39/1
f 3/3/2 66/74/16 81/94/16
f 11/11/2 69/77/16 66/74/16
f 16/16/2 71/79/19 69/77/16
f 61/66/1 26/26/3 71/79/19
f 26/26/3 24/24/3 72/80/20
f 24/24/3 21/21/3 76/87/20
f 21/21/3 40/40/3 80/92/20
f 20/20/2 3/3/2 81/94/16
f 3/3/2 11/11/2 66/74/16
f 11/11/2 16/16/2 69/77/16
f 16/16/2 61/66/1 71/79/19
f 71/79/19 26/26/3 72/80/20
f 72/80/20 24/24/3 76/87/20
f 76/87/20 21/21/3 80/92/20
