# Blender v2.76 (sub 0) OBJ File: 'StoneModels.blend'
# www.blender.org
mtllib Stone3c.mtl
o Grid_Grid.013_Grid_Grid.034
v 0.125000 1.000000 0.500000
v 0.125000 1.000000 0.375000
v 0.000000 1.000000 0.375000
v 0.250000 1.000000 0.500000
v 0.250000 1.000000 0.375000
v 0.375000 1.000000 0.500000
v 0.375000 1.000000 0.375000
v 0.500000 1.000000 0.500000
v 0.500000 1.000000 0.375000
v 0.125000 1.000000 0.250000
v 0.000000 1.000000 0.250000
v 0.250000 1.000000 0.250000
v 0.375000 1.000000 0.250000
v 0.500000 1.000000 0.250000
v 0.125000 1.000000 0.125000
v 0.000000 1.000000 0.125000
v 0.250000 1.000000 0.125000
v 0.375000 1.000000 0.125000
v 0.500000 1.000000 0.125000
v 0.000000 1.000000 0.500000
v -0.375000 0.700000 0.000000
v -0.375000 0.700000 -0.125000
v -0.500000 0.000000 -0.125000
v -0.250000 0.900000 0.000000
v -0.250000 0.900000 -0.125000
v -0.125000 0.980000 0.000000
v -0.125000 0.980000 -0.125000
v -0.375000 0.700000 -0.250000
v -0.500000 0.000000 -0.250000
v -0.250000 0.900000 -0.250000
v -0.125000 0.980000 -0.250000
v -0.375000 0.700000 -0.375000
v -0.500000 0.000000 -0.375000
v -0.250000 0.900000 -0.375000
v -0.125000 0.980000 -0.375000
v -0.375000 0.700000 -0.500000
v -0.500000 0.000000 -0.500000
v -0.250000 0.900000 -0.500000
v -0.125000 0.980000 -0.500000
v -0.500000 0.000000 0.000000
v 0.500000 1.000000 -0.125000
v 0.375000 1.000000 -0.125000
v 0.375000 1.000000 0.000000
v 0.500000 1.000000 -0.250000
v 0.375000 1.000000 -0.250000
v 0.500000 1.000000 -0.375000
v 0.375000 1.000000 -0.375000
v 0.500000 1.000000 -0.500000
v 0.375000 1.000000 -0.500000
v 0.250000 1.000000 -0.125000
v 0.250000 1.000000 0.000000
v 0.250000 1.000000 -0.250000
v 0.250000 1.000000 -0.375000
v 0.250000 1.000000 -0.500000
v 0.125000 1.000000 -0.125000
v 0.125000 1.000000 0.000000
v 0.125000 1.000000 -0.250000
v 0.125000 1.000000 -0.375000
v 0.125000 1.000000 -0.500000
v 0.000000 1.000000 -0.125000
v 0.000000 0.999999 0.000000
v 0.000000 1.000000 -0.250000
v 0.000000 1.000000 -0.375000
v 0.000000 1.000000 -0.500000
v 0.500000 1.000000 0.000000
v -0.125000 0.980000 0.375000
v -0.250000 0.900000 0.375000
v -0.250000 0.900000 0.500000
v -0.125000 0.980000 0.250000
v -0.250000 0.900000 0.250000
v -0.125000 0.980000 0.125000
v -0.250000 0.900000 0.125000
v -0.375000 0.700000 0.375000
v -0.375000 0.700000 0.500000
v -0.375000 0.700000 0.250000
v -0.375000 0.700000 0.125000
v -0.500000 -0.000000 0.375000
v -0.500000 -0.000000 0.500000
v -0.500000 -0.000000 0.250000
v -0.500000 -0.000000 0.125000
v -0.125000 0.980000 0.500000
vt 0.390625 0.117188
vt 0.390625 0.153320
vt 0.354492 0.153320
vt 0.426758 0.117188
vt 0.426758 0.153320
vt 0.462891 0.117188
vt 0.462891 0.153320
vt 0.500000 0.117188
vt 0.500000 0.153320
vt 0.390625 0.190430
vt 0.354492 0.190430
vt 0.426758 0.190430
vt 0.462891 0.190430
vt 0.500000 0.190430
vt 0.390625 0.225586
vt 0.354492 0.225586
vt 0.426758 0.225586
vt 0.462891 0.225586
vt 0.500000 0.225586
vt 0.354492 0.117188
vt 0.206055 0.261719
vt 0.206055 0.298828
vt -0.000000 0.298828
vt 0.274414 0.261719
vt 0.274414 0.298828
vt 0.317383 0.261719
vt 0.317383 0.298828
vt 0.206055 0.333984
vt -0.000000 0.333984
vt 0.274414 0.333984
vt 0.317383 0.333984
vt 0.206055 0.371094
vt -0.000000 0.371094
vt 0.274414 0.371094
vt 0.317383 0.371094
vt 0.206055 0.407227
vt -0.000000 0.407227
vt 0.274414 0.407227
vt 0.317383 0.407227
vt -0.000000 0.261719
vt 0.500000 0.298828
vt 0.462891 0.298828
vt 0.462891 0.261719
vt 0.500000 0.333984
vt 0.462891 0.333984
vt 0.500000 0.371094
vt 0.462891 0.371094
vt 0.500000 0.407227
vt 0.462891 0.407227
vt 0.426758 0.298828
vt 0.426758 0.261719
vt 0.426758 0.333984
vt 0.426758 0.371094
vt 0.426758 0.407227
vt 0.390625 0.298828
vt 0.390625 0.261719
vt 0.390625 0.333984
vt 0.390625 0.371094
vt 0.390625 0.407227
vt 0.354492 0.298828
vt 0.354492 0.261719
vt 0.354492 0.333984
vt 0.354492 0.371094
vt 0.354492 0.407227
vt 0.500000 0.261719
vt 0.317383 0.153320
vt 0.274414 0.153320
vt 0.274414 0.117188
vt 0.317383 0.190430
vt 0.274414 0.190430
vt 0.317383 0.225586
vt 0.274414 0.225586
vt 0.206055 0.153320
vt 0.206055 0.117188
vt 0.206055 0.190430
vt 0.206055 0.225586
vt -0.000000 0.153320
vt -0.000000 0.117188
vt -0.000000 0.190430
vt -0.000000 0.225586
vt 0.317383 0.117188
vn 0.000000 1.000000 0.000000
vn -0.984400 0.175800 0.000000
vn -0.848000 0.530000 0.000000
vn -0.539100 0.842300 0.000000
vn -0.158000 0.987400 0.000000
usemtl None.003
s 1
f 1/1/1 2/2/1 3/3/1
f 4/4/1 5/5/1 2/2/1
f 6/6/1 7/7/1 5/5/1
f 8/8/1 9/9/1 7/7/1
f 2/2/1 10/10/1 11/11/1
f 5/5/1 12/12/1 10/10/1
f 7/7/1 13/13/1 12/12/1
f 9/9/1 14/14/1 13/13/1
f 10/10/1 15/15/1 16/16/1
f 12/12/1 17/17/1 15/15/1
f 13/13/1 18/18/1 17/17/1
f 14/14/1 19/19/1 18/18/1
f 20/20/1 1/1/1 3/3/1
f 1/1/1 4/4/1 2/2/1
f 4/4/1 6/6/1 5/5/1
f 6/6/1 8/8/1 7/7/1
f 3/3/1 2/2/1 11/11/1
f 2/2/1 5/5/1 10/10/1
f 5/5/1 7/7/1 12/12/1
f 7/7/1 9/9/1 13/13/1
f 11/11/1 10/10/1 16/16/1
f 10/10/1 12/12/1 15/15/1
f 12/12/1 13/13/1 17/17/1
f 13/13/1 14/14/1 18/18/1
f 21/21/2 22/22/2 23/23/2
f 24/24/3 25/25/3 22/22/3
f 26/26/4 27/27/4 25/25/4
f 22/22/2 28/28/2 29/29/2
f 25/25/3 30/30/3 28/28/3
f 27/27/4 31/31/4 30/30/4
f 28/28/2 32/32/2 33/33/2
f 30/30/3 34/34/3 32/32/3
f 31/31/4 35/35/4 34/34/4
f 32/32/2 36/36/2 37/37/2
f 34/34/3 38/38/3 36/36/3
f 35/35/4 39/39/4 38/38/4
f 40/40/2 21/21/2 23/23/2
f 21/21/3 24/24/3 22/22/3
f 24/24/4 26/26/4 25/25/4
f 23/23/2 22/22/2 29/29/2
f 22/22/3 25/25/3 28/28/3
f 25/25/4 27/27/4 30/30/4
f 29/29/2 28/28/2 33/33/2
f 28/28/3 30/30/3 32/32/3
f 30/30/4 31/31/4 34/34/4
f 33/33/2 32/32/2 37/37/2
f 32/32/3 34/34/3 36/36/3
f 34/34/4 35/35/4 38/38/4
f 41/41/1 42/42/1 43/43/1
f 44/44/1 45/45/1 42/42/1
f 46/46/1 47/47/1 45/45/1
f 48/48/1 49/49/1 47/47/1
f 42/42/1 50/50/1 51/51/1
f 45/45/1 52/52/1 50/50/1
f 47/47/1 53/53/1 52/52/1
f 49/49/1 54/54/1 53/53/1
f 50/50/1 55/55/1 56/56/1
f 52/52/1 57/57/1 55/55/1
f 53/53/1 58/58/1 57/57/1
f 54/54/1 59/59/1 58/58/1
f 55/55/1 60/60/1 61/61/1
f 57/57/1 62/62/1 60/60/1
f 58/58/1 63/63/1 62/62/1
f 59/59/1 64/64/1 63/63/1
f 65/65/1 41/41/1 43/43/1
f 41/41/1 44/44/1 42/42/1
f 44/44/1 46/46/1 45/45/1
f 46/46/1 48/48/1 47/47/1
f 43/43/1 42/42/1 51/51/1
f 42/42/1 45/45/1 50/50/1
f 45/45/1 47/47/1 52/52/1
f 47/47/1 49/49/1 53/53/1
f 51/51/1 50/50/1 56/56/1
f 50/50/1 52/52/1 55/55/1
f 52/52/1 53/53/1 57/57/1
f 53/53/1 54/54/1 58/58/1
f 56/56/1 55/55/1 61/61/1
f 55/55/1 57/57/1 60/60/1
f 57/57/1 58/58/1 62/62/1
f 58/58/1 59/59/1 63/63/1
f 66/66/4 67/67/4 68/68/4
f 69/69/4 70/70/4 67/67/4
f 71/71/4 72/72/4 70/70/4
f 67/67/3 73/73/3 74/74/3
f 70/70/3 75/75/3 73/73/3
f 72/72/3 76/76/3 75/75/3
f 73/73/2 77/77/2 78/78/2
f 75/75/2 79/79/2 77/77/2
f 76/76/2 80/80/2 79/79/2
f 81/81/4 66/66/4 68/68/4
f 66/66/4 69/69/4 67/67/4
f 69/69/4 71/71/4 70/70/4
f 68/68/3 67/67/3 74/74/3
f 67/67/3 70/70/3 73/73/3
f 70/70/3 72/72/3 75/75/3
f 74/74/2 73/73/2 78/78/2
f 73/73/2 75/75/2 77/77/2
f 75/75/2 76/76/2 79/79/2
f 15/15/1 56/56/1 61/61/1
f 17/17/1 51/51/1 56/56/1
f 18/18/1 43/43/1 51/51/1
f 19/19/1 65/65/1 43/43/1
f 16/16/1 15/15/1 61/61/1
f 15/15/1 17/17/1 56/56/1
f 17/17/1 18/18/1 51/51/1
f 18/18/1 19/19/1 43/43/1
f 61/61/5 60/60/5 27/27/5
f 60/60/5 62/62/5 31/31/5
f 62/62/5 63/63/5 35/35/5
f 63/63/5 64/64/5 39/39/5
f 26/26/5 61/61/5 27/27/5
f 27/27/5 60/60/5 31/31/5
f 31/31/5 62/62/5 35/35/5
f 35/35/5 63/63/5 39/39/5
f 3/3/5 66/66/5 81/81/5
f 11/11/5 69/69/5 66/66/5
f 16/16/5 71/71/5 69/69/5
f 61/61/5 26/26/5 71/71/5
f 26/26/4 24/24/4 72/72/4
f 24/24/3 21/21/3 76/76/3
f 21/21/2 40/40/2 80/80/2
f 20/20/5 3/3/5 81/81/5
f 3/3/5 11/11/5 66/66/5
f 11/11/5 16/16/5 69/69/5
f 16/16/5 61/61/5 71/71/5
f 71/71/4 26/26/4 72/72/4
f 72/72/3 24/24/3 76/76/3
f 76/76/2 21/21/2 80/80/2
