# Blender v2.76 (sub 0) OBJ File: 'StoneTileSide.blend'
# www.blender.org
mtllib StoneTileSide.mtl
o Grid_Grid.003
v 0.000000 1.000000 0.500000
v 0.125000 1.000000 0.500000
v 0.250000 1.000000 0.500000
v 0.375000 1.000000 0.500000
v 0.500000 1.000000 0.500000
v 0.000000 1.000000 0.375000
v 0.125000 1.000000 0.375000
v 0.250000 1.000000 0.375000
v 0.375000 1.000000 0.375000
v 0.500000 1.000000 0.375000
v 0.000000 1.000000 0.250000
v 0.125000 1.000000 0.250000
v 0.250000 1.000000 0.250000
v 0.375000 1.000000 0.250000
v 0.500000 1.000000 0.250000
v 0.000000 1.000000 0.125000
v 0.125000 1.000000 0.125000
v 0.250000 1.000000 0.125000
v 0.375000 1.000000 0.125000
v 0.500000 1.000000 0.125000
v -0.500000 0.005679 0.000000
v -0.375000 0.705679 0.000000
v -0.250000 0.905679 0.000000
v -0.125000 0.985679 0.000000
v -0.500000 0.005679 -0.125000
v -0.375000 0.705679 -0.125000
v -0.250000 0.905679 -0.125000
v -0.125000 0.985679 -0.125000
v -0.500000 0.005679 -0.250000
v -0.375000 0.705679 -0.250000
v -0.250000 0.905679 -0.250000
v -0.125000 0.985680 -0.250000
v -0.500000 0.005679 -0.375000
v -0.375000 0.705680 -0.375000
v -0.250000 0.905680 -0.375000
v -0.125000 0.985680 -0.375000
v -0.500000 0.005679 -0.500000
v -0.375000 0.705680 -0.500000
v -0.250000 0.905680 -0.500000
v -0.125000 0.985680 -0.500000
v 0.500000 1.000000 0.000000
v 0.500000 1.000000 -0.125000
v 0.500000 1.000000 -0.250000
v 0.500000 1.000000 -0.375000
v 0.500000 1.000000 -0.500000
v 0.375000 1.000000 0.000000
v 0.375000 1.000000 -0.125000
v 0.375000 1.000000 -0.250000
v 0.375000 1.000000 -0.375000
v 0.375000 1.000000 -0.500000
v 0.250000 1.000000 0.000000
v 0.250000 1.000000 -0.125000
v 0.250000 1.000000 -0.250000
v 0.250000 1.000000 -0.375000
v 0.250000 1.000000 -0.500000
v 0.125000 1.000000 0.000000
v 0.125000 1.000000 -0.125000
v 0.125000 1.000000 -0.250000
v 0.125000 1.000000 -0.375000
v 0.125000 1.000000 -0.500000
v 0.000000 0.999999 0.000000
v 0.000000 1.000000 -0.125000
v 0.000000 1.000000 -0.250000
v 0.000000 1.000000 -0.375000
v 0.000000 1.000000 -0.500000
v -0.125000 0.985680 0.500000
v -0.125000 0.985680 0.375000
v -0.125000 0.985680 0.250000
v -0.125000 0.985680 0.125000
v -0.250000 0.905680 0.500000
v -0.250000 0.905680 0.375000
v -0.250000 0.905679 0.250000
v -0.250000 0.905679 0.125000
v -0.375000 0.705680 0.500000
v -0.375000 0.705679 0.375000
v -0.375000 0.705679 0.250000
v -0.375000 0.705679 0.125000
v -0.500000 0.005679 0.500000
v -0.500000 0.005679 0.375000
v -0.500000 0.005679 0.250000
v -0.500000 0.005679 0.125000
vt 0.378072 0.482563
vt 0.378072 0.422958
vt 0.413216 0.422958
vt 0.342929 0.482563
vt 0.342929 0.422958
vt 0.307785 0.482563
vt 0.307785 0.422958
vt 0.272642 0.482563
vt 0.272642 0.422958
vt 0.378072 0.363352
vt 0.413216 0.363352
vt 0.342929 0.363352
vt 0.307785 0.363352
vt 0.272642 0.363352
vt 0.378072 0.303746
vt 0.413216 0.303746
vt 0.342929 0.303746
vt 0.307785 0.303746
vt 0.272642 0.303746
vt 0.413216 0.482563
vt 0.207132 0.244141
vt 0.207132 0.303746
vt 0.009624 0.303746
vt 0.272642 0.244141
vt 0.448810 0.244141
vt 0.448810 0.184535
vt 0.486470 0.184535
vt 0.207132 0.363352
vt 0.009624 0.363352
vt 0.448810 0.124929
vt 0.486470 0.124929
vt 0.207132 0.422958
vt 0.009624 0.422958
vt 0.448810 0.065324
vt 0.486470 0.065324
vt 0.207132 0.482563
vt 0.009624 0.482563
vt 0.448810 0.005718
vt 0.486469 0.005718
vt 0.009624 0.244141
vt 0.486470 0.244141
vt 0.272642 0.184535
vt 0.307785 0.184535
vt 0.307785 0.244141
vt 0.272642 0.124929
vt 0.307785 0.124929
vt 0.272642 0.065324
vt 0.307785 0.065324
vt 0.272642 0.005718
vt 0.307785 0.005718
vt 0.342929 0.184535
vt 0.342929 0.244141
vt 0.342929 0.124929
vt 0.342929 0.065324
vt 0.342929 0.005718
vt 0.378072 0.184535
vt 0.378072 0.244141
vt 0.378072 0.124929
vt 0.378072 0.065324
vt 0.378072 0.005718
vt 0.413216 0.184535
vt 0.413216 0.244141
vt 0.413216 0.124929
vt 0.413216 0.065324
vt 0.413216 0.005718
vt 0.448810 0.422958
vt 0.486470 0.422958
vt 0.486470 0.482563
vt 0.448810 0.363352
vt 0.486470 0.363352
vt 0.448810 0.303746
vt 0.486470 0.303746
vt 0.207132 0.065324
vt 0.207132 0.005718
vt 0.207132 0.124929
vt 0.207132 0.184535
vt 0.009624 0.065324
vt 0.009624 0.005718
vt 0.009624 0.124929
vt 0.009624 0.184535
vt 0.448810 0.482563
vn 0.000000 1.000000 0.000000
vn -0.984400 0.175800 -0.000000
vn -0.848000 0.530000 -0.000000
vn -0.539100 0.842300 0.000000
vn -0.113800 0.993500 0.000000
usemtl None
s off
f 2/1/1 7/2/1 6/3/1
f 3/4/1 8/5/1 7/2/1
f 4/6/1 9/7/1 8/5/1
f 5/8/1 10/9/1 9/7/1
f 7/2/1 12/10/1 11/11/1
f 8/5/1 13/12/1 12/10/1
f 9/7/1 14/13/1 13/12/1
f 10/9/1 15/14/1 14/13/1
f 12/10/1 17/15/1 16/16/1
f 13/12/1 18/17/1 17/15/1
f 14/13/1 19/18/1 18/17/1
f 15/14/1 20/19/1 19/18/1
f 1/20/1 2/1/1 6/3/1
f 2/1/1 3/4/1 7/2/1
f 3/4/1 4/6/1 8/5/1
f 4/6/1 5/8/1 9/7/1
f 6/3/1 7/2/1 11/11/1
f 7/2/1 8/5/1 12/10/1
f 8/5/1 9/7/1 13/12/1
f 9/7/1 10/9/1 14/13/1
f 11/11/1 12/10/1 16/16/1
f 12/10/1 13/12/1 17/15/1
f 13/12/1 14/13/1 18/17/1
f 14/13/1 15/14/1 19/18/1
f 22/21/2 26/22/2 25/23/2
f 23/24/3 27/19/3 26/22/3
f 24/25/4 28/26/4 27/27/4
f 26/22/2 30/28/2 29/29/2
f 27/19/3 31/14/3 30/28/3
f 28/26/4 32/30/4 31/31/4
f 30/28/2 34/32/2 33/33/2
f 31/14/3 35/9/3 34/32/3
f 32/30/4 36/34/4 35/35/4
f 34/32/2 38/36/2 37/37/2
f 35/9/3 39/8/3 38/36/3
f 36/34/4 40/38/4 39/39/4
f 21/40/2 22/21/2 25/23/2
f 22/21/3 23/24/3 26/22/3
f 23/41/4 24/25/4 27/27/4
f 25/23/2 26/22/2 29/29/2
f 26/22/3 27/19/3 30/28/3
f 27/27/4 28/26/4 31/31/4
f 29/29/2 30/28/2 33/33/2
f 30/28/3 31/14/3 34/32/3
f 31/31/4 32/30/4 35/35/4
f 33/33/2 34/32/2 37/37/2
f 34/32/3 35/9/3 38/36/3
f 35/35/4 36/34/4 39/39/4
f 42/42/1 47/43/1 46/44/1
f 43/45/1 48/46/1 47/43/1
f 44/47/1 49/48/1 48/46/1
f 45/49/1 50/50/1 49/48/1
f 47/43/1 52/51/1 51/52/1
f 48/46/1 53/53/1 52/51/1
f 49/48/1 54/54/1 53/53/1
f 50/50/1 55/55/1 54/54/1
f 52/51/1 57/56/1 56/57/1
f 53/53/1 58/58/1 57/56/1
f 54/54/1 59/59/1 58/58/1
f 55/55/1 60/60/1 59/59/1
f 57/56/1 62/61/1 61/62/1
f 58/58/1 63/63/1 62/61/1
f 59/59/1 64/64/1 63/63/1
f 60/60/1 65/65/1 64/64/1
f 41/24/1 42/42/1 46/44/1
f 42/42/1 43/45/1 47/43/1
f 43/45/1 44/47/1 48/46/1
f 44/47/1 45/49/1 49/48/1
f 46/44/1 47/43/1 51/52/1
f 47/43/1 48/46/1 52/51/1
f 48/46/1 49/48/1 53/53/1
f 49/48/1 50/50/1 54/54/1
f 51/52/1 52/51/1 56/57/1
f 52/51/1 53/53/1 57/56/1
f 53/53/1 54/54/1 58/58/1
f 54/54/1 55/55/1 59/59/1
f 56/57/1 57/56/1 61/62/1
f 57/56/1 58/58/1 62/61/1
f 58/58/1 59/59/1 63/63/1
f 59/59/1 60/60/1 64/64/1
f 67/66/4 71/67/4 70/68/4
f 68/69/4 72/70/4 71/67/4
f 69/71/4 73/72/4 72/70/4
f 71/47/3 75/73/3 74/74/3
f 72/45/3 76/75/3 75/73/3
f 73/42/3 77/76/3 76/75/3
f 75/73/2 79/77/2 78/78/2
f 76/75/2 80/79/2 79/77/2
f 77/76/2 81/80/2 80/79/2
f 66/81/4 67/66/4 70/68/4
f 67/66/4 68/69/4 71/67/4
f 68/69/4 69/71/4 72/70/4
f 70/49/3 71/47/3 74/74/3
f 71/47/3 72/45/3 75/73/3
f 72/45/3 73/42/3 76/75/3
f 74/74/2 75/73/2 78/78/2
f 75/73/2 76/75/2 79/77/2
f 76/75/2 77/76/2 80/79/2
f 17/15/1 56/57/1 61/62/1
f 18/17/1 51/52/1 56/57/1
f 19/18/1 46/44/1 51/52/1
f 20/19/1 41/24/1 46/44/1
f 16/16/1 17/15/1 61/62/1
f 17/15/1 18/17/1 56/57/1
f 18/17/1 19/18/1 51/52/1
f 19/18/1 20/19/1 46/44/1
f 61/62/5 62/61/5 28/26/5
f 62/61/5 63/63/5 32/30/5
f 63/63/5 64/64/5 36/34/5
f 64/64/5 65/65/5 40/38/5
f 24/25/5 61/62/5 28/26/5
f 28/26/5 62/61/5 32/30/5
f 32/30/5 63/63/5 36/34/5
f 36/34/5 64/64/5 40/38/5
f 6/3/5 67/66/5 66/81/5
f 11/11/5 68/69/5 67/66/5
f 16/16/5 69/71/5 68/69/5
f 61/62/5 24/25/5 69/71/5
f 24/25/4 23/41/4 73/72/4
f 23/24/3 22/21/3 77/76/3
f 22/21/2 21/40/2 81/80/2
f 1/20/5 6/3/5 66/81/5
f 6/3/5 11/11/5 67/66/5
f 11/11/5 16/16/5 68/69/5
f 16/16/5 61/62/5 69/71/5
f 69/71/4 24/25/4 73/72/4
f 73/42/3 23/24/3 77/76/3
f 77/76/2 22/21/2 81/80/2
