# Blender v2.82 (sub 7) OBJ File: 'StoneModels.blend'
# www.blender.org
mtllib Stone4b.mtl
o Grid_Grid.016_Grid_Grid.036
v 0.500000 1.000000 0.500000
v 0.000000 1.000000 0.500000
v -0.500000 0.980000 -0.125000
v -0.125000 0.980000 -0.125000
v -0.500000 0.900000 -0.250000
v -0.250000 0.900000 -0.250000
v -0.375000 0.700000 -0.375000
v -0.500000 0.700000 -0.375000
v -0.375000 0.700000 -0.500000
v -0.500000 0.000000 -0.500000
v -0.250000 0.900000 -0.500000
v -0.125000 0.980000 -0.500000
v -0.500000 1.000000 0.000000
v 0.500000 0.980000 -0.125000
v 0.500000 0.900000 -0.250000
v 0.500000 0.700000 -0.375000
v 0.375000 0.700000 -0.375000
v 0.500000 0.000000 -0.500000
v 0.375000 0.700000 -0.500000
v 0.250000 0.900000 -0.250000
v 0.250000 0.900000 -0.500000
v 0.125000 0.980000 -0.125000
v 0.125000 0.980000 -0.500000
v 0.000000 0.999999 0.000000
v 0.000000 1.000000 -0.500000
v 0.500000 1.000000 0.000000
v -0.250000 0.900000 0.500000
v -0.250000 0.900000 0.250000
v -0.125000 0.980000 0.125000
v -0.375000 0.700000 0.375000
v -0.375000 0.700000 0.500000
v -0.500000 0.700000 0.375000
v -0.500000 -0.000000 0.500000
v -0.500000 0.900000 0.250000
v -0.500000 0.980000 0.125000
v -0.125000 0.980000 0.500000
vt 0.276410 0.277536
vt 0.276410 0.329982
vt 0.170394 0.329982
vt 0.329982 0.170394
vt 0.277536 0.276410
vt 0.329982 0.276410
vt 0.331108 0.276410
vt 0.383553 0.170394
vt 0.383553 0.276410
vt 0.222839 0.063251
vt 0.222839 0.169267
vt 0.170394 0.169267
vt 0.384679 0.169267
vt 0.437125 0.116822
vt 0.437125 0.169267
vt 0.329982 0.383553
vt 0.277536 0.383553
vt 0.329982 0.277536
vt 0.170394 0.383553
vt 0.276410 0.383553
vt 0.276410 0.331108
vt 0.331108 0.383553
vt 0.383553 0.331108
vt 0.383553 0.383553
vt 0.384304 0.168892
vt 0.436749 0.116447
vt 0.384304 0.116447
vt 0.276410 0.063251
vt 0.276410 0.169267
vt 0.223965 0.169267
vt 0.170018 0.330733
vt 0.276035 0.330733
vt 0.170018 0.383178
vt 0.063251 0.383553
vt 0.169267 0.331108
vt 0.169267 0.383553
vt 0.276410 0.222839
vt 0.170394 0.222839
vt 0.276410 0.170394
vt 0.329606 0.277161
vt 0.277161 0.277161
vt 0.277161 0.383178
vt 0.168892 0.330733
vt 0.062875 0.383178
vt 0.062875 0.330733
vt 0.383553 0.169267
vt 0.383553 0.063251
vt 0.331108 0.169267
vt 0.383178 0.170018
vt 0.330733 0.276035
vt 0.330733 0.170018
vt 0.063251 0.222839
vt 0.169267 0.170394
vt 0.169267 0.222839
vt 0.170018 0.277161
vt 0.170018 0.329606
vt 0.276035 0.277161
vt 0.169267 0.223965
vt 0.063251 0.276410
vt 0.169267 0.276410
vt 0.169267 0.329982
vt 0.063251 0.329982
vt 0.169267 0.277536
vt 0.331108 0.329982
vt 0.383553 0.277536
vt 0.383553 0.329982
vt 0.330733 0.168892
vt 0.330733 0.062875
vt 0.383178 0.062875
vt 0.168892 0.277161
vt 0.062875 0.277161
vt 0.062875 0.329606
vt 0.169267 0.063251
vt 0.063251 0.169267
vt 0.169267 0.169267
vt 0.384679 0.115696
vt 0.437125 0.115696
vt 0.437125 0.063251
vt 0.169267 0.384679
vt 0.169267 0.437125
vt 0.116822 0.437125
vt 0.063251 0.437125
vt 0.115696 0.437125
vt 0.115696 0.384679
vt 0.170394 0.276410
vt 0.276410 0.223965
vt 0.276410 0.276410
vt 0.277161 0.276035
vt 0.277161 0.170018
vt 0.329606 0.170018
vt 0.170018 0.223590
vt 0.170018 0.276035
vt 0.276035 0.223590
vt 0.277536 0.169267
vt 0.329982 0.169267
vt 0.329982 0.063251
vt 0.168892 0.384304
vt 0.116447 0.384304
vt 0.116447 0.436749
vt 0.277161 0.168892
vt 0.277161 0.062875
vt 0.329606 0.062875
vt 0.436749 0.062875
vt 0.384304 0.062875
vt 0.384304 0.115321
vt 0.062875 0.436749
vt 0.062875 0.384304
vt 0.115321 0.384304
vt 0.330733 0.383178
vt 0.330733 0.330733
vt 0.383178 0.330733
vt 0.170018 0.170018
vt 0.170018 0.222464
vt 0.276035 0.170018
vt 0.223590 0.168892
vt 0.276035 0.062875
vt 0.223590 0.062875
vt 0.168892 0.223590
vt 0.062875 0.223590
vt 0.062875 0.276035
vt 0.170018 0.168892
vt 0.222464 0.062875
vt 0.170018 0.062875
vt 0.383178 0.277161
vt 0.330733 0.277161
vt 0.330733 0.329606
vt 0.062875 0.222464
vt 0.062875 0.170018
vt 0.168892 0.170018
vt 0.168892 0.062875
vt 0.062875 0.062875
vt 0.062875 0.168892
vn -0.5923 0.5462 -0.5923
vn -0.9332 0.3594 0.0000
vn -0.6856 0.2449 -0.6856
vn -0.0000 0.6482 -0.7615
vn -0.3704 0.8518 -0.3704
vn -0.7615 0.6482 0.0000
vn -0.4198 0.9076 0.0000
vn -0.1484 0.9777 -0.1484
vn 0.4198 0.9076 -0.0000
vn 0.3704 0.8518 -0.3704
vn 0.7615 0.6482 0.0001
vn 0.0000 0.3594 -0.9332
vn 0.6856 0.2449 -0.6856
vn 0.9332 0.3594 0.0000
vn 0.5923 0.5462 -0.5923
vn -0.0000 0.9076 -0.4198
vn 0.0000 1.0000 0.0000
vn -0.0200 0.9996 -0.0200
vn 0.1484 0.9777 -0.1484
vn -0.5923 0.5462 0.5923
vn 0.0000 0.3594 0.9332
vn -0.6856 0.2449 0.6856
vn -0.3704 0.8518 0.3704
vn -0.1484 0.9777 0.1484
vn 0.0000 0.6482 0.7615
vn -0.0000 0.9944 -0.1056
vn -0.1056 0.9944 -0.0000
vn 0.0000 0.9076 0.4198
usemtl None.003
s 1
f 7/1/1 9/2/2 10/3/3
f 7/4/1 5/5/4 6/6/5
f 11/7/6 7/8/1 6/9/5
f 12/10/7 6/11/5 4/12/8
f 23/13/9 20/14/10 21/15/11
f 8/16/12 7/17/1 10/18/3
f 18/19/13 19/20/14 17/21/15
f 17/22/15 15/23/4 16/24/12
f 20/25/10 14/26/16 15/27/4
f 25/28/17 4/29/8 24/30/18
f 16/31/12 18/32/13 17/33/15
f 17/34/15 21/35/11 20/36/10
f 22/37/19 25/38/17 24/39/18
f 30/40/20 32/41/21 33/42/22
f 30/43/20 27/44/6 28/45/23
f 28/46/23 36/47/7 29/48/24
f 34/49/25 30/50/20 28/51/23
f 22/52/19 26/53/26 14/54/16
f 31/55/2 30/56/20 33/57/22
f 2/58/27 29/59/24 36/60/7
f 4/61/8 13/62/17 24/63/18
f 3/64/16 6/65/5 5/66/4
f 35/67/28 28/68/23 29/69/24
f 13/70/17 29/71/24 24/72/18
f 1/73/17 24/74/18 2/75/27
f 7/76/1 8/77/12 5/78/4
f 11/79/6 9/80/2 7/81/1
f 12/82/7 11/83/6 6/84/5
f 23/85/9 22/86/19 20/87/10
f 17/88/15 20/89/10 15/90/4
f 20/91/10 22/92/19 14/93/16
f 25/94/17 12/95/7 4/96/8
f 17/97/15 19/98/14 21/99/11
f 22/100/19 23/101/9 25/102/17
f 30/103/20 31/104/2 27/105/6
f 28/106/23 27/107/6 36/108/7
f 34/109/25 32/110/21 30/111/20
f 22/112/19 24/113/18 26/114/26
f 2/115/27 24/116/18 29/117/24
f 4/118/8 3/119/16 13/120/17
f 3/121/16 4/122/8 6/123/5
f 35/124/28 34/125/25 28/126/23
f 13/127/17 35/128/28 29/129/24
f 1/130/17 26/131/26 24/132/18
