# Blender v2.76 (sub 0) OBJ File: 'StoneModels.blend'
# www.blender.org
mtllib Stone3b.mtl
o Grid_Grid.022_Grid_Grid.041
v 0.125000 0.980000 0.500000
v 0.125000 0.980000 0.375000
v 0.000000 1.000000 0.375000
v 0.250000 0.900000 0.500000
v 0.250000 0.900000 0.375000
v 0.375000 0.700000 0.500000
v 0.375000 0.700000 0.375000
v 0.500000 -0.000000 0.500000
v 0.500000 0.700000 0.375000
v 0.125000 0.980000 0.250000
v 0.000000 1.000000 0.250000
v 0.250000 0.900000 0.250000
v 0.375000 0.900000 0.250000
v 0.500000 0.900000 0.250000
v 0.125000 0.980000 0.125000
v 0.000000 1.000000 0.125000
v 0.250000 0.980000 0.125000
v 0.375000 0.980000 0.125000
v 0.500000 0.980000 0.125000
v 0.000000 1.000000 0.500000
v -0.375000 0.700000 0.000000
v -0.375000 0.700000 -0.125000
v -0.500000 0.000000 -0.125000
v -0.250000 0.900000 0.000000
v -0.250000 0.900000 -0.125000
v -0.125000 0.980000 0.000000
v -0.125000 0.980000 -0.125000
v -0.375000 0.700000 -0.250000
v -0.500000 0.000000 -0.250000
v -0.250000 0.900000 -0.250000
v -0.125000 0.980000 -0.250000
v -0.375000 0.700000 -0.375000
v -0.500000 0.000000 -0.375000
v -0.250000 0.900000 -0.375000
v -0.125000 0.980000 -0.375000
v -0.375000 0.700000 -0.500000
v -0.500000 0.000000 -0.500000
v -0.250000 0.900000 -0.500000
v -0.125000 0.980000 -0.500000
v -0.500000 0.000000 0.000000
v 0.500000 1.000000 -0.125000
v 0.375000 1.000000 -0.125000
v 0.375000 1.000000 0.000000
v 0.500000 1.000000 -0.250000
v 0.375000 1.000000 -0.250000
v 0.500000 1.000000 -0.375000
v 0.375000 1.000000 -0.375000
v 0.500000 1.000000 -0.500000
v 0.375000 1.000000 -0.500000
v 0.250000 1.000000 -0.125000
v 0.250000 1.000000 0.000000
v 0.250000 1.000000 -0.250000
v 0.250000 1.000000 -0.375000
v 0.250000 1.000000 -0.500000
v 0.125000 1.000000 -0.125000
v 0.125000 1.000000 0.000000
v 0.125000 1.000000 -0.250000
v 0.125000 1.000000 -0.375000
v 0.125000 1.000000 -0.500000
v 0.000000 1.000000 -0.125000
v 0.000000 0.999999 0.000000
v 0.000000 1.000000 -0.250000
v 0.000000 1.000000 -0.375000
v 0.000000 1.000000 -0.500000
v 0.500000 1.000000 0.000000
v -0.125000 0.980000 0.375000
v -0.250000 0.900000 0.375000
v -0.250000 0.900000 0.500000
v -0.125000 0.980000 0.250000
v -0.250000 0.900000 0.250000
v -0.125000 0.980000 0.125000
v -0.250000 0.900000 0.125000
v -0.375000 0.700000 0.375000
v -0.375000 0.700000 0.500000
v -0.375000 0.700000 0.250000
v -0.375000 0.700000 0.125000
v -0.500000 -0.000000 0.375000
v -0.500000 -0.000000 0.500000
v -0.500000 -0.000000 0.250000
v -0.500000 -0.000000 0.125000
v -0.125000 0.980000 0.500000
vt 0.290039 0.244141
vt 0.292969 0.270508
vt 0.265625 0.273438
vt 0.320312 0.239258
vt 0.326172 0.265625
vt 0.368164 0.225586
vt 0.379883 0.250977
vt 0.493164 0.142578
vt 0.404297 0.262695
vt 0.296875 0.299805
vt 0.267578 0.300781
vt 0.332031 0.295898
vt 0.361328 0.301758
vt 0.387695 0.309570
vt 0.297852 0.328125
vt 0.267578 0.328125
vt 0.326172 0.331055
vt 0.353516 0.335938
vt 0.381836 0.339844
vt 0.262695 0.247070
vt 0.157227 0.355469
vt 0.157227 0.381836
vt 0.008789 0.381836
vt 0.208008 0.355469
vt 0.208008 0.381836
vt 0.240234 0.355469
vt 0.239258 0.383789
vt 0.157227 0.408203
vt 0.008789 0.408203
vt 0.208008 0.408203
vt 0.239258 0.409180
vt 0.157227 0.434570
vt 0.008789 0.433594
vt 0.207031 0.434570
vt 0.238281 0.435547
vt 0.157227 0.460938
vt 0.008789 0.459961
vt 0.207031 0.460938
vt 0.236328 0.461914
vt 0.008789 0.355469
vt 0.374023 0.392578
vt 0.347656 0.389648
vt 0.350586 0.363281
vt 0.371094 0.417969
vt 0.345703 0.416016
vt 0.369141 0.444336
vt 0.342773 0.442383
vt 0.367188 0.469727
vt 0.340820 0.468750
vt 0.320312 0.386719
vt 0.323242 0.359375
vt 0.319336 0.413086
vt 0.316406 0.439453
vt 0.315430 0.465820
vt 0.293945 0.384766
vt 0.294922 0.357422
vt 0.292969 0.412109
vt 0.290039 0.438477
vt 0.289062 0.464844
vt 0.266602 0.383789
vt 0.267578 0.355469
vt 0.265625 0.411133
vt 0.263672 0.437500
vt 0.262695 0.463867
vt 0.376953 0.366211
vt 0.239258 0.274414
vt 0.207031 0.275391
vt 0.207031 0.249023
vt 0.240234 0.301758
vt 0.208008 0.301758
vt 0.240234 0.328125
vt 0.208008 0.329102
vt 0.157227 0.276367
vt 0.157227 0.250977
vt 0.157227 0.302734
vt 0.157227 0.329102
vt 0.008789 0.276367
vt 0.008789 0.251953
vt 0.008789 0.302734
vt 0.008789 0.329102
vt 0.236328 0.248047
vn 0.356000 0.934500 0.000000
vn 0.158000 0.987400 0.000000
vn 0.710900 0.703300 0.000000
vn 0.933200 0.359400 0.000000
vn 0.604800 0.518100 0.604800
vn 0.685600 0.244900 0.685600
vn 0.000000 0.359400 0.933200
vn 0.367900 0.854000 0.367900
vn 0.000000 0.703300 0.710900
vn 0.135100 0.981600 0.135100
vn 0.000000 0.934500 0.356000
vn -0.984400 0.175800 0.000000
vn -0.848000 0.530000 0.000000
vn -0.539100 0.842300 0.000000
vn 0.000000 1.000000 0.000000
vn 0.000000 0.996900 0.079200
vn 0.039800 0.998400 0.039800
vn -0.158000 0.987400 0.000000
usemtl None.003
s 1
f 1/1/1 2/2/1 3/3/2
f 4/4/3 5/5/3 2/2/1
f 6/6/4 7/7/5 5/5/3
f 8/8/6 9/9/7 7/7/5
f 2/2/1 10/10/1 11/11/2
f 5/5/3 12/12/8 10/10/1
f 7/7/5 13/13/9 12/12/8
f 9/9/7 14/14/9 13/13/9
f 10/10/1 15/15/10 16/16/2
f 12/12/8 17/17/11 15/15/10
f 13/13/9 18/18/11 17/17/11
f 14/14/9 19/19/11 18/18/11
f 20/20/2 1/1/1 3/3/2
f 1/1/1 4/4/3 2/2/1
f 4/4/3 6/6/4 5/5/3
f 6/6/4 8/8/6 7/7/5
f 3/3/2 2/2/1 11/11/2
f 2/2/1 5/5/3 10/10/1
f 5/5/3 7/7/5 12/12/8
f 7/7/5 9/9/7 13/13/9
f 11/11/2 10/10/1 16/16/2
f 10/10/1 12/12/8 15/15/10
f 12/12/8 13/13/9 17/17/11
f 13/13/9 14/14/9 18/18/11
f 21/21/12 22/22/12 23/23/12
f 24/24/13 25/25/13 22/22/13
f 26/26/14 27/27/14 25/25/14
f 22/22/12 28/28/12 29/29/12
f 25/25/13 30/30/13 28/28/13
f 27/27/14 31/31/14 30/30/14
f 28/28/12 32/32/12 33/33/12
f 30/30/13 34/34/13 32/32/13
f 31/31/14 35/35/14 34/34/14
f 32/32/12 36/36/12 37/37/12
f 34/34/13 38/38/13 36/36/13
f 35/35/14 39/39/14 38/38/14
f 40/40/12 21/21/12 23/23/12
f 21/21/13 24/24/13 22/22/13
f 24/24/14 26/26/14 25/25/14
f 23/23/12 22/22/12 29/29/12
f 22/22/13 25/25/13 28/28/13
f 25/25/14 27/27/14 30/30/14
f 29/29/12 28/28/12 33/33/12
f 28/28/13 30/30/13 32/32/13
f 30/30/14 31/31/14 34/34/14
f 33/33/12 32/32/12 37/37/12
f 32/32/13 34/34/13 36/36/13
f 34/34/14 35/35/14 38/38/14
f 41/41/15 42/42/15 43/43/16
f 44/44/15 45/45/15 42/42/15
f 46/46/15 47/47/15 45/45/15
f 48/48/15 49/49/15 47/47/15
f 42/42/15 50/50/15 51/51/16
f 45/45/15 52/52/15 50/50/15
f 47/47/15 53/53/15 52/52/15
f 49/49/15 54/54/15 53/53/15
f 50/50/15 55/55/15 56/56/16
f 52/52/15 57/57/15 55/55/15
f 53/53/15 58/58/15 57/57/15
f 54/54/15 59/59/15 58/58/15
f 55/55/15 60/60/15 61/61/17
f 57/57/15 62/62/15 60/60/15
f 58/58/15 63/63/15 62/62/15
f 59/59/15 64/64/15 63/63/15
f 65/65/16 41/41/15 43/43/16
f 41/41/15 44/44/15 42/42/15
f 44/44/15 46/46/15 45/45/15
f 46/46/15 48/48/15 47/47/15
f 43/43/16 42/42/15 51/51/16
f 42/42/15 45/45/15 50/50/15
f 45/45/15 47/47/15 52/52/15
f 47/47/15 49/49/15 53/53/15
f 51/51/16 50/50/15 56/56/16
f 50/50/15 52/52/15 55/55/15
f 52/52/15 53/53/15 57/57/15
f 53/53/15 54/54/15 58/58/15
f 56/56/16 55/55/15 61/61/17
f 55/55/15 57/57/15 60/60/15
f 57/57/15 58/58/15 62/62/15
f 58/58/15 59/59/15 63/63/15
f 66/66/14 67/67/14 68/68/14
f 69/69/14 70/70/14 67/67/14
f 71/71/14 72/72/14 70/70/14
f 67/67/13 73/73/13 74/74/13
f 70/70/13 75/75/13 73/73/13
f 72/72/13 76/76/13 75/75/13
f 73/73/12 77/77/12 78/78/12
f 75/75/12 79/79/12 77/77/12
f 76/76/12 80/80/12 79/79/12
f 81/81/14 66/66/14 68/68/14
f 66/66/14 69/69/14 67/67/14
f 69/69/14 71/71/14 70/70/14
f 68/68/13 67/67/13 74/74/13
f 67/67/13 70/70/13 73/73/13
f 70/70/13 72/72/13 75/75/13
f 74/74/12 73/73/12 78/78/12
f 73/73/12 75/75/12 77/77/12
f 75/75/12 76/76/12 79/79/12
f 15/15/10 56/56/16 61/61/17
f 17/17/11 51/51/16 56/56/16
f 18/18/11 43/43/16 51/51/16
f 19/19/11 65/65/16 43/43/16
f 16/16/2 15/15/10 61/61/17
f 15/15/10 17/17/11 56/56/16
f 17/17/11 18/18/11 51/51/16
f 18/18/11 19/19/11 43/43/16
f 61/61/18 60/60/18 27/27/18
f 60/60/18 62/62/18 31/31/18
f 62/62/18 63/63/18 35/35/18
f 63/63/18 64/64/18 39/39/18
f 26/26/18 61/61/18 27/27/18
f 27/27/18 60/60/18 31/31/18
f 31/31/18 62/62/18 35/35/18
f 35/35/18 63/63/18 39/39/18
f 3/3/18 66/66/18 81/81/18
f 11/11/18 69/69/18 66/66/18
f 16/16/18 71/71/18 69/69/18
f 61/61/18 26/26/18 71/71/18
f 26/26/14 24/24/14 72/72/14
f 24/24/13 21/21/13 76/76/13
f 21/21/12 40/40/12 80/80/12
f 20/20/18 3/3/18 81/81/18
f 3/3/18 11/11/18 66/66/18
f 11/11/18 16/16/18 69/69/18
f 16/16/18 61/61/18 71/71/18
f 71/71/14 26/26/14 72/72/14
f 72/72/13 24/24/13 76/76/13
f 76/76/12 21/21/12 80/80/12
