# Blender v2.82 (sub 7) OBJ File: 'StoneModels.blend'
# www.blender.org
mtllib Stone2a.mtl
o Grid_Grid.009_Grid_Grid.031
v 0.500000 -0.000000 0.500000
v 0.500000 0.700000 0.375000
v 0.500000 0.900000 0.250000
v 0.500000 0.980000 0.125000
v -0.375000 0.700000 -0.500000
v -0.500000 0.000000 -0.500000
v -0.250000 0.900000 -0.500000
v -0.125000 0.980000 -0.500000
v 0.500000 0.980000 -0.125000
v 0.500000 0.900000 -0.250000
v 0.500000 0.700000 -0.375000
v 0.375000 0.700000 -0.375000
v 0.500000 0.000000 -0.500000
v 0.375000 0.700000 -0.500000
v 0.250000 0.900000 -0.250000
v 0.250000 0.900000 -0.500000
v 0.125000 0.980000 -0.125000
v 0.125000 0.980000 -0.500000
v 0.000000 0.999999 0.000000
v 0.000000 1.000000 -0.500000
v 0.500000 1.000000 0.000000
v -0.250000 0.900000 0.250000
v -0.125000 0.980000 0.125000
v -0.375000 0.700000 0.375000
v -0.500000 -0.000000 0.500000
vt 0.229917 0.137125
vt 0.395458 0.063251
vt 0.395458 0.137125
vt 0.270458 0.362125
vt 0.270458 0.213251
vt 0.229917 0.362125
vt 0.063251 0.399625
vt 0.228791 0.399625
vt 0.228791 0.363251
vt 0.354917 0.399625
vt 0.395458 0.325751
vt 0.395458 0.399625
vt 0.229917 0.399625
vt 0.312125 0.363251
vt 0.312125 0.399625
vt 0.437125 0.213251
vt 0.354917 0.287125
vt 0.437125 0.287125
vt 0.062875 0.362875
vt 0.228416 0.362875
vt 0.062875 0.399249
vt 0.396584 0.399625
vt 0.437125 0.325751
vt 0.437125 0.399625
vt 0.396209 0.399249
vt 0.436749 0.325375
vt 0.396209 0.325375
vt 0.312125 0.362125
vt 0.312125 0.213251
vt 0.271584 0.362125
vt 0.395458 0.212125
vt 0.229917 0.212125
vt 0.395458 0.138251
vt 0.228791 0.063251
vt 0.063251 0.212125
vt 0.228791 0.212125
vt 0.063251 0.362125
vt 0.228791 0.213251
vt 0.228791 0.362125
vt 0.353791 0.213251
vt 0.313251 0.362125
vt 0.353791 0.362125
vt 0.145458 0.437125
vt 0.063251 0.437125
vt 0.145458 0.400751
vt 0.437125 0.063251
vt 0.396584 0.212125
vt 0.437125 0.212125
vt 0.229542 0.137875
vt 0.229542 0.211749
vt 0.395083 0.137875
vt 0.396209 0.211749
vt 0.396209 0.062875
vt 0.436749 0.062875
vt 0.354542 0.286749
vt 0.436749 0.212875
vt 0.354542 0.212875
vt 0.062875 0.400375
vt 0.062875 0.436749
vt 0.145083 0.400375
vt 0.395083 0.325375
vt 0.354542 0.325375
vt 0.354542 0.399249
vt 0.354917 0.324625
vt 0.437125 0.288251
vt 0.437125 0.324625
vt 0.354542 0.287875
vt 0.354542 0.324249
vt 0.436749 0.287875
vt 0.312875 0.361749
vt 0.312875 0.212875
vt 0.353416 0.212875
vt 0.395083 0.062875
vt 0.229542 0.062875
vt 0.229542 0.136749
vt 0.228416 0.212875
vt 0.062875 0.212875
vt 0.062875 0.361749
vt 0.062875 0.211749
vt 0.062875 0.062875
vt 0.228416 0.062875
vt 0.271209 0.212875
vt 0.311749 0.212875
vt 0.271209 0.361749
vt 0.311749 0.362875
vt 0.229542 0.362875
vt 0.229542 0.399249
vt 0.229542 0.212875
vt 0.270083 0.212875
vt 0.229542 0.361749
vn -0.4519 0.7692 0.4519
vn 0.0000 0.4187 0.9081
vn 0.0000 0.7545 0.6562
vn -0.0266 0.9993 0.0266
vn -0.2904 0.9569 0.0000
vn -0.2199 0.9504 0.2199
vn 0.6856 0.2449 -0.6856
vn 0.9332 0.3594 0.0000
vn 0.5923 0.5462 -0.5923
vn 0.0000 0.6482 -0.7615
vn 0.0000 0.3594 -0.9332
vn 0.1484 0.9777 -0.1484
vn -0.0000 0.9986 -0.0533
vn 0.0000 0.9076 -0.4198
vn 0.7615 0.6482 -0.0000
vn 0.3704 0.8518 -0.3704
vn 0.4198 0.9076 -0.0000
vn -0.6562 0.7545 -0.0000
vn -0.9081 0.4187 0.0000
vn -0.6466 0.4047 0.6466
vn 0.0000 0.1758 0.9844
vn -0.9844 0.1758 0.0000
vn -0.6856 0.2449 0.6856
vn -0.0000 0.9569 0.2904
vn 0.0533 0.9986 0.0000
usemtl None.003
s 1
f 22/1/1 2/2/2 3/3/3
f 19/4/4 8/5/5 23/6/6
f 13/7/7 14/8/8 12/9/9
f 12/10/9 10/11/10 11/12/11
f 17/13/12 21/14/13 9/15/14
f 12/16/9 16/17/15 15/18/16
f 11/19/11 13/20/7 12/21/9
f 18/22/17 15/23/16 16/24/15
f 15/25/16 9/26/14 10/27/10
f 23/28/6 7/29/18 22/30/1
f 22/31/1 5/32/19 24/33/20
f 24/34/20 1/35/21 2/36/2
f 24/37/20 6/38/22 25/39/23
f 23/40/6 3/41/3 4/42/24
f 17/43/12 20/44/25 19/45/4
f 19/46/4 4/47/24 21/48/13
f 22/49/1 24/50/20 2/51/2
f 19/52/4 20/53/25 8/54/5
f 12/55/9 15/56/16 10/57/10
f 17/58/12 19/59/4 21/60/13
f 12/61/9 14/62/8 16/63/15
f 18/64/17 17/65/12 15/66/16
f 15/67/16 17/68/12 9/69/14
f 23/70/6 8/71/5 7/72/18
f 22/73/1 7/74/18 5/75/19
f 24/76/20 25/77/23 1/78/21
f 24/79/20 5/80/19 6/81/22
f 23/82/6 22/83/1 3/84/3
f 17/85/12 18/86/17 20/87/25
f 19/88/4 23/89/6 4/90/24
