# Blender v2.82 (sub 7) OBJ File: 'StoneModels.blend'
# www.blender.org
mtllib Stone4a.mtl
o Grid_Grid.006_Grid_Grid.029
v 0.125000 0.980000 0.500000
v 0.125000 0.980000 0.375000
v 0.000000 1.000000 0.375000
v 0.250000 0.900000 0.500000
v 0.250000 0.900000 0.375000
v 0.375000 0.700000 0.500000
v 0.375000 0.700000 0.375000
v 0.500000 -0.000000 0.500000
v 0.500000 0.700000 0.375000
v 0.125000 0.980000 0.250000
v 0.000000 1.000000 0.250000
v 0.250000 0.900000 0.250000
v 0.375000 0.900000 0.250000
v 0.500000 0.900000 0.250000
v 0.125000 0.980000 0.125000
v 0.000000 1.000000 0.125000
v 0.250000 0.980000 0.125000
v 0.375000 0.980000 0.125000
v 0.500000 0.980000 0.125000
v 0.000000 1.000000 0.500000
v -0.375000 1.000000 0.000000
v -0.375000 0.980000 -0.125000
v -0.500000 0.980000 -0.125000
v -0.250000 1.000000 0.000000
v -0.250000 0.980000 -0.125000
v -0.125000 1.000000 0.000000
v -0.125000 0.980000 -0.125000
v -0.375000 0.900000 -0.250000
v -0.500000 0.900000 -0.250000
v -0.250000 0.900000 -0.250000
v -0.125000 0.980000 -0.250000
v -0.375000 0.700000 -0.375000
v -0.500000 0.700000 -0.375000
v -0.250000 0.900000 -0.375000
v -0.125000 0.980000 -0.375000
v -0.375000 0.700000 -0.500000
v -0.500000 0.000000 -0.500000
v -0.250000 0.900000 -0.500000
v -0.125000 0.980000 -0.500000
v -0.500000 1.000000 0.000000
v 0.500000 0.980000 -0.125000
v 0.375000 0.980000 -0.125000
v 0.375000 1.000000 0.000000
v 0.500000 0.900000 -0.250000
v 0.375000 0.900000 -0.250000
v 0.500000 0.700000 -0.375000
v 0.375000 0.700000 -0.375000
v 0.500000 0.000000 -0.500000
v 0.375000 0.700000 -0.500000
v 0.250000 0.980000 -0.125000
v 0.250000 1.000000 0.000000
v 0.250000 0.900000 -0.250000
v 0.250000 0.900000 -0.375000
v 0.250000 0.900000 -0.500000
v 0.125000 0.980000 -0.125000
v 0.125000 1.000000 0.000000
v 0.125000 0.980000 -0.250000
v 0.125000 0.980000 -0.375000
v 0.125000 0.980000 -0.500000
v 0.000000 1.000000 -0.125000
v 0.000000 0.999999 0.000000
v 0.000000 1.000000 -0.250000
v 0.000000 1.000000 -0.375000
v 0.000000 1.000000 -0.500000
v 0.500000 1.000000 0.000000
v -0.125000 0.980000 0.375000
v -0.250000 0.900000 0.375000
v -0.250000 0.900000 0.500000
v -0.125000 0.980000 0.250000
v -0.250000 0.900000 0.250000
v -0.125000 0.980000 0.125000
v -0.250000 0.980000 0.125000
v -0.375000 0.700000 0.375000
v -0.375000 0.700000 0.500000
v -0.375000 0.900000 0.250000
v -0.375000 0.980000 0.125000
v -0.500000 0.700000 0.375000
v -0.500000 -0.000000 0.500000
v -0.500000 0.900000 0.250000
v -0.500000 0.980000 0.125000
v -0.125000 0.980000 0.500000
vt 0.311523 0.415039
vt 0.311523 0.381836
vt 0.278320 0.381836
vt 0.343750 0.415039
vt 0.343750 0.381836
vt 0.222656 0.415039
vt 0.222656 0.381836
vt 0.275391 0.381836
vt 0.410156 0.042969
vt 0.410156 0.227539
vt 0.376953 0.227539
vt 0.311523 0.348633
vt 0.278320 0.348633
vt 0.343750 0.348633
vt 0.376953 0.280273
vt 0.343750 0.280273
vt 0.410156 0.280273
vt 0.311523 0.315430
vt 0.278320 0.315430
vt 0.343750 0.315430
vt 0.376953 0.348633
vt 0.376953 0.315430
vt 0.410156 0.348633
vt 0.410156 0.315430
vt 0.278320 0.415039
vt 0.275391 0.415039
vt 0.038086 0.415039
vt 0.275391 0.348633
vt 0.178711 0.283203
vt 0.178711 0.250000
vt 0.146484 0.250000
vt 0.211914 0.283203
vt 0.211914 0.250000
vt 0.245117 0.283203
vt 0.245117 0.250000
vt 0.178711 0.216797
vt 0.146484 0.216797
vt 0.211914 0.216797
vt 0.245117 0.216797
vt 0.178711 0.280273
vt 0.178711 0.227539
vt 0.146484 0.227539
vt 0.275391 0.216797
vt 0.275391 0.183594
vt 0.222656 0.183594
vt 0.245117 0.183594
vt 0.211914 0.183594
vt 0.222656 0.150391
vt 0.038086 0.150391
vt 0.275391 0.150391
vt 0.245117 0.150391
vt 0.211914 0.150391
vt 0.146484 0.283203
vt 0.146484 0.280273
vt 0.211914 0.280273
vt 0.146484 0.042969
vt 0.410156 0.250000
vt 0.376953 0.250000
vt 0.376953 0.283203
vt 0.410156 0.216797
vt 0.376953 0.216797
vt 0.410156 0.227539
vt 0.376953 0.227539
vt 0.376953 0.280273
vt 0.038086 0.150391
vt 0.222656 0.150391
vt 0.222656 0.183594
vt 0.343750 0.250000
vt 0.343750 0.283203
vt 0.343750 0.216797
vt 0.275391 0.183594
vt 0.275391 0.216797
vt 0.275391 0.150391
vt 0.311523 0.250000
vt 0.311523 0.283203
vt 0.311523 0.216797
vt 0.343750 0.183594
vt 0.311523 0.183594
vt 0.343750 0.150391
vt 0.311523 0.150391
vt 0.278320 0.250000
vt 0.278320 0.283203
vt 0.278320 0.216797
vt 0.278320 0.183594
vt 0.278320 0.150391
vt 0.410156 0.283203
vt 0.410156 0.280273
vt 0.410156 0.042969
vt 0.343750 0.280273
vt 0.245117 0.381836
vt 0.211914 0.381836
vt 0.211914 0.415039
vt 0.245117 0.348633
vt 0.211914 0.348633
vt 0.245117 0.315430
vt 0.211914 0.315430
vt 0.275391 0.381836
vt 0.222656 0.381836
vt 0.222656 0.415039
vt 0.211914 0.280273
vt 0.178711 0.280273
vt 0.178711 0.227539
vt 0.178711 0.315430
vt 0.178711 0.348633
vt 0.146484 0.227539
vt 0.146484 0.042969
vt 0.146484 0.280273
vt 0.146484 0.315430
vt 0.146484 0.348633
vt 0.245117 0.415039
vt 0.275391 0.415039
vt 0.275391 0.348633
vt 0.038086 0.415039
vn 0.3560 0.9345 0.0000
vn 0.1580 0.9874 0.0000
vn 0.7109 0.7033 0.0000
vn 0.9332 0.3594 0.0000
vn 0.6048 0.5181 0.6048
vn 0.6856 0.2449 0.6856
vn 0.0000 0.3594 0.9332
vn 0.3679 0.8540 0.3679
vn 0.0000 0.7033 0.7109
vn 0.1351 0.9816 0.1351
vn 0.0000 0.9345 0.3560
vn 0.0000 1.0000 0.0000
vn 0.0000 0.9345 -0.3560
vn -0.1496 0.9619 -0.2287
vn 0.0000 0.7033 -0.7109
vn -0.2895 0.7789 -0.5564
vn -0.5391 0.8423 0.0000
vn -0.4355 0.8901 -0.1342
vn -0.4151 0.3996 -0.8173
vn 0.0000 0.3594 -0.9332
vn -0.8480 0.5300 0.0000
vn -0.7777 0.6011 -0.1841
vn -0.9844 0.1758 0.0000
vn -0.6856 0.2449 -0.6856
vn 0.6048 0.5181 -0.6048
vn 0.6856 0.2449 -0.6856
vn 0.3679 0.8540 -0.3679
vn 0.1351 0.9816 -0.1351
vn 0.0797 0.9968 0.0000
vn -0.4355 0.8901 0.1342
vn -0.1496 0.9619 0.2287
vn -0.7777 0.6011 0.1841
vn -0.2895 0.7789 0.5564
vn -0.4151 0.3996 0.8173
vn -0.6856 0.2449 0.6856
vn -0.0797 0.9968 -0.0000
vn -0.1580 0.9874 0.0000
vn -0.1192 0.9921 -0.0395
vn -0.1192 0.9921 0.0395
usemtl None.003
s 1
f 1/1/1 2/2/1 3/3/2
f 4/4/3 5/5/3 2/2/1
f 6/6/4 7/7/5 5/8/3
f 8/9/6 9/10/7 7/11/5
f 2/2/1 10/12/1 11/13/2
f 5/5/3 12/14/8 10/12/1
f 7/11/5 13/15/9 12/16/8
f 9/10/7 14/17/9 13/15/9
f 10/12/1 15/18/10 16/19/2
f 12/14/8 17/20/11 15/18/10
f 13/21/9 18/22/11 17/20/11
f 14/23/9 19/24/11 18/22/11
f 20/25/2 1/1/1 3/3/2
f 1/1/1 4/4/3 2/2/1
f 4/26/3 6/6/4 5/8/3
f 6/6/4 8/27/6 7/7/5
f 3/3/2 2/2/1 11/13/2
f 2/2/1 5/5/3 10/12/1
f 5/8/3 7/7/5 12/28/8
f 7/11/5 9/10/7 13/15/9
f 11/13/2 10/12/1 16/19/2
f 10/12/1 12/14/8 15/18/10
f 12/14/8 13/21/9 17/20/11
f 13/21/9 14/23/9 18/22/11
f 21/29/12 22/30/13 23/31/13
f 24/32/12 25/33/13 22/30/13
f 26/34/12 27/35/14 25/33/13
f 22/30/13 28/36/15 29/37/15
f 25/33/13 30/38/16 28/36/15
f 27/35/14 31/39/17 30/38/18
f 28/40/15 32/41/19 33/42/20
f 30/43/16 34/44/21 32/45/22
f 31/39/17 35/46/17 34/47/17
f 32/45/19 36/48/23 37/49/24
f 34/44/21 38/50/21 36/48/21
f 35/46/17 39/51/17 38/52/17
f 40/53/12 21/29/12 23/31/13
f 21/29/12 24/32/12 22/30/13
f 24/32/12 26/34/12 25/33/13
f 23/31/13 22/30/13 29/37/15
f 22/30/13 25/33/13 28/36/15
f 25/33/13 27/35/14 30/38/18
f 29/54/15 28/40/15 33/42/20
f 28/40/15 30/55/16 32/41/22
f 30/38/18 31/39/17 34/47/17
f 33/42/20 32/41/19 37/56/24
f 32/45/22 34/44/21 36/48/21
f 34/47/17 35/46/17 38/52/17
f 41/57/13 42/58/13 43/59/12
f 44/60/15 45/61/15 42/58/13
f 46/62/20 47/63/25 45/64/15
f 48/65/26 49/66/4 47/67/25
f 42/58/13 50/68/13 51/69/12
f 45/61/15 52/70/27 50/68/13
f 47/67/25 53/71/3 52/72/27
f 49/66/4 54/73/3 53/71/3
f 50/68/13 55/74/28 56/75/12
f 52/70/27 57/76/1 55/74/28
f 53/77/3 58/78/1 57/76/1
f 54/79/3 59/80/1 58/78/1
f 55/74/28 60/81/2 61/82/29
f 57/76/1 62/83/2 60/81/2
f 58/78/1 63/84/2 62/83/2
f 59/80/1 64/85/2 63/84/2
f 65/86/12 41/57/13 43/59/12
f 41/57/13 44/60/15 42/58/13
f 44/87/15 46/62/20 45/64/15
f 46/62/20 48/88/26 47/63/25
f 43/59/12 42/58/13 51/69/12
f 42/58/13 45/61/15 50/68/13
f 45/64/15 47/63/25 52/89/27
f 47/67/25 49/66/4 53/71/3
f 51/69/12 50/68/13 56/75/12
f 50/68/13 52/70/27 55/74/28
f 52/70/27 53/77/3 57/76/1
f 53/77/3 54/79/3 58/78/1
f 56/75/12 55/74/28 61/82/29
f 55/74/28 57/76/1 60/81/2
f 57/76/1 58/78/1 62/83/2
f 58/78/1 59/80/1 63/84/2
f 66/90/17 67/91/17 68/92/17
f 69/93/17 70/94/30 67/91/17
f 71/95/31 72/96/11 70/94/30
f 67/97/21 73/98/32 74/99/21
f 70/100/33 75/101/9 73/102/32
f 72/96/11 76/103/11 75/104/9
f 73/102/34 77/105/7 78/106/35
f 75/101/9 79/107/9 77/105/7
f 76/103/11 80/108/11 79/109/9
f 81/110/17 66/90/17 68/92/17
f 66/90/17 69/93/17 67/91/17
f 69/93/17 71/95/31 70/94/30
f 68/111/21 67/97/21 74/99/21
f 67/97/21 70/112/33 73/98/32
f 70/94/33 72/96/11 75/104/9
f 74/99/23 73/98/34 78/113/35
f 73/102/34 75/101/9 77/105/7
f 75/104/9 76/103/11 79/109/9
f 15/18/10 56/75/12 61/82/29
f 17/20/11 51/69/12 56/75/12
f 18/22/11 43/59/12 51/69/12
f 19/24/11 65/86/12 43/59/12
f 16/19/2 15/18/10 61/82/29
f 15/18/10 17/20/11 56/75/12
f 17/20/11 18/22/11 51/69/12
f 18/22/11 19/24/11 43/59/12
f 61/82/36 60/81/37 27/35/38
f 60/81/37 62/83/37 31/39/37
f 62/83/37 63/84/37 35/46/37
f 63/84/37 64/85/37 39/51/37
f 26/34/12 61/82/36 27/35/38
f 27/35/38 60/81/37 31/39/37
f 31/39/37 62/83/37 35/46/37
f 35/46/37 63/84/37 39/51/37
f 3/3/37 66/90/37 81/110/37
f 11/13/37 69/93/37 66/90/37
f 16/19/37 71/95/39 69/93/37
f 61/82/36 26/34/12 71/95/39
f 26/34/12 24/32/12 72/96/11
f 24/32/12 21/29/12 76/103/11
f 21/29/12 40/53/12 80/108/11
f 20/25/37 3/3/37 81/110/37
f 3/3/37 11/13/37 66/90/37
f 11/13/37 16/19/37 69/93/37
f 16/19/37 61/82/36 71/95/39
f 71/95/31 26/34/12 72/96/11
f 72/96/11 24/32/12 76/103/11
f 76/103/11 21/29/12 80/108/11
