# Blender v2.82 (sub 7) OBJ File: 'StoneModels.blend'
# www.blender.org
mtllib Stone4c.mtl
o Grid_Grid.020_Grid_Grid.039
v 0.125000 1.000000 0.500000
v 0.125000 1.000000 0.375000
v 0.000000 1.000000 0.375000
v 0.250000 1.000000 0.500000
v 0.250000 1.000000 0.375000
v 0.375000 1.000000 0.500000
v 0.375000 1.000000 0.375000
v 0.500000 1.000000 0.500000
v 0.500000 1.000000 0.375000
v 0.125000 1.000000 0.250000
v 0.000000 1.000000 0.250000
v 0.250000 1.000000 0.250000
v 0.375000 1.000000 0.250000
v 0.500000 1.000000 0.250000
v 0.125000 1.000000 0.125000
v 0.000000 1.000000 0.125000
v 0.250000 1.000000 0.125000
v 0.375000 1.000000 0.125000
v 0.500000 1.000000 0.125000
v 0.000000 1.000000 0.500000
v -0.375000 1.000000 0.000000
v -0.375000 0.980000 -0.125000
v -0.500000 0.980000 -0.125000
v -0.250000 1.000000 0.000000
v -0.250000 0.980000 -0.125000
v -0.125000 1.000000 0.000000
v -0.125000 0.980000 -0.125000
v -0.375000 0.900000 -0.250000
v -0.500000 0.900000 -0.250000
v -0.250000 0.900000 -0.250000
v -0.125000 0.980000 -0.250000
v -0.375000 0.700000 -0.375000
v -0.500000 0.700000 -0.375000
v -0.250000 0.900000 -0.375000
v -0.125000 0.980000 -0.375000
v -0.375000 0.700000 -0.500000
v -0.500000 0.000000 -0.500000
v -0.250000 0.900000 -0.500000
v -0.125000 0.980000 -0.500000
v -0.500000 1.000000 0.000000
v 0.500000 1.000000 -0.125000
v 0.375000 1.000000 -0.125000
v 0.375000 1.000000 0.000000
v 0.500000 1.000000 -0.250000
v 0.375000 1.000000 -0.250000
v 0.500000 1.000000 -0.375000
v 0.375000 1.000000 -0.375000
v 0.500000 1.000000 -0.500000
v 0.375000 1.000000 -0.500000
v 0.250000 1.000000 -0.125000
v 0.250000 1.000000 0.000000
v 0.250000 1.000000 -0.250000
v 0.250000 1.000000 -0.375000
v 0.250000 1.000000 -0.500000
v 0.125000 1.000000 -0.125000
v 0.125000 1.000000 0.000000
v 0.125000 1.000000 -0.250000
v 0.125000 1.000000 -0.375000
v 0.125000 1.000000 -0.500000
v 0.000000 1.000000 -0.125000
v 0.000000 0.999999 0.000000
v 0.000000 1.000000 -0.250000
v 0.000000 1.000000 -0.375000
v 0.000000 1.000000 -0.500000
v 0.500000 1.000000 0.000000
v -0.125000 0.980000 0.375000
v -0.250000 0.900000 0.375000
v -0.250000 0.900000 0.500000
v -0.125000 0.980000 0.250000
v -0.250000 0.900000 0.250000
v -0.125000 0.980000 0.125000
v -0.250000 0.980000 0.125000
v -0.375000 0.700000 0.375000
v -0.375000 0.700000 0.500000
v -0.375000 0.900000 0.250000
v -0.375000 0.980000 0.125000
v -0.500000 0.700000 0.375000
v -0.500000 -0.000000 0.500000
v -0.500000 0.900000 0.250000
v -0.500000 0.980000 0.125000
v -0.125000 0.980000 0.500000
vt 0.319531 0.419992
vt 0.319531 0.388132
vt 0.287671 0.388132
vt 0.351390 0.419992
vt 0.351390 0.388132
vt 0.383250 0.419992
vt 0.383250 0.388132
vt 0.415109 0.419992
vt 0.415109 0.388132
vt 0.319531 0.356273
vt 0.287671 0.356273
vt 0.351390 0.356273
vt 0.383250 0.356273
vt 0.415109 0.356273
vt 0.319531 0.324413
vt 0.287671 0.324413
vt 0.351390 0.324413
vt 0.383250 0.324413
vt 0.415109 0.324413
vt 0.287671 0.419992
vt 0.192092 0.292554
vt 0.192092 0.260694
vt 0.160233 0.260694
vt 0.223952 0.292554
vt 0.223952 0.260694
vt 0.255811 0.292554
vt 0.255811 0.260694
vt 0.192092 0.228835
vt 0.160233 0.228835
vt 0.223952 0.228835
vt 0.255811 0.228835
vt 0.192092 0.278642
vt 0.192092 0.227667
vt 0.160233 0.227667
vt 0.273759 0.228835
vt 0.273759 0.196975
vt 0.222784 0.196975
vt 0.255811 0.196975
vt 0.223952 0.196975
vt 0.222784 0.165116
vt 0.044370 0.165116
vt 0.273759 0.165116
vt 0.255811 0.165116
vt 0.223952 0.165116
vt 0.160233 0.292554
vt 0.160233 0.278642
vt 0.223952 0.278642
vt 0.160233 0.049253
vt 0.415109 0.260694
vt 0.383250 0.260694
vt 0.383250 0.292554
vt 0.415109 0.228835
vt 0.383250 0.228835
vt 0.415109 0.196975
vt 0.383250 0.196975
vt 0.415109 0.165116
vt 0.383250 0.165116
vt 0.351390 0.260694
vt 0.351390 0.292554
vt 0.351390 0.228835
vt 0.351390 0.196975
vt 0.351390 0.165116
vt 0.319531 0.260694
vt 0.319531 0.292554
vt 0.319531 0.228835
vt 0.319531 0.196975
vt 0.319531 0.165116
vt 0.287671 0.260694
vt 0.287671 0.292554
vt 0.287671 0.228835
vt 0.287671 0.196975
vt 0.287671 0.165116
vt 0.415109 0.292554
vt 0.255811 0.388132
vt 0.223952 0.388132
vt 0.223952 0.419992
vt 0.255811 0.356273
vt 0.223952 0.356273
vt 0.255811 0.324413
vt 0.223952 0.324413
vt 0.273759 0.388132
vt 0.222784 0.388132
vt 0.222784 0.419992
vt 0.223952 0.278642
vt 0.192092 0.278642
vt 0.192092 0.227667
vt 0.192092 0.324413
vt 0.192092 0.356273
vt 0.160233 0.227667
vt 0.160233 0.049253
vt 0.160233 0.278642
vt 0.160233 0.324413
vt 0.160233 0.356273
vt 0.255811 0.419992
vt 0.273759 0.419992
vt 0.273759 0.356273
vt 0.044370 0.419992
vn 0.0000 1.0000 0.0000
vn 0.0000 0.9345 -0.3560
vn -0.1496 0.9619 -0.2287
vn 0.0000 0.7033 -0.7109
vn -0.2895 0.7789 -0.5564
vn -0.5391 0.8423 0.0000
vn -0.4355 0.8901 -0.1342
vn -0.4151 0.3996 -0.8173
vn 0.0000 0.3594 -0.9332
vn -0.8480 0.5300 0.0000
vn -0.7777 0.6011 -0.1841
vn -0.9844 0.1758 0.0000
vn -0.6856 0.2449 -0.6856
vn -0.4355 0.8901 0.1342
vn -0.1496 0.9619 0.2287
vn 0.0000 0.9345 0.3560
vn -0.7777 0.6011 0.1841
vn -0.2895 0.7789 0.5564
vn 0.0000 0.7033 0.7109
vn -0.4151 0.3996 0.8173
vn 0.0000 0.3594 0.9332
vn -0.6856 0.2449 0.6856
vn -0.0797 0.9968 -0.0000
vn -0.1580 0.9874 0.0000
vn -0.1192 0.9921 -0.0395
vn -0.1192 0.9921 0.0395
usemtl None.003
s 1
f 1/1/1 2/2/1 3/3/1
f 4/4/1 5/5/1 2/2/1
f 6/6/1 7/7/1 5/5/1
f 8/8/1 9/9/1 7/7/1
f 2/2/1 10/10/1 11/11/1
f 5/5/1 12/12/1 10/10/1
f 7/7/1 13/13/1 12/12/1
f 9/9/1 14/14/1 13/13/1
f 10/10/1 15/15/1 16/16/1
f 12/12/1 17/17/1 15/15/1
f 13/13/1 18/18/1 17/17/1
f 14/14/1 19/19/1 18/18/1
f 20/20/1 1/1/1 3/3/1
f 1/1/1 4/4/1 2/2/1
f 4/4/1 6/6/1 5/5/1
f 6/6/1 8/8/1 7/7/1
f 3/3/1 2/2/1 11/11/1
f 2/2/1 5/5/1 10/10/1
f 5/5/1 7/7/1 12/12/1
f 7/7/1 9/9/1 13/13/1
f 11/11/1 10/10/1 16/16/1
f 10/10/1 12/12/1 15/15/1
f 12/12/1 13/13/1 17/17/1
f 13/13/1 14/14/1 18/18/1
f 21/21/1 22/22/2 23/23/2
f 24/24/1 25/25/2 22/22/2
f 26/26/1 27/27/3 25/25/2
f 22/22/2 28/28/4 29/29/4
f 25/25/2 30/30/5 28/28/4
f 27/27/3 31/31/6 30/30/7
f 28/32/4 32/33/8 33/34/9
f 30/35/5 34/36/10 32/37/11
f 31/31/6 35/38/6 34/39/6
f 32/37/8 36/40/12 37/41/13
f 34/36/10 38/42/10 36/40/10
f 35/38/6 39/43/6 38/44/6
f 40/45/1 21/21/1 23/23/2
f 21/21/1 24/24/1 22/22/2
f 24/24/1 26/26/1 25/25/2
f 23/23/2 22/22/2 29/29/4
f 22/22/2 25/25/2 28/28/4
f 25/25/2 27/27/3 30/30/7
f 29/46/4 28/32/4 33/34/9
f 28/32/4 30/47/5 32/33/11
f 30/30/7 31/31/6 34/39/6
f 33/34/9 32/33/8 37/48/13
f 32/37/11 34/36/10 36/40/10
f 34/39/6 35/38/6 38/44/6
f 41/49/1 42/50/1 43/51/1
f 44/52/1 45/53/1 42/50/1
f 46/54/1 47/55/1 45/53/1
f 48/56/1 49/57/1 47/55/1
f 42/50/1 50/58/1 51/59/1
f 45/53/1 52/60/1 50/58/1
f 47/55/1 53/61/1 52/60/1
f 49/57/1 54/62/1 53/61/1
f 50/58/1 55/63/1 56/64/1
f 52/60/1 57/65/1 55/63/1
f 53/61/1 58/66/1 57/65/1
f 54/62/1 59/67/1 58/66/1
f 55/63/1 60/68/1 61/69/1
f 57/65/1 62/70/1 60/68/1
f 58/66/1 63/71/1 62/70/1
f 59/67/1 64/72/1 63/71/1
f 65/73/1 41/49/1 43/51/1
f 41/49/1 44/52/1 42/50/1
f 44/52/1 46/54/1 45/53/1
f 46/54/1 48/56/1 47/55/1
f 43/51/1 42/50/1 51/59/1
f 42/50/1 45/53/1 50/58/1
f 45/53/1 47/55/1 52/60/1
f 47/55/1 49/57/1 53/61/1
f 51/59/1 50/58/1 56/64/1
f 50/58/1 52/60/1 55/63/1
f 52/60/1 53/61/1 57/65/1
f 53/61/1 54/62/1 58/66/1
f 56/64/1 55/63/1 61/69/1
f 55/63/1 57/65/1 60/68/1
f 57/65/1 58/66/1 62/70/1
f 58/66/1 59/67/1 63/71/1
f 66/74/6 67/75/6 68/76/6
f 69/77/6 70/78/14 67/75/6
f 71/79/15 72/80/16 70/78/14
f 67/81/10 73/82/17 74/83/10
f 70/84/18 75/85/19 73/86/17
f 72/80/16 76/87/16 75/88/19
f 73/86/20 77/89/21 78/90/22
f 75/85/19 79/91/19 77/89/21
f 76/87/16 80/92/16 79/93/19
f 81/94/6 66/74/6 68/76/6
f 66/74/6 69/77/6 67/75/6
f 69/77/6 71/79/15 70/78/14
f 68/95/10 67/81/10 74/83/10
f 67/81/10 70/96/18 73/82/17
f 70/78/18 72/80/16 75/88/19
f 74/83/12 73/82/20 78/97/22
f 73/86/20 75/85/19 77/89/21
f 75/88/19 76/87/16 79/93/19
f 15/15/1 56/64/1 61/69/1
f 17/17/1 51/59/1 56/64/1
f 18/18/1 43/51/1 51/59/1
f 19/19/1 65/73/1 43/51/1
f 16/16/1 15/15/1 61/69/1
f 15/15/1 17/17/1 56/64/1
f 17/17/1 18/18/1 51/59/1
f 18/18/1 19/19/1 43/51/1
f 61/69/23 60/68/24 27/27/25
f 60/68/24 62/70/24 31/31/24
f 62/70/24 63/71/24 35/38/24
f 63/71/24 64/72/24 39/43/24
f 26/26/1 61/69/23 27/27/25
f 27/27/25 60/68/24 31/31/24
f 31/31/24 62/70/24 35/38/24
f 35/38/24 63/71/24 39/43/24
f 3/3/24 66/74/24 81/94/24
f 11/11/24 69/77/24 66/74/24
f 16/16/24 71/79/26 69/77/24
f 61/69/23 26/26/1 71/79/26
f 26/26/1 24/24/1 72/80/16
f 24/24/1 21/21/1 76/87/16
f 21/21/1 40/45/1 80/92/16
f 20/20/24 3/3/24 81/94/24
f 3/3/24 11/11/24 66/74/24
f 11/11/24 16/16/24 69/77/24
f 16/16/24 61/69/23 71/79/26
f 71/79/15 26/26/1 72/80/16
f 72/80/16 24/24/1 76/87/16
f 76/87/16 21/21/1 80/92/16
