# Blender v2.82 (sub 7) OBJ File: 'StoneModels.blend'
# www.blender.org
mtllib Stone4c.mtl
o Grid_Grid.020_Grid_Grid.039
v 0.500000 1.000000 0.500000
v 0.000000 1.000000 0.500000
v -0.500000 0.980000 -0.125000
v -0.125000 0.980000 -0.125000
v -0.500000 0.900000 -0.250000
v -0.250000 0.900000 -0.250000
v -0.375000 0.700000 -0.375000
v -0.500000 0.700000 -0.375000
v -0.375000 0.700000 -0.500000
v -0.500000 0.000000 -0.500000
v -0.250000 0.900000 -0.500000
v -0.125000 0.980000 -0.500000
v -0.500000 1.000000 0.000000
v 0.500000 1.000000 -0.500000
v 0.000000 0.999999 0.000000
v 0.000000 1.000000 -0.500000
v -0.250000 0.900000 0.500000
v -0.250000 0.900000 0.250000
v -0.125000 0.980000 0.125000
v -0.375000 0.700000 0.375000
v -0.375000 0.700000 0.500000
v -0.500000 0.700000 0.375000
v -0.500000 -0.000000 0.500000
v -0.500000 0.900000 0.250000
v -0.500000 0.980000 0.125000
v -0.125000 0.980000 0.500000
vt 0.228791 0.229917
vt 0.228791 0.312125
vt 0.063251 0.312125
vt 0.354917 0.395458
vt 0.395458 0.313251
vt 0.395458 0.395458
vt 0.353791 0.146584
vt 0.271584 0.228791
vt 0.353791 0.228791
vt 0.313251 0.312125
vt 0.395458 0.229917
vt 0.395458 0.312125
vt 0.395458 0.228791
vt 0.354917 0.228791
vt 0.395458 0.063251
vt 0.229917 0.395458
vt 0.270458 0.313251
vt 0.270458 0.395458
vt 0.062875 0.395083
vt 0.062875 0.354542
vt 0.228416 0.354542
vt 0.312875 0.311749
vt 0.395083 0.229542
vt 0.312875 0.229542
vt 0.353416 0.146209
vt 0.271209 0.228416
vt 0.271209 0.146209
vt 0.312125 0.229917
vt 0.312125 0.312125
vt 0.229917 0.312125
vt 0.353791 0.063251
vt 0.353791 0.145458
vt 0.271584 0.145458
vt 0.354542 0.062875
vt 0.395083 0.062875
vt 0.354542 0.228416
vt 0.271209 0.062875
vt 0.271209 0.145083
vt 0.353416 0.062875
vt 0.270458 0.063251
vt 0.270458 0.228791
vt 0.229917 0.228791
vt 0.228791 0.353791
vt 0.063251 0.353791
vt 0.228791 0.313251
vt 0.228416 0.312875
vt 0.062875 0.312875
vt 0.062875 0.353416
vt 0.063251 0.228791
vt 0.228791 0.228791
vt 0.228791 0.063251
vt 0.229542 0.311749
vt 0.311749 0.229542
vt 0.229542 0.229542
vt 0.396584 0.145458
vt 0.437125 0.145458
vt 0.437125 0.063251
vt 0.063251 0.437125
vt 0.145458 0.437125
vt 0.145458 0.396584
vt 0.229542 0.228416
vt 0.270083 0.062875
vt 0.229542 0.062875
vt 0.062875 0.436749
vt 0.062875 0.396209
vt 0.145083 0.396209
vt 0.396209 0.145083
vt 0.396209 0.062875
vt 0.436749 0.062875
vt 0.353791 0.354917
vt 0.353791 0.395458
vt 0.271584 0.395458
vt 0.271209 0.395083
vt 0.271209 0.354542
vt 0.353416 0.354542
vt 0.354542 0.395083
vt 0.354542 0.312875
vt 0.395083 0.312875
vt 0.353791 0.313251
vt 0.353791 0.353791
vt 0.271584 0.353791
vt 0.353416 0.312875
vt 0.271209 0.312875
vt 0.271209 0.353416
vt 0.270083 0.312875
vt 0.229542 0.312875
vt 0.229542 0.395083
vt 0.062875 0.311749
vt 0.062875 0.229542
vt 0.228416 0.229542
vt 0.062875 0.228416
vt 0.228416 0.062875
vt 0.062875 0.062875
vn -0.5923 0.5462 -0.5923
vn -0.9332 0.3594 0.0000
vn -0.6856 0.2449 -0.6856
vn -0.0000 0.9076 -0.4198
vn -0.3704 0.8518 -0.3704
vn -0.0000 0.6482 -0.7615
vn -0.7615 0.6482 0.0000
vn 0.0000 0.3594 -0.9332
vn -0.1056 0.9944 -0.0000
vn -0.1484 0.9777 0.1484
vn -0.4198 0.9076 0.0000
vn -0.5923 0.5462 0.5923
vn 0.0000 0.3594 0.9332
vn -0.6856 0.2449 0.6856
vn -0.3704 0.8518 0.3704
vn 0.0000 0.6482 0.7615
vn 0.0000 0.9076 0.4198
vn -0.1484 0.9777 -0.1484
vn -0.0454 0.9990 0.0000
vn 0.0000 1.0000 0.0000
usemtl None.003
s 1
f 7/1/1 9/2/2 10/3/3
f 3/4/4 6/5/5 5/6/6
f 7/7/1 5/8/6 6/9/5
f 11/10/7 7/11/1 6/12/5
f 8/13/8 7/14/1 10/15/3
f 2/16/9 19/17/10 26/18/11
f 20/19/12 22/20/13 23/21/14
f 20/22/12 17/23/7 18/24/15
f 24/25/16 20/26/12 18/27/15
f 25/28/17 18/29/15 19/30/10
f 12/31/11 6/32/5 4/33/18
f 21/34/2 20/35/12 23/36/14
f 18/37/15 26/38/11 19/39/10
f 16/40/9 4/41/18 15/42/19
f 4/43/18 13/44/20 15/45/19
f 13/46/20 19/47/10 15/48/19
f 14/49/20 16/50/9 15/51/19
f 3/52/4 4/53/18 6/54/5
f 7/55/1 8/56/8 5/57/6
f 11/58/7 9/59/2 7/60/1
f 2/61/9 15/62/19 19/63/10
f 20/64/12 21/65/2 17/66/7
f 24/67/16 22/68/13 20/69/12
f 25/70/17 24/71/16 18/72/15
f 12/73/11 11/74/7 6/75/5
f 18/76/15 17/77/7 26/78/11
f 16/79/9 12/80/11 4/81/18
f 4/82/18 3/83/4 13/84/20
f 13/85/20 25/86/17 19/87/10
f 15/88/19 2/89/9 1/90/20
f 1/91/20 14/92/20 15/93/19
