# Blender v2.76 (sub 0) OBJ File: 'StoneModels.blend'
# www.blender.org
mtllib Stone4b.mtl
o Grid_Grid.016_Grid_Grid.036
v 0.125000 1.000000 0.500000
v 0.125000 1.000000 0.375000
v 0.000000 1.000000 0.375000
v 0.250000 1.000000 0.500000
v 0.250000 1.000000 0.375000
v 0.375000 1.000000 0.500000
v 0.375000 1.000000 0.375000
v 0.500000 1.000000 0.500000
v 0.500000 1.000000 0.375000
v 0.125000 1.000000 0.250000
v 0.000000 1.000000 0.250000
v 0.250000 1.000000 0.250000
v 0.375000 1.000000 0.250000
v 0.500000 1.000000 0.250000
v 0.125000 1.000000 0.125000
v 0.000000 1.000000 0.125000
v 0.250000 1.000000 0.125000
v 0.375000 1.000000 0.125000
v 0.500000 1.000000 0.125000
v 0.000000 1.000000 0.500000
v -0.375000 1.000000 0.000000
v -0.375000 0.980000 -0.125000
v -0.500000 0.980000 -0.125000
v -0.250000 1.000000 0.000000
v -0.250000 0.980000 -0.125000
v -0.125000 1.000000 0.000000
v -0.125000 0.980000 -0.125000
v -0.375000 0.900000 -0.250000
v -0.500000 0.900000 -0.250000
v -0.250000 0.900000 -0.250000
v -0.125000 0.980000 -0.250000
v -0.375000 0.700000 -0.375000
v -0.500000 0.700000 -0.375000
v -0.250000 0.900000 -0.375000
v -0.125000 0.980000 -0.375000
v -0.375000 0.700000 -0.500000
v -0.500000 0.000000 -0.500000
v -0.250000 0.900000 -0.500000
v -0.125000 0.980000 -0.500000
v -0.500000 1.000000 0.000000
v 0.500000 0.980000 -0.125000
v 0.375000 0.980000 -0.125000
v 0.375000 1.000000 0.000000
v 0.500000 0.900000 -0.250000
v 0.375000 0.900000 -0.250000
v 0.500000 0.700000 -0.375000
v 0.375000 0.700000 -0.375000
v 0.500000 0.000000 -0.500000
v 0.375000 0.700000 -0.500000
v 0.250000 0.980000 -0.125000
v 0.250000 1.000000 0.000000
v 0.250000 0.900000 -0.250000
v 0.250000 0.900000 -0.375000
v 0.250000 0.900000 -0.500000
v 0.125000 0.980000 -0.125000
v 0.125000 1.000000 0.000000
v 0.125000 0.980000 -0.250000
v 0.125000 0.980000 -0.375000
v 0.125000 0.980000 -0.500000
v 0.000000 1.000000 -0.125000
v 0.000000 0.999999 0.000000
v 0.000000 1.000000 -0.250000
v 0.000000 1.000000 -0.375000
v 0.000000 1.000000 -0.500000
v 0.500000 1.000000 0.000000
v -0.125000 0.980000 0.375000
v -0.250000 0.900000 0.375000
v -0.250000 0.900000 0.500000
v -0.125000 0.980000 0.250000
v -0.250000 0.900000 0.250000
v -0.125000 0.980000 0.125000
v -0.250000 0.980000 0.125000
v -0.375000 0.700000 0.375000
v -0.375000 0.700000 0.500000
v -0.375000 0.900000 0.250000
v -0.375000 0.980000 0.125000
v -0.500000 0.700000 0.375000
v -0.500000 -0.000000 0.500000
v -0.500000 0.900000 0.250000
v -0.500000 0.980000 0.125000
v -0.125000 0.980000 0.500000
vt 0.271418 0.129037
vt 0.270270 0.157476
vt 0.241053 0.156033
vt 0.299135 0.129745
vt 0.298975 0.157804
vt 0.326701 0.129592
vt 0.327188 0.157333
vt 0.354177 0.128937
vt 0.354918 0.156411
vt 0.269650 0.187023
vt 0.239132 0.186328
vt 0.299309 0.186665
vt 0.328150 0.185533
vt 0.356165 0.183949
vt 0.269880 0.217627
vt 0.238207 0.217949
vt 0.300457 0.216304
vt 0.329934 0.214185
vt 0.358278 0.211595
vt 0.243483 0.127139
vt 0.141227 0.251400
vt 0.140324 0.282401
vt 0.110763 0.280262
vt 0.172771 0.251264
vt 0.172143 0.284370
vt 0.205601 0.251028
vt 0.205488 0.285375
vt 0.136196 0.319047
vt 0.106797 0.313459
vt 0.168262 0.324542
vt 0.208185 0.318627
vt 0.119060 0.376310
vt 0.091941 0.364385
vt 0.175378 0.356288
vt 0.211767 0.350304
vt 0.132347 0.402788
vt 0.004233 0.497124
vt 0.182452 0.385365
vt 0.215405 0.379718
vt 0.111524 0.251489
vt 0.366100 0.267687
vt 0.337320 0.273305
vt 0.332858 0.243291
vt 0.373842 0.300182
vt 0.345343 0.308924
vt 0.393986 0.349248
vt 0.368275 0.363925
vt 0.494914 0.472174
vt 0.357779 0.391607
vt 0.306473 0.278621
vt 0.302699 0.246747
vt 0.314236 0.317673
vt 0.310328 0.349789
vt 0.306181 0.379361
vt 0.273902 0.282638
vt 0.271166 0.249276
vt 0.274211 0.315641
vt 0.273643 0.347375
vt 0.272859 0.376956
vt 0.239786 0.283519
vt 0.238542 0.250599
vt 0.241216 0.316318
vt 0.242682 0.347828
vt 0.244101 0.377496
vt 0.361591 0.239398
vt 0.210851 0.153099
vt 0.174870 0.146895
vt 0.182154 0.117988
vt 0.207107 0.184177
vt 0.167711 0.178406
vt 0.204749 0.216910
vt 0.171773 0.218277
vt 0.118774 0.126783
vt 0.132127 0.100360
vt 0.135834 0.183940
vt 0.140107 0.220455
vt 0.091660 0.138671
vt 0.004233 0.005797
vt 0.106509 0.189582
vt 0.110604 0.222741
vt 0.215001 0.124071
vn 0.000000 1.000000 0.000000
vn 0.000000 0.934500 -0.356000
vn -0.149600 0.961900 -0.228700
vn 0.000000 0.703300 -0.710900
vn -0.289500 0.778900 -0.556400
vn -0.539100 0.842300 0.000000
vn -0.435500 0.890100 -0.134200
vn -0.415100 0.399600 -0.817300
vn 0.000000 0.359400 -0.933200
vn -0.848000 0.530000 0.000000
vn -0.777700 0.601100 -0.184100
vn -0.984400 0.175800 0.000000
vn -0.685600 0.244900 -0.685600
vn -0.000000 0.996900 -0.079200
vn 0.604800 0.518100 -0.604800
vn 0.685600 0.244900 -0.685600
vn 0.933200 0.359400 0.000000
vn 0.367900 0.854000 -0.367900
vn 0.710900 0.703300 0.000000
vn 0.135100 0.981600 -0.135100
vn 0.356000 0.934500 0.000000
vn 0.158000 0.987400 0.000000
vn 0.039800 0.998400 -0.039800
vn -0.435500 0.890100 0.134200
vn -0.149600 0.961900 0.228700
vn 0.000000 0.934500 0.356000
vn -0.777700 0.601100 0.184100
vn -0.289500 0.778900 0.556400
vn 0.000000 0.703300 0.710900
vn -0.415100 0.399600 0.817300
vn 0.000000 0.359400 0.933200
vn -0.685600 0.244900 0.685600
vn -0.079700 0.996800 -0.000000
vn -0.158000 0.987400 0.000000
vn -0.119200 0.992100 -0.039500
vn -0.119200 0.992100 0.039500
usemtl None.003
s 1
f 1/1/1 2/2/1 3/3/1
f 4/4/1 5/5/1 2/2/1
f 6/6/1 7/7/1 5/5/1
f 8/8/1 9/9/1 7/7/1
f 2/2/1 10/10/1 11/11/1
f 5/5/1 12/12/1 10/10/1
f 7/7/1 13/13/1 12/12/1
f 9/9/1 14/14/1 13/13/1
f 10/10/1 15/15/1 16/16/1
f 12/12/1 17/17/1 15/15/1
f 13/13/1 18/18/1 17/17/1
f 14/14/1 19/19/1 18/18/1
f 20/20/1 1/1/1 3/3/1
f 1/1/1 4/4/1 2/2/1
f 4/4/1 6/6/1 5/5/1
f 6/6/1 8/8/1 7/7/1
f 3/3/1 2/2/1 11/11/1
f 2/2/1 5/5/1 10/10/1
f 5/5/1 7/7/1 12/12/1
f 7/7/1 9/9/1 13/13/1
f 11/11/1 10/10/1 16/16/1
f 10/10/1 12/12/1 15/15/1
f 12/12/1 13/13/1 17/17/1
f 13/13/1 14/14/1 18/18/1
f 21/21/1 22/22/2 23/23/2
f 24/24/1 25/25/2 22/22/2
f 26/26/1 27/27/3 25/25/2
f 22/22/2 28/28/4 29/29/4
f 25/25/2 30/30/5 28/28/4
f 27/27/3 31/31/6 30/30/7
f 28/28/4 32/32/8 33/33/9
f 30/30/5 34/34/10 32/32/11
f 31/31/6 35/35/6 34/34/6
f 32/32/8 36/36/12 37/37/13
f 34/34/10 38/38/10 36/36/10
f 35/35/6 39/39/6 38/38/6
f 40/40/1 21/21/1 23/23/2
f 21/21/1 24/24/1 22/22/2
f 24/24/1 26/26/1 25/25/2
f 23/23/2 22/22/2 29/29/4
f 22/22/2 25/25/2 28/28/4
f 25/25/2 27/27/3 30/30/7
f 29/29/4 28/28/4 33/33/9
f 28/28/4 30/30/5 32/32/11
f 30/30/7 31/31/6 34/34/6
f 33/33/9 32/32/8 37/37/13
f 32/32/11 34/34/10 36/36/10
f 34/34/6 35/35/6 38/38/6
f 41/41/2 42/42/2 43/43/14
f 44/44/4 45/45/4 42/42/2
f 46/46/9 47/47/15 45/45/4
f 48/48/16 49/49/17 47/47/15
f 42/42/2 50/50/2 51/51/14
f 45/45/4 52/52/18 50/50/2
f 47/47/15 53/53/19 52/52/18
f 49/49/17 54/54/19 53/53/19
f 50/50/2 55/55/20 56/56/14
f 52/52/18 57/57/21 55/55/20
f 53/53/19 58/58/21 57/57/21
f 54/54/19 59/59/21 58/58/21
f 55/55/20 60/60/22 61/61/23
f 57/57/21 62/62/22 60/60/22
f 58/58/21 63/63/22 62/62/22
f 59/59/21 64/64/22 63/63/22
f 65/65/14 41/41/2 43/43/14
f 41/41/2 44/44/4 42/42/2
f 44/44/4 46/46/9 45/45/4
f 46/46/9 48/48/16 47/47/15
f 43/43/14 42/42/2 51/51/14
f 42/42/2 45/45/4 50/50/2
f 45/45/4 47/47/15 52/52/18
f 47/47/15 49/49/17 53/53/19
f 51/51/14 50/50/2 56/56/14
f 50/50/2 52/52/18 55/55/20
f 52/52/18 53/53/19 57/57/21
f 53/53/19 54/54/19 58/58/21
f 56/56/14 55/55/20 61/61/23
f 55/55/20 57/57/21 60/60/22
f 57/57/21 58/58/21 62/62/22
f 58/58/21 59/59/21 63/63/22
f 66/66/6 67/67/6 68/68/6
f 69/69/6 70/70/24 67/67/6
f 71/71/25 72/72/26 70/70/24
f 67/67/10 73/73/27 74/74/10
f 70/70/28 75/75/29 73/73/27
f 72/72/26 76/76/26 75/75/29
f 73/73/30 77/77/31 78/78/32
f 75/75/29 79/79/29 77/77/31
f 76/76/26 80/80/26 79/79/29
f 81/81/6 66/66/6 68/68/6
f 66/66/6 69/69/6 67/67/6
f 69/69/6 71/71/25 70/70/24
f 68/68/10 67/67/10 74/74/10
f 67/67/10 70/70/28 73/73/27
f 70/70/28 72/72/26 75/75/29
f 74/74/12 73/73/30 78/78/32
f 73/73/30 75/75/29 77/77/31
f 75/75/29 76/76/26 79/79/29
f 15/15/1 56/56/14 61/61/23
f 17/17/1 51/51/14 56/56/14
f 18/18/1 43/43/14 51/51/14
f 19/19/1 65/65/14 43/43/14
f 16/16/1 15/15/1 61/61/23
f 15/15/1 17/17/1 56/56/14
f 17/17/1 18/18/1 51/51/14
f 18/18/1 19/19/1 43/43/14
f 61/61/33 60/60/34 27/27/35
f 60/60/34 62/62/34 31/31/34
f 62/62/34 63/63/34 35/35/34
f 63/63/34 64/64/34 39/39/34
f 26/26/1 61/61/33 27/27/35
f 27/27/35 60/60/34 31/31/34
f 31/31/34 62/62/34 35/35/34
f 35/35/34 63/63/34 39/39/34
f 3/3/34 66/66/34 81/81/34
f 11/11/34 69/69/34 66/66/34
f 16/16/34 71/71/36 69/69/34
f 61/61/33 26/26/1 71/71/36
f 26/26/1 24/24/1 72/72/26
f 24/24/1 21/21/1 76/76/26
f 21/21/1 40/40/1 80/80/26
f 20/20/34 3/3/34 81/81/34
f 3/3/34 11/11/34 66/66/34
f 11/11/34 16/16/34 69/69/34
f 16/16/34 61/61/33 71/71/36
f 71/71/25 26/26/1 72/72/26
f 72/72/26 24/24/1 76/76/26
f 76/76/26 21/21/1 80/80/26
