# Blender v2.76 (sub 0) OBJ File: 'StoneTileCup.blend'
# www.blender.org
mtllib StoneTileCup.mtl
o Grid_Grid.003
v 0.500000 0.000000 0.000000
v 0.625000 0.000000 0.000000
v 0.750000 0.000000 -0.000000
v 0.875000 0.000000 -0.000000
v 1.000000 0.000000 -0.000000
v 0.500000 0.705680 -0.125000
v 0.625000 0.705680 -0.125000
v 0.750000 0.705680 -0.125000
v 0.875000 0.705680 -0.125000
v 1.000000 0.000000 -0.125000
v 0.500000 0.905680 -0.250000
v 0.625000 0.905680 -0.250000
v 0.750000 0.905680 -0.250000
v 0.875000 0.705680 -0.250000
v 1.000000 0.000000 -0.250000
v 0.500000 0.985680 -0.375000
v 0.625000 0.985680 -0.375000
v 0.750000 0.905680 -0.375000
v 0.875000 0.705680 -0.375000
v 1.000000 0.000000 -0.375000
v 0.000000 0.005679 -0.500000
v 0.125000 0.705679 -0.500000
v 0.250000 0.905679 -0.500000
v 0.375000 0.985679 -0.500000
v 0.000000 0.005679 -0.625000
v 0.125000 0.705679 -0.625000
v 0.250000 0.905679 -0.625000
v 0.375000 0.985679 -0.625000
v 0.000000 0.005679 -0.750000
v 0.125000 0.705679 -0.750000
v 0.250000 0.905679 -0.750000
v 0.375000 0.985680 -0.750000
v 0.000000 0.005679 -0.875000
v 0.125000 0.705680 -0.875000
v 0.250000 0.905680 -0.875000
v 0.375000 0.985680 -0.875000
v 0.000000 0.005679 -1.000000
v 0.125000 0.705680 -1.000000
v 0.250000 0.905680 -1.000000
v 0.375000 0.985680 -1.000000
v 1.000000 0.000000 -0.500000
v 1.000000 0.000000 -0.625000
v 1.000000 0.000000 -0.750000
v 1.000000 0.000000 -0.875000
v 1.000000 0.000000 -1.000000
v 0.875000 0.705680 -0.500000
v 0.875000 0.705680 -0.625000
v 0.875000 0.705680 -0.750000
v 0.875000 0.705680 -0.875000
v 0.875000 0.705680 -1.000000
v 0.750000 0.905680 -0.500000
v 0.750000 0.905680 -0.625000
v 0.750000 0.905680 -0.750000
v 0.750000 0.905680 -0.875000
v 0.750000 0.905680 -1.000000
v 0.625000 1.000000 -0.500000
v 0.625000 1.000000 -0.625000
v 0.625000 1.000000 -0.750000
v 0.625000 1.000000 -0.875000
v 0.625000 1.000000 -1.000000
v 0.500000 0.999999 -0.500000
v 0.500000 1.000000 -0.625000
v 0.500000 1.000000 -0.750000
v 0.500000 1.000000 -0.875000
v 0.500000 1.000000 -1.000000
v 0.375000 0.000000 0.000000
v 0.375000 0.705680 -0.125000
v 0.375000 0.905680 -0.250000
v 0.375000 0.985680 -0.375000
v 0.250000 0.000000 0.000000
v 0.250000 0.705680 -0.125000
v 0.250000 0.905679 -0.250000
v 0.250000 0.905679 -0.375000
v 0.125000 0.000000 0.000000
v 0.125000 0.705679 -0.125000
v 0.125000 0.705679 -0.250000
v 0.125000 0.705679 -0.375000
v 0.000000 0.005679 0.000000
v 0.000000 0.005679 -0.125000
v 0.000000 0.005679 -0.250000
v 0.000000 0.005679 -0.375000
vt 0.276571 0.114315
vt 0.267577 0.224644
vt 0.252114 0.224060
vt 0.299272 0.116445
vt 0.282631 0.225726
vt 0.322024 0.120032
vt 0.297309 0.227613
vt 0.346557 0.125853
vt 0.366990 0.140575
vt 0.266960 0.253572
vt 0.251624 0.253493
vt 0.281696 0.253377
vt 0.307140 0.239774
vt 0.384807 0.155460
vt 0.267704 0.272556
vt 0.251246 0.272794
vt 0.286940 0.268070
vt 0.316455 0.254268
vt 0.401976 0.171380
vt 0.253940 0.113560
vt 0.176984 0.268467
vt 0.166621 0.286661
vt 0.070045 0.201141
vt 0.210235 0.283778
vt 0.204080 0.303080
vt 0.231972 0.289162
vt 0.228878 0.308912
vt 0.155532 0.306646
vt 0.053078 0.219144
vt 0.197306 0.324835
vt 0.225440 0.331382
vt 0.143282 0.328307
vt 0.036297 0.237831
vt 0.189539 0.349286
vt 0.221492 0.356920
vt 0.129291 0.351427
vt 0.019626 0.256955
vt 0.180206 0.376850
vt 0.216845 0.386094
vt 0.087279 0.184043
vt 0.435441 0.205785
vt 0.335794 0.289231
vt 0.325942 0.270752
vt 0.451896 0.224239
vt 0.346311 0.309520
vt 0.468148 0.243366
vt 0.357938 0.331522
vt 0.484280 0.262925
vt 0.371268 0.355035
vt 0.297921 0.304582
vt 0.292301 0.285130
vt 0.304048 0.326496
vt 0.311083 0.351154
vt 0.319585 0.378993
vt 0.271641 0.309849
vt 0.269435 0.290146
vt 0.274171 0.332379
vt 0.277105 0.358037
vt 0.280592 0.387382
vt 0.250331 0.310831
vt 0.250787 0.291025
vt 0.249866 0.333497
vt 0.249357 0.359314
vt 0.248780 0.388613
vt 0.418699 0.188219
vt 0.236646 0.224143
vt 0.221567 0.224745
vt 0.208529 0.114932
vt 0.236335 0.253027
vt 0.221647 0.252370
vt 0.234901 0.271810
vt 0.215979 0.266867
vt 0.206831 0.226174
vt 0.185662 0.117758
vt 0.196649 0.238040
vt 0.186923 0.252260
vt 0.140337 0.137905
vt 0.161190 0.123819
vt 0.122092 0.152259
vt 0.104474 0.167680
vt 0.231294 0.113560
vn 0.000000 0.174400 0.984700
vn 0.984700 0.174400 0.000000
vn 0.000000 0.530000 0.848000
vn 0.848000 0.530000 0.000000
vn 0.000000 0.842300 0.539100
vn 0.539100 0.842300 0.000000
vn -0.984400 0.175800 -0.000000
vn -0.848000 0.530000 -0.000000
vn -0.539100 0.842300 0.000000
vn 0.602300 0.798200 0.000000
vn 0.000000 1.000000 0.000000
vn 0.007900 0.174400 0.984600
vn -0.000000 0.993500 0.113800
vn 0.536600 0.838400 0.096000
vn -0.113800 0.993500 0.000000
usemtl None
s off
f 2/1/1 7/2/1 6/3/1
f 3/4/1 8/5/1 7/2/1
f 4/6/1 9/7/1 8/5/1
f 5/8/2 10/9/2 9/7/2
f 7/2/3 12/10/3 11/11/3
f 8/5/3 13/12/3 12/10/3
f 9/7/4 14/13/4 13/12/4
f 10/9/2 15/14/2 14/13/2
f 12/10/5 17/15/5 16/16/5
f 13/12/6 18/17/6 17/15/6
f 14/13/4 19/18/4 18/17/4
f 15/14/2 20/19/2 19/18/2
f 1/20/1 2/1/1 6/3/1
f 2/1/1 3/4/1 7/2/1
f 3/4/1 4/6/1 8/5/1
f 4/6/1 5/8/1 9/7/1
f 6/3/3 7/2/3 11/11/3
f 7/2/3 8/5/3 12/10/3
f 8/5/3 9/7/3 13/12/3
f 9/7/2 10/9/2 14/13/2
f 11/11/5 12/10/5 16/16/5
f 12/10/5 13/12/5 17/15/5
f 13/12/4 14/13/4 18/17/4
f 14/13/2 15/14/2 19/18/2
f 22/21/7 26/22/7 25/23/7
f 23/24/8 27/25/8 26/22/8
f 24/26/9 28/27/9 27/25/9
f 26/22/7 30/28/7 29/29/7
f 27/25/8 31/30/8 30/28/8
f 28/27/9 32/31/9 31/30/9
f 30/28/7 34/32/7 33/33/7
f 31/30/8 35/34/8 34/32/8
f 32/31/9 36/35/9 35/34/9
f 34/32/7 38/36/7 37/37/7
f 35/34/8 39/38/8 38/36/8
f 36/35/9 40/39/9 39/38/9
f 21/40/7 22/21/7 25/23/7
f 22/21/8 23/24/8 26/22/8
f 23/24/9 24/26/9 27/25/9
f 25/23/7 26/22/7 29/29/7
f 26/22/8 27/25/8 30/28/8
f 27/25/9 28/27/9 31/30/9
f 29/29/7 30/28/7 33/33/7
f 30/28/8 31/30/8 34/32/8
f 31/30/9 32/31/9 35/34/9
f 33/33/7 34/32/7 37/37/7
f 34/32/8 35/34/8 38/36/8
f 35/34/9 36/35/9 39/38/9
f 42/41/2 47/42/2 46/43/2
f 43/44/2 48/45/2 47/42/2
f 44/46/2 49/47/2 48/45/2
f 45/48/2 50/49/2 49/47/2
f 47/42/4 52/50/4 51/51/4
f 48/45/4 53/52/4 52/50/4
f 49/47/4 54/53/4 53/52/4
f 50/49/4 55/54/4 54/53/4
f 52/50/10 57/55/10 56/56/10
f 53/52/10 58/57/10 57/55/10
f 54/53/10 59/58/10 58/57/10
f 55/54/10 60/59/10 59/58/10
f 57/55/11 62/60/11 61/61/11
f 58/57/11 63/62/11 62/60/11
f 59/58/11 64/63/11 63/62/11
f 60/59/11 65/64/11 64/63/11
f 41/65/2 42/41/2 46/43/2
f 42/41/2 43/44/2 47/42/2
f 43/44/2 44/46/2 48/45/2
f 44/46/2 45/48/2 49/47/2
f 46/43/4 47/42/4 51/51/4
f 47/42/4 48/45/4 52/50/4
f 48/45/4 49/47/4 53/52/4
f 49/47/4 50/49/4 54/53/4
f 51/51/10 52/50/10 56/56/10
f 52/50/10 53/52/10 57/55/10
f 53/52/10 54/53/10 58/57/10
f 54/53/10 55/54/10 59/58/10
f 56/56/11 57/55/11 61/61/11
f 57/55/11 58/57/11 62/60/11
f 58/57/11 59/58/11 63/62/11
f 59/58/11 60/59/11 64/63/11
f 67/66/1 71/67/1 70/68/1
f 68/69/3 72/70/3 71/67/3
f 69/71/9 73/72/9 72/70/9
f 71/67/1 75/73/1 74/74/1
f 72/70/8 76/75/8 75/73/8
f 73/72/8 77/76/8 76/75/8
f 75/73/7 79/77/7 78/78/7
f 76/75/7 80/79/7 79/77/7
f 77/76/7 81/80/7 80/79/7
f 66/81/1 67/66/1 70/68/1
f 67/66/3 68/69/3 71/67/3
f 68/69/5 69/71/5 72/70/5
f 70/68/1 71/67/1 74/74/1
f 71/67/3 72/70/3 75/73/3
f 72/70/8 73/72/8 76/75/8
f 74/74/12 75/73/12 78/78/12
f 75/73/7 76/75/7 79/77/7
f 76/75/7 77/76/7 80/79/7
f 17/15/13 56/56/13 61/61/13
f 18/17/10 51/51/10 56/56/10
f 19/18/4 46/43/4 51/51/4
f 20/19/2 41/65/2 46/43/2
f 16/16/13 17/15/13 61/61/13
f 17/15/14 18/17/14 56/56/14
f 18/17/4 19/18/4 51/51/4
f 19/18/2 20/19/2 46/43/2
f 61/61/15 62/60/15 28/27/15
f 62/60/15 63/62/15 32/31/15
f 63/62/15 64/63/15 36/35/15
f 64/63/15 65/64/15 40/39/15
f 24/26/15 61/61/15 28/27/15
f 28/27/15 62/60/15 32/31/15
f 32/31/15 63/62/15 36/35/15
f 36/35/15 64/63/15 40/39/15
f 6/3/1 67/66/1 66/81/1
f 11/11/3 68/69/3 67/66/3
f 16/16/5 69/71/5 68/69/5
f 61/61/15 24/26/15 69/71/15
f 24/26/9 23/24/9 73/72/9
f 23/24/8 22/21/8 77/76/8
f 22/21/7 21/40/7 81/80/7
f 1/20/1 6/3/1 66/81/1
f 6/3/3 11/11/3 67/66/3
f 11/11/5 16/16/5 68/69/5
f 16/16/13 61/61/13 69/71/13
f 69/71/9 24/26/9 73/72/9
f 73/72/8 23/24/8 77/76/8
f 77/76/7 22/21/7 81/80/7
