# Blender v2.76 (sub 0) OBJ File: 'WaterTile.blend'
# www.blender.org
mtllib WaterTile.mtl
o Grid_Grid.003
v 0.000000 0.000000 0.500000
v 0.125000 0.000000 0.500000
v 0.250000 0.000000 0.500000
v 0.375000 0.000000 0.500000
v 0.500000 0.000000 0.500000
v 0.000000 -0.050000 0.375000
v 0.125000 -0.050000 0.375000
v 0.250000 -0.050000 0.375000
v 0.375000 -0.050000 0.375000
v 0.500000 0.000000 0.375000
v 0.000000 -0.300000 0.250000
v 0.125000 -0.300000 0.250000
v 0.250000 -0.300000 0.250000
v 0.375000 -0.050000 0.250000
v 0.500000 0.000000 0.250000
v 0.000000 -0.800000 0.125000
v 0.125000 -0.800000 0.125000
v 0.250000 -0.300000 0.125000
v 0.375000 -0.050000 0.125000
v 0.500000 0.000000 0.125000
v -0.500000 0.000000 0.000000
v -0.375000 -0.050000 0.000000
v -0.250000 -0.300000 -0.000000
v -0.125000 -0.800000 -0.000000
v -0.500000 0.000000 -0.125000
v -0.375000 -0.050000 -0.125000
v -0.250000 -0.300000 -0.125000
v -0.125000 -0.800000 -0.125000
v -0.500000 0.000000 -0.250000
v -0.375000 -0.050000 -0.250000
v -0.250000 -0.300000 -0.250000
v -0.125000 -0.300000 -0.250000
v -0.500000 0.000000 -0.375000
v -0.375000 -0.050000 -0.375000
v -0.250000 -0.050000 -0.375000
v -0.125000 -0.050000 -0.375000
v -0.500000 0.000000 -0.500000
v -0.375000 0.000000 -0.500000
v -0.250000 0.000000 -0.500000
v -0.125000 0.000000 -0.500000
v 0.500000 0.000000 0.000000
v 0.500000 0.000000 -0.125000
v 0.500000 0.000000 -0.250000
v 0.500000 0.000000 -0.375000
v 0.500000 0.000000 -0.500000
v 0.375000 -0.050000 0.000000
v 0.375000 -0.050000 -0.125000
v 0.375000 -0.050000 -0.250000
v 0.375000 -0.050000 -0.375000
v 0.375000 0.000000 -0.500000
v 0.250000 -0.300000 0.000000
v 0.250000 -0.300000 -0.125000
v 0.250000 -0.300000 -0.250000
v 0.250000 -0.050000 -0.375000
v 0.250000 0.000000 -0.500000
v 0.125000 -0.800000 0.000000
v 0.125000 -0.800000 -0.125000
v 0.125000 -0.300000 -0.250000
v 0.125000 -0.050000 -0.375000
v 0.125000 0.000000 -0.500000
v 0.000000 -1.000000 0.000000
v 0.000000 -0.800000 -0.125000
v 0.000000 -0.300000 -0.250000
v 0.000000 -0.050000 -0.375000
v 0.000000 0.000000 -0.500000
v -0.125000 0.000000 0.500000
v -0.125000 -0.050000 0.375000
v -0.125000 -0.300000 0.250000
v -0.125000 -0.800000 0.125000
v -0.250000 0.000000 0.500000
v -0.250000 -0.050000 0.375000
v -0.250000 -0.300000 0.250000
v -0.250000 -0.300000 0.125000
v -0.375000 0.000000 0.500000
v -0.375000 -0.050000 0.375000
v -0.375000 -0.050000 0.250000
v -0.375000 -0.050000 0.125000
v -0.500000 0.000000 0.500000
v -0.500000 0.000000 0.375000
v -0.500000 0.000000 0.250000
v -0.500000 0.000000 0.125000
vt 0.598909 0.245768
vt 0.598909 0.225483
vt 0.628734 0.225483
vt 0.569085 0.245768
vt 0.569085 0.225483
vt 0.539261 0.245768
vt 0.539261 0.225483
vt 0.986626 0.245768
vt 0.956802 0.245768
vt 0.956802 0.225483
vt 0.598909 0.165835
vt 0.628734 0.165835
vt 0.569085 0.165835
vt 0.926978 0.225483
vt 0.926978 0.165835
vt 0.926978 0.245768
vt 0.598909 0.056980
vt 0.628734 0.056980
vt 0.897153 0.165835
vt 0.897153 0.056980
vt 0.897153 0.225483
vt 0.897153 0.245768
vt 0.628734 0.245768
vt 0.509436 0.245768
vt 0.628734 0.464079
vt 0.658558 0.464079
vt 0.658558 0.484363
vt 0.628734 0.404430
vt 0.658558 0.404430
vt 0.628734 0.295576
vt 0.658558 0.295576
vt 0.688383 0.464079
vt 0.688383 0.484363
vt 0.688383 0.404430
vt 0.837505 0.295576
vt 0.837505 0.404430
vt 0.807680 0.404430
vt 0.718207 0.464079
vt 0.718207 0.484363
vt 0.807680 0.464079
vt 0.777856 0.464079
vt 0.837505 0.464079
vt 0.777856 0.484363
vt 0.748031 0.484363
vt 0.807680 0.484363
vt 0.837505 0.484363
vt 0.628734 0.484363
vt 0.837505 0.245768
vt 0.837505 0.225483
vt 0.867329 0.225483
vt 0.807680 0.245768
vt 0.807680 0.225483
vt 0.777856 0.245768
vt 0.777856 0.225483
vt 0.986626 0.484363
vt 0.956802 0.484363
vt 0.956802 0.464079
vt 0.837505 0.165835
vt 0.867329 0.165835
vt 0.807680 0.165835
vt 0.926978 0.464079
vt 0.926978 0.404430
vt 0.926978 0.484363
vt 0.837505 0.056980
vt 0.867329 0.056980
vt 0.897153 0.404430
vt 0.897153 0.295576
vt 0.897153 0.464079
vt 0.897153 0.484363
vt 0.867329 0.295576
vt 0.867329 0.245768
vt 0.867329 0.404430
vt 0.867329 0.464079
vt 0.867329 0.484363
vt 0.748031 0.245768
vt 0.867329 0.007173
vt 0.658558 0.225483
vt 0.688383 0.225483
vt 0.688383 0.245768
vt 0.658558 0.165835
vt 0.688383 0.165835
vt 0.598909 0.295576
vt 0.598909 0.404430
vt 0.569085 0.404430
vt 0.718207 0.225483
vt 0.718207 0.245768
vt 0.569085 0.464079
vt 0.539261 0.464079
vt 0.598909 0.464079
vt 0.539261 0.484363
vt 0.509436 0.484363
vt 0.569085 0.484363
vt 0.598909 0.484363
vt 0.658558 0.245768
vt 0.658558 0.056980
vt 0.628734 0.007173
vn 0.000000 0.928500 -0.371400
vn -0.371400 0.928500 0.000000
vn 0.000000 0.447200 -0.894400
vn -0.894400 0.447200 0.000000
vn 0.000000 0.242500 -0.970100
vn -0.970100 0.242500 0.000000
vn 0.371400 0.928500 0.000000
vn 0.894400 0.447200 0.000000
vn 0.970100 0.242500 0.000000
vn 0.000000 0.242500 0.970100
vn 0.000000 0.447200 0.894400
vn 0.000000 0.928500 0.371400
vn 0.000000 0.530000 0.848000
vn -0.848000 0.530000 0.000000
vn 0.000000 0.530000 -0.848000
vn 0.848000 0.530000 0.000000
usemtl None
s off
f 2/1/1 7/2/1 6/3/1
f 3/4/1 8/5/1 7/2/1
f 4/6/1 9/7/1 8/5/1
f 5/8/2 10/9/2 9/10/2
f 7/2/3 12/11/3 11/12/3
f 8/5/3 13/13/3 12/11/3
f 9/10/4 14/14/4 13/15/4
f 10/9/2 15/16/2 14/14/2
f 12/11/5 17/17/5 16/18/5
f 13/15/6 18/19/6 17/20/6
f 14/14/4 19/21/4 18/19/4
f 15/16/2 20/22/2 19/21/2
f 1/23/1 2/1/1 6/3/1
f 2/1/1 3/4/1 7/2/1
f 3/4/1 4/6/1 8/5/1
f 4/6/1 5/24/1 9/7/1
f 6/3/3 7/2/3 11/12/3
f 7/2/3 8/5/3 12/11/3
f 8/5/3 9/7/3 13/13/3
f 9/10/2 10/9/2 14/14/2
f 11/12/5 12/11/5 16/18/5
f 12/11/5 13/13/5 17/17/5
f 13/15/4 14/14/4 18/19/4
f 14/14/2 15/16/2 19/21/2
f 22/25/7 26/26/7 25/27/7
f 23/28/8 27/29/8 26/26/8
f 24/30/9 28/31/9 27/29/9
f 26/26/7 30/32/7 29/33/7
f 27/29/8 31/34/8 30/32/8
f 28/35/10 32/36/10 31/37/10
f 30/32/7 34/38/7 33/39/7
f 31/37/11 35/40/11 34/41/11
f 32/36/11 36/42/11 35/40/11
f 34/41/12 38/43/12 37/44/12
f 35/40/12 39/45/12 38/43/12
f 36/42/12 40/46/12 39/45/12
f 21/47/7 22/25/7 25/27/7
f 22/25/8 23/28/8 26/26/8
f 23/28/9 24/30/9 27/29/9
f 25/27/7 26/26/7 29/33/7
f 26/26/8 27/29/8 30/32/8
f 27/29/9 28/31/9 31/34/9
f 29/33/7 30/32/7 33/39/7
f 30/32/8 31/34/8 34/38/8
f 31/37/11 32/36/11 35/40/11
f 33/39/7 34/38/7 37/44/7
f 34/41/12 35/40/12 38/43/12
f 35/40/12 36/42/12 39/45/12
f 42/48/2 47/49/2 46/50/2
f 43/51/2 48/52/2 47/49/2
f 44/53/2 49/54/2 48/52/2
f 45/55/12 50/56/12 49/57/12
f 47/49/4 52/58/4 51/59/4
f 48/52/4 53/60/4 52/58/4
f 49/57/11 54/61/11 53/62/11
f 50/56/12 55/63/12 54/61/12
f 52/58/6 57/64/6 56/65/6
f 53/62/10 58/66/10 57/67/10
f 54/61/11 59/68/11 58/66/11
f 55/63/12 60/69/12 59/68/12
f 57/67/13 62/70/13 61/71/13
f 58/66/10 63/72/10 62/70/10
f 59/68/11 64/73/11 63/72/11
f 60/69/12 65/74/12 64/73/12
f 41/71/2 42/48/2 46/50/2
f 42/48/2 43/51/2 47/49/2
f 43/51/2 44/53/2 48/52/2
f 44/53/2 45/75/2 49/54/2
f 46/50/4 47/49/4 51/59/4
f 47/49/4 48/52/4 52/58/4
f 48/52/4 49/54/4 53/60/4
f 49/57/12 50/56/12 54/61/12
f 51/59/6 52/58/6 56/65/6
f 52/58/6 53/60/6 57/64/6
f 53/62/11 54/61/11 58/66/11
f 54/61/12 55/63/12 59/68/12
f 56/65/14 57/64/14 61/76/14
f 57/67/10 58/66/10 62/70/10
f 58/66/11 59/68/11 63/72/11
f 59/68/12 60/69/12 64/73/12
f 67/77/1 71/78/1 70/79/1
f 68/80/3 72/81/3 71/78/3
f 69/82/9 73/83/9 72/84/9
f 71/78/1 75/85/1 74/86/1
f 72/84/8 76/87/8 75/88/8
f 73/83/8 77/89/8 76/87/8
f 75/88/7 79/90/7 78/91/7
f 76/87/7 80/92/7 79/90/7
f 77/89/7 81/93/7 80/92/7
f 66/94/1 67/77/1 70/79/1
f 67/77/3 68/80/3 71/78/3
f 68/80/5 69/95/5 72/81/5
f 70/79/1 71/78/1 74/86/1
f 71/78/3 72/81/3 75/85/3
f 72/84/8 73/83/8 76/87/8
f 74/86/1 75/85/1 78/75/1
f 75/88/7 76/87/7 79/90/7
f 76/87/7 77/89/7 80/92/7
f 17/20/14 56/65/14 61/76/14
f 18/19/6 51/59/6 56/65/6
f 19/21/4 46/50/4 51/59/4
f 20/22/2 41/71/2 46/50/2
f 16/18/15 17/17/15 61/96/15
f 17/20/6 18/19/6 56/65/6
f 18/19/4 19/21/4 51/59/4
f 19/21/2 20/22/2 46/50/2
f 61/71/13 62/70/13 28/35/13
f 62/70/10 63/72/10 32/36/10
f 63/72/11 64/73/11 36/42/11
f 64/73/12 65/74/12 40/46/12
f 24/30/16 61/23/16 28/31/16
f 28/35/10 62/70/10 32/36/10
f 32/36/11 63/72/11 36/42/11
f 36/42/12 64/73/12 40/46/12
f 6/3/1 67/77/1 66/94/1
f 11/12/3 68/80/3 67/77/3
f 16/18/5 69/95/5 68/80/5
f 61/23/16 24/30/16 69/82/16
f 24/30/9 23/28/9 73/83/9
f 23/28/8 22/25/8 77/89/8
f 22/25/7 21/47/7 81/93/7
f 1/23/1 6/3/1 66/94/1
f 6/3/3 11/12/3 67/77/3
f 11/12/5 16/18/5 68/80/5
f 16/18/15 61/96/15 69/95/15
f 69/82/9 24/30/9 73/83/9
f 73/83/8 23/28/8 77/89/8
f 77/89/7 22/25/7 81/93/7
