# Blender v2.82 (sub 7) OBJ File: 'StoneModels.blend'
# www.blender.org
mtllib Sand3a.mtl
o Grid_Grid.017_Grid_Grid.010
v -0.125000 -1.000000 -0.500000
v -0.250000 -0.150000 -0.500000
v -0.375000 -0.050000 -0.500000
v -0.500000 -0.000000 -0.500000
v 0.500000 -1.000000 0.125000
v 0.125000 -1.000000 0.125000
v 0.500000 -0.150000 0.250000
v 0.250000 -0.150000 0.250000
v 0.375000 -0.050000 0.375002
v 0.500000 -0.050000 0.375000
v 0.375000 -0.050000 0.500000
v 0.500000 0.000000 0.500000
v 0.250000 -0.150000 0.500000
v 0.125000 -1.000000 0.500000
v -0.500000 0.000000 0.500000
v -0.375000 -0.050000 0.500000
v -0.250000 -0.150000 0.500000
v -0.125000 -1.000000 0.500000
v 0.250000 -0.150000 -0.500000
v 0.250000 -0.150000 -0.250000
v 0.125000 -1.000000 -0.125000
v 0.375000 -0.050000 -0.374998
v 0.375000 -0.050000 -0.500000
v 0.500000 -0.050000 -0.375000
v 0.500000 -0.000000 -0.500000
v 0.500000 -0.150000 -0.250000
v 0.500000 -1.000000 -0.125000
v 0.125000 -1.000000 -0.500000
vt 0.896584 0.312125
vt 0.937125 0.312125
vt 0.937125 0.271584
vt 0.728791 0.313251
vt 0.563251 0.395458
vt 0.728791 0.395458
vt 0.729917 0.228791
vt 0.812125 0.063251
vt 0.812125 0.228791
vt 0.896584 0.270458
vt 0.937125 0.270458
vt 0.937125 0.229917
vt 0.896209 0.271209
vt 0.936749 0.271209
vt 0.896209 0.311749
vt 0.728791 0.063251
vt 0.563251 0.228791
vt 0.728791 0.228791
vt 0.729917 0.437125
vt 0.895458 0.396584
vt 0.895458 0.437125
vt 0.728416 0.312875
vt 0.562875 0.312875
vt 0.562875 0.395083
vt 0.896584 0.187125
vt 0.937125 0.187125
vt 0.937125 0.146584
vt 0.937125 0.228791
vt 0.937125 0.188251
vt 0.896584 0.228791
vt 0.895458 0.063251
vt 0.813251 0.228791
vt 0.895458 0.228791
vt 0.896209 0.270083
vt 0.896209 0.229542
vt 0.936749 0.229542
vt 0.896209 0.187875
vt 0.936749 0.187875
vt 0.896209 0.228416
vt 0.896209 0.146209
vt 0.936749 0.146209
vt 0.896209 0.186749
vt 0.563251 0.312125
vt 0.728791 0.229917
vt 0.728791 0.312125
vt 0.563251 0.437125
vt 0.728791 0.396584
vt 0.728791 0.437125
vt 0.812125 0.229917
vt 0.812125 0.395458
vt 0.729917 0.395458
vt 0.729542 0.395083
vt 0.729542 0.229542
vt 0.811749 0.229542
vt 0.937125 0.104917
vt 0.937125 0.145458
vt 0.896584 0.145458
vt 0.728416 0.062875
vt 0.562875 0.062875
vt 0.562875 0.228416
vt 0.729542 0.436749
vt 0.729542 0.396209
vt 0.895083 0.396209
vt 0.895458 0.312125
vt 0.813251 0.312125
vt 0.895458 0.229917
vt 0.895083 0.062875
vt 0.812875 0.228416
vt 0.812875 0.062875
vt 0.813251 0.395458
vt 0.895458 0.395458
vt 0.895458 0.313251
vt 0.812875 0.395083
vt 0.812875 0.312875
vt 0.895083 0.312875
vt 0.895083 0.229542
vt 0.812875 0.311749
vt 0.812875 0.229542
vt 0.896584 0.103791
vt 0.937125 0.103791
vt 0.937125 0.063251
vt 0.562875 0.311749
vt 0.562875 0.229542
vt 0.728416 0.229542
vt 0.896209 0.145083
vt 0.896209 0.104542
vt 0.936749 0.104542
vt 0.936749 0.062875
vt 0.896209 0.062875
vt 0.896209 0.103416
vt 0.811749 0.062875
vt 0.729542 0.062875
vt 0.729542 0.228416
vt 0.562875 0.436749
vt 0.562875 0.396209
vt 0.728416 0.396209
vn -0.2956 0.9084 -0.2956
vn -0.5035 0.8640 -0.0000
vn -0.1925 0.9622 -0.1925
vn 0.0000 0.7568 0.6536
vn -0.6111 0.5032 0.6111
vn -0.2192 0.9507 0.2192
vn -0.8375 0.5464 -0.0001
vn -0.6111 0.5032 -0.6111
vn -0.2192 0.9507 -0.2192
vn -0.7952 0.6064 -0.0000
vn -0.0000 0.8640 -0.5035
vn 0.9247 0.3807 -0.0000
vn 0.6536 0.7568 -0.0000
vn 0.7952 0.6064 -0.0000
vn 0.3714 0.9285 -0.0000
vn 0.4602 0.8878 0.0000
vn 0.3000 0.9539 0.0002
vn -0.2956 0.9084 0.2956
vn 0.0000 0.8640 0.5035
vn -0.1924 0.9622 0.1925
vn -0.8375 0.5464 0.0000
vn 0.0000 0.6064 0.7952
vn -0.0000 0.6064 -0.7952
vn -0.1925 0.9622 0.1925
vn -0.0000 0.5464 -0.8375
vn 0.5455 0.8381 -0.0000
vn 0.4603 0.8878 0.0000
usemtl None.001
s 1
f 9/1/1 11/2/2 12/3/3
f 27/4/4 20/5/5 21/6/6
f 14/7/7 8/8/8 6/9/9
f 13/10/10 9/11/1 8/12/8
f 10/13/11 9/14/1 12/15/3
f 17/16/12 1/17/13 2/18/14
f 15/19/15 3/20/16 4/21/15
f 18/22/17 6/23/9 21/24/6
f 22/25/18 24/26/19 25/27/20
f 22/28/18 19/29/10 20/30/5
f 20/31/5 28/32/21 21/33/6
f 26/34/22 22/35/18 20/36/5
f 9/37/1 7/38/23 8/39/8
f 23/40/2 22/41/18 25/42/24
f 5/43/25 8/44/8 7/45/23
f 16/46/26 2/47/14 3/48/27
f 27/49/4 26/50/22 20/51/5
f 14/52/7 13/53/10 8/54/8
f 13/55/10 11/56/2 9/57/1
f 17/58/12 18/59/17 1/60/13
f 15/61/15 16/62/26 3/63/16
f 28/64/21 1/65/13 21/66/6
f 1/67/13 18/68/17 21/69/6
f 18/70/17 14/71/7 6/72/9
f 6/73/9 5/74/25 27/75/4
f 6/76/9 27/77/4 21/78/6
f 22/79/18 23/80/2 19/81/10
f 20/82/5 19/83/10 28/84/21
f 26/85/22 24/86/19 22/87/18
f 9/88/1 10/89/11 7/90/23
f 5/91/25 6/92/9 8/93/8
f 16/94/26 17/95/12 2/96/14
