# Blender v2.82 (sub 7) OBJ File: 'StoneModels.blend'
# www.blender.org
mtllib Sand2a.mtl
o Grid_Grid.011_Grid_Grid.008
v -0.500000 -0.000000 0.125000
v -0.374997 -0.050000 0.125000
v -0.374997 -0.050000 0.000000
v -0.500000 -0.000000 0.250000
v -0.375000 -0.050000 0.250000
v -0.500000 -0.000000 0.375000
v -0.375000 -0.050000 0.375000
v -0.500000 -0.000000 0.500000
v -0.375000 -0.000000 0.500000
v -0.250000 -0.150000 0.125000
v -0.250000 -0.150000 0.000000
v -0.250000 -0.150000 0.250000
v -0.250000 -0.050000 0.375000
v -0.250000 -0.000000 0.500000
v -0.125000 -1.000000 0.125000
v -0.125000 -1.000000 0.000000
v -0.125000 -0.150000 0.250000
v -0.125000 -0.050000 0.375000
v -0.125000 -0.000000 0.500000
v -0.500000 -0.000000 0.000000
v 0.000000 -1.000000 -0.375000
v 0.125003 -1.000000 -0.375000
v 0.125000 -1.000000 -0.500000
v 0.000000 -1.000000 -0.250000
v 0.125000 -1.000000 -0.250000
v 0.000000 -1.000000 -0.125000
v 0.125000 -1.000000 -0.125000
v 0.250003 -0.150000 -0.375000
v 0.250000 -0.150000 -0.500000
v 0.250000 -0.150000 -0.250000
v 0.250000 -1.000000 -0.125000
v 0.375003 -0.050000 -0.375000
v 0.375000 -0.050000 -0.500000
v 0.375003 -0.150000 -0.250000
v 0.375003 -1.000000 -0.125000
v 0.500000 -0.050000 -0.375000
v 0.500000 0.000000 -0.500000
v 0.500000 -0.150000 -0.250000
v 0.500000 -1.000000 -0.125000
v 0.000000 -1.000000 -0.500000
v 0.125000 0.000000 0.500000
v 0.125000 -0.050000 0.375000
v 0.000000 -0.050000 0.375000
v 0.250000 0.000000 0.500000
v 0.250000 -0.050000 0.375000
v 0.375000 0.000000 0.500000
v 0.375000 -0.050000 0.375000
v 0.500000 0.000000 0.500000
v 0.500000 -0.050000 0.375000
v 0.125000 -0.150000 0.250000
v 0.000000 -0.150000 0.250000
v 0.250000 -0.150000 0.250000
v 0.375000 -0.150000 0.250000
v 0.500000 -0.150000 0.250000
v 0.125000 -1.000000 0.125000
v 0.000000 -1.000000 0.125000
v 0.250000 -1.000000 0.125000
v 0.375003 -1.000000 0.125000
v 0.500000 -1.000000 0.125000
v 0.125000 -1.000000 -0.000000
v 0.000000 -1.000000 -0.000000
v 0.250000 -1.000000 -0.000000
v 0.375003 -1.000000 -0.000000
v 0.500000 -1.000000 -0.000000
v 0.000000 0.000000 0.500000
v -0.374997 -0.050000 -0.125000
v -0.374997 -0.050000 -0.250000
v -0.500000 -0.000000 -0.250000
v -0.250000 -0.150000 -0.125000
v -0.250000 -0.150000 -0.250000
v -0.125000 -1.000000 -0.125000
v -0.125000 -1.000000 -0.250000
v -0.374997 -0.050000 -0.375000
v -0.500000 -0.000000 -0.375000
v -0.249998 -0.150000 -0.375000
v -0.124997 -1.000000 -0.375000
v -0.375000 -0.050000 -0.500000
v -0.500000 -0.000000 -0.500000
v -0.250000 -0.150000 -0.500000
v -0.125000 -1.000000 -0.500000
v -0.500000 -0.000000 -0.125000
vt 0.807617 0.436523
vt 0.807617 0.393555
vt 0.764648 0.393555
vt 0.850586 0.436523
vt 0.850586 0.393555
vt 0.893555 0.436523
vt 0.893555 0.393555
vt 0.935547 0.436523
vt 0.935547 0.393555
vt 0.791016 0.333984
vt 0.748047 0.333984
vt 0.833984 0.333984
vt 0.893555 0.350586
vt 0.935547 0.350586
vt 0.791016 0.355469
vt 0.807617 0.063477
vt 0.764648 0.063477
vt 0.855469 0.333984
vt 0.855469 0.291016
vt 0.563477 0.307617
vt 0.893555 0.307617
vt 0.833984 0.291016
vt 0.935547 0.307617
vt 0.764648 0.436523
vt 0.748047 0.355469
vt 0.833984 0.355469
vt 0.635742 0.264648
vt 0.635742 0.221680
vt 0.592773 0.221680
vt 0.678711 0.264648
vt 0.678711 0.221680
vt 0.721680 0.264648
vt 0.721680 0.221680
vt 0.635742 0.063477
vt 0.635742 0.355469
vt 0.592773 0.355469
vt 0.678711 0.063477
vt 0.678711 0.355469
vt 0.563477 0.221680
vt 0.563477 0.178711
vt 0.855469 0.178711
vt 0.635742 0.178711
vt 0.635742 0.135742
vt 0.592773 0.135742
vt 0.678711 0.178711
vt 0.678711 0.135742
vt 0.563477 0.135742
vt 0.855469 0.135742
vt 0.635742 0.092773
vt 0.592773 0.092773
vt 0.678711 0.092773
vt 0.563477 0.092773
vt 0.855469 0.092773
vt 0.592773 0.264648
vt 0.592773 0.063477
vt 0.721680 0.063477
vt 0.592773 0.178711
vt 0.935547 0.221680
vt 0.893555 0.221680
vt 0.893555 0.264648
vt 0.935547 0.178711
vt 0.893555 0.178711
vt 0.935547 0.135742
vt 0.893555 0.135742
vt 0.935547 0.092773
vt 0.893555 0.092773
vt 0.833984 0.205078
vt 0.833984 0.248047
vt 0.833984 0.162109
vt 0.833984 0.119141
vt 0.833984 0.076172
vt 0.855469 0.205078
vt 0.563477 0.221680
vt 0.563477 0.264648
vt 0.855469 0.162109
vt 0.563477 0.178711
vt 0.855469 0.119141
vt 0.563477 0.135742
vt 0.855469 0.076172
vt 0.563477 0.092773
vt 0.807617 0.221680
vt 0.764648 0.221680
vt 0.764648 0.264648
vt 0.807617 0.178711
vt 0.764648 0.178711
vt 0.807617 0.135742
vt 0.764648 0.135742
vt 0.807617 0.092773
vt 0.764648 0.092773
vt 0.935547 0.264648
vt 0.855469 0.248047
vt 0.807617 0.264648
vt 0.721680 0.393555
vt 0.678711 0.393555
vt 0.678711 0.436523
vt 0.705078 0.333984
vt 0.662109 0.333984
vt 0.721680 0.063477
vt 0.678711 0.063477
vt 0.662109 0.355469
vt 0.635742 0.393555
vt 0.635742 0.436523
vt 0.619141 0.333984
vt 0.635742 0.063477
vt 0.619141 0.355469
vt 0.592773 0.393555
vt 0.592773 0.436523
vt 0.576172 0.333984
vt 0.592773 0.063477
vt 0.576172 0.355469
vt 0.721680 0.436523
vt 0.705078 0.355469
vt 0.807617 0.307617
vt 0.764648 0.307617
vt 0.721680 0.178711
vt 0.721680 0.135742
vt 0.721680 0.092773
vt 0.721680 0.307617
vt 0.678711 0.307617
vt 0.635742 0.307617
vt 0.592773 0.307617
vn 0.3714 0.9285 0.0000
vn 0.0000 0.9285 -0.3714
vn 0.6247 0.7809 0.0000
vn -0.0000 0.7809 -0.6247
vn 0.9894 0.1455 -0.0000
vn 0.0000 0.1455 -0.9894
vn 0.0000 1.0000 0.0000
vn -0.6537 0.7568 0.0000
vn -0.6536 0.7568 0.0000
vn -0.6216 0.7833 -0.0000
vn -0.8673 0.4978 0.0000
vn -0.9147 0.4042 -0.0000
vn 0.0000 0.7833 0.6216
vn 0.0000 0.7568 0.6536
vn 0.0000 0.1455 0.9894
vn -0.5429 0.8398 0.0000
vn -0.5035 0.8640 0.0000
vn 0.0000 0.4042 0.9147
vn 0.0000 0.4978 0.8673
vn 0.0000 0.7809 0.6247
vn -0.0000 0.8398 0.5429
vn -0.0000 0.8640 0.5035
vn -0.0000 0.9285 0.3714
vn -0.9894 0.1455 -0.0000
vn -0.6247 0.7809 -0.0000
vn -0.3714 0.9285 0.0000
vn -0.0000 0.8640 -0.5035
vn -0.0000 0.8398 -0.5429
vn 0.0000 0.4978 -0.8673
vn 0.0000 0.4042 -0.9147
vn 0.0000 0.7568 -0.6536
vn 0.0000 0.7833 -0.6216
vn 0.6216 0.7833 -0.0000
vn 0.6536 0.7568 -0.0000
vn 0.9147 0.4042 0.0000
vn 0.8673 0.4978 0.0000
vn 0.6537 0.7568 0.0000
vn 0.5429 0.8398 -0.0000
vn 0.5035 0.8640 -0.0000
usemtl None.001
s 1
f 1/1/1 2/2/1 3/3/1
f 4/4/1 5/5/1 2/2/1
f 6/6/1 7/7/1 5/5/1
f 8/8/2 9/9/2 7/7/2
f 2/2/3 10/10/3 11/11/3
f 5/5/3 12/12/3 10/10/3
f 7/7/4 13/13/4 12/12/4
f 9/9/2 14/14/2 13/13/2
f 10/15/5 15/16/5 16/17/5
f 12/18/6 17/19/6 15/20/6
f 13/13/4 18/21/4 17/22/4
f 14/14/2 19/23/2 18/21/2
f 20/24/1 1/1/1 3/3/1
f 1/1/1 4/4/1 2/2/1
f 4/4/1 6/6/1 5/5/1
f 6/6/1 8/8/1 7/7/1
f 3/3/3 2/2/3 11/11/3
f 2/2/3 5/5/3 10/10/3
f 5/5/3 7/7/3 12/12/3
f 7/7/2 9/9/2 13/13/2
f 11/25/5 10/15/5 16/17/5
f 10/15/5 12/26/5 15/16/5
f 12/12/4 13/13/4 17/22/4
f 13/13/2 14/14/2 18/21/2
f 21/27/7 22/28/8 23/29/9
f 24/30/7 25/31/9 22/28/8
f 26/32/7 27/33/10 25/31/9
f 22/34/8 28/35/11 29/36/11
f 25/37/9 30/38/12 28/35/11
f 27/39/13 31/40/14 30/41/15
f 28/42/11 32/43/16 33/44/17
f 30/45/18 34/46/19 32/43/20
f 31/40/14 35/47/14 34/48/19
f 32/43/21 36/49/22 37/50/23
f 34/46/19 38/51/19 36/49/22
f 35/47/14 39/52/14 38/53/19
f 40/54/7 21/27/7 23/29/9
f 21/27/7 24/30/7 22/28/8
f 24/30/7 26/32/7 25/31/9
f 23/55/9 22/34/8 29/36/11
f 22/34/8 25/37/9 28/35/11
f 25/37/9 27/56/10 30/38/24
f 29/57/11 28/42/11 33/44/17
f 28/42/11 30/45/12 32/43/25
f 30/41/18 31/40/14 34/48/19
f 33/44/17 32/43/16 37/50/26
f 32/43/21 34/46/19 36/49/22
f 34/48/19 35/47/14 38/53/19
f 41/58/2 42/59/2 43/60/2
f 44/61/2 45/62/2 42/59/2
f 46/63/2 47/64/2 45/62/2
f 48/65/2 49/66/27 47/64/28
f 42/59/4 50/67/4 51/68/4
f 45/62/4 52/69/4 50/67/4
f 47/64/4 53/70/29 52/69/30
f 49/66/27 54/71/29 53/70/29
f 50/72/6 55/73/6 56/74/6
f 52/75/6 57/76/31 55/73/32
f 53/77/29 58/78/31 57/76/31
f 54/79/29 59/80/31 58/78/31
f 55/81/7 60/82/7 61/83/7
f 57/84/31 62/85/7 60/82/7
f 58/86/31 63/87/7 62/85/7
f 59/88/31 64/89/7 63/87/7
f 65/90/2 41/58/2 43/60/2
f 41/58/2 44/61/2 42/59/2
f 44/61/2 46/63/2 45/62/2
f 46/63/2 48/65/2 47/64/2
f 43/60/4 42/59/4 51/68/4
f 42/59/4 45/62/4 50/67/4
f 45/62/4 47/64/4 52/69/4
f 47/64/28 49/66/27 53/70/29
f 51/91/6 50/72/6 56/74/6
f 50/72/6 52/75/6 55/73/6
f 52/75/30 53/77/29 57/76/31
f 53/77/29 54/79/29 58/78/31
f 56/92/7 55/81/7 61/83/7
f 55/81/32 57/84/31 60/82/7
f 57/84/31 58/86/31 62/85/7
f 58/86/31 59/88/31 63/87/7
f 66/93/1 67/94/1 68/95/1
f 69/96/3 70/97/3 67/94/3
f 71/98/33 72/99/34 70/100/5
f 67/94/1 73/101/1 74/102/1
f 70/97/35 75/103/36 73/101/3
f 72/99/37 76/104/34 75/105/36
f 73/101/38 77/106/39 78/107/1
f 75/103/36 79/108/36 77/106/39
f 76/104/34 80/109/37 79/110/36
f 81/111/1 66/93/1 68/95/1
f 66/93/3 69/96/3 67/94/3
f 69/112/5 71/98/5 70/100/5
f 68/95/1 67/94/1 74/102/1
f 67/94/3 70/97/3 73/101/3
f 70/100/35 72/99/37 75/105/36
f 74/102/1 73/101/1 78/107/1
f 73/101/38 75/103/36 77/106/39
f 75/105/36 76/104/34 79/110/36
f 15/113/7 56/92/7 61/83/7
f 17/19/6 51/91/6 56/74/6
f 18/21/4 43/60/4 51/68/4
f 19/23/2 65/90/2 43/60/2
f 16/114/7 15/113/7 61/83/7
f 15/20/6 17/19/6 56/74/6
f 17/22/4 18/21/4 51/68/4
f 18/21/2 19/23/2 43/60/2
f 61/83/7 60/82/7 27/33/7
f 60/82/7 62/85/7 31/115/14
f 62/85/7 63/87/7 35/116/14
f 63/87/7 64/89/7 39/117/14
f 26/32/7 61/83/7 27/33/7
f 27/33/13 60/82/7 31/115/14
f 31/115/14 62/85/7 35/116/14
f 35/116/14 63/87/7 39/117/14
f 3/3/1 66/93/1 81/111/1
f 11/11/3 69/96/3 66/93/3
f 16/17/5 71/98/5 69/112/5
f 61/83/7 26/32/7 71/118/7
f 26/32/7 24/30/7 72/119/34
f 24/30/7 21/27/7 76/120/34
f 21/27/7 40/54/7 80/121/37
f 20/24/1 3/3/1 81/111/1
f 3/3/3 11/11/3 66/93/3
f 11/25/5 16/17/5 69/112/5
f 16/114/7 61/83/7 71/118/7
f 71/118/33 26/32/7 72/119/34
f 72/119/37 24/30/7 76/120/34
f 76/120/34 21/27/7 80/121/37
