# Blender v2.82 (sub 7) OBJ File: 'StoneModels.blend'
# www.blender.org
mtllib Sand2b.mtl
o Grid_Grid.005
v 0.125000 -1.000000 0.500000
v 0.125000 -1.000000 0.374997
v 0.000000 -1.000000 0.374997
v 0.250000 -0.150000 0.500000
v 0.250000 -0.150000 0.375000
v 0.375000 -0.050000 0.500000
v 0.375000 -0.050000 0.375000
v 0.500000 -0.000000 0.500000
v 0.500000 -0.000000 0.375000
v 0.125000 -1.000000 0.250000
v 0.000000 -1.000000 0.250000
v 0.250000 -0.150000 0.250000
v 0.375000 -0.050000 0.250000
v 0.500000 -0.000000 0.250000
v 0.125000 -1.000000 0.125000
v 0.000000 -1.000000 0.125000
v 0.250000 -0.150000 0.125000
v 0.375000 -0.050000 0.125000
v 0.500000 -0.000000 0.125000
v 0.000000 -1.000000 0.500000
v -0.375000 -0.050000 -0.000003
v -0.375000 -0.050000 -0.125003
v -0.500000 0.000000 -0.125000
v -0.250000 -0.150000 -0.000000
v -0.250000 -0.150000 -0.125000
v -0.125000 -1.000000 -0.000000
v -0.125000 -1.000000 -0.125000
v -0.375000 -0.050000 -0.250003
v -0.500000 0.000000 -0.250000
v -0.250000 -0.150000 -0.250000
v -0.125000 -1.000000 -0.250000
v -0.375000 -0.050000 -0.375003
v -0.500000 0.000000 -0.375000
v -0.250000 -0.150000 -0.375003
v -0.125000 -1.000000 -0.375003
v -0.375000 -0.050000 -0.500000
v -0.500000 0.000000 -0.500000
v -0.250000 -0.150000 -0.500000
v -0.125000 -1.000000 -0.500000
v -0.500000 0.000000 0.000000
v 0.500000 0.000000 -0.125000
v 0.375000 -0.050000 -0.125000
v 0.375000 -0.050000 -0.000000
v 0.500000 0.000000 -0.250000
v 0.375000 -0.050000 -0.250000
v 0.500000 0.000000 -0.375000
v 0.375000 -0.050000 -0.375000
v 0.500000 0.000000 -0.500000
v 0.375000 -0.050000 -0.500000
v 0.250000 -0.150000 -0.125000
v 0.250000 -0.150000 -0.000000
v 0.250000 -0.150000 -0.250000
v 0.250000 -0.150000 -0.375003
v 0.250000 -0.150000 -0.500000
v 0.125000 -1.000000 -0.125000
v 0.125000 -1.000000 -0.000000
v 0.125000 -1.000000 -0.250000
v 0.125000 -1.000000 -0.375003
v 0.125000 -1.000000 -0.500000
v 0.000000 -1.000000 -0.125000
v 0.000000 -1.000000 -0.000000
v 0.000000 -1.000000 -0.250000
v 0.000000 -1.000000 -0.375003
v 0.000000 -1.000000 -0.500000
v 0.500000 0.000000 0.000000
v -0.125000 -1.000000 0.374997
v -0.250000 -0.150000 0.374997
v -0.250000 -0.150000 0.500000
v -0.125000 -1.000000 0.250000
v -0.250000 -0.150000 0.250000
v -0.125000 -1.000000 0.125000
v -0.250000 -0.150000 0.125000
v -0.375000 -0.050000 0.374997
v -0.375000 -0.050000 0.500000
v -0.375000 -0.050000 0.249997
v -0.375000 -0.050000 0.124997
v -0.500000 -0.000000 0.375000
v -0.500000 -0.000000 0.500000
v -0.500000 -0.000000 0.250000
v -0.500000 -0.000000 0.125000
v -0.125000 -1.000000 0.500000
vt 0.831055 0.267578
vt 0.813477 0.267578
vt 0.813477 0.250000
vt 0.831055 0.392578
vt 0.812500 0.392578
vt 0.831055 0.416016
vt 0.812500 0.416016
vt 0.831055 0.435547
vt 0.812500 0.435547
vt 0.794922 0.267578
vt 0.794922 0.250000
vt 0.794922 0.392578
vt 0.794922 0.416016
vt 0.794922 0.435547
vt 0.776367 0.267578
vt 0.776367 0.250000
vt 0.776367 0.392578
vt 0.776367 0.416016
vt 0.776367 0.435547
vt 0.831055 0.250000
vt 0.758789 0.083008
vt 0.740234 0.083008
vt 0.740234 0.063477
vt 0.758789 0.106445
vt 0.740234 0.106445
vt 0.758789 0.231445
vt 0.740234 0.231445
vt 0.722656 0.083008
vt 0.722656 0.063477
vt 0.722656 0.106445
vt 0.722656 0.231445
vt 0.704102 0.083008
vt 0.704102 0.063477
vt 0.704102 0.106445
vt 0.704102 0.231445
vt 0.685547 0.083008
vt 0.686523 0.063477
vt 0.685547 0.106445
vt 0.685547 0.231445
vt 0.758789 0.063477
vt 0.740234 0.435547
vt 0.740234 0.416016
vt 0.758789 0.416016
vt 0.722656 0.435547
vt 0.722656 0.416016
vt 0.704102 0.435547
vt 0.704102 0.416016
vt 0.685547 0.435547
vt 0.685547 0.416016
vt 0.740234 0.392578
vt 0.758789 0.392578
vt 0.722656 0.392578
vt 0.704102 0.392578
vt 0.685547 0.392578
vt 0.740234 0.267578
vt 0.758789 0.267578
vt 0.722656 0.267578
vt 0.704102 0.267578
vt 0.685547 0.267578
vt 0.740234 0.250000
vt 0.758789 0.250000
vt 0.722656 0.250000
vt 0.704102 0.250000
vt 0.685547 0.250000
vt 0.758789 0.435547
vt 0.813477 0.231445
vt 0.813477 0.106445
vt 0.831055 0.106445
vt 0.794922 0.231445
vt 0.794922 0.106445
vt 0.776367 0.231445
vt 0.776367 0.106445
vt 0.813477 0.083008
vt 0.831055 0.083984
vt 0.794922 0.083008
vt 0.776367 0.083008
vt 0.813477 0.063477
vt 0.831055 0.063477
vt 0.794922 0.063477
vt 0.776367 0.063477
vt 0.831055 0.231445
vn -0.6536 0.7568 0.0000
vn 0.0000 1.0000 0.0000
vn -0.8673 0.4978 0.0000
vn -0.5035 0.8640 0.0000
vn -0.5429 0.8398 0.0000
vn -0.3714 0.9285 0.0000
vn -0.9147 0.4042 0.0000
vn -0.6247 0.7809 0.0000
vn -0.6216 0.7833 0.0000
vn -0.9894 0.1455 0.0000
vn 0.3714 0.9285 0.0000
vn 0.6247 0.7809 0.0000
vn 0.9894 0.1455 0.0000
vn 0.6216 0.7833 -0.0000
vn 0.6536 0.7568 -0.0000
vn 0.9147 0.4042 0.0000
vn 0.8673 0.4978 0.0000
vn 0.5429 0.8398 0.0000
vn 0.5035 0.8640 0.0000
g Grid_Grid.005_Grid_Grid.005_None.001
usemtl None.001
s 1
f 1/1/1 2/2/1 3/3/2
f 4/4/3 5/5/3 2/2/1
f 6/6/4 7/7/5 5/5/3
f 8/8/6 9/9/6 7/7/6
f 2/2/1 10/10/1 11/11/2
f 5/5/3 12/12/7 10/10/1
f 7/7/8 13/13/8 12/12/8
f 9/9/6 14/14/6 13/13/6
f 10/10/1 15/15/9 16/16/2
f 12/12/10 17/17/10 15/15/10
f 13/13/8 18/18/8 17/17/8
f 14/14/6 19/19/6 18/18/6
f 20/20/2 1/1/1 3/3/2
f 1/1/1 4/4/3 2/2/1
f 4/4/3 6/6/4 5/5/3
f 6/6/4 8/8/6 7/7/5
f 3/3/2 2/2/1 11/11/2
f 2/2/1 5/5/3 10/10/1
f 5/5/3 7/7/8 12/12/7
f 7/7/6 9/9/6 13/13/6
f 11/11/2 10/10/1 16/16/2
f 10/10/1 12/12/10 15/15/9
f 12/12/8 13/13/8 17/17/8
f 13/13/6 14/14/6 18/18/6
f 21/21/11 22/22/11 23/23/11
f 24/24/12 25/25/12 22/22/12
f 26/26/13 27/27/13 25/25/13
f 22/22/11 28/28/11 29/29/11
f 25/25/12 30/30/12 28/28/12
f 27/27/14 31/31/15 30/30/13
f 28/28/11 32/32/11 33/33/11
f 30/30/16 34/34/17 32/32/12
f 31/31/15 35/35/15 34/34/17
f 32/32/18 36/36/19 37/37/11
f 34/34/17 38/38/17 36/36/19
f 35/35/15 39/39/15 38/38/17
f 40/40/11 21/21/11 23/23/11
f 21/21/12 24/24/12 22/22/12
f 24/24/13 26/26/13 25/25/13
f 23/23/11 22/22/11 29/29/11
f 22/22/12 25/25/12 28/28/12
f 25/25/13 27/27/13 30/30/13
f 29/29/11 28/28/11 33/33/11
f 28/28/12 30/30/12 32/32/12
f 30/30/16 31/31/15 34/34/17
f 33/33/11 32/32/11 37/37/11
f 32/32/18 34/34/17 36/36/19
f 34/34/17 35/35/15 38/38/17
f 41/41/6 42/42/6 43/43/6
f 44/44/6 45/45/6 42/42/6
f 46/46/6 47/47/6 45/45/6
f 48/48/6 49/49/4 47/47/5
f 42/42/8 50/50/8 51/51/8
f 45/45/8 52/52/8 50/50/8
f 47/47/8 53/53/3 52/52/7
f 49/49/4 54/54/3 53/53/3
f 50/50/10 55/55/10 56/56/10
f 52/52/10 57/57/1 55/55/9
f 53/53/3 58/58/1 57/57/1
f 54/54/3 59/59/1 58/58/1
f 55/55/2 60/60/2 61/61/2
f 57/57/1 62/62/2 60/60/2
f 58/58/1 63/63/2 62/62/2
f 59/59/1 64/64/2 63/63/2
f 65/65/6 41/41/6 43/43/6
f 41/41/6 44/44/6 42/42/6
f 44/44/6 46/46/6 45/45/6
f 46/46/6 48/48/6 47/47/6
f 43/43/8 42/42/8 51/51/8
f 42/42/8 45/45/8 50/50/8
f 45/45/8 47/47/8 52/52/8
f 47/47/5 49/49/4 53/53/3
f 51/51/10 50/50/10 56/56/10
f 50/50/10 52/52/10 55/55/10
f 52/52/7 53/53/3 57/57/1
f 53/53/3 54/54/3 58/58/1
f 56/56/2 55/55/2 61/61/2
f 55/55/9 57/57/1 60/60/2
f 57/57/1 58/58/1 62/62/2
f 58/58/1 59/59/1 63/63/2
f 66/66/15 67/67/17 68/68/17
f 69/69/15 70/70/16 67/67/17
f 71/71/13 72/72/13 70/70/13
f 67/67/17 73/73/18 74/74/19
f 70/70/12 75/75/12 73/73/12
f 72/72/12 76/76/12 75/75/12
f 73/73/11 77/77/11 78/78/11
f 75/75/11 79/79/11 77/77/11
f 76/76/11 80/80/11 79/79/11
f 81/81/15 66/66/15 68/68/17
f 66/66/15 69/69/15 67/67/17
f 69/69/15 71/71/14 70/70/13
f 68/68/17 67/67/17 74/74/19
f 67/67/17 70/70/16 73/73/12
f 70/70/12 72/72/12 75/75/12
f 74/74/19 73/73/18 78/78/11
f 73/73/11 75/75/11 77/77/11
f 75/75/11 76/76/11 79/79/11
f 15/15/2 56/56/2 61/61/2
f 17/17/10 51/51/10 56/56/10
f 18/18/8 43/43/8 51/51/8
f 19/19/6 65/65/6 43/43/6
f 16/16/2 15/15/2 61/61/2
f 15/15/10 17/17/10 56/56/10
f 17/17/8 18/18/8 51/51/8
f 18/18/6 19/19/6 43/43/6
f 61/61/2 60/60/2 27/27/2
f 60/60/2 62/62/2 31/31/15
f 62/62/2 63/63/2 35/35/15
f 63/63/2 64/64/2 39/39/15
f 26/26/2 61/61/2 27/27/2
f 27/27/14 60/60/2 31/31/15
f 31/31/15 62/62/2 35/35/15
f 35/35/15 63/63/2 39/39/15
f 3/3/2 66/66/15 81/81/15
f 11/11/2 69/69/15 66/66/15
f 16/16/2 71/71/14 69/69/15
f 61/61/2 26/26/2 71/71/2
f 26/26/13 24/24/13 72/72/13
f 24/24/12 21/21/12 76/76/12
f 21/21/11 40/40/11 80/80/11
f 20/20/2 3/3/2 81/81/15
f 3/3/2 11/11/2 66/66/15
f 11/11/2 16/16/2 69/69/15
f 16/16/2 61/61/2 71/71/2
f 71/71/13 26/26/13 72/72/13
f 72/72/12 24/24/12 76/76/12
f 76/76/11 21/21/11 80/80/11
