# Blender v2.82 (sub 7) OBJ File: 'StoneModels.blend'
# www.blender.org
mtllib Sand4b.mtl
o Grid_Grid.027_Grid_Grid.016
v 0.500000 -1.000000 0.500000
v -0.500000 -1.000000 -0.125000
v -0.125000 -1.000000 -0.125000
v -0.500000 -0.150000 -0.250000
v -0.250000 -0.150000 -0.250000
v -0.375000 -0.050000 -0.375003
v -0.500000 -0.050000 -0.375000
v -0.375000 -0.050000 -0.500000
v -0.500000 0.000000 -0.500000
v -0.250000 -0.150000 -0.500000
v -0.125000 -1.000000 -0.500000
v 0.500000 -1.000000 -0.125000
v 0.500000 -0.150000 -0.250000
v 0.500000 -0.050000 -0.375000
v 0.375000 -0.050000 -0.375000
v 0.500000 0.000000 -0.500000
v 0.375000 -0.050000 -0.500000
v 0.250000 -0.150000 -0.250000
v 0.250000 -0.150000 -0.500000
v 0.125000 -1.000000 -0.125000
v 0.125000 -1.000000 -0.500000
v -0.250000 -0.150000 0.500000
v -0.250000 -0.150000 0.250000
v -0.125000 -1.000000 0.125000
v -0.375000 -0.050000 0.374997
v -0.375000 -0.050000 0.500000
v -0.500000 -0.050000 0.375000
v -0.500000 -0.000000 0.500000
v -0.500000 -0.150000 0.250000
v -0.500000 -1.000000 0.125000
v -0.125000 -1.000000 0.500000
vt 0.713251 0.399625
vt 0.862125 0.399625
vt 0.862125 0.363251
vt 0.638251 0.212125
vt 0.712125 0.212125
vt 0.712125 0.063251
vt 0.861749 0.362875
vt 0.712875 0.362875
vt 0.712875 0.399249
vt 0.637125 0.437125
vt 0.637125 0.363251
vt 0.563251 0.437125
vt 0.863251 0.324625
vt 0.899625 0.324625
vt 0.899625 0.288251
vt 0.787125 0.362125
vt 0.713251 0.362125
vt 0.787125 0.288251
vt 0.787125 0.063251
vt 0.713251 0.212125
vt 0.787125 0.212125
vt 0.863251 0.362125
vt 0.899625 0.362125
vt 0.899625 0.325751
vt 0.863251 0.212125
vt 0.899625 0.212125
vt 0.899625 0.175751
vt 0.863251 0.137125
vt 0.937125 0.137125
vt 0.937125 0.063251
vt 0.862875 0.361749
vt 0.862875 0.325375
vt 0.899249 0.325375
vt 0.899625 0.250751
vt 0.899625 0.287125
vt 0.863251 0.287125
vt 0.862875 0.287875
vt 0.899249 0.287875
vt 0.862875 0.324249
vt 0.563251 0.287125
vt 0.712125 0.287125
vt 0.712125 0.213251
vt 0.713251 0.287125
vt 0.862125 0.287125
vt 0.862125 0.213251
vt 0.899625 0.213251
vt 0.899625 0.249625
vt 0.863251 0.249625
vt 0.862125 0.288251
vt 0.862125 0.362125
vt 0.788251 0.362125
vt 0.899249 0.250375
vt 0.862875 0.286749
vt 0.862875 0.250375
vt 0.788251 0.212125
vt 0.862125 0.063251
vt 0.862125 0.212125
vt 0.861749 0.062875
vt 0.787875 0.062875
vt 0.787875 0.211749
vt 0.862875 0.212875
vt 0.862875 0.249249
vt 0.899249 0.212875
vt 0.712125 0.363251
vt 0.712125 0.437125
vt 0.638251 0.437125
vt 0.711749 0.362875
vt 0.637875 0.436749
vt 0.637875 0.362875
vt 0.563251 0.362125
vt 0.712125 0.288251
vt 0.712125 0.362125
vt 0.712875 0.212875
vt 0.861749 0.212875
vt 0.712875 0.286749
vt 0.899249 0.175375
vt 0.862875 0.175375
vt 0.862875 0.211749
vt 0.863251 0.174625
vt 0.899625 0.174625
vt 0.899625 0.138251
vt 0.862875 0.062875
vt 0.862875 0.136749
vt 0.936749 0.062875
vt 0.637125 0.212125
vt 0.637125 0.062875
vt 0.562875 0.062875
vt 0.562875 0.212125
vt 0.786749 0.062875
vt 0.712875 0.211749
vt 0.712875 0.062875
vt 0.562875 0.362875
vt 0.562875 0.436749
vt 0.636749 0.362875
vt 0.861749 0.287875
vt 0.787875 0.361749
vt 0.787875 0.287875
vt 0.862875 0.137875
vt 0.899249 0.137875
vt 0.862875 0.174249
vt 0.562875 0.361749
vt 0.562875 0.287875
vt 0.711749 0.287875
vt 0.637875 0.211749
vt 0.637875 0.062875
vt 0.711749 0.062875
vt 0.562875 0.286749
vt 0.711749 0.212875
vt 0.562875 0.212875
vt 0.786749 0.287875
vt 0.712875 0.287875
vt 0.712875 0.361749
vn 0.0000 0.7568 -0.6536
vn -0.0000 0.6064 -0.7952
vn 0.6111 0.5032 -0.6111
vn -0.8375 0.5464 0.0000
vn -0.1808 0.9668 0.1808
vn -0.6111 0.5032 0.6111
vn 0.7952 0.6064 0.0000
vn 0.5035 0.8640 0.0000
vn 0.2956 0.9084 0.2956
vn -0.2956 0.9084 0.2956
vn 0.0000 0.6064 0.7952
vn 0.1925 0.9622 0.1925
vn 0.7119 0.5464 0.4413
vn 0.8375 0.5464 0.0000
vn 0.2192 0.9507 -0.2192
vn 0.2956 0.9084 -0.2956
vn 0.7952 0.6064 -0.0001
vn -0.5035 0.8640 0.0000
vn -0.7952 0.6064 0.0000
vn 0.7118 0.5464 0.4413
vn -0.0000 0.8640 -0.5035
vn 0.0000 0.8640 0.5035
vn 0.6536 0.7568 0.0000
vn 0.0000 1.0000 0.0000
vn -0.0001 0.5464 0.8375
vn -0.1925 0.9622 0.1925
vn 0.2192 0.9507 0.2192
vn 0.0000 0.7568 0.6536
vn 0.1924 0.9622 -0.1925
vn 0.1925 0.9622 -0.1925
usemtl None.001
s 1
f 30/1/1 29/2/2 23/3/3
f 21/4/4 20/5/5 18/6/6
f 10/7/7 8/8/8 6/9/9
f 15/10/10 18/11/6 13/12/11
f 6/13/9 8/14/8 9/15/12
f 6/16/9 4/17/11 5/18/13
f 23/19/3 31/20/14 24/21/15
f 25/22/16 26/23/8 22/24/17
f 15/25/10 17/26/18 19/27/19
f 10/28/7 6/29/9 5/30/20
f 29/31/2 25/32/16 23/33/3
f 29/34/2 27/35/21 25/36/16
f 7/37/22 6/38/9 9/39/12
f 11/40/23 10/41/7 5/42/20
f 1/43/24 12/44/25 20/45/5
f 16/46/26 17/47/18 15/48/10
f 3/49/27 2/50/28 30/51/1
f 15/52/10 13/53/11 14/54/22
f 11/55/23 5/56/20 3/57/27
f 24/58/15 31/59/14 1/60/24
f 14/61/22 16/62/26 15/63/10
f 20/64/5 21/65/4 11/66/23
f 20/67/5 11/68/23 3/69/27
f 21/70/4 18/71/6 19/72/19
f 24/73/15 1/74/24 20/75/5
f 6/76/9 7/77/22 4/78/11
f 25/79/16 27/80/21 28/81/29
f 25/82/16 22/83/17 23/84/3
f 4/85/11 2/86/28 3/87/27 5/88/13
f 30/89/1 23/90/3 24/91/15
f 15/92/10 19/93/19 18/94/6
f 3/95/27 30/96/1 24/97/15
f 26/98/8 25/99/16 28/100/30
f 23/101/3 22/102/17 31/103/14
f 18/104/6 20/105/5 12/106/25
f 18/107/6 12/108/25 13/109/11
f 20/110/5 3/111/27 24/112/15
