# Blender v2.76 (sub 0) OBJ File: 'StoneModels.blend'
# www.blender.org
mtllib Sand0a.mtl
o Grid_Grid.000
v 0.125000 -0.000000 0.500000
v 0.125000 -0.050000 0.375000
v 0.000000 -0.050000 0.375000
v 0.250000 -0.000000 0.500000
v 0.250000 -0.050000 0.375000
v 0.375000 -0.000000 0.500000
v 0.375000 -0.050000 0.375000
v 0.500000 -0.000000 0.500000
v 0.500000 -0.000000 0.375000
v 0.125000 -0.150000 0.250000
v 0.000000 -0.150000 0.250000
v 0.250000 -0.150000 0.250000
v 0.375000 -0.050000 0.250000
v 0.500000 -0.000000 0.250000
v 0.125000 -1.000000 0.125000
v 0.000000 -1.000000 0.125000
v 0.250000 -0.150000 0.125000
v 0.375000 -0.050000 0.125000
v 0.500000 -0.000000 0.125000
v 0.000000 -0.000000 0.500000
v -0.375000 -0.050000 -0.000000
v -0.375000 -0.050000 -0.125000
v -0.500000 0.000000 -0.125000
v -0.250000 -0.150000 -0.000000
v -0.250000 -0.150000 -0.125000
v -0.125000 -1.000000 -0.000000
v -0.125000 -1.000000 -0.125000
v -0.375000 -0.050000 -0.250000
v -0.500000 0.000000 -0.250000
v -0.250000 -0.150000 -0.250000
v -0.125000 -0.150000 -0.250000
v -0.375000 -0.050000 -0.375000
v -0.500000 0.000000 -0.375000
v -0.250000 -0.050000 -0.375000
v -0.125000 -0.050000 -0.375000
v -0.375000 0.000000 -0.500000
v -0.500000 0.000000 -0.500000
v -0.250000 0.000000 -0.500000
v -0.125000 0.000000 -0.500000
v -0.500000 0.000000 0.000000
v 0.500000 0.000000 -0.125000
v 0.375000 -0.050000 -0.125000
v 0.375000 -0.050000 -0.000000
v 0.500000 0.000000 -0.250000
v 0.375000 -0.050000 -0.250000
v 0.500000 0.000000 -0.375000
v 0.375000 -0.050000 -0.375000
v 0.500000 0.000000 -0.500000
v 0.375000 0.000000 -0.500000
v 0.250000 -0.150000 -0.125000
v 0.250000 -0.150000 -0.000000
v 0.250000 -0.150000 -0.250000
v 0.250000 -0.050000 -0.375000
v 0.250000 0.000000 -0.500000
v 0.125000 -1.000000 -0.125000
v 0.125000 -1.000000 -0.000000
v 0.125000 -0.150000 -0.250000
v 0.125000 -0.050000 -0.375000
v 0.125000 0.000000 -0.500000
v 0.000000 -1.000000 -0.125000
v 0.000000 -1.000000 -0.000000
v 0.000000 -0.150000 -0.250000
v 0.000000 -0.050000 -0.375000
v 0.000000 0.000000 -0.500000
v 0.500000 0.000000 0.000000
v -0.125000 -0.050000 0.375000
v -0.250000 -0.050000 0.375000
v -0.250000 -0.000000 0.500000
v -0.125000 -0.150000 0.250000
v -0.250000 -0.150000 0.250000
v -0.125000 -1.000000 0.125000
v -0.250000 -0.150000 0.125000
v -0.375000 -0.050000 0.375000
v -0.375000 -0.000000 0.500000
v -0.375000 -0.050000 0.250000
v -0.375000 -0.050000 0.125000
v -0.500000 -0.000000 0.375000
v -0.500000 -0.000000 0.500000
v -0.500000 -0.000000 0.250000
v -0.500000 -0.000000 0.125000
v -0.125000 -0.000000 0.500000
vt 0.750768 0.124810
vt 0.774694 0.169585
vt 0.734836 0.190504
vt 0.791129 0.101268
vt 0.817254 0.148800
vt 0.834269 0.073305
vt 0.865086 0.123132
vt 0.879654 0.041625
vt 0.914608 0.084538
vt 0.799059 0.222630
vt 0.763459 0.239161
vt 0.840293 0.212746
vt 0.898181 0.167202
vt 0.953434 0.129415
vt 0.808547 0.300390
vt 0.804228 0.302361
vt 0.868703 0.239781
vt 0.925994 0.210978
vt 0.995202 0.183972
vt 0.710608 0.145915
vt 0.709646 0.398070
vt 0.744826 0.413672
vt 0.732140 0.453859
vt 0.740068 0.356458
vt 0.765576 0.373156
vt 0.802651 0.309090
vt 0.805411 0.312172
vt 0.776266 0.424425
vt 0.766746 0.458439
vt 0.794021 0.383806
vt 0.819072 0.372741
vt 0.803453 0.435240
vt 0.794304 0.463947
vt 0.819134 0.413255
vt 0.836716 0.398334
vt 0.827156 0.448188
vt 0.818046 0.471319
vt 0.837844 0.429001
vt 0.850361 0.415416
vt 0.687849 0.445315
vt 0.984596 0.303467
vt 0.937364 0.298402
vt 0.937004 0.257050
vt 0.972397 0.341957
vt 0.932942 0.334560
vt 0.963284 0.373411
vt 0.929197 0.367049
vt 0.957333 0.401848
vt 0.928533 0.398019
vt 0.888334 0.300224
vt 0.883719 0.269583
vt 0.884908 0.331278
vt 0.899150 0.370087
vt 0.902977 0.397121
vt 0.812645 0.307792
vt 0.811062 0.303948
vt 0.862231 0.347995
vt 0.875481 0.377527
vt 0.882283 0.399890
vt 0.809189 0.310268
vt 0.806783 0.306417
vt 0.840968 0.361180
vt 0.855237 0.386918
vt 0.865061 0.406012
vt 0.995202 0.252535
vt 0.695104 0.214315
vt 0.652504 0.243294
vt 0.620056 0.190848
vt 0.731777 0.262682
vt 0.703678 0.295197
vt 0.800513 0.305303
vt 0.718397 0.331390
vt 0.601615 0.279158
vt 0.565090 0.219669
vt 0.633318 0.333280
vt 0.671515 0.372776
vt 0.533508 0.315527
vt 0.504797 0.252936
vt 0.566258 0.383759
vt 0.632291 0.425517
vt 0.667913 0.167071
vn 0.000000 0.928500 -0.371400
vn -0.371400 0.928500 0.000000
vn 0.000000 0.780900 -0.624700
vn -0.624700 0.780900 0.000000
vn 0.000000 0.145500 -0.989400
vn -0.989400 0.145500 0.000000
vn 0.371400 0.928500 0.000000
vn 0.624700 0.780900 0.000000
vn 0.989400 0.145500 0.000000
vn 0.000000 0.145500 0.989400
vn 0.000000 0.780900 0.624700
vn 0.000000 0.928500 0.371400
vn 0.000000 1.000000 0.000000
usemtl None.001
s 1
f 1/1/1 2/2/1 3/3/1
f 4/4/1 5/5/1 2/2/1
f 6/6/1 7/7/1 5/5/1
f 8/8/2 9/9/2 7/7/2
f 2/2/3 10/10/3 11/11/3
f 5/5/3 12/12/3 10/10/3
f 7/7/4 13/13/4 12/12/4
f 9/9/2 14/14/2 13/13/2
f 10/10/5 15/15/5 16/16/5
f 12/12/6 17/17/6 15/15/6
f 13/13/4 18/18/4 17/17/4
f 14/14/2 19/19/2 18/18/2
f 20/20/1 1/1/1 3/3/1
f 1/1/1 4/4/1 2/2/1
f 4/4/1 6/6/1 5/5/1
f 6/6/1 8/8/1 7/7/1
f 3/3/3 2/2/3 11/11/3
f 2/2/3 5/5/3 10/10/3
f 5/5/3 7/7/3 12/12/3
f 7/7/2 9/9/2 13/13/2
f 11/11/5 10/10/5 16/16/5
f 10/10/5 12/12/5 15/15/5
f 12/12/4 13/13/4 17/17/4
f 13/13/2 14/14/2 18/18/2
f 21/21/7 22/22/7 23/23/7
f 24/24/8 25/25/8 22/22/8
f 26/26/9 27/27/9 25/25/9
f 22/22/7 28/28/7 29/29/7
f 25/25/8 30/30/8 28/28/8
f 27/27/10 31/31/10 30/30/10
f 28/28/7 32/32/7 33/33/7
f 30/30/11 34/34/11 32/32/11
f 31/31/11 35/35/11 34/34/11
f 32/32/12 36/36/12 37/37/12
f 34/34/12 38/38/12 36/36/12
f 35/35/12 39/39/12 38/38/12
f 40/40/7 21/21/7 23/23/7
f 21/21/8 24/24/8 22/22/8
f 24/24/9 26/26/9 25/25/9
f 23/23/7 22/22/7 29/29/7
f 22/22/8 25/25/8 28/28/8
f 25/25/9 27/27/9 30/30/9
f 29/29/7 28/28/7 33/33/7
f 28/28/8 30/30/8 32/32/8
f 30/30/11 31/31/11 34/34/11
f 33/33/7 32/32/7 37/37/7
f 32/32/12 34/34/12 36/36/12
f 34/34/12 35/35/12 38/38/12
f 41/41/2 42/42/2 43/43/2
f 44/44/2 45/45/2 42/42/2
f 46/46/2 47/47/2 45/45/2
f 48/48/12 49/49/12 47/47/12
f 42/42/4 50/50/4 51/51/4
f 45/45/4 52/52/4 50/50/4
f 47/47/11 53/53/11 52/52/11
f 49/49/12 54/54/12 53/53/12
f 50/50/6 55/55/6 56/56/6
f 52/52/10 57/57/10 55/55/10
f 53/53/11 58/58/11 57/57/11
f 54/54/12 59/59/12 58/58/12
f 55/55/13 60/60/13 61/61/13
f 57/57/10 62/62/10 60/60/10
f 58/58/11 63/63/11 62/62/11
f 59/59/12 64/64/12 63/63/12
f 65/65/2 41/41/2 43/43/2
f 41/41/2 44/44/2 42/42/2
f 44/44/2 46/46/2 45/45/2
f 46/46/2 48/48/2 47/47/2
f 43/43/4 42/42/4 51/51/4
f 42/42/4 45/45/4 50/50/4
f 45/45/4 47/47/4 52/52/4
f 47/47/12 49/49/12 53/53/12
f 51/51/6 50/50/6 56/56/6
f 50/50/6 52/52/6 55/55/6
f 52/52/11 53/53/11 57/57/11
f 53/53/12 54/54/12 58/58/12
f 56/56/13 55/55/13 61/61/13
f 55/55/10 57/57/10 60/60/10
f 57/57/11 58/58/11 62/62/11
f 58/58/12 59/59/12 63/63/12
f 66/66/1 67/67/1 68/68/1
f 69/69/3 70/70/3 67/67/3
f 71/71/9 72/72/9 70/70/9
f 67/67/1 73/73/1 74/74/1
f 70/70/8 75/75/8 73/73/8
f 72/72/8 76/76/8 75/75/8
f 73/73/7 77/77/7 78/78/7
f 75/75/7 79/79/7 77/77/7
f 76/76/7 80/80/7 79/79/7
f 81/81/1 66/66/1 68/68/1
f 66/66/3 69/69/3 67/67/3
f 69/69/5 71/71/5 70/70/5
f 68/68/1 67/67/1 74/74/1
f 67/67/3 70/70/3 73/73/3
f 70/70/8 72/72/8 75/75/8
f 74/74/1 73/73/1 78/78/1
f 73/73/7 75/75/7 77/77/7
f 75/75/7 76/76/7 79/79/7
f 15/15/13 56/56/13 61/61/13
f 17/17/6 51/51/6 56/56/6
f 18/18/4 43/43/4 51/51/4
f 19/19/2 65/65/2 43/43/2
f 16/16/13 15/15/13 61/61/13
f 15/15/6 17/17/6 56/56/6
f 17/17/4 18/18/4 51/51/4
f 18/18/2 19/19/2 43/43/2
f 61/61/13 60/60/13 27/27/13
f 60/60/10 62/62/10 31/31/10
f 62/62/11 63/63/11 35/35/11
f 63/63/12 64/64/12 39/39/12
f 26/26/13 61/61/13 27/27/13
f 27/27/10 60/60/10 31/31/10
f 31/31/11 62/62/11 35/35/11
f 35/35/12 63/63/12 39/39/12
f 3/3/1 66/66/1 81/81/1
f 11/11/3 69/69/3 66/66/3
f 16/16/5 71/71/5 69/69/5
f 61/61/13 26/26/13 71/71/13
f 26/26/9 24/24/9 72/72/9
f 24/24/8 21/21/8 76/76/8
f 21/21/7 40/40/7 80/80/7
f 20/20/1 3/3/1 81/81/1
f 3/3/3 11/11/3 66/66/3
f 11/11/5 16/16/5 69/69/5
f 16/16/13 61/61/13 71/71/13
f 71/71/9 26/26/9 72/72/9
f 72/72/8 24/24/8 76/76/8
f 76/76/7 21/21/7 80/80/7
