# Blender v2.82 (sub 7) OBJ File: 'StoneModels.blend'
# www.blender.org
mtllib Sand0a.mtl
o Grid_Grid.000
v 0.125000 -0.000000 0.500000
v 0.125000 -0.050000 0.375000
v 0.000000 -0.050000 0.375000
v 0.250000 -0.000000 0.500000
v 0.250000 -0.050000 0.375000
v 0.375000 -0.000000 0.500000
v 0.375000 -0.050000 0.375000
v 0.500000 -0.000000 0.500000
v 0.500000 -0.000000 0.375000
v 0.125000 -0.150000 0.250000
v 0.000000 -0.150000 0.250000
v 0.250000 -0.150000 0.250000
v 0.375000 -0.050000 0.250000
v 0.500000 -0.000000 0.250000
v 0.125000 -1.000000 0.125000
v 0.000000 -1.000000 0.125000
v 0.250000 -0.150000 0.125000
v 0.375000 -0.050000 0.125000
v 0.500000 -0.000000 0.125000
v 0.000000 -0.000000 0.500000
v -0.375000 -0.050000 -0.000000
v -0.375000 -0.050000 -0.125000
v -0.500000 0.000000 -0.125000
v -0.250000 -0.150000 -0.000000
v -0.250000 -0.150000 -0.125000
v -0.125000 -1.000000 -0.000000
v -0.125000 -1.000000 -0.125000
v -0.375000 -0.050000 -0.250000
v -0.500000 0.000000 -0.250000
v -0.250000 -0.150000 -0.250000
v -0.125000 -0.150000 -0.250000
v -0.375000 -0.050000 -0.375000
v -0.500000 0.000000 -0.375000
v -0.250000 -0.050000 -0.375000
v -0.125000 -0.050000 -0.375000
v -0.375000 0.000000 -0.500000
v -0.500000 0.000000 -0.500000
v -0.250000 0.000000 -0.500000
v -0.125000 0.000000 -0.500000
v -0.500000 0.000000 0.000000
v 0.500000 0.000000 -0.125000
v 0.375000 -0.050000 -0.125000
v 0.375000 -0.050000 -0.000000
v 0.500000 0.000000 -0.250000
v 0.375000 -0.050000 -0.250000
v 0.500000 0.000000 -0.375000
v 0.375000 -0.050000 -0.375000
v 0.500000 0.000000 -0.500000
v 0.375000 0.000000 -0.500000
v 0.250000 -0.150000 -0.125000
v 0.250000 -0.150000 -0.000000
v 0.250000 -0.150000 -0.250000
v 0.250000 -0.050000 -0.375000
v 0.250000 0.000000 -0.500000
v 0.125000 -1.000000 -0.125000
v 0.125000 -1.000000 -0.000000
v 0.125000 -0.150000 -0.250000
v 0.125000 -0.050000 -0.375000
v 0.125000 0.000000 -0.500000
v 0.000000 -1.000000 -0.125000
v 0.000000 -1.000000 -0.000000
v 0.000000 -0.150000 -0.250000
v 0.000000 -0.050000 -0.375000
v 0.000000 0.000000 -0.500000
v 0.500000 0.000000 0.000000
v -0.125000 -0.050000 0.375000
v -0.250000 -0.050000 0.375000
v -0.250000 -0.000000 0.500000
v -0.125000 -0.150000 0.250000
v -0.250000 -0.150000 0.250000
v -0.125000 -1.000000 0.125000
v -0.250000 -0.150000 0.125000
v -0.375000 -0.050000 0.375000
v -0.375000 -0.000000 0.500000
v -0.375000 -0.050000 0.250000
v -0.375000 -0.050000 0.125000
v -0.500000 -0.000000 0.375000
v -0.500000 -0.000000 0.500000
v -0.500000 -0.000000 0.250000
v -0.500000 -0.000000 0.125000
v -0.125000 -0.000000 0.500000
vt 0.802734 0.422852
vt 0.802734 0.386719
vt 0.766602 0.386719
vt 0.838867 0.422852
vt 0.838867 0.386719
vt 0.875000 0.422852
vt 0.875000 0.386719
vt 0.910156 0.422852
vt 0.910156 0.386719
vt 0.802734 0.351562
vt 0.766602 0.351562
vt 0.838867 0.351562
vt 0.875000 0.351562
vt 0.910156 0.351562
vt 0.802734 0.293945
vt 0.802734 0.049805
vt 0.766602 0.049805
vt 0.781250 0.351562
vt 0.781250 0.315430
vt 0.537109 0.315430
vt 0.875000 0.315430
vt 0.838867 0.315430
vt 0.910156 0.315430
vt 0.766602 0.422852
vt 0.766602 0.293945
vt 0.838867 0.293945
vt 0.659180 0.279297
vt 0.659180 0.243164
vt 0.623047 0.243164
vt 0.694336 0.279297
vt 0.694336 0.243164
vt 0.537109 0.279297
vt 0.537109 0.243164
vt 0.781250 0.243164
vt 0.659180 0.207031
vt 0.623047 0.207031
vt 0.694336 0.207031
vt 0.730469 0.049805
vt 0.730469 0.293945
vt 0.694336 0.293945
vt 0.659180 0.170898
vt 0.623047 0.170898
vt 0.694336 0.170898
vt 0.730469 0.207031
vt 0.730469 0.170898
vt 0.659180 0.135742
vt 0.623047 0.135742
vt 0.694336 0.135742
vt 0.730469 0.135742
vt 0.623047 0.279297
vt 0.781250 0.279297
vt 0.781250 0.207031
vt 0.910156 0.243164
vt 0.875000 0.243164
vt 0.875000 0.279297
vt 0.910156 0.207031
vt 0.875000 0.207031
vt 0.910156 0.170898
vt 0.875000 0.170898
vt 0.910156 0.135742
vt 0.875000 0.135742
vt 0.838867 0.243164
vt 0.838867 0.279297
vt 0.838867 0.207031
vt 0.838867 0.170898
vt 0.838867 0.135742
vt 0.781250 0.243164
vt 0.537109 0.243164
vt 0.537109 0.279297
vt 0.838867 0.293945
vt 0.802734 0.293945
vt 0.802734 0.049805
vt 0.802734 0.170898
vt 0.802734 0.207031
vt 0.802734 0.135742
vt 0.802734 0.243164
vt 0.766602 0.243164
vt 0.766602 0.279297
vt 0.766602 0.293945
vt 0.766602 0.049805
vt 0.766602 0.170898
vt 0.766602 0.207031
vt 0.766602 0.135742
vt 0.910156 0.279297
vt 0.781250 0.279297
vt 0.781250 0.207031
vt 0.802734 0.279297
vt 0.730469 0.386719
vt 0.694336 0.386719
vt 0.694336 0.422852
vt 0.730469 0.351562
vt 0.694336 0.351562
vt 0.537109 0.315430
vt 0.781250 0.315430
vt 0.781250 0.351562
vt 0.659180 0.386719
vt 0.659180 0.422852
vt 0.659180 0.351562
vt 0.694336 0.315430
vt 0.659180 0.315430
vt 0.623047 0.386719
vt 0.623047 0.422852
vt 0.623047 0.351562
vt 0.623047 0.315430
vt 0.730469 0.422852
vt 0.730469 0.293945
vt 0.730469 0.049805
vt 0.694336 0.293945
vt 0.802734 0.315430
vt 0.766602 0.315430
vt 0.730469 0.243164
vt 0.730469 0.279297
vt 0.730469 0.315430
vn 0.0000 0.9285 -0.3714
vn -0.3714 0.9285 0.0000
vn 0.0000 0.7809 -0.6247
vn -0.6247 0.7809 0.0000
vn 0.0000 0.1455 -0.9894
vn -0.9894 0.1455 0.0000
vn 0.3714 0.9285 0.0000
vn 0.6247 0.7809 0.0000
vn 0.9894 0.1455 0.0000
vn 0.0000 0.1455 0.9894
vn 0.0000 0.7809 0.6247
vn 0.0000 0.9285 0.3714
vn 0.0000 1.0000 0.0000
g Grid_Grid.000_Grid_Grid.000_None.001
usemtl None.001
s 1
f 1/1/1 2/2/1 3/3/1
f 4/4/1 5/5/1 2/2/1
f 6/6/1 7/7/1 5/5/1
f 8/8/2 9/9/2 7/7/2
f 2/2/3 10/10/3 11/11/3
f 5/5/3 12/12/3 10/10/3
f 7/7/4 13/13/4 12/12/4
f 9/9/2 14/14/2 13/13/2
f 10/15/5 15/16/5 16/17/5
f 12/18/6 17/19/6 15/20/6
f 13/13/4 18/21/4 17/22/4
f 14/14/2 19/23/2 18/21/2
f 20/24/1 1/1/1 3/3/1
f 1/1/1 4/4/1 2/2/1
f 4/4/1 6/6/1 5/5/1
f 6/6/1 8/8/1 7/7/1
f 3/3/3 2/2/3 11/11/3
f 2/2/3 5/5/3 10/10/3
f 5/5/3 7/7/3 12/12/3
f 7/7/2 9/9/2 13/13/2
f 11/25/5 10/15/5 16/17/5
f 10/15/5 12/26/5 15/16/5
f 12/12/4 13/13/4 17/22/4
f 13/13/2 14/14/2 18/21/2
f 21/27/7 22/28/7 23/29/7
f 24/30/8 25/31/8 22/28/8
f 26/32/9 27/33/9 25/34/9
f 22/28/7 28/35/7 29/36/7
f 25/31/8 30/37/8 28/35/8
f 27/38/10 31/39/10 30/40/10
f 28/35/7 32/41/7 33/42/7
f 30/37/11 34/43/11 32/41/11
f 31/44/11 35/45/11 34/43/11
f 32/41/12 36/46/12 37/47/12
f 34/43/12 38/48/12 36/46/12
f 35/45/12 39/49/12 38/48/12
f 40/50/7 21/27/7 23/29/7
f 21/27/8 24/30/8 22/28/8
f 24/51/9 26/32/9 25/34/9
f 23/29/7 22/28/7 29/36/7
f 22/28/8 25/31/8 28/35/8
f 25/34/9 27/33/9 30/52/9
f 29/36/7 28/35/7 33/42/7
f 28/35/8 30/37/8 32/41/8
f 30/37/11 31/44/11 34/43/11
f 33/42/7 32/41/7 37/47/7
f 32/41/12 34/43/12 36/46/12
f 34/43/12 35/45/12 38/48/12
f 41/53/2 42/54/2 43/55/2
f 44/56/2 45/57/2 42/54/2
f 46/58/2 47/59/2 45/57/2
f 48/60/12 49/61/12 47/59/12
f 42/54/4 50/62/4 51/63/4
f 45/57/4 52/64/4 50/62/4
f 47/59/11 53/65/11 52/64/11
f 49/61/12 54/66/12 53/65/12
f 50/67/6 55/68/6 56/69/6
f 52/70/10 57/71/10 55/72/10
f 53/65/11 58/73/11 57/74/11
f 54/66/12 59/75/12 58/73/12
f 55/76/13 60/77/13 61/78/13
f 57/71/10 62/79/10 60/80/10
f 58/73/11 63/81/11 62/82/11
f 59/75/12 64/83/12 63/81/12
f 65/84/2 41/53/2 43/55/2
f 41/53/2 44/56/2 42/54/2
f 44/56/2 46/58/2 45/57/2
f 46/58/2 48/60/2 47/59/2
f 43/55/4 42/54/4 51/63/4
f 42/54/4 45/57/4 50/62/4
f 45/57/4 47/59/4 52/64/4
f 47/59/12 49/61/12 53/65/12
f 51/85/6 50/67/6 56/69/6
f 50/67/6 52/86/6 55/68/6
f 52/64/11 53/65/11 57/74/11
f 53/65/12 54/66/12 58/73/12
f 56/87/13 55/76/13 61/78/13
f 55/72/10 57/71/10 60/80/10
f 57/74/11 58/73/11 62/82/11
f 58/73/12 59/75/12 63/81/12
f 66/88/1 67/89/1 68/90/1
f 69/91/3 70/92/3 67/89/3
f 71/93/9 72/94/9 70/95/9
f 67/89/1 73/96/1 74/97/1
f 70/92/8 75/98/8 73/96/8
f 72/99/8 76/100/8 75/98/8
f 73/96/7 77/101/7 78/102/7
f 75/98/7 79/103/7 77/101/7
f 76/100/7 80/104/7 79/103/7
f 81/105/1 66/88/1 68/90/1
f 66/88/3 69/91/3 67/89/3
f 69/106/5 71/107/5 70/108/5
f 68/90/1 67/89/1 74/97/1
f 67/89/3 70/92/3 73/96/3
f 70/92/8 72/99/8 75/98/8
f 74/97/1 73/96/1 78/102/1
f 73/96/7 75/98/7 77/101/7
f 75/98/7 76/100/7 79/103/7
f 15/109/13 56/87/13 61/78/13
f 17/19/6 51/85/6 56/69/6
f 18/21/4 43/55/4 51/63/4
f 19/23/2 65/84/2 43/55/2
f 16/110/13 15/109/13 61/78/13
f 15/20/6 17/19/6 56/69/6
f 17/22/4 18/21/4 51/63/4
f 18/21/2 19/23/2 43/55/2
f 61/78/13 60/77/13 27/111/13
f 60/80/10 62/79/10 31/39/10
f 62/82/11 63/81/11 35/45/11
f 63/81/12 64/83/12 39/49/12
f 26/112/13 61/78/13 27/111/13
f 27/38/10 60/80/10 31/39/10
f 31/44/11 62/82/11 35/45/11
f 35/45/12 63/81/12 39/49/12
f 3/3/1 66/88/1 81/105/1
f 11/11/3 69/91/3 66/88/3
f 16/17/5 71/107/5 69/106/5
f 61/78/13 26/112/13 71/113/13
f 26/32/9 24/51/9 72/94/9
f 24/30/8 21/27/8 76/100/8
f 21/27/7 40/50/7 80/104/7
f 20/24/1 3/3/1 81/105/1
f 3/3/3 11/11/3 66/88/3
f 11/25/5 16/17/5 69/106/5
f 16/110/13 61/78/13 71/113/13
f 71/93/9 26/32/9 72/94/9
f 72/99/8 24/30/8 76/100/8
f 76/100/7 21/27/7 80/104/7
