# Blender v2.82 (sub 7) OBJ File: 'StoneModels.blend'
# www.blender.org
mtllib Sand3c.mtl
o Grid_Grid.004
v -0.125000 -1.000000 -0.500000
v -0.250000 -0.150000 -0.500000
v -0.375000 -0.050000 -0.500000
v -0.500000 -0.000000 -0.500000
v 0.500000 -1.000000 0.500000
v -0.500000 0.000000 0.500000
v -0.375000 -0.050000 0.500000
v -0.250000 -0.150000 0.500000
v -0.125000 -1.000000 0.500000
v 0.500000 -1.000000 -0.500000
vt 0.563251 0.437125
vt 0.749625 0.250751
vt 0.749625 0.437125
vt 0.937125 0.250751
vt 0.750751 0.343375
vt 0.937125 0.343375
vt 0.749625 0.063251
vt 0.563251 0.249625
vt 0.749625 0.249625
vt 0.750751 0.249625
vt 0.843375 0.063251
vt 0.843375 0.249625
vt 0.562875 0.436749
vt 0.562875 0.250375
vt 0.749249 0.250375
vt 0.936749 0.250375
vt 0.750375 0.250375
vt 0.750375 0.342999
vt 0.749249 0.062875
vt 0.562875 0.062875
vt 0.562875 0.249249
vt 0.750375 0.249249
vt 0.750375 0.062875
vt 0.842999 0.062875
vn 0.6536 0.7568 -0.0000
vn 0.9247 0.3807 0.0000
vn 0.7952 0.6064 -0.0000
vn 0.5455 0.8381 -0.0000
vn 0.4602 0.8878 -0.0000
vn 0.0000 1.0000 -0.0000
vn 0.3714 0.9285 -0.0000
usemtl None.001
s 1
f 9/1/1 2/2/2 8/3/3
f 8/4/3 3/5/4 7/6/5
f 9/7/1 10/8/6 1/9/1
f 7/10/5 4/11/7 6/12/7
f 9/13/1 1/14/1 2/15/2
f 8/16/3 2/17/2 3/18/4
f 9/19/1 5/20/6 10/21/6
f 7/22/5 3/23/4 4/24/7
