# Blender v2.82 (sub 7) OBJ File: 'StoneModels.blend'
# www.blender.org
mtllib Sand4c.mtl
o Grid_Grid.026_Grid_Grid.015
v 0.500000 -1.000000 0.500000
v -0.500000 -1.000000 -0.125000
v -0.125000 -1.000000 -0.125000
v -0.500000 -0.150000 -0.250000
v -0.250000 -0.150000 -0.250000
v -0.375000 -0.050000 -0.375003
v -0.500000 -0.050000 -0.375000
v -0.375000 -0.050000 -0.500000
v -0.500000 0.000000 -0.500000
v -0.250000 -0.150000 -0.500000
v -0.125000 -1.000000 -0.500000
v 0.500000 -1.000000 -0.500000
v -0.250000 -0.150000 0.500000
v -0.250000 -0.150000 0.250000
v -0.125000 -1.000000 0.125000
v -0.375000 -0.050000 0.374997
v -0.375000 -0.050000 0.500000
v -0.500000 -0.050000 0.375000
v -0.500000 -0.000000 0.500000
v -0.500000 -0.150000 0.250000
v -0.500000 -1.000000 0.125000
v -0.125000 -1.000000 0.500000
vt 0.895458 0.354917
vt 0.895458 0.395458
vt 0.854917 0.395458
vt 0.729917 0.228791
vt 0.812125 0.228791
vt 0.812125 0.063251
vt 0.728791 0.063251
vt 0.563251 0.228791
vt 0.728791 0.228791
vt 0.812125 0.313251
vt 0.812125 0.395458
vt 0.729917 0.395458
vt 0.563251 0.437125
vt 0.603791 0.437125
vt 0.603791 0.396584
vt 0.937125 0.103791
vt 0.896584 0.103791
vt 0.937125 0.063251
vt 0.895458 0.063251
vt 0.813251 0.228791
vt 0.895458 0.228791
vt 0.563251 0.312125
vt 0.728791 0.312125
vt 0.728791 0.229917
vt 0.563251 0.395458
vt 0.728791 0.395458
vt 0.728791 0.313251
vt 0.896209 0.103416
vt 0.896209 0.062875
vt 0.936749 0.062875
vt 0.895458 0.229917
vt 0.895458 0.312125
vt 0.729917 0.312125
vt 0.562875 0.228416
vt 0.562875 0.062875
vt 0.728416 0.062875
vt 0.562875 0.396209
vt 0.603416 0.396209
vt 0.562875 0.436749
vt 0.811749 0.312875
vt 0.729542 0.395083
vt 0.729542 0.312875
vt 0.813251 0.353791
vt 0.853791 0.353791
vt 0.853791 0.313251
vt 0.854542 0.395083
vt 0.854542 0.354542
vt 0.895083 0.354542
vt 0.813251 0.395458
vt 0.853791 0.395458
vt 0.853791 0.354917
vt 0.895458 0.353791
vt 0.895458 0.313251
vt 0.854917 0.353791
vt 0.895083 0.229542
vt 0.729542 0.311749
vt 0.729542 0.229542
vt 0.895083 0.062875
vt 0.812875 0.228416
vt 0.812875 0.062875
vt 0.895083 0.312875
vt 0.854542 0.312875
vt 0.854542 0.353416
vt 0.562875 0.395083
vt 0.562875 0.312875
vt 0.728416 0.312875
vt 0.812875 0.354542
vt 0.853416 0.354542
vt 0.812875 0.395083
vt 0.853416 0.312875
vt 0.812875 0.312875
vt 0.812875 0.353416
vt 0.811749 0.062875
vt 0.729542 0.228416
vt 0.729542 0.062875
vt 0.728416 0.229542
vt 0.562875 0.311749
vt 0.562875 0.229542
vn 0.7952 0.6064 0.0000
vn 0.5035 0.8640 0.0000
vn 0.2956 0.9084 0.2956
vn 0.0000 0.5464 0.8375
vn 0.1808 0.9668 0.1808
vn 0.6111 0.5032 0.6111
vn 0.0000 1.0000 0.0000
vn 0.0000 0.7568 -0.6536
vn 0.1925 0.9622 0.1925
vn 0.0000 0.6064 0.7952
vn 0.6111 0.5032 -0.6111
vn 0.8375 0.5464 0.0000
vn 0.2767 0.9203 -0.2766
vn -0.0000 0.6064 -0.7952
vn 0.8375 0.5464 0.0001
vn 0.2956 0.9084 -0.2956
vn 0.0000 0.8640 0.5035
vn -0.0000 0.8640 -0.5035
vn 0.1924 0.9622 -0.1925
vn 0.7952 0.6064 -0.0001
vn 0.1925 0.9622 -0.1925
usemtl None.001
s 1
f 10/1/1 8/2/2 6/3/3
f 2/4/4 3/5/5 5/6/6
f 1/7/7 12/8/7 3/9/5
f 3/10/5 2/11/4 21/12/8
f 6/13/3 8/14/2 9/15/9
f 6/16/3 4/17/10 5/18/6
f 14/19/11 22/20/12 15/21/13
f 21/22/8 20/23/14 14/24/11
f 11/25/15 10/26/1 5/27/6
f 20/28/14 16/29/16 14/30/11
f 15/31/13 22/32/12 1/33/7
f 12/34/7 11/35/15 3/36/5
f 7/37/17 6/38/3 9/39/9
f 3/40/5 21/41/8 15/42/13
f 6/43/3 7/44/17 4/45/10
f 20/46/14 18/47/18 16/48/16
f 16/49/16 18/50/18 19/51/19
f 16/52/16 13/53/20 14/54/11
f 2/55/4 5/56/6 4/57/10
f 21/58/8 14/59/11 15/60/13
f 10/61/1 6/62/3 5/63/6
f 14/64/11 13/65/20 22/66/12
f 17/67/2 16/68/16 19/69/21
f 16/70/16 17/71/2 13/72/20
f 11/73/15 5/74/6 3/75/5
f 1/76/7 3/77/5 15/78/13
