# Blender v2.82 (sub 7) OBJ File: 'StoneModels.blend'
# www.blender.org
mtllib Sand2b.mtl
o Grid_Grid.005
v 0.125000 -1.000000 0.500000
v 0.250000 -0.150000 0.500000
v 0.375000 -0.050000 0.500000
v 0.500000 -0.000000 0.500000
v -0.375000 -0.050000 -0.500000
v -0.500000 0.000000 -0.500000
v -0.250000 -0.150000 -0.500000
v -0.125000 -1.000000 -0.500000
v 0.500000 0.000000 -0.500000
v 0.375000 -0.050000 -0.500000
v 0.250000 -0.150000 -0.500000
v 0.125000 -1.000000 -0.500000
v -0.250000 -0.150000 0.500000
v -0.375000 -0.050000 0.500000
v -0.500000 -0.000000 0.500000
v -0.125000 -1.000000 0.500000
vt 0.750375 0.137125
vt 0.937125 0.137125
vt 0.937125 0.062875
vt 0.750375 0.062875
vt 0.749625 0.062875
vt 0.562875 0.062875
vt 0.562875 0.212125
vt 0.749625 0.212125
vt 0.843375 0.287125
vt 0.843375 0.137875
vt 0.750375 0.137875
vt 0.750375 0.287125
vt 0.750375 0.362125
vt 0.937125 0.362125
vt 0.937125 0.287875
vt 0.750375 0.287875
vt 0.937125 0.137875
vt 0.844125 0.137875
vt 0.844125 0.287125
vt 0.937125 0.287125
vt 0.749625 0.212875
vt 0.562875 0.212875
vt 0.562875 0.362125
vt 0.749625 0.362125
vt 0.562875 0.437125
vt 0.749625 0.437125
vt 0.749625 0.362875
vt 0.562875 0.362875
vn -0.5035 0.8640 -0.0000
vn -0.5035 0.8640 0.0001
vn -0.8673 0.4978 0.0000
vn -0.6536 0.7568 0.0000
vn 0.5035 0.8640 -0.0000
vn 0.3714 0.9285 0.0000
vn -0.3714 0.9285 0.0000
vn 0.8673 0.4978 0.0000
vn 0.6536 0.7568 0.0000
usemtl None.001
s 1
f 3/1/1 10/2/2 11/3/3 2/4/3
f 2/5/3 11/6/3 12/7/4 1/8/4
f 14/9/5 5/10/5 6/11/6 15/12/6
f 4/13/7 9/14/7 10/15/1 3/16/1
f 7/17/8 5/18/5 14/19/5 13/20/8
f 8/21/9 7/22/8 13/23/8 16/24/9
f 1/25/4 12/26/4 8/27/9 16/28/9
