# Blender v2.82 (sub 7) OBJ File: 'StoneModels.blend'
# www.blender.org
mtllib Stone3a.mtl
o Grid_Grid.007_Grid_Grid.030
v 0.125000 0.980000 0.500000
v 0.250000 0.900000 0.500000
v 0.375000 0.700000 0.500000
v 0.375000 0.700000 0.375000
v 0.500000 -0.000000 0.500000
v 0.500000 0.700000 0.375000
v 0.250000 0.900000 0.250000
v 0.500000 0.900000 0.250000
v 0.125000 0.980000 0.125000
v 0.500000 0.980000 0.125000
v 0.000000 1.000000 0.500000
v -0.375000 0.700000 -0.500000
v -0.500000 0.000000 -0.500000
v -0.250000 0.900000 -0.500000
v -0.125000 0.980000 -0.500000
v 0.500000 0.980000 -0.125000
v 0.500000 0.900000 -0.250000
v 0.500000 0.700000 -0.375000
v 0.375000 0.700000 -0.375000
v 0.500000 0.000000 -0.500000
v 0.375000 0.700000 -0.500000
v 0.250000 0.900000 -0.250000
v 0.250000 0.900000 -0.500000
v 0.125000 0.980000 -0.125000
v 0.125000 0.980000 -0.500000
v 0.000000 0.999999 0.000000
v 0.000000 1.000000 -0.500000
v 0.500000 1.000000 0.000000
v -0.250000 0.900000 0.500000
v -0.375000 0.700000 0.500000
v -0.500000 -0.000000 0.500000
v -0.125000 0.980000 0.500000
vt 0.395458 0.063251
vt 0.395458 0.228791
vt 0.354917 0.228791
vt 0.396584 0.145458
vt 0.437125 0.063251
vt 0.437125 0.145458
vt 0.353791 0.229917
vt 0.313251 0.312125
vt 0.353791 0.312125
vt 0.313251 0.353791
vt 0.395458 0.313251
vt 0.395458 0.353791
vt 0.228791 0.395458
vt 0.063251 0.395458
vt 0.228791 0.354917
vt 0.437125 0.229917
vt 0.396584 0.312125
vt 0.437125 0.312125
vt 0.146209 0.353416
vt 0.146209 0.312875
vt 0.311749 0.312875
vt 0.436749 0.229542
vt 0.396209 0.311749
vt 0.396209 0.229542
vt 0.312125 0.229917
vt 0.229917 0.312125
vt 0.312125 0.312125
vt 0.437125 0.146584
vt 0.396584 0.228791
vt 0.437125 0.228791
vt 0.062875 0.354542
vt 0.228416 0.354542
vt 0.062875 0.395083
vt 0.436749 0.146209
vt 0.396209 0.228416
vt 0.396209 0.146209
vt 0.228791 0.312125
vt 0.146584 0.312125
vt 0.228791 0.271584
vt 0.229917 0.228791
vt 0.312125 0.063251
vt 0.312125 0.228791
vt 0.228791 0.063251
vt 0.063251 0.228791
vt 0.228791 0.228791
vt 0.063251 0.437125
vt 0.145458 0.396584
vt 0.145458 0.437125
vt 0.395458 0.312125
vt 0.395458 0.229917
vt 0.354917 0.312125
vt 0.062875 0.436749
vt 0.145083 0.396209
vt 0.062875 0.396209
vt 0.313251 0.228791
vt 0.353791 0.063251
vt 0.353791 0.228791
vt 0.228791 0.229917
vt 0.228791 0.270458
vt 0.063251 0.270458
vt 0.145458 0.271584
vt 0.063251 0.353791
vt 0.145458 0.353791
vt 0.395458 0.395458
vt 0.395458 0.354917
vt 0.313251 0.395458
vt 0.312125 0.395458
vt 0.312125 0.354917
vt 0.229917 0.395458
vt 0.145083 0.271209
vt 0.062875 0.271209
vt 0.062875 0.353416
vt 0.229542 0.311749
vt 0.311749 0.229542
vt 0.229542 0.229542
vt 0.436749 0.062875
vt 0.396209 0.062875
vt 0.396209 0.145083
vt 0.312875 0.354542
vt 0.312875 0.395083
vt 0.395083 0.354542
vt 0.354542 0.311749
vt 0.395083 0.229542
vt 0.354542 0.229542
vt 0.395083 0.312875
vt 0.312875 0.312875
vt 0.312875 0.353416
vt 0.354542 0.228416
vt 0.354542 0.062875
vt 0.395083 0.062875
vt 0.228416 0.062875
vt 0.062875 0.062875
vt 0.062875 0.228416
vt 0.229542 0.354542
vt 0.229542 0.395083
vt 0.311749 0.354542
vt 0.312875 0.311749
vt 0.312875 0.229542
vt 0.353416 0.229542
vt 0.228416 0.271209
vt 0.146209 0.311749
vt 0.146209 0.271209
vt 0.312875 0.228416
vt 0.312875 0.062875
vt 0.353416 0.062875
vt 0.228416 0.229542
vt 0.062875 0.229542
vt 0.062875 0.270083
vt 0.229542 0.228416
vt 0.311749 0.062875
vt 0.229542 0.062875
vn 0.6856 0.2449 0.6856
vn 0.0000 0.3594 0.9332
vn 0.5923 0.5462 0.5923
vn 0.7615 0.6482 0.0000
vn 0.9332 0.3594 0.0000
vn 0.3704 0.8518 0.3704
vn 0.4198 0.9076 0.0000
vn 0.1484 0.9777 -0.1484
vn -0.0000 1.0000 0.0000
vn 0.0000 0.9076 -0.4198
vn 0.0000 0.6482 0.7615
vn 0.6856 0.2449 -0.6856
vn 0.5923 0.5462 -0.5923
vn 0.0000 0.6482 -0.7615
vn 0.0000 0.3594 -0.9332
vn 0.3704 0.8518 -0.3704
vn 0.0533 0.9986 0.0000
vn -0.0228 0.9997 -0.0000
vn -0.9332 0.3594 0.0000
vn -0.7615 0.6481 0.0000
vn -0.6562 0.7545 -0.0000
vn -0.9844 0.1758 0.0000
vn 0.1484 0.9777 0.1484
vn 0.0000 0.9076 0.4198
vn -0.3560 0.9345 -0.0000
vn -0.2904 0.9569 0.0000
usemtl None.003
s 1
f 5/1/1 6/2/2 4/3/3
f 4/4/3 2/5/4 3/6/5
f 7/7/6 1/8/7 2/9/4
f 24/10/8 28/11/9 16/12/10
f 3/13/5 5/14/1 4/15/3
f 8/16/11 4/17/3 6/18/2
f 20/19/12 21/20/5 19/21/13
f 19/22/13 17/23/14 18/24/15
f 19/25/13 23/26/4 22/27/16
f 22/28/16 16/29/10 17/30/14
f 18/31/15 20/32/12 19/33/13
f 25/34/7 22/35/16 23/36/4
f 24/37/8 27/38/17 26/39/18
f 12/40/19 29/41/20 14/42/21
f 12/43/19 31/44/22 30/45/19
f 9/46/23 11/47/17 1/48/7
f 7/49/6 10/50/24 9/51/23
f 28/52/9 9/53/23 10/54/24
f 14/55/21 32/56/25 15/57/26
f 32/58/25 11/59/17 26/60/18
f 4/61/3 7/62/6 2/63/4
f 7/64/6 9/65/23 1/66/7
f 24/67/8 26/68/18 28/69/9
f 8/70/11 7/71/6 4/72/3
f 19/73/13 22/74/16 17/75/14
f 19/76/13 21/77/5 23/78/4
f 22/79/16 24/80/8 16/81/10
f 25/82/7 24/83/8 22/84/16
f 24/85/8 25/86/7 27/87/17
f 12/88/19 30/89/19 29/90/20
f 12/91/19 13/92/22 31/93/22
f 9/94/23 26/95/18 11/96/17
f 7/97/6 8/98/11 10/99/24
f 28/100/9 26/101/18 9/102/23
f 14/103/21 29/104/20 32/105/25
f 26/106/18 27/107/17 15/108/26
f 15/109/26 32/110/25 26/111/18
