# Blender v2.76 (sub 0) OBJ File: 'StoneModels.blend'
# www.blender.org
mtllib Stone4a.mtl
o Grid_Grid.006_Grid_Grid.029
v 0.125000 0.980000 0.500000
v 0.125000 0.980000 0.375000
v 0.000000 1.000000 0.375000
v 0.250000 0.900000 0.500000
v 0.250000 0.900000 0.375000
v 0.375000 0.700000 0.500000
v 0.375000 0.700000 0.375000
v 0.500000 -0.000000 0.500000
v 0.500000 0.700000 0.375000
v 0.125000 0.980000 0.250000
v 0.000000 1.000000 0.250000
v 0.250000 0.900000 0.250000
v 0.375000 0.900000 0.250000
v 0.500000 0.900000 0.250000
v 0.125000 0.980000 0.125000
v 0.000000 1.000000 0.125000
v 0.250000 0.980000 0.125000
v 0.375000 0.980000 0.125000
v 0.500000 0.980000 0.125000
v 0.000000 1.000000 0.500000
v -0.375000 1.000000 0.000000
v -0.375000 0.980000 -0.125000
v -0.500000 0.980000 -0.125000
v -0.250000 1.000000 0.000000
v -0.250000 0.980000 -0.125000
v -0.125000 1.000000 0.000000
v -0.125000 0.980000 -0.125000
v -0.375000 0.900000 -0.250000
v -0.500000 0.900000 -0.250000
v -0.250000 0.900000 -0.250000
v -0.125000 0.980000 -0.250000
v -0.375000 0.700000 -0.375000
v -0.500000 0.700000 -0.375000
v -0.250000 0.900000 -0.375000
v -0.125000 0.980000 -0.375000
v -0.375000 0.700000 -0.500000
v -0.500000 0.000000 -0.500000
v -0.250000 0.900000 -0.500000
v -0.125000 0.980000 -0.500000
v -0.500000 1.000000 0.000000
v 0.500000 0.980000 -0.125000
v 0.375000 0.980000 -0.125000
v 0.375000 1.000000 0.000000
v 0.500000 0.900000 -0.250000
v 0.375000 0.900000 -0.250000
v 0.500000 0.700000 -0.375000
v 0.375000 0.700000 -0.375000
v 0.500000 0.000000 -0.500000
v 0.375000 0.700000 -0.500000
v 0.250000 0.980000 -0.125000
v 0.250000 1.000000 0.000000
v 0.250000 0.900000 -0.250000
v 0.250000 0.900000 -0.375000
v 0.250000 0.900000 -0.500000
v 0.125000 0.980000 -0.125000
v 0.125000 1.000000 0.000000
v 0.125000 0.980000 -0.250000
v 0.125000 0.980000 -0.375000
v 0.125000 0.980000 -0.500000
v 0.000000 1.000000 -0.125000
v 0.000000 0.999999 0.000000
v 0.000000 1.000000 -0.250000
v 0.000000 1.000000 -0.375000
v 0.000000 1.000000 -0.500000
v 0.500000 1.000000 0.000000
v -0.125000 0.980000 0.375000
v -0.250000 0.900000 0.375000
v -0.250000 0.900000 0.500000
v -0.125000 0.980000 0.250000
v -0.250000 0.900000 0.250000
v -0.125000 0.980000 0.125000
v -0.250000 0.980000 0.125000
v -0.375000 0.700000 0.375000
v -0.375000 0.700000 0.500000
v -0.375000 0.900000 0.250000
v -0.375000 0.980000 0.125000
v -0.500000 0.700000 0.375000
v -0.500000 -0.000000 0.500000
v -0.500000 0.900000 0.250000
v -0.500000 0.980000 0.125000
v -0.125000 0.980000 0.500000
vt 0.277801 0.117053
vt 0.280297 0.146963
vt 0.248768 0.148140
vt 0.311176 0.112566
vt 0.317377 0.142145
vt 0.362079 0.096449
vt 0.374748 0.123459
vt 0.493407 0.004800
vt 0.401758 0.136128
vt 0.282760 0.179415
vt 0.248768 0.180465
vt 0.323656 0.174550
vt 0.356061 0.180830
vt 0.385641 0.187031
vt 0.284469 0.213738
vt 0.248769 0.214560
vt 0.318792 0.215447
vt 0.351243 0.217909
vt 0.381153 0.220406
vt 0.248768 0.117997
vt 0.147472 0.249439
vt 0.146296 0.280967
vt 0.116386 0.278472
vt 0.179796 0.249438
vt 0.178747 0.283429
vt 0.213891 0.249438
vt 0.213069 0.285137
vt 0.141479 0.318046
vt 0.111900 0.311846
vt 0.173883 0.324325
vt 0.214778 0.319460
vt 0.122794 0.375416
vt 0.095785 0.362748
vt 0.180163 0.356729
vt 0.217241 0.351910
vt 0.135463 0.402424
vt 0.004142 0.494072
vt 0.186364 0.386307
vt 0.219737 0.381819
vt 0.117329 0.249440
vt 0.381152 0.278471
vt 0.351242 0.280967
vt 0.350065 0.249438
vt 0.385638 0.311845
vt 0.356059 0.318045
vt 0.401753 0.362747
vt 0.374744 0.375415
vt 0.493397 0.494071
vt 0.362075 0.402424
vt 0.318791 0.283429
vt 0.317741 0.249438
vt 0.323655 0.324324
vt 0.317375 0.356728
vt 0.311174 0.386307
vt 0.284468 0.285137
vt 0.283646 0.249438
vt 0.282759 0.319460
vt 0.280297 0.351910
vt 0.277801 0.381819
vt 0.248769 0.284315
vt 0.248769 0.249438
vt 0.248769 0.318410
vt 0.248769 0.350733
vt 0.248769 0.380875
vt 0.380208 0.249439
vt 0.217239 0.146963
vt 0.180160 0.142145
vt 0.186360 0.112566
vt 0.214777 0.179415
vt 0.173881 0.174551
vt 0.213069 0.213738
vt 0.178745 0.215447
vt 0.122788 0.123459
vt 0.135457 0.096449
vt 0.141475 0.180831
vt 0.146294 0.217910
vt 0.095778 0.136129
vt 0.004127 0.004801
vt 0.111895 0.187032
vt 0.116384 0.220407
vt 0.219735 0.117053
vn 0.356000 0.934500 0.000000
vn 0.158000 0.987400 0.000000
vn 0.710900 0.703300 0.000000
vn 0.933200 0.359400 0.000000
vn 0.604800 0.518100 0.604800
vn 0.685600 0.244900 0.685600
vn 0.000000 0.359400 0.933200
vn 0.367900 0.854000 0.367900
vn 0.000000 0.703300 0.710900
vn 0.135100 0.981600 0.135100
vn 0.000000 0.934500 0.356000
vn 0.000000 1.000000 0.000000
vn 0.000000 0.934500 -0.356000
vn -0.149600 0.961900 -0.228700
vn 0.000000 0.703300 -0.710900
vn -0.289500 0.778900 -0.556400
vn -0.539100 0.842300 0.000000
vn -0.435500 0.890100 -0.134200
vn -0.415100 0.399600 -0.817300
vn 0.000000 0.359400 -0.933200
vn -0.848000 0.530000 0.000000
vn -0.777700 0.601100 -0.184100
vn -0.984400 0.175800 0.000000
vn -0.685600 0.244900 -0.685600
vn 0.604800 0.518100 -0.604800
vn 0.685600 0.244900 -0.685600
vn 0.367900 0.854000 -0.367900
vn 0.135100 0.981600 -0.135100
vn 0.079700 0.996800 0.000000
vn -0.435500 0.890100 0.134200
vn -0.149600 0.961900 0.228700
vn -0.777700 0.601100 0.184100
vn -0.289500 0.778900 0.556400
vn -0.415100 0.399600 0.817300
vn -0.685600 0.244900 0.685600
vn -0.079700 0.996800 -0.000000
vn -0.158000 0.987400 0.000000
vn -0.119200 0.992100 -0.039500
vn -0.119200 0.992100 0.039500
usemtl None.003
s 1
f 1/1/1 2/2/1 3/3/2
f 4/4/3 5/5/3 2/2/1
f 6/6/4 7/7/5 5/5/3
f 8/8/6 9/9/7 7/7/5
f 2/2/1 10/10/1 11/11/2
f 5/5/3 12/12/8 10/10/1
f 7/7/5 13/13/9 12/12/8
f 9/9/7 14/14/9 13/13/9
f 10/10/1 15/15/10 16/16/2
f 12/12/8 17/17/11 15/15/10
f 13/13/9 18/18/11 17/17/11
f 14/14/9 19/19/11 18/18/11
f 20/20/2 1/1/1 3/3/2
f 1/1/1 4/4/3 2/2/1
f 4/4/3 6/6/4 5/5/3
f 6/6/4 8/8/6 7/7/5
f 3/3/2 2/2/1 11/11/2
f 2/2/1 5/5/3 10/10/1
f 5/5/3 7/7/5 12/12/8
f 7/7/5 9/9/7 13/13/9
f 11/11/2 10/10/1 16/16/2
f 10/10/1 12/12/8 15/15/10
f 12/12/8 13/13/9 17/17/11
f 13/13/9 14/14/9 18/18/11
f 21/21/12 22/22/13 23/23/13
f 24/24/12 25/25/13 22/22/13
f 26/26/12 27/27/14 25/25/13
f 22/22/13 28/28/15 29/29/15
f 25/25/13 30/30/16 28/28/15
f 27/27/14 31/31/17 30/30/18
f 28/28/15 32/32/19 33/33/20
f 30/30/16 34/34/21 32/32/22
f 31/31/17 35/35/17 34/34/17
f 32/32/19 36/36/23 37/37/24
f 34/34/21 38/38/21 36/36/21
f 35/35/17 39/39/17 38/38/17
f 40/40/12 21/21/12 23/23/13
f 21/21/12 24/24/12 22/22/13
f 24/24/12 26/26/12 25/25/13
f 23/23/13 22/22/13 29/29/15
f 22/22/13 25/25/13 28/28/15
f 25/25/13 27/27/14 30/30/18
f 29/29/15 28/28/15 33/33/20
f 28/28/15 30/30/16 32/32/22
f 30/30/18 31/31/17 34/34/17
f 33/33/20 32/32/19 37/37/24
f 32/32/22 34/34/21 36/36/21
f 34/34/17 35/35/17 38/38/17
f 41/41/13 42/42/13 43/43/12
f 44/44/15 45/45/15 42/42/13
f 46/46/20 47/47/25 45/45/15
f 48/48/26 49/49/4 47/47/25
f 42/42/13 50/50/13 51/51/12
f 45/45/15 52/52/27 50/50/13
f 47/47/25 53/53/3 52/52/27
f 49/49/4 54/54/3 53/53/3
f 50/50/13 55/55/28 56/56/12
f 52/52/27 57/57/1 55/55/28
f 53/53/3 58/58/1 57/57/1
f 54/54/3 59/59/1 58/58/1
f 55/55/28 60/60/2 61/61/29
f 57/57/1 62/62/2 60/60/2
f 58/58/1 63/63/2 62/62/2
f 59/59/1 64/64/2 63/63/2
f 65/65/12 41/41/13 43/43/12
f 41/41/13 44/44/15 42/42/13
f 44/44/15 46/46/20 45/45/15
f 46/46/20 48/48/26 47/47/25
f 43/43/12 42/42/13 51/51/12
f 42/42/13 45/45/15 50/50/13
f 45/45/15 47/47/25 52/52/27
f 47/47/25 49/49/4 53/53/3
f 51/51/12 50/50/13 56/56/12
f 50/50/13 52/52/27 55/55/28
f 52/52/27 53/53/3 57/57/1
f 53/53/3 54/54/3 58/58/1
f 56/56/12 55/55/28 61/61/29
f 55/55/28 57/57/1 60/60/2
f 57/57/1 58/58/1 62/62/2
f 58/58/1 59/59/1 63/63/2
f 66/66/17 67/67/17 68/68/17
f 69/69/17 70/70/30 67/67/17
f 71/71/31 72/72/11 70/70/30
f 67/67/21 73/73/32 74/74/21
f 70/70/33 75/75/9 73/73/32
f 72/72/11 76/76/11 75/75/9
f 73/73/34 77/77/7 78/78/35
f 75/75/9 79/79/9 77/77/7
f 76/76/11 80/80/11 79/79/9
f 81/81/17 66/66/17 68/68/17
f 66/66/17 69/69/17 67/67/17
f 69/69/17 71/71/31 70/70/30
f 68/68/21 67/67/21 74/74/21
f 67/67/21 70/70/33 73/73/32
f 70/70/33 72/72/11 75/75/9
f 74/74/23 73/73/34 78/78/35
f 73/73/34 75/75/9 77/77/7
f 75/75/9 76/76/11 79/79/9
f 15/15/10 56/56/12 61/61/29
f 17/17/11 51/51/12 56/56/12
f 18/18/11 43/43/12 51/51/12
f 19/19/11 65/65/12 43/43/12
f 16/16/2 15/15/10 61/61/29
f 15/15/10 17/17/11 56/56/12
f 17/17/11 18/18/11 51/51/12
f 18/18/11 19/19/11 43/43/12
f 61/61/36 60/60/37 27/27/38
f 60/60/37 62/62/37 31/31/37
f 62/62/37 63/63/37 35/35/37
f 63/63/37 64/64/37 39/39/37
f 26/26/12 61/61/36 27/27/38
f 27/27/38 60/60/37 31/31/37
f 31/31/37 62/62/37 35/35/37
f 35/35/37 63/63/37 39/39/37
f 3/3/37 66/66/37 81/81/37
f 11/11/37 69/69/37 66/66/37
f 16/16/37 71/71/39 69/69/37
f 61/61/36 26/26/12 71/71/39
f 26/26/12 24/24/12 72/72/11
f 24/24/12 21/21/12 76/76/11
f 21/21/12 40/40/12 80/80/11
f 20/20/37 3/3/37 81/81/37
f 3/3/37 11/11/37 66/66/37
f 11/11/37 16/16/37 69/69/37
f 16/16/37 61/61/36 71/71/39
f 71/71/31 26/26/12 72/72/11
f 72/72/11 24/24/12 76/76/11
f 76/76/11 21/21/12 80/80/11
