# Blender v2.82 (sub 7) OBJ File: 'StoneModels.blend'
# www.blender.org
mtllib Stone3a.mtl
o Grid_Grid.007_Grid_Grid.030
v 0.125000 0.980000 0.500000
v 0.125000 0.980000 0.375000
v 0.000000 1.000000 0.375000
v 0.250000 0.900000 0.500000
v 0.250000 0.900000 0.375000
v 0.375000 0.700000 0.500000
v 0.375000 0.700000 0.375000
v 0.500000 -0.000000 0.500000
v 0.500000 0.700000 0.375000
v 0.125000 0.980000 0.250000
v 0.000000 1.000000 0.250000
v 0.250000 0.900000 0.250000
v 0.375000 0.900000 0.250000
v 0.500000 0.900000 0.250000
v 0.125000 0.980000 0.125000
v 0.000000 1.000000 0.125000
v 0.250000 0.980000 0.125000
v 0.375000 0.980000 0.125000
v 0.500000 0.980000 0.125000
v 0.000000 1.000000 0.500000
v -0.375000 0.700000 0.000000
v -0.375000 0.700000 -0.125000
v -0.500000 0.000000 -0.125000
v -0.250000 0.900000 0.000000
v -0.250000 0.900000 -0.125000
v -0.125000 0.980000 0.000000
v -0.125000 0.980000 -0.125000
v -0.375000 0.700000 -0.250000
v -0.500000 0.000000 -0.250000
v -0.250000 0.900000 -0.250000
v -0.125000 0.980000 -0.250000
v -0.375000 0.700000 -0.375000
v -0.500000 0.000000 -0.375000
v -0.250000 0.900000 -0.375000
v -0.125000 0.980000 -0.375000
v -0.375000 0.700000 -0.500000
v -0.500000 0.000000 -0.500000
v -0.250000 0.900000 -0.500000
v -0.125000 0.980000 -0.500000
v -0.500000 0.000000 0.000000
v 0.500000 0.980000 -0.125000
v 0.375000 0.980000 -0.125000
v 0.375000 1.000000 0.000000
v 0.500000 0.900000 -0.250000
v 0.375000 0.900000 -0.250000
v 0.500000 0.700000 -0.375000
v 0.375000 0.700000 -0.375000
v 0.500000 0.000000 -0.500000
v 0.375000 0.700000 -0.500000
v 0.250000 0.980000 -0.125000
v 0.250000 1.000000 0.000000
v 0.250000 0.900000 -0.250000
v 0.250000 0.900000 -0.375000
v 0.250000 0.900000 -0.500000
v 0.125000 0.980000 -0.125000
v 0.125000 1.000000 0.000000
v 0.125000 0.980000 -0.250000
v 0.125000 0.980000 -0.375000
v 0.125000 0.980000 -0.500000
v 0.000000 1.000000 -0.125000
v 0.000000 0.999999 0.000000
v 0.000000 1.000000 -0.250000
v 0.000000 1.000000 -0.375000
v 0.000000 1.000000 -0.500000
v 0.500000 1.000000 0.000000
v -0.125000 0.980000 0.375000
v -0.250000 0.900000 0.375000
v -0.250000 0.900000 0.500000
v -0.125000 0.980000 0.250000
v -0.250000 0.900000 0.250000
v -0.125000 0.980000 0.125000
v -0.250000 0.900000 0.125000
v -0.375000 0.700000 0.375000
v -0.375000 0.700000 0.500000
v -0.375000 0.700000 0.250000
v -0.375000 0.700000 0.125000
v -0.500000 -0.000000 0.375000
v -0.500000 -0.000000 0.500000
v -0.500000 -0.000000 0.250000
v -0.500000 -0.000000 0.125000
v -0.125000 0.980000 0.500000
vt 0.331055 0.435547
vt 0.331055 0.400391
vt 0.295898 0.400391
vt 0.365234 0.435547
vt 0.365234 0.400391
vt 0.256836 0.435547
vt 0.256836 0.400391
vt 0.312500 0.400391
vt 0.435547 0.062500
vt 0.435547 0.256836
vt 0.400391 0.256836
vt 0.331055 0.365234
vt 0.295898 0.365234
vt 0.365234 0.365234
vt 0.400391 0.312500
vt 0.365234 0.312500
vt 0.435547 0.312500
vt 0.331055 0.331055
vt 0.295898 0.331055
vt 0.365234 0.331055
vt 0.400391 0.365234
vt 0.400391 0.331055
vt 0.435547 0.365234
vt 0.435547 0.331055
vt 0.295898 0.435547
vt 0.312500 0.435547
vt 0.062500 0.435547
vt 0.312500 0.365234
vt 0.256836 0.295898
vt 0.256836 0.261719
vt 0.062500 0.261719
vt 0.312500 0.295898
vt 0.312500 0.261719
vt 0.261719 0.295898
vt 0.261719 0.261719
vt 0.226562 0.261719
vt 0.256836 0.226562
vt 0.062500 0.226562
vt 0.312500 0.226562
vt 0.261719 0.226562
vt 0.226562 0.226562
vt 0.256836 0.191406
vt 0.062500 0.191406
vt 0.312500 0.191406
vt 0.261719 0.191406
vt 0.226562 0.191406
vt 0.256836 0.157227
vt 0.062500 0.157227
vt 0.312500 0.157227
vt 0.261719 0.157227
vt 0.226562 0.157227
vt 0.062500 0.295898
vt 0.226562 0.295898
vt 0.435547 0.261719
vt 0.400391 0.261719
vt 0.400391 0.295898
vt 0.435547 0.226562
vt 0.400391 0.226562
vt 0.435547 0.256836
vt 0.400391 0.256836
vt 0.400391 0.312500
vt 0.062500 0.157227
vt 0.256836 0.157227
vt 0.256836 0.191406
vt 0.365234 0.261719
vt 0.365234 0.295898
vt 0.365234 0.226562
vt 0.312500 0.191406
vt 0.312500 0.226562
vt 0.312500 0.157227
vt 0.331055 0.261719
vt 0.331055 0.295898
vt 0.331055 0.226562
vt 0.365234 0.191406
vt 0.331055 0.191406
vt 0.365234 0.157227
vt 0.331055 0.157227
vt 0.295898 0.261719
vt 0.295898 0.295898
vt 0.295898 0.226562
vt 0.295898 0.191406
vt 0.295898 0.157227
vt 0.435547 0.295898
vt 0.435547 0.312500
vt 0.435547 0.062500
vt 0.365234 0.312500
vt 0.261719 0.400391
vt 0.226562 0.400391
vt 0.226562 0.435547
vt 0.261719 0.365234
vt 0.226562 0.365234
vt 0.261719 0.331055
vt 0.226562 0.331055
vt 0.312500 0.400391
vt 0.256836 0.400391
vt 0.256836 0.435547
vt 0.312500 0.365234
vt 0.256836 0.365234
vt 0.312500 0.331055
vt 0.256836 0.331055
vt 0.062500 0.400391
vt 0.062500 0.435547
vt 0.062500 0.365234
vt 0.062500 0.331055
vt 0.261719 0.435547
vt 0.312500 0.435547
vn 0.3560 0.9345 0.0000
vn -0.0000 1.0000 0.0000
vn 0.7109 0.7033 0.0000
vn 0.9332 0.3594 0.0000
vn 0.6048 0.5181 0.6048
vn 0.6856 0.2449 0.6856
vn 0.0000 0.3594 0.9332
vn 0.3679 0.8540 0.3679
vn 0.0000 0.7033 0.7109
vn 0.1351 0.9816 0.1351
vn 0.0000 0.9345 0.3560
vn -0.9332 0.3594 0.0000
vn -0.9844 0.1758 0.0000
vn -0.7109 0.7033 0.0000
vn -0.3560 0.9345 0.0000
vn 0.0000 0.9345 -0.3560
vn 0.0000 0.7033 -0.7109
vn 0.0000 0.3594 -0.9332
vn 0.6048 0.5181 -0.6048
vn 0.6856 0.2449 -0.6856
vn 0.3679 0.8540 -0.3679
vn 0.1351 0.9816 -0.1351
vn -0.0395 0.9992 0.0000
g Grid_Grid.007_Grid_Grid.030_None.003
usemtl None.003
s 1
f 1/1/1 2/2/1 3/3/2
f 4/4/3 5/5/3 2/2/1
f 6/6/4 7/7/5 5/8/3
f 8/9/6 9/10/7 7/11/5
f 2/2/1 10/12/1 11/13/2
f 5/5/3 12/14/8 10/12/1
f 7/11/5 13/15/9 12/16/8
f 9/10/7 14/17/9 13/15/9
f 10/12/1 15/18/10 16/19/2
f 12/14/8 17/20/11 15/18/10
f 13/21/9 18/22/11 17/20/11
f 14/23/9 19/24/11 18/22/11
f 20/25/2 1/1/1 3/3/2
f 1/1/1 4/4/3 2/2/1
f 4/26/3 6/6/4 5/8/3
f 6/6/4 8/27/6 7/7/5
f 3/3/2 2/2/1 11/13/2
f 2/2/1 5/5/3 10/12/1
f 5/8/3 7/7/5 12/28/8
f 7/11/5 9/10/7 13/15/9
f 11/13/2 10/12/1 16/19/2
f 10/12/1 12/14/8 15/18/10
f 12/14/8 13/21/9 17/20/11
f 13/21/9 14/23/9 18/22/11
f 21/29/12 22/30/12 23/31/13
f 24/32/14 25/33/14 22/30/12
f 26/34/15 27/35/15 25/36/14
f 22/30/12 28/37/12 29/38/13
f 25/33/14 30/39/14 28/37/12
f 27/35/15 31/40/15 30/41/14
f 28/37/12 32/42/12 33/43/13
f 30/39/14 34/44/14 32/42/12
f 31/40/15 35/45/15 34/46/14
f 32/42/12 36/47/12 37/48/13
f 34/44/14 38/49/14 36/47/12
f 35/45/15 39/50/15 38/51/14
f 40/52/13 21/29/12 23/31/13
f 21/29/12 24/32/14 22/30/12
f 24/53/14 26/34/15 25/36/14
f 23/31/13 22/30/12 29/38/13
f 22/30/12 25/33/14 28/37/12
f 25/36/14 27/35/15 30/41/14
f 29/38/13 28/37/12 33/43/13
f 28/37/12 30/39/14 32/42/12
f 30/41/14 31/40/15 34/46/14
f 33/43/13 32/42/12 37/48/13
f 32/42/12 34/44/14 36/47/12
f 34/46/14 35/45/15 38/51/14
f 41/54/16 42/55/16 43/56/2
f 44/57/17 45/58/17 42/55/16
f 46/59/18 47/60/19 45/61/17
f 48/62/20 49/63/4 47/64/19
f 42/55/16 50/65/16 51/66/2
f 45/58/17 52/67/21 50/65/16
f 47/64/19 53/68/3 52/69/21
f 49/63/4 54/70/3 53/68/3
f 50/65/16 55/71/22 56/72/2
f 52/67/21 57/73/1 55/71/22
f 53/74/3 58/75/1 57/73/1
f 54/76/3 59/77/1 58/75/1
f 55/71/22 60/78/2 61/79/23
f 57/73/1 62/80/2 60/78/2
f 58/75/1 63/81/2 62/80/2
f 59/77/1 64/82/2 63/81/2
f 65/83/2 41/54/16 43/56/2
f 41/54/16 44/57/17 42/55/16
f 44/84/17 46/59/18 45/61/17
f 46/59/18 48/85/20 47/60/19
f 43/56/2 42/55/16 51/66/2
f 42/55/16 45/58/17 50/65/16
f 45/61/17 47/60/19 52/86/21
f 47/64/19 49/63/4 53/68/3
f 51/66/2 50/65/16 56/72/2
f 50/65/16 52/67/21 55/71/22
f 52/67/21 53/74/3 57/73/1
f 53/74/3 54/76/3 58/75/1
f 56/72/2 55/71/22 61/79/23
f 55/71/22 57/73/1 60/78/2
f 57/73/1 58/75/1 62/80/2
f 58/75/1 59/77/1 63/81/2
f 66/87/15 67/88/14 68/89/14
f 69/90/15 70/91/14 67/88/14
f 71/92/15 72/93/14 70/91/14
f 67/94/14 73/95/12 74/96/12
f 70/97/14 75/98/12 73/95/12
f 72/99/14 76/100/12 75/98/12
f 73/95/12 77/101/13 78/102/13
f 75/98/12 79/103/13 77/101/13
f 76/100/12 80/104/13 79/103/13
f 81/105/15 66/87/15 68/89/14
f 66/87/15 69/90/15 67/88/14
f 69/90/15 71/92/15 70/91/14
f 68/106/14 67/94/14 74/96/12
f 67/94/14 70/97/14 73/95/12
f 70/97/14 72/99/14 75/98/12
f 74/96/12 73/95/12 78/102/13
f 73/95/12 75/98/12 77/101/13
f 75/98/12 76/100/12 79/103/13
f 15/18/10 56/72/2 61/79/23
f 17/20/11 51/66/2 56/72/2
f 18/22/11 43/56/2 51/66/2
f 19/24/11 65/83/2 43/56/2
f 16/19/2 15/18/10 61/79/23
f 15/18/10 17/20/11 56/72/2
f 17/20/11 18/22/11 51/66/2
f 18/22/11 19/24/11 43/56/2
f 61/79/23 60/78/2 27/35/15
f 60/78/2 62/80/2 31/40/15
f 62/80/2 63/81/2 35/45/15
f 63/81/2 64/82/2 39/50/15
f 26/34/15 61/79/23 27/35/15
f 27/35/15 60/78/2 31/40/15
f 31/40/15 62/80/2 35/45/15
f 35/45/15 63/81/2 39/50/15
f 3/3/2 66/87/15 81/105/15
f 11/13/2 69/90/15 66/87/15
f 16/19/2 71/92/15 69/90/15
f 61/79/23 26/34/15 71/92/15
f 26/34/15 24/53/14 72/93/14
f 24/32/14 21/29/12 76/100/12
f 21/29/12 40/52/13 80/104/13
f 20/25/2 3/3/2 81/105/15
f 3/3/2 11/13/2 66/87/15
f 11/13/2 16/19/2 69/90/15
f 16/19/2 61/79/23 71/92/15
f 71/92/15 26/34/15 72/93/14
f 72/99/14 24/32/14 76/100/12
f 76/100/12 21/29/12 80/104/13
