# Blender v2.76 (sub 0) OBJ File: 'StoneModels.blend'
# www.blender.org
mtllib Stone4d.mtl
o Grid_Grid.019_Grid_Grid.038
v 0.125000 1.000000 0.500000
v 0.125000 1.000000 0.375000
v 0.000000 1.000000 0.375000
v 0.250000 1.000000 0.500000
v 0.250000 1.000000 0.375000
v 0.375000 1.000000 0.500000
v 0.375000 1.000000 0.375000
v 0.500000 1.000000 0.500000
v 0.500000 1.000000 0.375000
v 0.125000 1.000000 0.250000
v 0.000000 1.000000 0.250000
v 0.250000 1.000000 0.250000
v 0.375000 1.000000 0.250000
v 0.500000 1.000000 0.250000
v 0.125000 1.000000 0.125000
v 0.000000 1.000000 0.125000
v 0.250000 1.000000 0.125000
v 0.375000 1.000000 0.125000
v 0.500000 1.000000 0.125000
v 0.000000 1.000000 0.500000
v -0.375000 1.000000 0.000000
v -0.375000 1.000000 -0.125000
v -0.500000 1.000000 -0.125000
v -0.250000 1.000000 0.000000
v -0.250000 1.000000 -0.125000
v -0.125000 1.000000 0.000000
v -0.125000 1.000000 -0.125000
v -0.375000 1.000000 -0.250000
v -0.500000 1.000000 -0.250000
v -0.250000 1.000000 -0.250000
v -0.125000 1.000000 -0.250000
v -0.375000 1.000000 -0.375000
v -0.500000 1.000000 -0.375000
v -0.250000 1.000000 -0.375000
v -0.125000 1.000000 -0.375000
v -0.375000 1.000000 -0.500000
v -0.500000 1.000000 -0.500000
v -0.250000 1.000000 -0.500000
v -0.125000 1.000000 -0.500000
v -0.500000 1.000000 0.000000
v 0.500000 0.980000 -0.125000
v 0.375000 0.980000 -0.125000
v 0.375000 1.000000 0.000000
v 0.500000 0.900000 -0.250000
v 0.375000 0.900000 -0.250000
v 0.500000 0.700000 -0.375000
v 0.375000 0.700000 -0.375000
v 0.500000 0.000000 -0.500000
v 0.375000 0.700000 -0.500000
v 0.250000 0.980000 -0.125000
v 0.250000 1.000000 0.000000
v 0.250000 0.900000 -0.250000
v 0.250000 0.900000 -0.375000
v 0.250000 0.900000 -0.500000
v 0.125000 0.980000 -0.125000
v 0.125000 1.000000 0.000000
v 0.125000 0.980000 -0.250000
v 0.125000 0.980000 -0.375000
v 0.125000 0.980000 -0.500000
v 0.000000 1.000000 -0.125000
v 0.000000 0.999999 0.000000
v 0.000000 1.000000 -0.250000
v 0.000000 1.000000 -0.375000
v 0.000000 1.000000 -0.500000
v 0.500000 1.000000 0.000000
v -0.125000 0.980000 0.375000
v -0.250000 0.900000 0.375000
v -0.250000 0.900000 0.500000
v -0.125000 0.980000 0.250000
v -0.250000 0.900000 0.250000
v -0.125000 0.980000 0.125000
v -0.250000 0.980000 0.125000
v -0.375000 0.700000 0.375000
v -0.375000 0.700000 0.500000
v -0.375000 0.900000 0.250000
v -0.375000 0.980000 0.125000
v -0.500000 0.700000 0.375000
v -0.500000 -0.000000 0.500000
v -0.500000 0.900000 0.250000
v -0.500000 0.980000 0.125000
v -0.125000 0.980000 0.500000
vt 0.243962 0.148562
vt 0.250264 0.170829
vt 0.227452 0.177134
vt 0.265692 0.142134
vt 0.272524 0.163966
vt 0.287160 0.135207
vt 0.294327 0.156718
vt 0.308476 0.127988
vt 0.315747 0.149286
vt 0.257126 0.193644
vt 0.233713 0.200699
vt 0.279814 0.186184
vt 0.301872 0.178419
vt 0.323342 0.170527
vt 0.264698 0.216876
vt 0.240905 0.224709
vt 0.287731 0.208718
vt 0.310001 0.200249
vt 0.331493 0.191672
vt 0.221852 0.154287
vt 0.179097 0.275318
vt 0.188004 0.297245
vt 0.166512 0.305823
vt 0.201593 0.265916
vt 0.210273 0.288777
vt 0.225011 0.256981
vt 0.233306 0.280618
vt 0.196133 0.319075
vt 0.174663 0.326967
vt 0.218190 0.311310
vt 0.240879 0.303850
vt 0.203678 0.340776
vt 0.182258 0.348208
vt 0.225481 0.333528
vt 0.247741 0.326665
vt 0.210845 0.362287
vt 0.189530 0.369506
vt 0.232313 0.355359
vt 0.254043 0.348931
vt 0.157572 0.284806
vt 0.350271 0.233867
vt 0.328988 0.244520
vt 0.318907 0.222176
vt 0.363359 0.257807
vt 0.342790 0.270651
vt 0.389392 0.292497
vt 0.372033 0.309340
vt 0.494195 0.369506
vt 0.369262 0.333368
vt 0.306262 0.255242
vt 0.296411 0.231578
vt 0.320317 0.283870
vt 0.323537 0.309743
vt 0.325894 0.333878
vt 0.282286 0.265139
vt 0.272993 0.240513
vt 0.289055 0.290179
vt 0.294410 0.314730
vt 0.298938 0.338096
vt 0.257099 0.272785
vt 0.249002 0.248747
vt 0.264292 0.296795
vt 0.270552 0.320359
vt 0.276152 0.343206
vt 0.340433 0.212689
vt 0.203594 0.182763
vt 0.174466 0.187751
vt 0.172109 0.163616
vt 0.208949 0.207315
vt 0.177687 0.213625
vt 0.215719 0.232355
vt 0.191743 0.242253
vt 0.125970 0.188154
vt 0.128740 0.164126
vt 0.155213 0.226844
vt 0.169016 0.252975
vt 0.108611 0.204998
vt 0.003805 0.127989
vt 0.134644 0.239688
vt 0.147733 0.263629
vt 0.199066 0.159398
vn 0.000000 1.000000 0.000000
vn 0.000000 0.996900 0.079200
vn 0.000000 0.934500 -0.356000
vn -0.000000 0.996900 -0.079200
vn 0.000000 0.703300 -0.710900
vn 0.000000 0.359400 -0.933200
vn 0.604800 0.518100 -0.604800
vn 0.685600 0.244900 -0.685600
vn 0.933200 0.359400 0.000000
vn 0.367900 0.854000 -0.367900
vn 0.710900 0.703300 0.000000
vn 0.135100 0.981600 -0.135100
vn 0.356000 0.934500 0.000000
vn 0.158000 0.987400 0.000000
vn 0.039800 0.998400 -0.039800
vn -0.539100 0.842300 0.000000
vn -0.435500 0.890100 0.134200
vn -0.149600 0.961900 0.228700
vn 0.000000 0.934500 0.356000
vn -0.848000 0.530000 0.000000
vn -0.777700 0.601100 0.184100
vn -0.289500 0.778900 0.556400
vn 0.000000 0.703300 0.710900
vn -0.415100 0.399600 0.817300
vn 0.000000 0.359400 0.933200
vn -0.685600 0.244900 0.685600
vn -0.984400 0.175800 0.000000
vn -0.039800 0.998400 0.039800
vn -0.158000 0.987400 0.000000
vn -0.119200 0.992100 0.039500
usemtl None.003
s 1
f 1/1/1 2/2/1 3/3/1
f 4/4/1 5/5/1 2/2/1
f 6/6/1 7/7/1 5/5/1
f 8/8/1 9/9/1 7/7/1
f 2/2/1 10/10/1 11/11/1
f 5/5/1 12/12/1 10/10/1
f 7/7/1 13/13/1 12/12/1
f 9/9/1 14/14/1 13/13/1
f 10/10/1 15/15/1 16/16/1
f 12/12/1 17/17/1 15/15/1
f 13/13/1 18/18/1 17/17/1
f 14/14/1 19/19/1 18/18/1
f 20/20/1 1/1/1 3/3/1
f 1/1/1 4/4/1 2/2/1
f 4/4/1 6/6/1 5/5/1
f 6/6/1 8/8/1 7/7/1
f 3/3/1 2/2/1 11/11/1
f 2/2/1 5/5/1 10/10/1
f 5/5/1 7/7/1 12/12/1
f 7/7/1 9/9/1 13/13/1
f 11/11/1 10/10/1 16/16/1
f 10/10/1 12/12/1 15/15/1
f 12/12/1 13/13/1 17/17/1
f 13/13/1 14/14/1 18/18/1
f 21/21/2 22/22/1 23/23/1
f 24/24/2 25/25/1 22/22/1
f 26/26/2 27/27/1 25/25/1
f 22/22/1 28/28/1 29/29/1
f 25/25/1 30/30/1 28/28/1
f 27/27/1 31/31/1 30/30/1
f 28/28/1 32/32/1 33/33/1
f 30/30/1 34/34/1 32/32/1
f 31/31/1 35/35/1 34/34/1
f 32/32/1 36/36/1 37/37/1
f 34/34/1 38/38/1 36/36/1
f 35/35/1 39/39/1 38/38/1
f 40/40/2 21/21/2 23/23/1
f 21/21/2 24/24/2 22/22/1
f 24/24/2 26/26/2 25/25/1
f 23/23/1 22/22/1 29/29/1
f 22/22/1 25/25/1 28/28/1
f 25/25/1 27/27/1 30/30/1
f 29/29/1 28/28/1 33/33/1
f 28/28/1 30/30/1 32/32/1
f 30/30/1 31/31/1 34/34/1
f 33/33/1 32/32/1 37/37/1
f 32/32/1 34/34/1 36/36/1
f 34/34/1 35/35/1 38/38/1
f 41/41/3 42/42/3 43/43/4
f 44/44/5 45/45/5 42/42/3
f 46/46/6 47/47/7 45/45/5
f 48/48/8 49/49/9 47/47/7
f 42/42/3 50/50/3 51/51/4
f 45/45/5 52/52/10 50/50/3
f 47/47/7 53/53/11 52/52/10
f 49/49/9 54/54/11 53/53/11
f 50/50/3 55/55/12 56/56/4
f 52/52/10 57/57/13 55/55/12
f 53/53/11 58/58/13 57/57/13
f 54/54/11 59/59/13 58/58/13
f 55/55/12 60/60/14 61/61/15
f 57/57/13 62/62/14 60/60/14
f 58/58/13 63/63/14 62/62/14
f 59/59/13 64/64/14 63/63/14
f 65/65/4 41/41/3 43/43/4
f 41/41/3 44/44/5 42/42/3
f 44/44/5 46/46/6 45/45/5
f 46/46/6 48/48/8 47/47/7
f 43/43/4 42/42/3 51/51/4
f 42/42/3 45/45/5 50/50/3
f 45/45/5 47/47/7 52/52/10
f 47/47/7 49/49/9 53/53/11
f 51/51/4 50/50/3 56/56/4
f 50/50/3 52/52/10 55/55/12
f 52/52/10 53/53/11 57/57/13
f 53/53/11 54/54/11 58/58/13
f 56/56/4 55/55/12 61/61/15
f 55/55/12 57/57/13 60/60/14
f 57/57/13 58/58/13 62/62/14
f 58/58/13 59/59/13 63/63/14
f 66/66/16 67/67/16 68/68/16
f 69/69/16 70/70/17 67/67/16
f 71/71/18 72/72/19 70/70/17
f 67/67/20 73/73/21 74/74/20
f 70/70/22 75/75/23 73/73/21
f 72/72/19 76/76/19 75/75/23
f 73/73/24 77/77/25 78/78/26
f 75/75/23 79/79/23 77/77/25
f 76/76/19 80/80/19 79/79/23
f 81/81/16 66/66/16 68/68/16
f 66/66/16 69/69/16 67/67/16
f 69/69/16 71/71/18 70/70/17
f 68/68/20 67/67/20 74/74/20
f 67/67/20 70/70/22 73/73/21
f 70/70/22 72/72/19 75/75/23
f 74/74/27 73/73/24 78/78/26
f 73/73/24 75/75/23 77/77/25
f 75/75/23 76/76/19 79/79/23
f 15/15/1 56/56/4 61/61/15
f 17/17/1 51/51/4 56/56/4
f 18/18/1 43/43/4 51/51/4
f 19/19/1 65/65/4 43/43/4
f 16/16/1 15/15/1 61/61/15
f 15/15/1 17/17/1 56/56/4
f 17/17/1 18/18/1 51/51/4
f 18/18/1 19/19/1 43/43/4
f 61/61/28 60/60/1 27/27/1
f 60/60/1 62/62/1 31/31/1
f 62/62/1 63/63/1 35/35/1
f 63/63/1 64/64/1 39/39/1
f 26/26/2 61/61/28 27/27/1
f 27/27/1 60/60/1 31/31/1
f 31/31/1 62/62/1 35/35/1
f 35/35/1 63/63/1 39/39/1
f 3/3/29 66/66/29 81/81/29
f 11/11/29 69/69/29 66/66/29
f 16/16/29 71/71/30 69/69/29
f 61/61/28 26/26/2 71/71/30
f 26/26/2 24/24/2 72/72/19
f 24/24/2 21/21/2 76/76/19
f 21/21/2 40/40/2 80/80/19
f 20/20/29 3/3/29 81/81/29
f 3/3/29 11/11/29 66/66/29
f 11/11/29 16/16/29 69/69/29
f 16/16/29 61/61/28 71/71/30
f 71/71/18 26/26/2 72/72/19
f 72/72/19 24/24/2 76/76/19
f 76/76/19 21/21/2 80/80/19
