# Blender v2.82 (sub 7) OBJ File: 'StoneModels.blend'
# www.blender.org
mtllib Stone4e.mtl
o Grid_Grid.014_Grid_Grid.035
v 0.125000 1.000000 0.500000
v 0.125000 1.000000 0.375000
v 0.000000 1.000000 0.375000
v 0.250000 1.000000 0.500000
v 0.250000 1.000000 0.375000
v 0.375000 1.000000 0.500000
v 0.375000 1.000000 0.375000
v 0.500000 1.000000 0.500000
v 0.500000 1.000000 0.375000
v 0.125000 1.000000 0.250000
v 0.000000 1.000000 0.250000
v 0.250000 1.000000 0.250000
v 0.375000 1.000000 0.250000
v 0.500000 1.000000 0.250000
v 0.125000 1.000000 0.125000
v 0.000000 1.000000 0.125000
v 0.250000 1.000000 0.125000
v 0.375000 1.000000 0.125000
v 0.500000 1.000000 0.125000
v 0.000000 1.000000 0.500000
v -0.375000 1.000000 0.000000
v -0.375000 1.000000 -0.125000
v -0.500000 1.000000 -0.125000
v -0.250000 1.000000 0.000000
v -0.250000 1.000000 -0.125000
v -0.125000 1.000000 0.000000
v -0.125000 1.000000 -0.125000
v -0.375000 1.000000 -0.250000
v -0.500000 1.000000 -0.250000
v -0.250000 1.000000 -0.250000
v -0.125000 1.000000 -0.250000
v -0.375000 1.000000 -0.375000
v -0.500000 1.000000 -0.375000
v -0.250000 1.000000 -0.375000
v -0.125000 1.000000 -0.375000
v -0.375000 1.000000 -0.500000
v -0.500000 1.000000 -0.500000
v -0.250000 1.000000 -0.500000
v -0.125000 1.000000 -0.500000
v -0.500000 1.000000 0.000000
v 0.500000 1.000000 -0.125000
v 0.375000 1.000000 -0.125000
v 0.375000 1.000000 0.000000
v 0.500000 1.000000 -0.250000
v 0.375000 1.000000 -0.250000
v 0.500000 1.000000 -0.375000
v 0.375000 1.000000 -0.375000
v 0.500000 1.000000 -0.500000
v 0.375000 1.000000 -0.500000
v 0.250000 1.000000 -0.125000
v 0.250000 1.000000 0.000000
v 0.250000 1.000000 -0.250000
v 0.250000 1.000000 -0.375000
v 0.250000 1.000000 -0.500000
v 0.125000 1.000000 -0.125000
v 0.125000 1.000000 0.000000
v 0.125000 1.000000 -0.250000
v 0.125000 1.000000 -0.375000
v 0.125000 1.000000 -0.500000
v 0.000000 1.000000 -0.125000
v 0.000000 0.999999 0.000000
v 0.000000 1.000000 -0.250000
v 0.000000 1.000000 -0.375000
v 0.000000 1.000000 -0.500000
v 0.500000 1.000000 0.000000
v -0.125000 0.980000 0.375000
v -0.250000 0.900000 0.375000
v -0.250000 0.900000 0.500000
v -0.125000 0.980000 0.250000
v -0.250000 0.900000 0.250000
v -0.125000 0.980000 0.125000
v -0.250000 0.980000 0.125000
v -0.375000 0.700000 0.375000
v -0.375000 0.700000 0.500000
v -0.375000 0.900000 0.250000
v -0.375000 0.980000 0.125000
v -0.500000 0.700000 0.375000
v -0.500000 -0.000000 0.500000
v -0.500000 0.900000 0.250000
v -0.500000 0.980000 0.125000
v -0.125000 0.980000 0.500000
vt 0.319336 0.422852
vt 0.319336 0.390625
vt 0.287109 0.390625
vt 0.350586 0.422852
vt 0.350586 0.390625
vt 0.382812 0.422852
vt 0.382812 0.390625
vt 0.415039 0.422852
vt 0.415039 0.390625
vt 0.319336 0.358398
vt 0.287109 0.358398
vt 0.350586 0.358398
vt 0.382812 0.358398
vt 0.415039 0.358398
vt 0.319336 0.327148
vt 0.287109 0.327148
vt 0.350586 0.327148
vt 0.382812 0.327148
vt 0.415039 0.327148
vt 0.287109 0.422852
vt 0.191406 0.294922
vt 0.191406 0.263672
vt 0.160156 0.263672
vt 0.223633 0.294922
vt 0.223633 0.263672
vt 0.255859 0.294922
vt 0.255859 0.263672
vt 0.191406 0.231445
vt 0.160156 0.231445
vt 0.223633 0.231445
vt 0.255859 0.231445
vt 0.191406 0.199219
vt 0.160156 0.199219
vt 0.223633 0.199219
vt 0.255859 0.199219
vt 0.191406 0.167969
vt 0.160156 0.167969
vt 0.223633 0.167969
vt 0.255859 0.167969
vt 0.160156 0.294922
vt 0.415039 0.263672
vt 0.382812 0.263672
vt 0.382812 0.294922
vt 0.415039 0.231445
vt 0.382812 0.231445
vt 0.415039 0.199219
vt 0.382812 0.199219
vt 0.415039 0.167969
vt 0.382812 0.167969
vt 0.350586 0.263672
vt 0.350586 0.294922
vt 0.350586 0.231445
vt 0.350586 0.199219
vt 0.350586 0.167969
vt 0.319336 0.263672
vt 0.319336 0.294922
vt 0.319336 0.231445
vt 0.319336 0.199219
vt 0.319336 0.167969
vt 0.287109 0.263672
vt 0.287109 0.294922
vt 0.287109 0.231445
vt 0.287109 0.199219
vt 0.287109 0.167969
vt 0.415039 0.294922
vt 0.255859 0.390625
vt 0.223633 0.390625
vt 0.223633 0.422852
vt 0.255859 0.358398
vt 0.223633 0.358398
vt 0.255859 0.327148
vt 0.223633 0.327148
vt 0.267578 0.390625
vt 0.216797 0.390625
vt 0.216797 0.422852
vt 0.223633 0.275391
vt 0.191406 0.275391
vt 0.191406 0.224609
vt 0.191406 0.327148
vt 0.191406 0.358398
vt 0.160156 0.224609
vt 0.160156 0.045898
vt 0.160156 0.275391
vt 0.160156 0.327148
vt 0.160156 0.358398
vt 0.255859 0.422852
vt 0.267578 0.422852
vt 0.267578 0.358398
vt 0.038086 0.422852
vn 0.0000 1.0000 0.0000
vn -0.0792 0.9969 0.0000
vn 0.0000 0.9969 0.0792
vn -0.0199 0.9996 0.0199
vn -0.3560 0.9345 0.0000
vn -0.7109 0.7033 0.0000
vn -0.3679 0.8540 0.3679
vn -0.1351 0.9816 0.1351
vn 0.0000 0.9345 0.3560
vn -0.6048 0.5181 0.6048
vn -0.9332 0.3594 0.0000
vn 0.0000 0.7033 0.7109
vn 0.0000 0.3594 0.9332
vn -0.6856 0.2449 0.6856
g Grid_Grid.014_Grid_Grid.035_None.003
usemtl None.003
s 1
f 1/1/1 2/2/1 3/3/2
f 4/4/1 5/5/1 2/2/1
f 6/6/1 7/7/1 5/5/1
f 8/8/1 9/9/1 7/7/1
f 2/2/1 10/10/1 11/11/2
f 5/5/1 12/12/1 10/10/1
f 7/7/1 13/13/1 12/12/1
f 9/9/1 14/14/1 13/13/1
f 10/10/1 15/15/1 16/16/2
f 12/12/1 17/17/1 15/15/1
f 13/13/1 18/18/1 17/17/1
f 14/14/1 19/19/1 18/18/1
f 20/20/2 1/1/1 3/3/2
f 1/1/1 4/4/1 2/2/1
f 4/4/1 6/6/1 5/5/1
f 6/6/1 8/8/1 7/7/1
f 3/3/2 2/2/1 11/11/2
f 2/2/1 5/5/1 10/10/1
f 5/5/1 7/7/1 12/12/1
f 7/7/1 9/9/1 13/13/1
f 11/11/2 10/10/1 16/16/2
f 10/10/1 12/12/1 15/15/1
f 12/12/1 13/13/1 17/17/1
f 13/13/1 14/14/1 18/18/1
f 21/21/3 22/22/1 23/23/1
f 24/24/3 25/25/1 22/22/1
f 26/26/3 27/27/1 25/25/1
f 22/22/1 28/28/1 29/29/1
f 25/25/1 30/30/1 28/28/1
f 27/27/1 31/31/1 30/30/1
f 28/28/1 32/32/1 33/33/1
f 30/30/1 34/34/1 32/32/1
f 31/31/1 35/35/1 34/34/1
f 32/32/1 36/36/1 37/37/1
f 34/34/1 38/38/1 36/36/1
f 35/35/1 39/39/1 38/38/1
f 40/40/3 21/21/3 23/23/1
f 21/21/3 24/24/3 22/22/1
f 24/24/3 26/26/3 25/25/1
f 23/23/1 22/22/1 29/29/1
f 22/22/1 25/25/1 28/28/1
f 25/25/1 27/27/1 30/30/1
f 29/29/1 28/28/1 33/33/1
f 28/28/1 30/30/1 32/32/1
f 30/30/1 31/31/1 34/34/1
f 33/33/1 32/32/1 37/37/1
f 32/32/1 34/34/1 36/36/1
f 34/34/1 35/35/1 38/38/1
f 41/41/1 42/42/1 43/43/1
f 44/44/1 45/45/1 42/42/1
f 46/46/1 47/47/1 45/45/1
f 48/48/1 49/49/1 47/47/1
f 42/42/1 50/50/1 51/51/1
f 45/45/1 52/52/1 50/50/1
f 47/47/1 53/53/1 52/52/1
f 49/49/1 54/54/1 53/53/1
f 50/50/1 55/55/1 56/56/1
f 52/52/1 57/57/1 55/55/1
f 53/53/1 58/58/1 57/57/1
f 54/54/1 59/59/1 58/58/1
f 55/55/1 60/60/1 61/61/4
f 57/57/1 62/62/1 60/60/1
f 58/58/1 63/63/1 62/62/1
f 59/59/1 64/64/1 63/63/1
f 65/65/1 41/41/1 43/43/1
f 41/41/1 44/44/1 42/42/1
f 44/44/1 46/46/1 45/45/1
f 46/46/1 48/48/1 47/47/1
f 43/43/1 42/42/1 51/51/1
f 42/42/1 45/45/1 50/50/1
f 45/45/1 47/47/1 52/52/1
f 47/47/1 49/49/1 53/53/1
f 51/51/1 50/50/1 56/56/1
f 50/50/1 52/52/1 55/55/1
f 52/52/1 53/53/1 57/57/1
f 53/53/1 54/54/1 58/58/1
f 56/56/1 55/55/1 61/61/4
f 55/55/1 57/57/1 60/60/1
f 57/57/1 58/58/1 62/62/1
f 58/58/1 59/59/1 63/63/1
f 66/66/5 67/67/6 68/68/6
f 69/69/5 70/70/7 67/67/6
f 71/71/8 72/72/9 70/70/7
f 67/73/6 73/74/10 74/75/11
f 70/76/7 75/77/12 73/78/10
f 72/72/9 76/79/9 75/80/12
f 73/78/10 77/81/13 78/82/14
f 75/77/12 79/83/12 77/81/13
f 76/79/9 80/84/9 79/85/12
f 81/86/5 66/66/5 68/68/6
f 66/66/5 69/69/5 67/67/6
f 69/69/5 71/71/8 70/70/7
f 68/87/6 67/73/6 74/75/11
f 67/73/6 70/88/7 73/74/10
f 70/70/7 72/72/9 75/80/12
f 74/75/11 73/74/10 78/89/14
f 73/78/10 75/77/12 77/81/13
f 75/80/12 76/79/9 79/85/12
f 15/15/1 56/56/1 61/61/4
f 17/17/1 51/51/1 56/56/1
f 18/18/1 43/43/1 51/51/1
f 19/19/1 65/65/1 43/43/1
f 16/16/2 15/15/1 61/61/4
f 15/15/1 17/17/1 56/56/1
f 17/17/1 18/18/1 51/51/1
f 18/18/1 19/19/1 43/43/1
f 61/61/4 60/60/1 27/27/1
f 60/60/1 62/62/1 31/31/1
f 62/62/1 63/63/1 35/35/1
f 63/63/1 64/64/1 39/39/1
f 26/26/3 61/61/4 27/27/1
f 27/27/1 60/60/1 31/31/1
f 31/31/1 62/62/1 35/35/1
f 35/35/1 63/63/1 39/39/1
f 3/3/2 66/66/5 81/86/5
f 11/11/2 69/69/5 66/66/5
f 16/16/2 71/71/8 69/69/5
f 61/61/4 26/26/3 71/71/8
f 26/26/3 24/24/3 72/72/9
f 24/24/3 21/21/3 76/79/9
f 21/21/3 40/40/3 80/84/9
f 20/20/2 3/3/2 81/86/5
f 3/3/2 11/11/2 66/66/5
f 11/11/2 16/16/2 69/69/5
f 16/16/2 61/61/4 71/71/8
f 71/71/8 26/26/3 72/72/9
f 72/72/9 24/24/3 76/79/9
f 76/79/9 21/21/3 80/84/9
