# Blender v2.76 (sub 0) OBJ File: 'StoneModels.blend'
# www.blender.org
mtllib Stone4e.mtl
o Grid_Grid.014_Grid_Grid.035
v 0.125000 1.000000 0.500000
v 0.125000 1.000000 0.375000
v 0.000000 1.000000 0.375000
v 0.250000 1.000000 0.500000
v 0.250000 1.000000 0.375000
v 0.375000 1.000000 0.500000
v 0.375000 1.000000 0.375000
v 0.500000 1.000000 0.500000
v 0.500000 1.000000 0.375000
v 0.125000 1.000000 0.250000
v 0.000000 1.000000 0.250000
v 0.250000 1.000000 0.250000
v 0.375000 1.000000 0.250000
v 0.500000 1.000000 0.250000
v 0.125000 1.000000 0.125000
v 0.000000 1.000000 0.125000
v 0.250000 1.000000 0.125000
v 0.375000 1.000000 0.125000
v 0.500000 1.000000 0.125000
v 0.000000 1.000000 0.500000
v -0.375000 1.000000 0.000000
v -0.375000 1.000000 -0.125000
v -0.500000 1.000000 -0.125000
v -0.250000 1.000000 0.000000
v -0.250000 1.000000 -0.125000
v -0.125000 1.000000 0.000000
v -0.125000 1.000000 -0.125000
v -0.375000 1.000000 -0.250000
v -0.500000 1.000000 -0.250000
v -0.250000 1.000000 -0.250000
v -0.125000 1.000000 -0.250000
v -0.375000 1.000000 -0.375000
v -0.500000 1.000000 -0.375000
v -0.250000 1.000000 -0.375000
v -0.125000 1.000000 -0.375000
v -0.375000 1.000000 -0.500000
v -0.500000 1.000000 -0.500000
v -0.250000 1.000000 -0.500000
v -0.125000 1.000000 -0.500000
v -0.500000 1.000000 0.000000
v 0.500000 1.000000 -0.125000
v 0.375000 1.000000 -0.125000
v 0.375000 1.000000 0.000000
v 0.500000 1.000000 -0.250000
v 0.375000 1.000000 -0.250000
v 0.500000 1.000000 -0.375000
v 0.375000 1.000000 -0.375000
v 0.500000 1.000000 -0.500000
v 0.375000 1.000000 -0.500000
v 0.250000 1.000000 -0.125000
v 0.250000 1.000000 0.000000
v 0.250000 1.000000 -0.250000
v 0.250000 1.000000 -0.375000
v 0.250000 1.000000 -0.500000
v 0.125000 1.000000 -0.125000
v 0.125000 1.000000 0.000000
v 0.125000 1.000000 -0.250000
v 0.125000 1.000000 -0.375000
v 0.125000 1.000000 -0.500000
v 0.000000 1.000000 -0.125000
v 0.000000 0.999999 0.000000
v 0.000000 1.000000 -0.250000
v 0.000000 1.000000 -0.375000
v 0.000000 1.000000 -0.500000
v 0.500000 1.000000 0.000000
v -0.125000 0.980000 0.375000
v -0.250000 0.900000 0.375000
v -0.250000 0.900000 0.500000
v -0.125000 0.980000 0.250000
v -0.250000 0.900000 0.250000
v -0.125000 0.980000 0.125000
v -0.250000 0.980000 0.125000
v -0.375000 0.700000 0.375000
v -0.375000 0.700000 0.500000
v -0.375000 0.900000 0.250000
v -0.375000 0.980000 0.125000
v -0.500000 0.700000 0.375000
v -0.500000 -0.000000 0.500000
v -0.500000 0.900000 0.250000
v -0.500000 0.980000 0.125000
v -0.125000 0.980000 0.500000
vt 0.374813 0.179182
vt 0.370512 0.217998
vt 0.331027 0.213581
vt 0.413095 0.183130
vt 0.409501 0.221659
vt 0.451332 0.186503
vt 0.448143 0.224857
vt 0.489553 0.189585
vt 0.486519 0.227809
vt 0.366734 0.257549
vt 0.326333 0.254002
vt 0.406261 0.260650
vt 0.445214 0.263464
vt 0.483746 0.266103
vt 0.363812 0.297530
vt 0.322998 0.295118
vt 0.403582 0.299926
vt 0.442699 0.302252
vt 0.481349 0.304500
vt 0.336418 0.174280
vt 0.198571 0.339531
vt 0.200995 0.379188
vt 0.162012 0.381529
vt 0.239177 0.336877
vt 0.240686 0.377405
vt 0.280408 0.335616
vt 0.280763 0.376499
vt 0.202689 0.418312
vt 0.164028 0.419961
vt 0.241793 0.417038
vt 0.281154 0.416339
vt 0.203938 0.457065
vt 0.165472 0.458320
vt 0.242643 0.456083
vt 0.281508 0.455523
vt 0.204954 0.495540
vt 0.166626 0.496647
vt 0.243339 0.494699
vt 0.281808 0.494237
vt 0.159048 0.342937
vt 0.477599 0.381488
vt 0.438976 0.379952
vt 0.440639 0.341125
vt 0.476195 0.419910
vt 0.437668 0.418670
vt 0.475057 0.458290
vt 0.436619 0.457253
vt 0.474077 0.496647
vt 0.435719 0.495695
vt 0.399997 0.378527
vt 0.401525 0.339284
vt 0.398881 0.417566
vt 0.398031 0.456358
vt 0.397331 0.494900
vt 0.360613 0.377320
vt 0.361841 0.337541
vt 0.359836 0.416715
vt 0.359297 0.455716
vt 0.358887 0.494368
vt 0.320822 0.376544
vt 0.321337 0.336015
vt 0.320566 0.416265
vt 0.320436 0.455423
vt 0.320361 0.494167
vt 0.479338 0.343001
vt 0.290204 0.207850
vt 0.241248 0.198322
vt 0.251917 0.158632
vt 0.283897 0.249484
vt 0.231093 0.241109
vt 0.279814 0.292346
vt 0.236800 0.294267
vt 0.163890 0.170434
vt 0.182470 0.133758
vt 0.187849 0.249098
vt 0.194902 0.298471
vt 0.126325 0.187145
vt 0.004339 0.002640
vt 0.147673 0.257755
vt 0.154998 0.303541
vt 0.297276 0.168253
vn 0.000000 1.000000 0.000000
vn 0.000000 0.996900 0.079200
vn -0.539100 0.842300 0.000000
vn -0.435500 0.890100 0.134200
vn -0.149600 0.961900 0.228700
vn 0.000000 0.934500 0.356000
vn -0.848000 0.530000 0.000000
vn -0.777700 0.601100 0.184100
vn -0.289500 0.778900 0.556400
vn 0.000000 0.703300 0.710900
vn -0.415100 0.399600 0.817300
vn 0.000000 0.359400 0.933200
vn -0.685600 0.244900 0.685600
vn -0.984400 0.175800 0.000000
vn -0.039800 0.998400 0.039800
vn -0.158000 0.987400 0.000000
vn -0.119200 0.992100 0.039500
usemtl None.003
s 1
f 1/1/1 2/2/1 3/3/1
f 4/4/1 5/5/1 2/2/1
f 6/6/1 7/7/1 5/5/1
f 8/8/1 9/9/1 7/7/1
f 2/2/1 10/10/1 11/11/1
f 5/5/1 12/12/1 10/10/1
f 7/7/1 13/13/1 12/12/1
f 9/9/1 14/14/1 13/13/1
f 10/10/1 15/15/1 16/16/1
f 12/12/1 17/17/1 15/15/1
f 13/13/1 18/18/1 17/17/1
f 14/14/1 19/19/1 18/18/1
f 20/20/1 1/1/1 3/3/1
f 1/1/1 4/4/1 2/2/1
f 4/4/1 6/6/1 5/5/1
f 6/6/1 8/8/1 7/7/1
f 3/3/1 2/2/1 11/11/1
f 2/2/1 5/5/1 10/10/1
f 5/5/1 7/7/1 12/12/1
f 7/7/1 9/9/1 13/13/1
f 11/11/1 10/10/1 16/16/1
f 10/10/1 12/12/1 15/15/1
f 12/12/1 13/13/1 17/17/1
f 13/13/1 14/14/1 18/18/1
f 21/21/2 22/22/1 23/23/1
f 24/24/2 25/25/1 22/22/1
f 26/26/2 27/27/1 25/25/1
f 22/22/1 28/28/1 29/29/1
f 25/25/1 30/30/1 28/28/1
f 27/27/1 31/31/1 30/30/1
f 28/28/1 32/32/1 33/33/1
f 30/30/1 34/34/1 32/32/1
f 31/31/1 35/35/1 34/34/1
f 32/32/1 36/36/1 37/37/1
f 34/34/1 38/38/1 36/36/1
f 35/35/1 39/39/1 38/38/1
f 40/40/2 21/21/2 23/23/1
f 21/21/2 24/24/2 22/22/1
f 24/24/2 26/26/2 25/25/1
f 23/23/1 22/22/1 29/29/1
f 22/22/1 25/25/1 28/28/1
f 25/25/1 27/27/1 30/30/1
f 29/29/1 28/28/1 33/33/1
f 28/28/1 30/30/1 32/32/1
f 30/30/1 31/31/1 34/34/1
f 33/33/1 32/32/1 37/37/1
f 32/32/1 34/34/1 36/36/1
f 34/34/1 35/35/1 38/38/1
f 41/41/1 42/42/1 43/43/1
f 44/44/1 45/45/1 42/42/1
f 46/46/1 47/47/1 45/45/1
f 48/48/1 49/49/1 47/47/1
f 42/42/1 50/50/1 51/51/1
f 45/45/1 52/52/1 50/50/1
f 47/47/1 53/53/1 52/52/1
f 49/49/1 54/54/1 53/53/1
f 50/50/1 55/55/1 56/56/1
f 52/52/1 57/57/1 55/55/1
f 53/53/1 58/58/1 57/57/1
f 54/54/1 59/59/1 58/58/1
f 55/55/1 60/60/1 61/61/1
f 57/57/1 62/62/1 60/60/1
f 58/58/1 63/63/1 62/62/1
f 59/59/1 64/64/1 63/63/1
f 65/65/1 41/41/1 43/43/1
f 41/41/1 44/44/1 42/42/1
f 44/44/1 46/46/1 45/45/1
f 46/46/1 48/48/1 47/47/1
f 43/43/1 42/42/1 51/51/1
f 42/42/1 45/45/1 50/50/1
f 45/45/1 47/47/1 52/52/1
f 47/47/1 49/49/1 53/53/1
f 51/51/1 50/50/1 56/56/1
f 50/50/1 52/52/1 55/55/1
f 52/52/1 53/53/1 57/57/1
f 53/53/1 54/54/1 58/58/1
f 56/56/1 55/55/1 61/61/1
f 55/55/1 57/57/1 60/60/1
f 57/57/1 58/58/1 62/62/1
f 58/58/1 59/59/1 63/63/1
f 66/66/3 67/67/3 68/68/3
f 69/69/3 70/70/4 67/67/3
f 71/71/5 72/72/6 70/70/4
f 67/67/7 73/73/8 74/74/7
f 70/70/9 75/75/10 73/73/8
f 72/72/6 76/76/6 75/75/10
f 73/73/11 77/77/12 78/78/13
f 75/75/10 79/79/10 77/77/12
f 76/76/6 80/80/6 79/79/10
f 81/81/3 66/66/3 68/68/3
f 66/66/3 69/69/3 67/67/3
f 69/69/3 71/71/5 70/70/4
f 68/68/7 67/67/7 74/74/7
f 67/67/7 70/70/9 73/73/8
f 70/70/9 72/72/6 75/75/10
f 74/74/14 73/73/11 78/78/13
f 73/73/11 75/75/10 77/77/12
f 75/75/10 76/76/6 79/79/10
f 15/15/1 56/56/1 61/61/1
f 17/17/1 51/51/1 56/56/1
f 18/18/1 43/43/1 51/51/1
f 19/19/1 65/65/1 43/43/1
f 16/16/1 15/15/1 61/61/1
f 15/15/1 17/17/1 56/56/1
f 17/17/1 18/18/1 51/51/1
f 18/18/1 19/19/1 43/43/1
f 61/61/15 60/60/1 27/27/1
f 60/60/1 62/62/1 31/31/1
f 62/62/1 63/63/1 35/35/1
f 63/63/1 64/64/1 39/39/1
f 26/26/2 61/61/15 27/27/1
f 27/27/1 60/60/1 31/31/1
f 31/31/1 62/62/1 35/35/1
f 35/35/1 63/63/1 39/39/1
f 3/3/16 66/66/16 81/81/16
f 11/11/16 69/69/16 66/66/16
f 16/16/16 71/71/17 69/69/16
f 61/61/15 26/26/2 71/71/17
f 26/26/2 24/24/2 72/72/6
f 24/24/2 21/21/2 76/76/6
f 21/21/2 40/40/2 80/80/6
f 20/20/16 3/3/16 81/81/16
f 3/3/16 11/11/16 66/66/16
f 11/11/16 16/16/16 69/69/16
f 16/16/16 61/61/15 71/71/17
f 71/71/5 26/26/2 72/72/6
f 72/72/6 24/24/2 76/76/6
f 76/76/6 21/21/2 80/80/6
