# Blender v2.76 (sub 0) OBJ File: 'StoneModels.blend'
# www.blender.org
mtllib Stone0a.mtl
o Grid_Grid.003
v 0.125000 -0.000000 0.500000
v 0.125000 0.700000 0.375000
v 0.000000 0.700000 0.375000
v 0.250000 -0.000000 0.500000
v 0.250000 0.700000 0.375000
v 0.375000 -0.000000 0.500000
v 0.375000 0.700000 0.375000
v 0.500000 -0.000000 0.500000
v 0.500000 0.000000 0.375000
v 0.125000 0.900000 0.250000
v 0.000000 0.900000 0.250000
v 0.250000 0.900000 0.250000
v 0.375000 0.700000 0.250000
v 0.500000 0.000000 0.250000
v 0.125000 0.980000 0.125000
v 0.000000 0.980000 0.125000
v 0.250000 0.900000 0.125000
v 0.375000 0.700000 0.125000
v 0.500000 0.000000 0.125000
v 0.000000 -0.000000 0.500000
v -0.375000 0.700000 0.000000
v -0.375000 0.700000 -0.125000
v -0.500000 0.000000 -0.125000
v -0.250000 0.900000 0.000000
v -0.250000 0.900000 -0.125000
v -0.125000 0.980000 0.000000
v -0.125000 0.980000 -0.125000
v -0.375000 0.700000 -0.250000
v -0.500000 0.000000 -0.250000
v -0.250000 0.900000 -0.250000
v -0.125000 0.900000 -0.250000
v -0.375000 0.700000 -0.375000
v -0.500000 0.000000 -0.375000
v -0.250000 0.700000 -0.375000
v -0.125000 0.700000 -0.375000
v -0.375000 0.000000 -0.500000
v -0.500000 0.000000 -0.500000
v -0.250000 0.000000 -0.500000
v -0.125000 0.000000 -0.500000
v -0.500000 0.000000 0.000000
v 0.500000 0.000000 -0.125000
v 0.375000 0.700000 -0.125000
v 0.375000 0.700000 0.000000
v 0.500000 0.000000 -0.250000
v 0.375000 0.700000 -0.250000
v 0.500000 0.000000 -0.375000
v 0.375000 0.700000 -0.375000
v 0.500000 0.000000 -0.500000
v 0.375000 0.000000 -0.500000
v 0.250000 0.900000 -0.125000
v 0.250000 0.900000 0.000000
v 0.250000 0.900000 -0.250000
v 0.250000 0.700000 -0.375000
v 0.250000 0.000000 -0.500000
v 0.125000 0.980000 -0.125000
v 0.125000 0.980000 0.000000
v 0.125000 0.900000 -0.250000
v 0.125000 0.700000 -0.375000
v 0.125000 0.000000 -0.500000
v 0.000000 0.980000 -0.125000
v 0.000000 1.000000 0.000000
v 0.000000 0.900000 -0.250000
v 0.000000 0.700000 -0.375000
v 0.000000 0.000000 -0.500000
v 0.500000 0.000000 0.000000
v -0.125000 0.700000 0.375000
v -0.250000 0.700000 0.375000
v -0.250000 -0.000000 0.500000
v -0.125000 0.900000 0.250000
v -0.250000 0.900000 0.250000
v -0.125000 0.980000 0.125000
v -0.250000 0.900000 0.125000
v -0.375000 0.700000 0.375000
v -0.375000 -0.000000 0.500000
v -0.375000 0.700000 0.250000
v -0.375000 0.700000 0.125000
v -0.500000 0.000000 0.375000
v -0.500000 -0.000000 0.500000
v -0.500000 0.000000 0.250000
v -0.500000 0.000000 0.125000
v -0.125000 -0.000000 0.500000
vt 0.380859 0.046875
vt 0.286133 0.202148
vt 0.271484 0.194336
vt 0.418945 0.073242
vt 0.300781 0.210938
vt 0.454102 0.107422
vt 0.312500 0.222656
vt 0.484375 0.148438
vt 0.494141 0.199219
vt 0.273438 0.227539
vt 0.259766 0.221680
vt 0.285156 0.234375
vt 0.312500 0.238281
vt 0.494141 0.247070
vt 0.265625 0.241211
vt 0.253906 0.236328
vt 0.280273 0.247070
vt 0.308594 0.253906
vt 0.485352 0.293945
vt 0.338867 0.027344
vt 0.194336 0.226562
vt 0.189453 0.244141
vt 0.012695 0.204102
vt 0.221680 0.238281
vt 0.217773 0.250977
vt 0.236328 0.244141
vt 0.232422 0.256836
vt 0.185547 0.259766
vt 0.003906 0.250977
vt 0.212891 0.263672
vt 0.224609 0.270508
vt 0.185547 0.275391
vt 0.003906 0.298828
vt 0.197266 0.287109
vt 0.211914 0.295898
vt 0.043945 0.390625
vt 0.013672 0.349609
vt 0.079102 0.424805
vt 0.117188 0.451172
vt 0.027344 0.159180
vt 0.451172 0.380859
vt 0.295898 0.286133
vt 0.303711 0.271484
vt 0.424805 0.418945
vt 0.287109 0.300781
vt 0.390625 0.454102
vt 0.275391 0.312500
vt 0.349609 0.484375
vt 0.298828 0.494141
vt 0.270508 0.273438
vt 0.276367 0.259766
vt 0.263672 0.285156
vt 0.259766 0.312500
vt 0.250977 0.494141
vt 0.256836 0.265625
vt 0.261719 0.253906
vt 0.250977 0.280273
vt 0.244141 0.308594
vt 0.204102 0.485352
vt 0.244141 0.261719
vt 0.249023 0.249023
vt 0.238281 0.276367
vt 0.226562 0.303711
vt 0.159180 0.470703
vt 0.470703 0.338867
vt 0.253906 0.189453
vt 0.238281 0.185547
vt 0.247070 0.003906
vt 0.247070 0.217773
vt 0.234375 0.212891
vt 0.241211 0.232422
vt 0.227539 0.224609
vt 0.222656 0.185547
vt 0.199219 0.003906
vt 0.210938 0.197266
vt 0.202148 0.211914
vt 0.107422 0.043945
vt 0.148438 0.013672
vt 0.073242 0.079102
vt 0.046875 0.117188
vt 0.293945 0.012695
vn 0.000000 0.175800 0.984400
vn 0.984400 0.175800 0.000000
vn 0.000000 0.530000 0.848000
vn 0.848000 0.530000 0.000000
vn 0.000000 0.842300 0.539100
vn 0.539100 0.842300 0.000000
vn -0.984400 0.175800 0.000000
vn -0.848000 0.530000 0.000000
vn -0.539100 0.842300 0.000000
vn 0.000000 0.842300 -0.539100
vn 0.000000 0.530000 -0.848000
vn 0.000000 0.175800 -0.984400
vn 0.000000 0.987400 -0.158000
vn 0.158000 0.987400 0.000000
vn 0.000000 0.987400 0.158000
vn -0.158000 0.987400 0.000000
usemtl None
s 1
f 1/1/1 2/2/1 3/3/1
f 4/4/1 5/5/1 2/2/1
f 6/6/1 7/7/1 5/5/1
f 8/8/2 9/9/2 7/7/2
f 2/2/3 10/10/3 11/11/3
f 5/5/3 12/12/3 10/10/3
f 7/7/4 13/13/4 12/12/4
f 9/9/2 14/14/2 13/13/2
f 10/10/5 15/15/5 16/16/5
f 12/12/6 17/17/6 15/15/6
f 13/13/4 18/18/4 17/17/4
f 14/14/2 19/19/2 18/18/2
f 20/20/1 1/1/1 3/3/1
f 1/1/1 4/4/1 2/2/1
f 4/4/1 6/6/1 5/5/1
f 6/6/1 8/8/1 7/7/1
f 3/3/3 2/2/3 11/11/3
f 2/2/3 5/5/3 10/10/3
f 5/5/3 7/7/3 12/12/3
f 7/7/2 9/9/2 13/13/2
f 11/11/5 10/10/5 16/16/5
f 10/10/5 12/12/5 15/15/5
f 12/12/4 13/13/4 17/17/4
f 13/13/2 14/14/2 18/18/2
f 21/21/7 22/22/7 23/23/7
f 24/24/8 25/25/8 22/22/8
f 26/26/9 27/27/9 25/25/9
f 22/22/7 28/28/7 29/29/7
f 25/25/8 30/30/8 28/28/8
f 27/27/10 31/31/10 30/30/10
f 28/28/7 32/32/7 33/33/7
f 30/30/11 34/34/11 32/32/11
f 31/31/11 35/35/11 34/34/11
f 32/32/12 36/36/12 37/37/12
f 34/34/12 38/38/12 36/36/12
f 35/35/12 39/39/12 38/38/12
f 40/40/7 21/21/7 23/23/7
f 21/21/8 24/24/8 22/22/8
f 24/24/9 26/26/9 25/25/9
f 23/23/7 22/22/7 29/29/7
f 22/22/8 25/25/8 28/28/8
f 25/25/9 27/27/9 30/30/9
f 29/29/7 28/28/7 33/33/7
f 28/28/8 30/30/8 32/32/8
f 30/30/11 31/31/11 34/34/11
f 33/33/7 32/32/7 37/37/7
f 32/32/12 34/34/12 36/36/12
f 34/34/12 35/35/12 38/38/12
f 41/41/2 42/42/2 43/43/2
f 44/44/2 45/45/2 42/42/2
f 46/46/2 47/47/2 45/45/2
f 48/48/12 49/49/12 47/47/12
f 42/42/4 50/50/4 51/51/4
f 45/45/4 52/52/4 50/50/4
f 47/47/11 53/53/11 52/52/11
f 49/49/12 54/54/12 53/53/12
f 50/50/6 55/55/6 56/56/6
f 52/52/10 57/57/10 55/55/10
f 53/53/11 58/58/11 57/57/11
f 54/54/12 59/59/12 58/58/12
f 55/55/13 60/60/13 61/61/13
f 57/57/10 62/62/10 60/60/10
f 58/58/11 63/63/11 62/62/11
f 59/59/12 64/64/12 63/63/12
f 65/65/2 41/41/2 43/43/2
f 41/41/2 44/44/2 42/42/2
f 44/44/2 46/46/2 45/45/2
f 46/46/2 48/48/2 47/47/2
f 43/43/4 42/42/4 51/51/4
f 42/42/4 45/45/4 50/50/4
f 45/45/4 47/47/4 52/52/4
f 47/47/12 49/49/12 53/53/12
f 51/51/6 50/50/6 56/56/6
f 50/50/6 52/52/6 55/55/6
f 52/52/11 53/53/11 57/57/11
f 53/53/12 54/54/12 58/58/12
f 56/56/14 55/55/14 61/61/14
f 55/55/10 57/57/10 60/60/10
f 57/57/11 58/58/11 62/62/11
f 58/58/12 59/59/12 63/63/12
f 66/66/1 67/67/1 68/68/1
f 69/69/3 70/70/3 67/67/3
f 71/71/9 72/72/9 70/70/9
f 67/67/1 73/73/1 74/74/1
f 70/70/8 75/75/8 73/73/8
f 72/72/8 76/76/8 75/75/8
f 73/73/7 77/77/7 78/78/7
f 75/75/7 79/79/7 77/77/7
f 76/76/7 80/80/7 79/79/7
f 81/81/1 66/66/1 68/68/1
f 66/66/3 69/69/3 67/67/3
f 69/69/5 71/71/5 70/70/5
f 68/68/1 67/67/1 74/74/1
f 67/67/3 70/70/3 73/73/3
f 70/70/8 72/72/8 75/75/8
f 74/74/1 73/73/1 78/78/1
f 73/73/7 75/75/7 77/77/7
f 75/75/7 76/76/7 79/79/7
f 15/15/14 56/56/14 61/61/14
f 17/17/6 51/51/6 56/56/6
f 18/18/4 43/43/4 51/51/4
f 19/19/2 65/65/2 43/43/2
f 16/16/15 15/15/15 61/61/15
f 15/15/6 17/17/6 56/56/6
f 17/17/4 18/18/4 51/51/4
f 18/18/2 19/19/2 43/43/2
f 61/61/13 60/60/13 27/27/13
f 60/60/10 62/62/10 31/31/10
f 62/62/11 63/63/11 35/35/11
f 63/63/12 64/64/12 39/39/12
f 26/26/16 61/61/16 27/27/16
f 27/27/10 60/60/10 31/31/10
f 31/31/11 62/62/11 35/35/11
f 35/35/12 63/63/12 39/39/12
f 3/3/1 66/66/1 81/81/1
f 11/11/3 69/69/3 66/66/3
f 16/16/5 71/71/5 69/69/5
f 61/61/16 26/26/16 71/71/16
f 26/26/9 24/24/9 72/72/9
f 24/24/8 21/21/8 76/76/8
f 21/21/7 40/40/7 80/80/7
f 20/20/1 3/3/1 81/81/1
f 3/3/3 11/11/3 66/66/3
f 11/11/5 16/16/5 69/69/5
f 16/16/15 61/61/15 71/71/15
f 71/71/9 26/26/9 72/72/9
f 72/72/8 24/24/8 76/76/8
f 76/76/7 21/21/7 80/80/7
