# Blender v2.82 (sub 7) OBJ File: 'StoneModels.blend'
# www.blender.org
mtllib Stone0a.mtl
o Grid_Grid.003
v 0.125000 -0.000000 0.500000
v 0.125000 0.700000 0.375000
v 0.000000 0.700000 0.375000
v 0.250000 -0.000000 0.500000
v 0.250000 0.700000 0.375000
v 0.375000 -0.000000 0.500000
v 0.375000 0.700000 0.375000
v 0.500000 -0.000000 0.500000
v 0.500000 0.000000 0.375000
v 0.125000 0.900000 0.250000
v 0.000000 0.900000 0.250000
v 0.250000 0.900000 0.250000
v 0.375000 0.700000 0.250000
v 0.500000 0.000000 0.250000
v 0.125000 0.980000 0.125000
v 0.000000 0.980000 0.125000
v 0.250000 0.900000 0.125000
v 0.375000 0.700000 0.125000
v 0.500000 0.000000 0.125000
v 0.000000 -0.000000 0.500000
v -0.375000 0.700000 0.000000
v -0.375000 0.700000 -0.125000
v -0.500000 0.000000 -0.125000
v -0.250000 0.900000 0.000000
v -0.250000 0.900000 -0.125000
v -0.125000 0.980000 0.000000
v -0.125000 0.980000 -0.125000
v -0.375000 0.700000 -0.250000
v -0.500000 0.000000 -0.250000
v -0.250000 0.900000 -0.250000
v -0.125000 0.900000 -0.250000
v -0.375000 0.700000 -0.375000
v -0.500000 0.000000 -0.375000
v -0.250000 0.700000 -0.375000
v -0.125000 0.700000 -0.375000
v -0.375000 0.000000 -0.500000
v -0.500000 0.000000 -0.500000
v -0.250000 0.000000 -0.500000
v -0.125000 0.000000 -0.500000
v -0.500000 0.000000 0.000000
v 0.500000 0.000000 -0.125000
v 0.375000 0.700000 -0.125000
v 0.375000 0.700000 0.000000
v 0.500000 0.000000 -0.250000
v 0.375000 0.700000 -0.250000
v 0.500000 0.000000 -0.375000
v 0.375000 0.700000 -0.375000
v 0.500000 0.000000 -0.500000
v 0.375000 0.000000 -0.500000
v 0.250000 0.900000 -0.125000
v 0.250000 0.900000 0.000000
v 0.250000 0.900000 -0.250000
v 0.250000 0.700000 -0.375000
v 0.250000 0.000000 -0.500000
v 0.125000 0.980000 -0.125000
v 0.125000 0.980000 0.000000
v 0.125000 0.900000 -0.250000
v 0.125000 0.700000 -0.375000
v 0.125000 0.000000 -0.500000
v 0.000000 0.980000 -0.125000
v 0.000000 1.000000 0.000000
v 0.000000 0.900000 -0.250000
v 0.000000 0.700000 -0.375000
v 0.000000 0.000000 -0.500000
v 0.500000 0.000000 0.000000
v -0.125000 0.700000 0.375000
v -0.250000 0.700000 0.375000
v -0.250000 -0.000000 0.500000
v -0.125000 0.900000 0.250000
v -0.250000 0.900000 0.250000
v -0.125000 0.980000 0.125000
v -0.250000 0.900000 0.125000
v -0.375000 0.700000 0.375000
v -0.375000 -0.000000 0.500000
v -0.375000 0.700000 0.250000
v -0.375000 0.700000 0.125000
v -0.500000 0.000000 0.375000
v -0.500000 -0.000000 0.500000
v -0.500000 0.000000 0.250000
v -0.500000 0.000000 0.125000
v -0.125000 -0.000000 0.500000
vt 0.311523 0.063477
vt 0.311523 0.293945
vt 0.270508 0.293945
vt 0.352539 0.063477
vt 0.352539 0.293945
vt 0.393555 0.063477
vt 0.393555 0.293945
vt 0.063477 0.435547
vt 0.063477 0.394531
vt 0.292969 0.394531
vt 0.311523 0.359375
vt 0.270508 0.359375
vt 0.352539 0.359375
vt 0.292969 0.353516
vt 0.359375 0.353516
vt 0.063477 0.353516
vt 0.311523 0.353516
vt 0.311523 0.312500
vt 0.270508 0.312500
vt 0.352539 0.353516
vt 0.352539 0.312500
vt 0.292969 0.312500
vt 0.359375 0.312500
vt 0.063477 0.312500
vt 0.270508 0.063477
vt 0.434570 0.063477
vt 0.270508 0.353516
vt 0.292969 0.271484
vt 0.292969 0.230469
vt 0.063477 0.230469
vt 0.359375 0.271484
vt 0.359375 0.230469
vt 0.229492 0.271484
vt 0.229492 0.230469
vt 0.188477 0.230469
vt 0.292969 0.189453
vt 0.063477 0.189453
vt 0.359375 0.189453
vt 0.229492 0.189453
vt 0.188477 0.189453
vt 0.292969 0.147461
vt 0.063477 0.147461
vt 0.188477 0.359375
vt 0.188477 0.293945
vt 0.147461 0.293945
vt 0.229492 0.359375
vt 0.229492 0.293945
vt 0.147461 0.063477
vt 0.106445 0.063477
vt 0.188477 0.063477
vt 0.229492 0.063477
vt 0.063477 0.271484
vt 0.188477 0.271484
vt 0.063477 0.106445
vt 0.063477 0.230469
vt 0.292969 0.230469
vt 0.292969 0.271484
vt 0.063477 0.189453
vt 0.292969 0.189453
vt 0.063477 0.147461
vt 0.292969 0.147461
vt 0.434570 0.063477
vt 0.393555 0.063477
vt 0.393555 0.293945
vt 0.359375 0.230469
vt 0.359375 0.271484
vt 0.359375 0.189453
vt 0.352539 0.293945
vt 0.352539 0.359375
vt 0.352539 0.063477
vt 0.352539 0.230469
vt 0.311523 0.230469
vt 0.311523 0.271484
vt 0.352539 0.189453
vt 0.311523 0.189453
vt 0.311523 0.293945
vt 0.311523 0.359375
vt 0.311523 0.063477
vt 0.270508 0.230469
vt 0.270508 0.271484
vt 0.270508 0.189453
vt 0.270508 0.293945
vt 0.270508 0.359375
vt 0.270508 0.063477
vt 0.063477 0.271484
vt 0.063477 0.106445
vt 0.352539 0.271484
vt 0.229492 0.293945
vt 0.188477 0.293945
vt 0.188477 0.063477
vt 0.229492 0.359375
vt 0.188477 0.359375
vt 0.229492 0.312500
vt 0.188477 0.312500
vt 0.188477 0.353516
vt 0.147461 0.293945
vt 0.147461 0.063477
vt 0.359375 0.353516
vt 0.292969 0.353516
vt 0.292969 0.394531
vt 0.359375 0.312500
vt 0.292969 0.312500
vt 0.063477 0.394531
vt 0.063477 0.435547
vt 0.063477 0.353516
vt 0.063477 0.312500
vt 0.229492 0.063477
vt 0.229492 0.353516
vt 0.106445 0.063477
vn 0.0000 0.1758 0.9844
vn 0.9844 0.1758 0.0000
vn 0.0000 0.5300 0.8480
vn 0.8480 0.5300 0.0000
vn 0.0000 0.8423 0.5391
vn 0.5391 0.8423 0.0000
vn -0.9844 0.1758 0.0000
vn -0.8480 0.5300 0.0000
vn -0.5391 0.8423 0.0000
vn 0.0000 0.8423 -0.5391
vn 0.0000 0.5300 -0.8480
vn 0.0000 0.1758 -0.9844
vn 0.0000 0.9874 -0.1580
vn 0.1580 0.9874 0.0000
vn 0.0000 0.9874 0.1580
vn -0.1580 0.9874 0.0000
usemtl None
s 1
f 1/1/1 2/2/1 3/3/1
f 4/4/1 5/5/1 2/2/1
f 6/6/1 7/7/1 5/5/1
f 8/8/2 9/9/2 7/10/2
f 2/2/3 10/11/3 11/12/3
f 5/5/3 12/13/3 10/11/3
f 7/10/4 13/14/4 12/15/4
f 9/9/2 14/16/2 13/14/2
f 10/17/5 15/18/5 16/19/5
f 12/20/6 17/21/6 15/18/6
f 13/14/4 18/22/4 17/23/4
f 14/16/2 19/24/2 18/22/2
f 20/25/1 1/1/1 3/3/1
f 1/1/1 4/4/1 2/2/1
f 4/4/1 6/6/1 5/5/1
f 6/6/1 8/26/1 7/7/1
f 3/3/3 2/2/3 11/12/3
f 2/2/3 5/5/3 10/11/3
f 5/5/3 7/7/3 12/13/3
f 7/10/2 9/9/2 13/14/2
f 11/27/5 10/17/5 16/19/5
f 10/17/5 12/20/5 15/18/5
f 12/15/4 13/14/4 17/23/4
f 13/14/2 14/16/2 18/22/2
f 21/28/7 22/29/7 23/30/7
f 24/31/8 25/32/8 22/29/8
f 26/33/9 27/34/9 25/35/9
f 22/29/7 28/36/7 29/37/7
f 25/32/8 30/38/8 28/36/8
f 27/34/10 31/39/10 30/40/10
f 28/36/7 32/41/7 33/42/7
f 30/43/11 34/44/11 32/45/11
f 31/46/11 35/47/11 34/44/11
f 32/45/12 36/48/12 37/49/12
f 34/44/12 38/50/12 36/48/12
f 35/47/12 39/51/12 38/50/12
f 40/52/7 21/28/7 23/30/7
f 21/28/8 24/31/8 22/29/8
f 24/53/9 26/33/9 25/35/9
f 23/30/7 22/29/7 29/37/7
f 22/29/8 25/32/8 28/36/8
f 25/35/9 27/34/9 30/40/9
f 29/37/7 28/36/7 33/42/7
f 28/36/8 30/38/8 32/41/8
f 30/43/11 31/46/11 34/44/11
f 33/42/7 32/41/7 37/54/7
f 32/45/12 34/44/12 36/48/12
f 34/44/12 35/47/12 38/50/12
f 41/55/2 42/56/2 43/57/2
f 44/58/2 45/59/2 42/56/2
f 46/60/2 47/61/2 45/59/2
f 48/62/12 49/63/12 47/64/12
f 42/56/4 50/65/4 51/66/4
f 45/59/4 52/67/4 50/65/4
f 47/64/11 53/68/11 52/69/11
f 49/63/12 54/70/12 53/68/12
f 50/71/6 55/72/6 56/73/6
f 52/74/10 57/75/10 55/72/10
f 53/68/11 58/76/11 57/77/11
f 54/70/12 59/78/12 58/76/12
f 55/72/13 60/79/13 61/80/13
f 57/75/10 62/81/10 60/79/10
f 58/76/11 63/82/11 62/83/11
f 59/78/12 64/84/12 63/82/12
f 65/85/2 41/55/2 43/57/2
f 41/55/2 44/58/2 42/56/2
f 44/58/2 46/60/2 45/59/2
f 46/60/2 48/86/2 47/61/2
f 43/57/4 42/56/4 51/66/4
f 42/56/4 45/59/4 50/65/4
f 45/59/4 47/61/4 52/67/4
f 47/64/12 49/63/12 53/68/12
f 51/87/6 50/71/6 56/73/6
f 50/71/6 52/74/6 55/72/6
f 52/69/11 53/68/11 57/77/11
f 53/68/12 54/70/12 58/76/12
f 56/73/14 55/72/14 61/80/14
f 55/72/10 57/75/10 60/79/10
f 57/77/11 58/76/11 62/83/11
f 58/76/12 59/78/12 63/82/12
f 66/88/1 67/89/1 68/90/1
f 69/91/3 70/92/3 67/89/3
f 71/93/9 72/94/9 70/95/9
f 67/89/1 73/96/1 74/97/1
f 70/98/8 75/99/8 73/100/8
f 72/101/8 76/102/8 75/99/8
f 73/100/7 77/103/7 78/104/7
f 75/99/7 79/105/7 77/103/7
f 76/102/7 80/106/7 79/105/7
f 81/107/1 66/88/1 68/90/1
f 66/88/3 69/91/3 67/89/3
f 69/108/5 71/93/5 70/95/5
f 68/90/1 67/89/1 74/97/1
f 67/89/3 70/92/3 73/96/3
f 70/98/8 72/101/8 75/99/8
f 74/97/1 73/96/1 78/109/1
f 73/100/7 75/99/7 77/103/7
f 75/99/7 76/102/7 79/105/7
f 15/18/14 56/73/14 61/80/14
f 17/21/6 51/87/6 56/73/6
f 18/22/4 43/57/4 51/66/4
f 19/24/2 65/85/2 43/57/2
f 16/19/15 15/18/15 61/80/15
f 15/18/6 17/21/6 56/73/6
f 17/23/4 18/22/4 51/66/4
f 18/22/2 19/24/2 43/57/2
f 61/80/13 60/79/13 27/34/13
f 60/79/10 62/81/10 31/39/10
f 62/83/11 63/82/11 35/47/11
f 63/82/12 64/84/12 39/51/12
f 26/33/16 61/80/16 27/34/16
f 27/34/10 60/79/10 31/39/10
f 31/46/11 62/83/11 35/47/11
f 35/47/12 63/82/12 39/51/12
f 3/3/1 66/88/1 81/107/1
f 11/12/3 69/91/3 66/88/3
f 16/19/5 71/93/5 69/108/5
f 61/80/16 26/33/16 71/93/16
f 26/33/9 24/53/9 72/94/9
f 24/31/8 21/28/8 76/102/8
f 21/28/7 40/52/7 80/106/7
f 20/25/1 3/3/1 81/107/1
f 3/3/3 11/12/3 66/88/3
f 11/27/5 16/19/5 69/108/5
f 16/19/15 61/80/15 71/93/15
f 71/93/9 26/33/9 72/94/9
f 72/101/8 24/31/8 76/102/8
f 76/102/7 21/28/7 80/106/7
